<svg width="157" height="114" viewBox="0 0 157 114" fill="none" xmlns="http://www.w3.org/2000/svg">
<path d="M106.329 0.271973H39.7496C35.9457 0.271973 32.8621 3.35563 32.8621 7.15951V55.3722C32.8621 59.1761 35.9457 62.2598 39.7496 62.2598H106.329C110.133 62.2598 113.217 59.1761 113.217 55.3722V7.15951C113.217 3.35563 110.133 0.271973 106.329 0.271973Z" fill="#190905"/>
<path d="M69.7161 15.5966H65.222L65.3138 15.0685C65.5778 14.9709 65.8419 14.8906 66.0944 14.8217C66.3469 14.7528 66.6167 14.6897 66.8979 14.6323L68.6084 6.44188L69.1536 4.31247H68.9929L68.0114 6.25821L62.2661 15.5966H61.7954L60.217 6.25821L60.0162 4.12882H59.8784L59.4078 6.44188L57.6801 14.6323C57.8982 14.6782 58.1163 14.7413 58.3344 14.816C58.5525 14.8906 58.7649 14.9709 58.9715 15.0685L58.8625 15.5966H55.0571L55.149 15.0685C55.6368 14.8619 56.1591 14.7127 56.7331 14.6151L59.006 3.84184C58.7649 3.79592 58.5181 3.73278 58.2771 3.65242C58.036 3.57207 57.8121 3.48598 57.6055 3.3884L57.7146 2.86035H61.4912L62.7826 11.1771L63.0007 13.0539H63.018L63.965 11.1426L69.0905 2.86035H72.4424L72.3161 3.3884C71.8397 3.59503 71.3519 3.74426 70.8411 3.84184L68.5452 14.6553C68.7863 14.7012 69.0159 14.7643 69.2397 14.8274C69.4578 14.8963 69.653 14.9767 69.8251 15.0742L69.7333 15.6023L69.7161 15.5966Z" fill="#E6F4D1"/>
<path d="M78.1476 13.9722C78.0385 14.2018 77.8836 14.4256 77.677 14.6437C77.4703 14.8618 77.2293 15.057 76.948 15.2349C76.6668 15.4129 76.3511 15.5506 76.001 15.6539C75.6509 15.7572 75.272 15.8089 74.8703 15.8089C73.8601 15.8089 73.091 15.5219 72.5515 14.9422C72.012 14.3682 71.7422 13.5704 71.7422 12.5488C71.7422 11.6879 71.8627 10.8728 72.1038 10.1095C72.3448 9.34609 72.6892 8.67455 73.1254 8.10633C73.5616 7.5381 74.0954 7.08467 74.7153 6.75751C75.3409 6.43036 76.0354 6.26392 76.7988 6.26392C77.3785 6.26392 77.8836 6.41315 78.3026 6.71161C78.7216 7.01006 78.9282 7.44627 78.9282 8.03171C78.9282 8.89265 78.4977 9.57567 77.6425 10.0693C76.7873 10.5686 75.4041 10.89 73.5043 11.0335C73.4583 11.2402 73.4239 11.441 73.4067 11.6362C73.3895 11.8313 73.378 12.0207 73.378 12.1987C73.378 12.9276 73.5616 13.5188 73.9347 13.9837C74.3021 14.4429 74.8473 14.6782 75.5648 14.6782C75.7944 14.6782 76.0239 14.6437 76.2478 14.5691C76.4716 14.4945 76.684 14.4027 76.8849 14.2936C77.0858 14.1846 77.2694 14.0698 77.4301 13.9493C77.5966 13.8287 77.7343 13.7197 77.8606 13.6221L78.1533 13.9665L78.1476 13.9722ZM76.2363 7.0732C75.714 7.08468 75.2319 7.32574 74.7784 7.80213C74.3308 8.27852 73.9462 9.0878 73.6305 10.2415C74.8071 10.207 75.7255 10.0061 76.3798 9.63881C77.0341 9.27148 77.3613 8.76638 77.3613 8.1178C77.3613 7.86526 77.2867 7.62993 77.1317 7.41757C76.9825 7.19946 76.6783 7.09042 76.2306 7.0732H76.2363Z" fill="#E6F4D1"/>
<path d="M85.6263 12.0265C85.4713 12.4627 85.2704 12.9047 85.0236 13.3524C84.7826 13.8001 84.5071 14.2076 84.1971 14.5692C83.8872 14.9308 83.5486 15.2292 83.1755 15.4588C82.8024 15.6884 82.4064 15.8032 81.9817 15.8032C80.7189 15.8032 80.0876 14.8791 80.0876 13.0367C80.0876 12.1758 80.2081 11.3435 80.4492 10.5342C80.6902 9.72495 81.0461 9.01323 81.5053 8.38761C81.9644 7.76199 82.5269 7.26265 83.1812 6.88383C83.8356 6.51076 84.5817 6.32135 85.4197 6.32135C85.7354 6.32135 85.9707 6.34431 86.1314 6.38449C86.2864 6.42467 86.4873 6.50502 86.7341 6.61407L87.4285 3.17605L86.1544 3.0096V2.55616C86.338 2.48155 86.5389 2.41268 86.757 2.34954C86.9751 2.28067 87.2047 2.22327 87.44 2.16587C87.6753 2.10848 87.9164 2.06257 88.1575 2.01091C88.3985 1.96499 88.6224 1.92481 88.829 1.90186L89.2136 2.04535L86.7226 14.5692H88.0542V15.0341C87.8131 15.2292 87.5204 15.3899 87.1817 15.5162C86.8431 15.6425 86.5102 15.6999 86.1831 15.6999C85.8329 15.6999 85.5804 15.6253 85.4254 15.4703C85.2762 15.3211 85.1958 15.1604 85.1958 14.9882C85.1958 14.7701 85.236 14.4142 85.3221 13.9149C85.4082 13.4155 85.5345 12.7841 85.7067 12.0208H85.632L85.6263 12.0265ZM82.7508 14.684C83.0779 14.684 83.4051 14.529 83.7322 14.2191C84.0594 13.9091 84.3693 13.536 84.662 13.0998C84.9548 12.6636 85.2131 12.2102 85.4426 11.7395C85.6722 11.2689 85.8559 10.8729 85.9879 10.5572L86.5676 7.45205C86.3839 7.33152 86.2175 7.25117 86.0683 7.20525C85.919 7.16507 85.7009 7.13639 85.4197 7.12491C84.84 7.13639 84.3177 7.31431 83.8528 7.65869C83.3936 8.00306 83.0033 8.44501 82.6876 8.98453C82.3719 9.52406 82.1309 10.1267 81.9702 10.7925C81.8037 11.4583 81.7234 12.1126 81.7234 12.7555C81.7234 13.3983 81.798 13.846 81.953 14.1789C82.1022 14.5118 82.3662 14.6782 82.745 14.6782L82.7508 14.684Z" fill="#E6F4D1"/>
<path d="M90.2869 7.38337V6.92995C90.4705 6.85534 90.6772 6.78071 90.9067 6.70035C91.1363 6.62 91.3716 6.55113 91.6184 6.49374C91.8595 6.4306 92.0891 6.37895 92.3129 6.33877C92.5311 6.2986 92.7262 6.27563 92.8926 6.27563L93.2198 6.49374L91.5094 14.5751H92.8582V15.0515C92.6057 15.2466 92.3072 15.4016 91.9686 15.5222C91.6299 15.6427 91.297 15.7058 90.9699 15.7058C90.6198 15.7058 90.3672 15.6255 90.2122 15.4705C90.063 15.3155 89.9827 15.1318 89.9827 14.9252C89.9827 14.6841 89.9999 14.4431 90.04 14.2135C90.0745 13.9839 90.1261 13.7257 90.1835 13.4502L91.4577 7.57279L90.2926 7.38911L90.2869 7.38337ZM91.7619 3.3427C91.7619 3.02702 91.8595 2.7802 92.0547 2.59654C92.2498 2.41287 92.5024 2.32104 92.818 2.32104C93.1567 2.32104 93.4264 2.41287 93.6216 2.59654C93.8167 2.7802 93.9143 3.02702 93.9143 3.3427C93.9143 3.65837 93.8167 3.88221 93.6216 4.0544C93.4264 4.22659 93.1624 4.30695 92.818 4.30695C92.5024 4.30695 92.2498 4.22085 92.0547 4.0544C91.8595 3.88221 91.7619 3.64689 91.7619 3.3427Z" fill="#E6F4D1"/>
<path d="M99.608 7.60124C99.2923 7.72177 98.9365 8.03171 98.5404 8.51958C98.1444 9.00745 97.7943 9.67322 97.4958 10.5112L96.4053 15.5908H94.8384L96.5316 7.54384L95.4238 7.3774V6.92397C95.8371 6.72882 96.2675 6.57959 96.7152 6.47628C97.1629 6.37297 97.5704 6.30409 97.932 6.26392L98.2936 6.48202L97.7828 8.90412H97.8574C98.2075 8.10058 98.638 7.4635 99.1488 6.98137C99.6597 6.50498 100.205 6.26392 100.785 6.26392C100.94 6.26392 101.1 6.28113 101.261 6.30983C101.416 6.33852 101.571 6.39593 101.714 6.48202C101.714 6.59108 101.697 6.73457 101.657 6.9125C101.623 7.09042 101.571 7.26833 101.502 7.452C101.433 7.63567 101.364 7.80787 101.284 7.96858C101.204 8.13503 101.123 8.25556 101.037 8.34165L99.5965 7.59549L99.608 7.60124Z" fill="#E6F4D1"/>
<path d="M16.7222 31.6674V31.7535C16.7222 32.5685 16.6419 33.1999 16.4754 33.6475C16.3147 34.0895 16.0794 34.4396 15.7752 34.6979C15.471 34.9505 15.1094 35.2088 14.6904 35.4728C14.3116 35.6966 13.9902 35.9951 13.7319 36.3682C13.4736 36.7412 13.3416 37.1832 13.3416 37.6997C13.3416 38.1187 13.4392 38.4861 13.6401 38.7903C13.841 39.1002 14.105 39.3355 14.4379 39.5077C14.7708 39.6742 15.1381 39.7603 15.5514 39.7603C15.9015 39.7603 16.2401 39.6856 16.5673 39.5421C16.8944 39.3987 17.1699 39.1691 17.388 38.8534C17.6119 38.5377 17.7382 38.1302 17.7726 37.6251H19.3912C19.3625 38.3541 19.1731 38.9797 18.8287 39.4962C18.4843 40.0128 18.0251 40.4146 17.4569 40.6901C16.8887 40.9656 16.2516 41.109 15.5571 41.109C14.7995 41.109 14.1394 40.9598 13.5769 40.6556C13.0145 40.3514 12.5783 39.9382 12.2683 39.4159C11.9584 38.8936 11.8034 38.2967 11.8034 37.6251C11.8034 36.9019 11.9641 36.2878 12.2798 35.777C12.5955 35.2661 13.0374 34.8414 13.5999 34.497C13.9845 34.2617 14.2944 34.0379 14.524 33.8198C14.7536 33.6074 14.92 33.3434 15.0291 33.0277C15.1381 32.712 15.184 32.2873 15.184 31.7592V31.6732H16.728L16.7222 31.6674ZM15.9302 27.5808C16.2516 27.5808 16.5271 27.6956 16.7509 27.9252C16.9805 28.1548 17.0953 28.4303 17.0953 28.7459C17.0953 29.0616 16.9805 29.3428 16.7509 29.5667C16.5214 29.7963 16.2459 29.9111 15.9302 29.9111C15.6145 29.9111 15.3333 29.7963 15.1094 29.5667C14.8798 29.3371 14.765 29.0616 14.765 28.7459C14.765 28.4303 14.8798 28.1548 15.1094 27.9252C15.339 27.6956 15.6088 27.5808 15.9302 27.5808Z" fill="#E6F4D1"/>
<path d="M26.1984 37.763C25.0734 37.763 24.069 37.4875 23.1851 36.9365C22.3012 36.3855 21.6067 35.5992 21.1074 34.5833C20.6023 33.5674 20.3497 32.3621 20.3497 30.9673C20.3497 29.5726 20.6023 28.3615 21.1074 27.3399C21.6124 26.3182 22.3069 25.5377 23.1851 24.9867C24.069 24.4357 25.0734 24.1602 26.1984 24.1602C26.8642 24.1602 27.4898 24.2577 28.081 24.4529C28.6722 24.648 29.2002 24.9293 29.6766 25.3023C30.153 25.6754 30.5433 26.1288 30.8647 26.6626C31.1804 27.1964 31.3985 27.8048 31.519 28.4821H29.9177C29.8201 28.0172 29.6594 27.6154 29.4241 27.2653C29.1887 26.9152 28.9075 26.6224 28.5689 26.3814C28.236 26.1403 27.8629 25.9624 27.4611 25.8419C27.0593 25.7213 26.6403 25.6582 26.1984 25.6582C25.4006 25.6582 24.6717 25.8591 24.0231 26.2666C23.3688 26.6741 22.8522 27.271 22.4734 28.0631C22.0888 28.8552 21.8994 29.8252 21.8994 30.9731C21.8994 32.121 22.0888 33.0852 22.4734 33.8716C22.8579 34.6579 23.3745 35.2548 24.0231 35.6623C24.6774 36.0698 25.4006 36.2707 26.1984 36.2707C26.6346 36.2707 27.0593 36.2076 27.4611 36.0871C27.8629 35.9665 28.2302 35.7829 28.5689 35.5476C28.9017 35.3065 29.1887 35.0138 29.4241 34.6636C29.6594 34.3135 29.8201 33.906 29.9177 33.4468H31.519C31.3985 34.1299 31.1804 34.7382 30.8647 35.2663C30.549 35.8001 30.153 36.2535 29.6766 36.6209C29.2002 36.9939 28.6722 37.2752 28.081 37.4703C27.4898 37.6655 26.8642 37.763 26.1984 37.763Z" fill="#E6F4D1"/>
<path d="M37.0749 37.8032C36.1795 37.8032 35.3932 37.5908 34.7217 37.1604C34.0444 36.7356 33.5221 36.133 33.1433 35.3639C32.7645 34.5947 32.5808 33.6994 32.5808 32.6777C32.5808 31.6561 32.7702 30.7377 33.1433 29.9629C33.5221 29.188 34.0444 28.5911 34.7217 28.1606C35.399 27.7359 36.1795 27.5178 37.0749 27.5178C37.9703 27.5178 38.7624 27.7301 39.4396 28.1606C40.1169 28.5853 40.645 29.188 41.0238 29.9629C41.4026 30.7377 41.592 31.6388 41.592 32.6777C41.592 33.7166 41.4026 34.589 41.0238 35.3639C40.645 36.1387 40.1169 36.7299 39.4396 37.1604C38.7624 37.5908 37.976 37.8032 37.0749 37.8032ZM37.0749 36.4314C37.7637 36.4314 38.3262 36.2592 38.7624 35.9091C39.1986 35.559 39.5257 35.0998 39.7381 34.5259C39.9505 33.9519 40.0595 33.3377 40.0595 32.6834C40.0595 32.0291 39.9505 31.392 39.7381 30.8181C39.5257 30.2441 39.1986 29.7792 38.7624 29.4291C38.3262 29.079 37.7579 28.901 37.0749 28.901C36.3919 28.901 35.8409 29.079 35.4047 29.4291C34.9685 29.7792 34.6413 30.2441 34.429 30.8181C34.2166 31.392 34.1075 32.0176 34.1075 32.6834C34.1075 33.3492 34.2166 33.9576 34.429 34.5259C34.6413 35.0998 34.9685 35.559 35.4047 35.9091C35.8409 36.2592 36.3977 36.4314 37.0749 36.4314ZM36.3288 26.4043L37.5743 23.9707H39.2962L37.5915 26.4043H36.3288Z" fill="#E6F4D1"/>
<path d="M43.0671 37.5852V27.65H44.5249V29.2169H44.6684C44.8751 28.6831 45.2079 28.2698 45.6729 27.9714C46.1378 27.6729 46.6888 27.5294 47.3374 27.5294C47.9859 27.5294 48.5312 27.6787 48.9674 27.9714C49.4036 28.2698 49.7422 28.6831 49.9833 29.2169H50.0924C50.3506 28.7003 50.7352 28.2928 51.246 27.9828C51.7511 27.6786 52.3595 27.5237 53.0655 27.5237C53.9551 27.5237 54.684 27.7992 55.2523 28.3559C55.8205 28.9127 56.1075 29.7736 56.1075 30.9388V37.5852H54.5807V30.9388C54.5807 30.2041 54.3798 29.6818 53.9781 29.3661C53.5763 29.0504 53.0999 28.8955 52.5547 28.8955C51.8602 28.8955 51.3206 29.1078 50.9418 29.5325C50.5573 29.9573 50.3679 30.4853 50.3679 31.1167V37.5852H48.8009V30.778C48.8009 30.2155 48.6173 29.7622 48.2614 29.412C47.8998 29.0677 47.4292 28.8897 46.8495 28.8897C46.4534 28.8897 46.0804 28.9988 45.736 29.2111C45.3916 29.4235 45.1161 29.7162 44.9038 30.0893C44.6914 30.4624 44.5881 30.8929 44.5881 31.3807V37.5852H43.0786H43.0671Z" fill="#E6F4D1"/>
<path d="M62.071 37.8032C61.1756 37.8032 60.3893 37.5909 59.7177 37.1604C59.0404 36.7357 58.5181 36.133 58.1393 35.3639C57.7605 34.5948 57.5768 33.6994 57.5768 32.6778C57.5768 31.6561 57.7662 30.7378 58.1393 29.9629C58.5181 29.1881 59.0404 28.5911 59.7177 28.1607C60.395 27.7359 61.1756 27.5178 62.071 27.5178C62.9663 27.5178 63.7584 27.7302 64.4357 28.1607C65.113 28.5854 65.641 29.1881 66.0198 29.9629C66.3986 30.7378 66.588 31.6389 66.588 32.6778C66.588 33.7166 66.3986 34.5891 66.0198 35.3639C65.641 36.1387 65.113 36.7299 64.4357 37.1604C63.7584 37.5909 62.9721 37.8032 62.071 37.8032ZM62.071 36.4315C62.7597 36.4315 63.3222 36.2592 63.7584 35.9091C64.1946 35.559 64.5218 35.0999 64.7341 34.5259C64.9465 33.9519 65.0556 33.3378 65.0556 32.6835C65.0556 32.0292 64.9465 31.3921 64.7341 30.8181C64.5218 30.2441 64.1946 29.7792 63.7584 29.4291C63.3222 29.079 62.754 28.9011 62.071 28.9011C61.3879 28.9011 60.8369 29.079 60.4007 29.4291C59.9645 29.7792 59.6374 30.2441 59.425 30.8181C59.2126 31.3921 59.1036 32.0177 59.1036 32.6835C59.1036 33.3493 59.2126 33.9577 59.425 34.5259C59.6374 35.0999 59.9645 35.559 60.4007 35.9091C60.8369 36.2592 61.3937 36.4315 62.071 36.4315Z" fill="#E6F4D1"/>
<path d="M72.3277 41.3046V27.6501H73.7856V29.2342H73.9635C74.0783 29.062 74.2332 28.8439 74.4341 28.5742C74.635 28.3044 74.9277 28.0633 75.3066 27.851C75.6854 27.6386 76.1962 27.5295 76.8448 27.5295C77.6828 27.5295 78.4174 27.7362 79.0488 28.1552C79.6801 28.5742 80.1795 29.1653 80.5353 29.9344C80.8912 30.7035 81.0749 31.6047 81.0749 32.6493C81.0749 33.6939 80.8969 34.6065 80.5411 35.3813C80.1852 36.1562 79.6916 36.7531 79.0545 37.1721C78.4232 37.5911 77.6885 37.8035 76.862 37.8035C76.2306 37.8035 75.7198 37.6944 75.3353 37.4763C74.9507 37.2582 74.6522 37.0171 74.4456 36.7359C74.239 36.4546 74.0783 36.2308 73.9635 36.0586H73.8372V41.3046H72.3277ZM76.6611 36.4317C77.2925 36.4317 77.8263 36.2595 78.251 35.9209C78.6757 35.5822 78.9971 35.123 79.2152 34.5491C79.4333 33.9751 79.5366 33.3323 79.5366 32.6321C79.5366 31.9318 79.4276 31.3005 79.2152 30.738C79.0029 30.1755 78.6814 29.7278 78.2567 29.3949C77.832 29.062 77.2982 28.8956 76.6554 28.8956C76.0125 28.8956 75.5132 29.0505 75.0884 29.3605C74.6695 29.6704 74.348 30.1066 74.1299 30.6691C73.9118 31.2316 73.8028 31.8802 73.8028 32.6263C73.8028 33.3725 73.9118 34.0325 74.1299 34.6065C74.348 35.1805 74.6695 35.6281 75.0942 35.9495C75.5189 36.271 76.0355 36.4317 76.6439 36.4317H76.6611Z" fill="#E6F4D1"/>
<path d="M86.5676 37.8032C85.6722 37.8032 84.8859 37.5909 84.2144 37.1604C83.5371 36.7357 83.0148 36.133 82.636 35.3639C82.2571 34.5948 82.0735 33.6994 82.0735 32.6778C82.0735 31.6561 82.2629 30.7378 82.636 29.9629C83.0148 29.1881 83.5371 28.5911 84.2144 28.1607C84.8916 27.7359 85.6722 27.5178 86.5676 27.5178C87.463 27.5178 88.255 27.7302 88.9323 28.1607C89.6096 28.5854 90.1376 29.1881 90.5165 29.9629C90.8953 30.7378 91.0847 31.6389 91.0847 32.6778C91.0847 33.7166 90.8953 34.5891 90.5165 35.3639C90.1376 36.133 89.6096 36.7299 88.9323 37.1604C88.255 37.5851 87.4687 37.8032 86.5676 37.8032ZM86.5676 36.4315C87.2563 36.4315 87.8188 36.2592 88.255 35.9091C88.6913 35.559 89.0184 35.0999 89.2308 34.5259C89.4431 33.9519 89.5522 33.3378 89.5522 32.6835C89.5522 32.0292 89.4431 31.3921 89.2308 30.8181C89.0184 30.2441 88.6913 29.7792 88.255 29.4291C87.8188 29.079 87.2563 28.9011 86.5676 28.9011C85.8788 28.9011 85.3336 29.079 84.8974 29.4291C84.4612 29.7792 84.134 30.2441 83.9216 30.8181C83.7093 31.3921 83.6002 32.0177 83.6002 32.6835C83.6002 33.3493 83.7093 33.9577 83.9216 34.5259C84.134 35.0999 84.4612 35.559 84.8974 35.9091C85.3336 36.2592 85.8903 36.4315 86.5676 36.4315Z" fill="#E6F4D1"/>
<path d="M96.2905 37.8031C95.4583 37.8031 94.7294 37.5908 94.0923 37.1718C93.4609 36.7528 92.9615 36.1559 92.6057 35.381C92.2498 34.6062 92.0719 33.6993 92.0719 32.649C92.0719 31.5986 92.2498 30.7032 92.6114 29.9341C92.9673 29.165 93.4666 28.5739 94.098 28.1549C94.7293 27.7359 95.464 27.5292 96.302 27.5292C96.9563 27.5292 97.4671 27.6383 97.8459 27.8506C98.2248 28.063 98.5117 28.3041 98.7126 28.5738C98.9135 28.8436 99.0685 29.0617 99.1833 29.2339H99.3096V24.3438H100.819V37.585H99.3612V36.0583H99.1833C99.0685 36.2362 98.9135 36.4601 98.7012 36.7356C98.4888 37.0111 98.1961 37.2579 97.8173 37.476C97.4384 37.6941 96.9219 37.8031 96.2848 37.8031H96.2905ZM96.4857 36.4314C97.0998 36.4314 97.6221 36.2706 98.0411 35.9492C98.4601 35.6278 98.7815 35.1801 98.9996 34.6062C99.2177 34.0322 99.3268 33.3779 99.3268 32.626C99.3268 31.8741 99.2177 31.2256 99.0054 30.6688C98.793 30.1063 98.4716 29.6758 98.0468 29.3602C97.6221 29.0502 97.0998 28.8953 96.4799 28.8953C95.86 28.8953 95.309 29.0617 94.8786 29.3946C94.4481 29.7275 94.1324 30.1752 93.9201 30.7377C93.7077 31.3002 93.5986 31.9315 93.5986 32.6318C93.5986 33.332 93.7077 33.9748 93.9201 34.5488C94.1382 35.1227 94.4596 35.5819 94.8843 35.9205C95.309 36.2592 95.8428 36.4314 96.4742 36.4314H96.4857Z" fill="#E6F4D1"/>
<path d="M106.937 37.8035C105.985 37.8035 105.158 37.5911 104.464 37.1606C103.769 36.7359 103.23 36.1389 102.857 35.3698C102.484 34.6007 102.294 33.7111 102.294 32.7009C102.294 31.6908 102.478 30.7839 102.845 30.0091C103.212 29.2342 103.729 28.6258 104.395 28.1896C105.061 27.7534 105.841 27.5295 106.737 27.5295C107.253 27.5295 107.764 27.6156 108.275 27.7878C108.786 27.96 109.251 28.2355 109.664 28.6258C110.077 29.0161 110.416 29.5212 110.662 30.1525C110.909 30.7839 111.036 31.5645 111.036 32.4886V33.1486H103.373V31.8343H110.209L109.509 32.3336C109.509 31.6678 109.406 31.0823 109.199 30.5658C108.992 30.0492 108.682 29.6474 108.269 29.349C107.856 29.0505 107.345 28.9071 106.737 28.9071C106.128 28.9071 105.606 29.0563 105.17 29.3547C104.733 29.6532 104.401 30.0435 104.171 30.5256C103.941 31.0078 103.827 31.5186 103.827 32.0696V32.942C103.827 33.6939 103.959 34.331 104.217 34.8533C104.475 35.3756 104.843 35.7716 105.307 36.0414C105.778 36.3112 106.318 36.4432 106.932 36.4432C107.328 36.4432 107.689 36.3858 108.017 36.271C108.344 36.1562 108.625 35.9783 108.86 35.7487C109.096 35.5133 109.279 35.2264 109.4 34.882L110.875 35.3067C110.72 35.8061 110.462 36.2423 110.1 36.6154C109.738 36.9942 109.285 37.2869 108.745 37.4935C108.206 37.7059 107.603 37.8092 106.932 37.8092L106.937 37.8035Z" fill="#E6F4D1"/>
<path d="M112.482 37.5852V27.65H113.94V29.2169H114.083C114.29 28.6831 114.623 28.2698 115.088 27.9714C115.553 27.6729 116.104 27.5294 116.752 27.5294C117.401 27.5294 117.946 27.6787 118.382 27.9714C118.818 28.2698 119.157 28.6831 119.398 29.2169H119.507C119.766 28.7003 120.15 28.2928 120.661 27.9828C121.166 27.6786 121.774 27.5237 122.48 27.5237C123.37 27.5237 124.099 27.7992 124.667 28.3559C125.235 28.9127 125.522 29.7736 125.522 30.9388V37.5852H123.996V30.9388C123.996 30.2041 123.795 29.6818 123.393 29.3661C122.991 29.0504 122.515 28.8955 121.97 28.8955C121.275 28.8955 120.735 29.1078 120.357 29.5325C119.972 29.9573 119.783 30.4853 119.783 31.1167V37.5852H118.216V30.778C118.216 30.2155 118.032 29.7622 117.676 29.412C117.315 29.0677 116.844 28.8897 116.264 28.8897C115.868 28.8897 115.495 28.9988 115.151 29.2111C114.806 29.4235 114.531 29.7162 114.319 30.0893C114.106 30.4624 114.003 30.8929 114.003 31.3807V37.5852H112.493H112.482Z" fill="#E6F4D1"/>
<path d="M131.486 37.8032C130.59 37.8032 129.804 37.5909 129.133 37.1604C128.455 36.7357 127.933 36.133 127.554 35.3639C127.175 34.5948 126.992 33.6994 126.992 32.6778C126.992 31.6561 127.181 30.7378 127.554 29.9629C127.933 29.1881 128.455 28.5911 129.133 28.1607C129.81 27.7359 130.59 27.5178 131.486 27.5178C132.381 27.5178 133.173 27.7302 133.851 28.1607C134.528 28.5854 135.056 29.1881 135.435 29.9629C135.813 30.7378 136.003 31.6389 136.003 32.6778C136.003 33.7166 135.813 34.5891 135.435 35.3639C135.056 36.1387 134.528 36.7299 133.851 37.1604C133.173 37.5909 132.387 37.8032 131.486 37.8032ZM131.486 36.4315C132.175 36.4315 132.737 36.2592 133.173 35.9091C133.609 35.559 133.937 35.0999 134.149 34.5259C134.361 33.9519 134.47 33.3378 134.47 32.6835C134.47 32.0292 134.361 31.3921 134.149 30.8181C133.937 30.2441 133.609 29.7792 133.173 29.4291C132.737 29.079 132.169 28.9011 131.486 28.9011C130.803 28.9011 130.252 29.079 129.816 29.4291C129.379 29.7792 129.052 30.2441 128.84 30.8181C128.627 31.3921 128.518 32.0177 128.518 32.6835C128.518 33.3493 128.627 33.9577 128.84 34.5259C129.052 35.0999 129.379 35.559 129.816 35.9091C130.252 36.2592 130.809 36.4315 131.486 36.4315Z" fill="#E6F4D1"/>
<path d="M144.497 29.8884L143.131 30.2615C142.999 29.9229 142.776 29.6014 142.46 29.2972C142.144 28.993 141.651 28.8381 140.979 28.8381C140.376 28.8381 139.871 28.9816 139.47 29.2628C139.068 29.544 138.867 29.8941 138.867 30.3131C138.867 30.6919 139.005 30.9961 139.28 31.22C139.556 31.4438 139.986 31.6275 140.572 31.771L142.047 32.1269C142.931 32.3392 143.591 32.6664 144.027 33.1141C144.463 33.5617 144.681 34.1242 144.681 34.813C144.681 35.3812 144.52 35.892 144.193 36.3397C143.866 36.7931 143.413 37.1433 142.833 37.4073C142.253 37.6656 141.576 37.7976 140.807 37.7976C139.791 37.7976 138.959 37.5737 138.299 37.1318C137.639 36.6898 137.22 36.047 137.042 35.2033L138.482 34.8474C138.62 35.3812 138.878 35.783 139.269 36.047C139.659 36.311 140.164 36.4488 140.795 36.4488C141.501 36.4488 142.064 36.2938 142.489 35.9896C142.913 35.6854 143.126 35.3238 143.126 34.8991C143.126 34.1989 142.632 33.734 141.651 33.4929L139.998 33.1026C139.085 32.8845 138.414 32.5516 137.989 32.0982C137.564 31.6505 137.352 31.0822 137.352 30.3992C137.352 29.8368 137.512 29.3374 137.828 28.9069C138.144 28.4765 138.58 28.1378 139.131 27.891C139.682 27.6442 140.302 27.5237 140.996 27.5237C141.984 27.5237 142.758 27.7418 143.321 28.178C143.883 28.6142 144.279 29.1824 144.515 29.8884H144.497Z" fill="#E6F4D1"/>
<path d="M0.0200195 59.5794V49.6441H1.47788V51.2053H1.62137C1.828 50.6715 2.1609 50.2582 2.6258 49.9598C3.08497 49.6613 3.64172 49.5178 4.29029 49.5178C4.93887 49.5178 5.48413 49.6671 5.92034 49.9598C6.35655 50.2582 6.69519 50.6715 6.93625 51.2053H7.04531C7.30359 50.6887 7.68815 50.2812 8.19897 49.977C8.70406 49.6728 9.31245 49.5178 10.0184 49.5178C10.9081 49.5178 11.637 49.7933 12.2052 50.3501C12.7734 50.9068 13.0604 51.762 13.0604 52.9329V59.5794H11.5337V52.9329C11.5337 52.1982 11.3328 51.6759 10.931 51.3603C10.5293 51.0446 10.0529 50.8896 9.5076 50.8896C8.81311 50.8896 8.27358 51.102 7.89477 51.5267C7.51021 51.9514 7.32081 52.4795 7.32081 53.1108V59.5794H5.7539V52.7722C5.7539 52.2097 5.57023 51.7563 5.21437 51.4061C4.85277 51.0618 4.38213 50.8839 3.80243 50.8839C3.40639 50.8839 3.03332 50.9929 2.68894 51.2053C2.34456 51.4176 2.06906 51.7104 1.8567 52.0834C1.64433 52.4565 1.54102 52.887 1.54102 53.3749V59.5794H0.0315012H0.0200195Z" fill="#E6F4D1"/>
<path d="M19.1673 59.7916C18.2146 59.7916 17.3881 59.5792 16.6936 59.1545C15.9991 58.7298 15.4653 58.1328 15.0922 57.3637C14.7191 56.5946 14.5297 55.705 14.5297 54.6948C14.5297 53.6847 14.7134 52.7778 15.0807 52.003C15.4481 51.2281 15.9646 50.6197 16.6304 50.1835C17.2962 49.7473 18.0768 49.5234 18.9722 49.5234C19.4887 49.5234 19.9996 49.6095 20.5104 49.7817C21.0212 49.9539 21.4861 50.2351 21.8994 50.6197C22.3126 51.0042 22.6513 51.5151 22.8981 52.1464C23.1449 52.7778 23.2712 53.5584 23.2712 54.4825V55.1425H15.6088V53.8281H22.4446L21.7444 54.3275C21.7444 53.6617 21.6411 53.0762 21.4345 52.5597C21.2279 52.0431 20.9179 51.6356 20.5047 51.3429C20.0914 51.0444 19.5806 50.901 18.9722 50.901C18.3638 50.901 17.8415 51.0502 17.4053 51.3486C16.9691 51.6471 16.6362 52.0374 16.4066 52.5195C16.177 53.0016 16.0622 53.5125 16.0622 54.0635V54.9359C16.0622 55.6878 16.1942 56.3249 16.4525 56.8472C16.7108 57.3695 17.0781 57.7655 17.543 58.0353C18.0137 58.3051 18.5532 58.437 19.1673 58.437C19.5634 58.437 19.925 58.3796 20.2521 58.2649C20.5793 58.1501 20.8605 57.9779 21.0958 57.7426C21.3312 57.5072 21.5148 57.2203 21.6411 56.8759L23.1162 57.3006C22.9612 57.8 22.7029 58.2362 22.3413 58.6093C21.974 58.9881 21.5263 59.2808 20.9868 59.4874C20.4473 59.6998 19.8446 59.8031 19.1731 59.8031L19.1673 59.7916Z" fill="#E6F4D1"/>
<path d="M28.4426 59.7917C27.6104 59.7917 26.8814 59.5793 26.2501 59.1603C25.613 58.7413 25.1194 58.1444 24.7635 57.3695C24.4077 56.5947 24.2297 55.6821 24.2297 54.6375C24.2297 53.5929 24.4077 52.6918 24.7693 51.9227C25.1309 51.1535 25.6245 50.5624 26.2558 50.1434C26.8872 49.7244 27.6219 49.5178 28.4598 49.5178C29.1142 49.5178 29.625 49.6268 30.0038 49.8392C30.3826 50.0515 30.6696 50.2926 30.8705 50.5624C31.0714 50.8321 31.2263 51.0502 31.3411 51.2224H31.4674V46.3323H32.9769V59.5736H31.519V58.0468H31.3411C31.2263 58.2247 31.0656 58.4543 30.859 58.7298C30.6524 59.0053 30.3596 59.2521 29.9751 59.4703C29.5905 59.6884 29.0797 59.7917 28.4426 59.7917ZM28.6378 58.4256C29.2519 58.4256 29.7742 58.2649 30.1932 57.9435C30.6122 57.6221 30.9336 57.1744 31.1517 56.6004C31.3698 56.0265 31.4789 55.3722 31.4789 54.6203C31.4789 53.8684 31.3698 53.2198 31.1575 52.6573C30.9451 52.0949 30.6237 51.6644 30.1989 51.3487C29.7742 51.033 29.2519 50.8838 28.632 50.8838C28.0121 50.8838 27.4611 51.0502 27.0307 51.3831C26.6002 51.716 26.2845 52.1637 26.0722 52.7262C25.8598 53.2887 25.7507 53.92 25.7507 54.6203C25.7507 55.3205 25.8598 55.9633 26.0722 56.5373C26.2845 57.1112 26.6117 57.5704 27.0364 57.9091C27.4611 58.2477 27.9949 58.4199 28.6263 58.4199L28.6378 58.4256Z" fill="#E6F4D1"/>
<path d="M35.6975 47.9911C35.399 47.9911 35.1465 47.8878 34.9341 47.6869C34.7217 47.486 34.6127 47.2449 34.6127 46.9579C34.6127 46.6709 34.7217 46.4299 34.9341 46.229C35.1465 46.0281 35.4047 45.9248 35.6975 45.9248C35.9902 45.9248 36.2485 46.0281 36.4608 46.229C36.6732 46.4299 36.7823 46.6709 36.7823 46.9579C36.7823 47.2449 36.6732 47.486 36.4608 47.6869C36.2485 47.8878 35.9902 47.9911 35.6975 47.9911ZM34.9341 59.5794V49.6441H36.4436V59.5794H34.9341Z" fill="#E6F4D1"/>
<path d="M38.4008 59.5795V49.6442H39.8586V51.1537H39.9677C40.1513 50.6601 40.4842 50.2641 40.9606 49.9599C41.437 49.6557 41.9708 49.5007 42.5677 49.5007C42.6825 49.5007 42.8203 49.5007 42.9867 49.5007C43.1532 49.5007 43.2794 49.5064 43.3713 49.5122V51.0561C43.3196 51.0447 43.1991 51.0275 43.0154 51.0045C42.8317 50.9815 42.6366 50.9701 42.43 50.9701C41.9478 50.9701 41.5231 51.0734 41.1386 51.2743C40.7597 51.4751 40.4613 51.7506 40.2432 52.1008C40.0251 52.4509 39.916 52.8527 39.916 53.3004V59.5737H38.4065L38.4008 59.5795Z" fill="#E6F4D1"/>
<path d="M45.8279 53.61V59.585H44.3184V49.6497H45.7762V51.2109H45.9197C46.1493 50.7001 46.5052 50.2925 46.9758 49.9826C47.4522 49.6727 48.0606 49.5234 48.8182 49.5234C49.4897 49.5234 50.0752 49.6612 50.5803 49.931C51.0854 50.2007 51.4757 50.6197 51.7569 51.1707C52.0381 51.7274 52.1816 52.4277 52.1816 53.2714V59.585H50.6721V53.3804C50.6721 52.6056 50.4655 51.9972 50.058 51.5552C49.6505 51.1133 49.0937 50.8952 48.3877 50.8952C47.8999 50.8952 47.4637 51.0043 47.0791 51.2166C46.6946 51.429 46.3904 51.7389 46.1665 52.1407C45.9427 52.5425 45.8336 53.0361 45.8336 53.6158L45.8279 53.61Z" fill="#E6F4D1"/>
<path d="M58.1508 59.7917C57.2554 59.7917 56.4691 59.5793 55.7976 59.1546C55.1203 58.7299 54.598 58.1273 54.2192 57.3582C53.8403 56.589 53.6567 55.6936 53.6567 54.672C53.6567 53.6503 53.8461 52.732 54.2192 51.9572C54.598 51.1823 55.1203 50.5854 55.7976 50.1549C56.4748 49.7302 57.2554 49.5178 58.1508 49.5178C59.0462 49.5178 59.8382 49.7302 60.5155 50.1549C61.1928 50.5796 61.7208 51.1823 62.0996 51.9572C62.4785 52.732 62.6679 53.6331 62.6679 54.672C62.6679 55.7109 62.4785 56.5833 62.0996 57.3582C61.7208 58.1273 61.1928 58.7241 60.5155 59.1546C59.8382 59.5793 59.0519 59.7917 58.1508 59.7917ZM58.1508 58.4257C58.8395 58.4257 59.402 58.2535 59.8382 57.9034C60.2745 57.5533 60.6016 57.0941 60.814 56.5202C61.0263 55.9462 61.1354 55.332 61.1354 54.6777C61.1354 54.0234 61.0263 53.3863 60.814 52.8124C60.6016 52.2384 60.2745 51.7735 59.8382 51.4234C59.402 51.0733 58.8395 50.8953 58.1508 50.8953C57.462 50.8953 56.9168 51.0733 56.4806 51.4234C56.0444 51.7735 55.7172 52.2384 55.5048 52.8124C55.2925 53.3863 55.1834 54.0062 55.1834 54.6777C55.1834 55.3493 55.2925 55.9519 55.5048 56.5202C55.7172 57.0941 56.0444 57.5533 56.4806 57.9034C56.9168 58.2535 57.4735 58.4257 58.1508 58.4257Z" fill="#E6F4D1"/>
<path d="M71.1625 51.8825L69.7965 52.2556C69.6644 51.917 69.4406 51.5956 69.1249 51.2914C68.8092 50.9872 68.3156 50.8322 67.6441 50.8322C67.0414 50.8322 66.5364 50.9757 66.1346 51.2569C65.7328 51.5382 65.5319 51.8883 65.5319 52.3073C65.5319 52.6861 65.6697 52.9903 65.9452 53.2141C66.2207 53.438 66.6512 53.6217 67.2366 53.7651L68.7117 54.121C69.5956 54.3334 70.2556 54.6605 70.6918 55.1082C71.128 55.5501 71.3461 56.1184 71.3461 56.8071C71.3461 57.3754 71.1854 57.8862 70.8583 58.3339C70.5311 58.7873 70.0777 59.1374 69.498 59.4015C68.9183 59.6597 68.241 59.7917 67.4719 59.7917C66.456 59.7917 65.6238 59.5679 64.9637 59.1259C64.3036 58.684 63.8847 58.0411 63.7067 57.1974L65.1474 56.8416C65.2851 57.3754 65.5434 57.7771 65.9337 58.0411C66.324 58.3052 66.8291 58.4429 67.4604 58.4429C68.1664 58.4429 68.7289 58.2879 69.1536 57.9837C69.5784 57.6796 69.7907 57.3179 69.7907 56.8932C69.7907 56.193 69.2971 55.7281 68.3156 55.487L66.6626 55.0967C65.75 54.8786 65.0785 54.5457 64.6538 54.0923C64.229 53.6446 64.0167 53.0764 64.0167 52.3934C64.0167 51.8309 64.1774 51.3316 64.4931 50.9011C64.8087 50.4706 65.2449 50.132 65.7959 49.8852C66.3469 49.6384 66.9668 49.5178 67.6613 49.5178C68.6485 49.5178 69.4234 49.7359 69.9859 50.1721C70.5483 50.6084 70.9444 51.1766 71.1797 51.8825H71.1625Z" fill="#E6F4D1"/>
<path d="M78.0385 63.2927C77.7803 63.2984 77.5449 63.2812 77.3441 63.2411C77.1432 63.2009 76.9997 63.1607 76.9193 63.1148L77.3096 61.7832L77.4588 61.8176C77.9697 61.9382 78.3944 61.9095 78.7445 61.743C79.0946 61.5766 79.3931 61.1289 79.6571 60.4114L79.9441 59.6308L76.2822 49.6382H77.9352L80.673 57.5646H80.7821L83.5199 49.6382H85.1729L80.96 61.0141C80.7706 61.5307 80.5353 61.9554 80.2598 62.294C79.9785 62.6327 79.6571 62.8852 79.2898 63.0459C78.9225 63.2066 78.5092 63.2927 78.0443 63.2927H78.0385Z" fill="#E6F4D1"/>
<path d="M90.6083 59.5794V49.6441H92.0661V51.2053H92.2096C92.4163 50.6715 92.7492 50.2582 93.2141 49.9598C93.679 49.6613 94.23 49.5178 94.8785 49.5178C95.5271 49.5178 96.0724 49.6671 96.5086 49.9598C96.9448 50.2582 97.2834 50.6715 97.5245 51.2053H97.6336C97.8918 50.6887 98.2764 50.2812 98.7872 49.977C99.2923 49.6728 99.9007 49.5178 100.607 49.5178C101.496 49.5178 102.225 49.7933 102.793 50.3501C103.362 50.9068 103.649 51.762 103.649 52.9329V59.5794H102.122V52.9329C102.122 52.1982 101.921 51.6759 101.519 51.3603C101.117 51.0446 100.641 50.8896 100.096 50.8896C99.4014 50.8896 98.8618 51.102 98.483 51.5267C98.0985 51.9514 97.9091 52.4795 97.9091 53.1108V59.5794H96.3421V52.7722C96.3421 52.2097 96.1585 51.7563 95.8026 51.4061C95.441 51.0618 94.9704 50.8839 94.3907 50.8839C93.9946 50.8839 93.6216 50.9929 93.2772 51.2053C92.9328 51.4176 92.6573 51.7104 92.4449 52.0834C92.2326 52.4565 92.1293 52.887 92.1293 53.3749V59.5794H90.6197H90.6083Z" fill="#E6F4D1"/>
<path d="M109.756 59.7916C108.803 59.7916 107.976 59.5792 107.282 59.1545C106.587 58.7298 106.054 58.1328 105.681 57.3637C105.307 56.5946 105.118 55.705 105.118 54.6948C105.118 53.6847 105.302 52.7778 105.669 52.003C106.036 51.2281 106.553 50.6197 107.219 50.1835C107.885 49.7473 108.665 49.5234 109.56 49.5234C110.077 49.5234 110.588 49.6095 111.099 49.7817C111.61 49.9539 112.074 50.2351 112.488 50.6197C112.907 51.0042 113.24 51.5151 113.486 52.1464C113.733 52.7778 113.859 53.5584 113.859 54.4825V55.1425H106.197V53.8281H113.033L112.333 54.3275C112.333 53.6617 112.229 53.0762 112.023 52.5597C111.816 52.0431 111.506 51.6356 111.093 51.3429C110.68 51.0444 110.169 50.901 109.56 50.901C108.952 50.901 108.43 51.0502 107.994 51.3486C107.557 51.6471 107.224 52.0374 106.995 52.5195C106.765 53.0016 106.651 53.5125 106.651 54.0635V54.9359C106.651 55.6878 106.783 56.3249 107.041 56.8472C107.299 57.3695 107.666 57.7655 108.137 58.0353C108.608 58.3051 109.147 58.437 109.761 58.437C110.157 58.437 110.519 58.3796 110.846 58.2649C111.173 58.1501 111.455 57.9779 111.69 57.7426C111.925 57.5072 112.109 57.2203 112.229 56.8759L113.704 57.3006C113.55 57.8 113.291 58.2362 112.93 58.6093C112.562 58.9881 112.115 59.2808 111.575 59.4874C111.036 59.6998 110.433 59.8031 109.761 59.8031L109.756 59.7916Z" fill="#E6F4D1"/>
<path d="M115.3 49.6441H116.81V60.3083C116.815 60.9167 116.712 61.4447 116.505 61.8924C116.293 62.3401 115.977 62.6845 115.558 62.9255C115.139 63.1666 114.606 63.2871 113.969 63.2871H113.664V61.8637H113.951C114.422 61.8637 114.761 61.726 114.973 61.4619C115.185 61.1922 115.294 60.8076 115.3 60.3025V49.6384V49.6441ZM116.046 47.9911C115.748 47.9911 115.495 47.8878 115.283 47.6869C115.071 47.486 114.962 47.2449 114.962 46.9579C114.962 46.6709 115.071 46.4299 115.283 46.229C115.495 46.0281 115.754 45.9248 116.046 45.9248C116.339 45.9248 116.597 46.0281 116.81 46.229C117.022 46.4299 117.131 46.6709 117.131 46.9579C117.131 47.2449 117.022 47.486 116.81 47.6869C116.597 47.8878 116.339 47.9911 116.046 47.9911Z" fill="#E6F4D1"/>
<path d="M122.785 59.7917C121.889 59.7917 121.103 59.5793 120.431 59.1546C119.76 58.7299 119.232 58.1273 118.853 57.3582C118.474 56.589 118.29 55.6936 118.29 54.672C118.29 53.6503 118.48 52.732 118.853 51.9572C119.232 51.1823 119.754 50.5854 120.431 50.1549C121.109 49.7244 121.889 49.5178 122.785 49.5178C123.68 49.5178 124.472 49.7302 125.149 50.1549C125.827 50.5796 126.355 51.1823 126.733 51.9572C127.112 52.732 127.302 53.6331 127.302 54.672C127.302 55.7109 127.112 56.5833 126.733 57.3582C126.355 58.1273 125.827 58.7241 125.149 59.1546C124.472 59.5793 123.686 59.7917 122.785 59.7917ZM122.785 58.4257C123.473 58.4257 124.036 58.2535 124.472 57.9034C124.908 57.5533 125.235 57.0941 125.448 56.5202C125.66 55.9462 125.769 55.332 125.769 54.6777C125.769 54.0234 125.66 53.3863 125.448 52.8124C125.235 52.2384 124.908 51.7735 124.472 51.4234C124.036 51.0733 123.473 50.8953 122.785 50.8953C122.096 50.8953 121.551 51.0733 121.114 51.4234C120.678 51.7735 120.351 52.2384 120.139 52.8124C119.926 53.3863 119.817 54.0062 119.817 54.6777C119.817 55.3493 119.926 55.9519 120.139 56.5202C120.351 57.0941 120.678 57.5533 121.114 57.9034C121.551 58.2535 122.107 58.4257 122.785 58.4257Z" fill="#E6F4D1"/>
<path d="M128.777 59.5795V49.6442H130.235V51.1537H130.344C130.527 50.6601 130.86 50.2641 131.337 49.9599C131.813 49.6557 132.347 49.5007 132.944 49.5007C133.058 49.5007 133.196 49.5007 133.363 49.5007C133.529 49.5007 133.655 49.5064 133.747 49.5122V51.0561C133.696 51.0447 133.575 51.0275 133.391 51.0045C133.208 50.9815 133.012 50.9701 132.806 50.9701C132.324 50.9701 131.899 51.0734 131.514 51.2743C131.136 51.4751 130.837 51.7506 130.619 52.1008C130.401 52.4509 130.292 52.8527 130.292 53.3004V59.5737H128.782L128.777 59.5795Z" fill="#E6F4D1"/>
<path d="M137.61 59.809C136.984 59.809 136.41 59.6884 135.894 59.4474C135.377 59.2063 134.97 58.8619 134.666 58.4027C134.361 57.9493 134.212 57.3983 134.212 56.7497C134.212 56.1815 134.327 55.7224 134.551 55.3665C134.775 55.0106 135.079 54.7351 135.452 54.5285C135.825 54.3219 136.244 54.1727 136.697 54.0693C137.151 53.9718 137.61 53.8914 138.069 53.8283C138.672 53.7537 139.165 53.6905 139.539 53.6504C139.912 53.6102 140.193 53.5356 140.365 53.438C140.537 53.3404 140.629 53.1682 140.629 52.9214V52.8698C140.629 52.2327 140.457 51.7448 140.107 51.389C139.757 51.0331 139.234 50.8609 138.528 50.8609C137.822 50.8609 137.237 51.0216 136.824 51.3373C136.41 51.653 136.118 51.9916 135.951 52.3532L134.493 51.8366C134.752 51.234 135.102 50.7633 135.538 50.4247C135.974 50.0861 136.445 49.8508 136.961 49.713C137.472 49.5752 137.977 49.5063 138.477 49.5063C138.798 49.5063 139.165 49.5408 139.579 49.6154C139.992 49.69 140.399 49.845 140.79 50.0746C141.186 50.3099 141.507 50.66 141.765 51.1307C142.024 51.6013 142.15 52.2327 142.15 53.019V59.5622H140.623V58.2134H140.554C140.451 58.4257 140.285 58.6553 140.038 58.9021C139.791 59.1489 139.475 59.3555 139.074 59.5335C138.672 59.7057 138.184 59.7975 137.604 59.7975L137.61 59.809ZM137.84 58.4429C138.442 58.4429 138.953 58.3224 139.366 58.0871C139.78 57.8518 140.095 57.5418 140.308 57.1688C140.52 56.7899 140.629 56.3996 140.629 55.9921V54.5859C140.566 54.6605 140.422 54.7351 140.204 54.7925C139.986 54.8557 139.739 54.9073 139.458 54.959C139.177 55.0049 138.901 55.0451 138.637 55.0795C138.373 55.114 138.155 55.1369 137.995 55.1541C137.599 55.2058 137.225 55.2919 136.881 55.4067C136.537 55.5215 136.261 55.6937 136.049 55.9175C135.836 56.1414 135.733 56.4513 135.733 56.8416C135.733 57.3696 135.928 57.7657 136.324 58.0354C136.72 58.3052 137.22 58.4372 137.828 58.4372L137.84 58.4429Z" fill="#E6F4D1"/>
<path d="M144.119 59.5795V49.6442H145.577V51.1537H145.686C145.869 50.6601 146.202 50.2641 146.679 49.9599C147.155 49.6557 147.689 49.5007 148.28 49.5007C148.395 49.5007 148.532 49.5007 148.699 49.5007C148.865 49.5007 148.992 49.5064 149.083 49.5122V51.0561C149.032 51.0447 148.911 51.0275 148.728 51.0045C148.544 50.9815 148.349 50.9701 148.142 50.9701C147.66 50.9701 147.235 51.0734 146.851 51.2743C146.472 51.4751 146.174 51.7506 145.955 52.1008C145.737 52.4509 145.634 52.8527 145.634 53.3004V59.5737H144.124L144.119 59.5795Z" fill="#E6F4D1"/>
<path d="M152.028 55.5961V55.5042C152.028 54.6835 152.108 54.0464 152.275 53.6044C152.441 53.1625 152.671 52.8124 152.975 52.5541C153.279 52.2958 153.641 52.0433 154.06 51.785C154.444 51.5611 154.766 51.2627 155.024 50.8896C155.282 50.5223 155.408 50.0746 155.408 49.558C155.408 49.139 155.311 48.7717 155.116 48.4675C154.921 48.1575 154.657 47.9222 154.318 47.75C153.985 47.5836 153.612 47.4975 153.204 47.4975C152.854 47.4975 152.516 47.5721 152.189 47.7156C151.861 47.8591 151.586 48.0887 151.368 48.3986C151.144 48.7085 151.018 49.1218 150.983 49.6326H149.365C149.393 48.9037 149.583 48.2781 149.927 47.7558C150.272 47.2335 150.731 46.8374 151.305 46.5619C151.879 46.2864 152.51 46.1487 153.204 46.1487C153.968 46.1487 154.634 46.2979 155.19 46.6021C155.747 46.9063 156.183 47.3196 156.493 47.8419C156.803 48.3642 156.958 48.9611 156.958 49.6326C156.958 50.3501 156.797 50.9642 156.482 51.4751C156.166 51.9859 155.724 52.4164 155.162 52.7665C154.783 52.9961 154.473 53.2199 154.243 53.438C154.008 53.6561 153.842 53.9201 153.738 54.2358C153.635 54.5515 153.583 54.9762 153.583 55.5042V55.5961H152.039H152.028ZM152.82 59.6884C152.499 59.6884 152.223 59.5736 151.999 59.344C151.775 59.1145 151.655 58.839 151.655 58.5233C151.655 58.2076 151.77 57.9264 151.999 57.7025C152.229 57.4787 152.504 57.3582 152.82 57.3582C153.136 57.3582 153.411 57.4729 153.641 57.7025C153.87 57.9321 153.985 58.2076 153.985 58.5233C153.985 58.839 153.87 59.1202 153.641 59.344C153.411 59.5679 153.136 59.6884 152.82 59.6884Z" fill="#E6F4D1"/>
<path d="M61.2904 99.5444H61.7438C61.7094 99.7281 61.6577 99.9347 61.5889 100.159C61.52 100.382 61.4511 100.612 61.3708 100.836C61.2904 101.06 61.2043 101.278 61.1182 101.484C61.0264 101.691 60.946 101.863 60.8714 101.995H56.3773L55.2121 105.491H56.1018C57.2669 105.491 58.1681 105.755 58.8052 106.271C59.4422 106.794 59.7637 107.557 59.7637 108.567C59.7637 109.296 59.6431 109.962 59.4021 110.57C59.161 111.179 58.8166 111.701 58.3747 112.137C57.9327 112.573 57.3989 112.912 56.7733 113.147C56.1477 113.383 55.4475 113.503 54.6726 113.503C54.3799 113.503 54.0929 113.48 53.8059 113.44C53.519 113.4 53.2435 113.331 52.9794 113.251C52.7154 113.17 52.4744 113.067 52.262 112.952C52.0496 112.837 51.8717 112.711 51.7225 112.579L52.5777 110.938H52.9393C53.0024 111.024 53.0713 111.133 53.1516 111.265C53.232 111.397 53.3123 111.54 53.3984 111.684C53.4845 111.827 53.5706 111.976 53.651 112.12C53.7371 112.263 53.8174 112.395 53.8863 112.504C54.0068 112.527 54.1389 112.556 54.2881 112.596C54.4373 112.636 54.6152 112.648 54.8333 112.648C55.413 112.648 55.9181 112.55 56.3429 112.35C56.7676 112.149 57.1177 111.879 57.3875 111.54C57.663 111.202 57.8639 110.811 57.9959 110.375C58.1279 109.939 58.1968 109.491 58.1968 109.026C58.1968 108.223 57.9327 107.654 57.4047 107.316C56.8766 106.977 56.142 106.817 55.1949 106.845L53.9035 106.862L55.9583 100.549H60.3089L61.2904 99.5501V99.5444Z" fill="#E6F4D1"/>
<path d="M71.3175 94.4014C76.3893 94.4014 80.5009 90.2899 80.5009 85.218C80.5009 80.1462 76.3893 76.0347 71.3175 76.0347C66.2456 76.0347 62.1341 80.1462 62.1341 85.218C62.1341 90.2899 66.2456 94.4014 71.3175 94.4014Z" fill="#E6F4D1"/>
</svg>
