<svg width="117" height="74" viewBox="0 0 117 74" fill="none" xmlns="http://www.w3.org/2000/svg">
<path d="M114.828 74.0001H110.133L110.225 73.472C110.54 73.3744 110.845 73.2884 111.137 73.2195C111.43 73.1449 111.717 73.0875 112.01 73.0358L112.538 70.4874H106.988L107.079 70.0684L115.706 61.04H116.2L114.397 69.5404H116.728L116.51 70.4874H114.197L113.651 73.0358C113.858 73.0817 114.07 73.1449 114.288 73.2195C114.507 73.2941 114.719 73.3744 114.926 73.472L114.834 74.0001H114.828ZM113.732 64.8626L114.26 63.554H114.208L113.244 64.8626L109.295 69.0698L108.44 69.6724L109.771 69.5461H112.756L113.737 64.8684L113.732 64.8626Z" fill="#E6F4D1"/>
<path d="M73.7839 5.75586H7.20443C3.40055 5.75586 0.316895 8.83951 0.316895 12.6434V60.8561C0.316895 64.66 3.40055 67.7437 7.20443 67.7437H73.7839C77.5878 67.7437 80.6715 64.66 80.6715 60.8561V12.6434C80.6715 8.83951 77.5878 5.75586 73.7839 5.75586Z" fill="#190905"/>
<path d="M19.1371 0.992188C19.0395 1.48005 18.919 1.96793 18.7813 2.46727C18.6435 2.96662 18.4828 3.45445 18.2991 3.94232H17.817L17.5013 1.9392H13.5525L12.5538 6.76049H15.5039L16.5026 5.41166H16.9561C16.8585 6.02006 16.7494 6.62846 16.6174 7.2426C16.4912 7.85674 16.3419 8.47089 16.1697 9.09077H15.7163L15.2973 7.70751H12.3299L11.2738 12.7871H15.4408L16.8068 10.6003H17.2603C17.2373 11.0709 17.1857 11.5817 17.1168 12.1213C17.0422 12.6608 16.9388 13.2003 16.8068 13.7341H7.83582L7.92765 13.2061C8.427 12.9994 8.96079 12.8559 9.52901 12.7698L11.8019 1.97364C11.5608 1.9105 11.3198 1.84738 11.0902 1.77277C10.8606 1.69815 10.631 1.6178 10.3957 1.52022L10.5219 0.992188H19.1314H19.1371Z" fill="#E6F4D1"/>
<path d="M21.0254 5.68718L19.9177 5.52071V5.06729C20.2965 4.8951 20.7212 4.74589 21.1919 4.61387C21.6625 4.48186 22.0815 4.41297 22.4488 4.41297L22.8162 4.63107L21.0713 12.9478C20.8877 13.8087 20.6351 14.5262 20.3137 15.0944C19.9923 15.6626 19.6537 16.1275 19.3093 16.4776C18.9592 16.8278 18.6205 17.0918 18.2876 17.2582C17.9547 17.4304 17.685 17.5395 17.4898 17.5854L17.2889 17.1836C17.4324 17.109 17.6046 16.9885 17.7998 16.8105C17.9949 16.6326 18.1901 16.3915 18.3795 16.0816C18.5746 15.7717 18.764 15.3871 18.9534 14.9279C19.1428 14.4688 19.3035 13.9178 19.4355 13.2864L21.0369 5.67569L21.0254 5.68718ZM21.2837 1.48578C21.2837 1.1701 21.3813 0.923304 21.5764 0.739636C21.7716 0.555969 22.0241 0.464111 22.3398 0.464111C22.6784 0.464111 22.9482 0.555969 23.1434 0.739636C23.3385 0.923304 23.4361 1.1701 23.4361 1.48578C23.4361 1.80146 23.3385 2.0253 23.1434 2.19749C22.9482 2.36967 22.6842 2.45003 22.3398 2.45003C22.0241 2.45003 21.7716 2.36393 21.5764 2.19749C21.3813 2.0253 21.2837 1.78998 21.2837 1.48578Z" fill="#E6F4D1"/>
<path d="M30.7655 12.1153C30.6565 12.3449 30.4958 12.5687 30.2949 12.7868C30.0882 13.0049 29.8472 13.2001 29.5659 13.378C29.2847 13.5559 28.969 13.6937 28.6189 13.797C28.2688 13.9003 27.89 13.952 27.4882 13.952C26.478 13.952 25.7089 13.665 25.1694 13.0853C24.6299 12.5113 24.3601 11.7135 24.3601 10.6919C24.3601 9.83092 24.4806 9.0159 24.7217 8.25253C24.9628 7.48916 25.3071 6.81763 25.7434 6.24941C26.1796 5.68119 26.7133 5.22777 27.339 4.90062C27.9646 4.57346 28.6591 4.40698 29.4224 4.40698C30.0079 4.40698 30.5072 4.55623 30.9262 4.85469C31.3452 5.15315 31.5518 5.58935 31.5518 6.17479C31.5518 7.03573 31.1214 7.71874 30.2662 8.21235C29.411 8.70595 28.0277 9.03314 26.1222 9.17663C26.0763 9.38326 26.0418 9.58414 26.0246 9.77929C26.0074 9.97443 25.9959 10.1638 25.9959 10.3418C25.9959 11.0707 26.1796 11.6619 26.5526 12.1268C26.92 12.5859 27.4652 12.8213 28.1827 12.8213C28.4123 12.8213 28.6419 12.7868 28.8657 12.7122C29.0896 12.6376 29.3019 12.5458 29.5028 12.4367C29.7037 12.3277 29.8874 12.2129 30.0481 12.0923C30.2145 11.9718 30.3523 11.8627 30.4785 11.7652L30.7712 12.1096L30.7655 12.1153ZM28.8542 5.21629C28.3319 5.22777 27.8441 5.46884 27.3964 5.94523C26.9487 6.42162 26.5641 7.2309 26.2484 8.38456C27.4251 8.35013 28.3434 8.14921 28.9977 7.78188C29.652 7.41454 29.9792 6.90948 29.9792 6.2609C29.9792 6.00836 29.9046 5.77302 29.7496 5.56065C29.6004 5.34254 29.2962 5.22777 28.8485 5.21629H28.8542Z" fill="#E6F4D1"/>
<path d="M38.8469 12.1157C38.7149 12.3453 38.5427 12.5691 38.3361 12.7872C38.1295 13.0053 37.8884 13.2004 37.6072 13.3784C37.3259 13.5563 37.016 13.6941 36.6716 13.7974C36.3272 13.9007 35.9484 13.9523 35.5352 13.9523C34.6398 13.9523 33.9281 13.6653 33.4058 13.0971C32.8835 12.5289 32.6252 11.7483 32.6252 10.7668C32.6252 9.89442 32.7629 9.07366 33.0442 8.29881C33.3254 7.52397 33.7042 6.85242 34.1806 6.27846C34.657 5.7045 35.2252 5.24533 35.8738 4.91243C36.5224 4.57953 37.2169 4.41309 37.9573 4.41309C38.4165 4.41309 38.7953 4.45327 39.088 4.52789C39.3807 4.6025 39.5988 4.70581 39.7423 4.84356C39.7538 4.98131 39.7423 5.13056 39.7136 5.29701C39.6849 5.46346 39.6333 5.62415 39.5701 5.77912C39.5012 5.93983 39.4209 6.08332 39.3176 6.21533C39.2143 6.34734 39.1109 6.4392 38.9962 6.48511L37.7564 5.2109C37.3431 5.22238 36.9356 5.34864 36.5281 5.59544C36.1206 5.83651 35.759 6.18091 35.4376 6.6286C35.1162 7.07629 34.8522 7.61579 34.657 8.25289C34.4619 8.88998 34.3643 9.60744 34.3758 10.4052C34.3643 11.2432 34.5307 11.8516 34.8751 12.2419C35.2195 12.6265 35.6901 12.8216 36.2871 12.8216C36.5396 12.8216 36.7807 12.7872 37.0045 12.7126C37.2284 12.638 37.4407 12.5461 37.6301 12.4371C37.8253 12.328 37.9975 12.2132 38.1582 12.0927C38.3131 11.9722 38.4566 11.8631 38.5772 11.7655L38.8527 12.1099L38.8469 12.1157Z" fill="#E6F4D1"/>
<path d="M48.5698 12.7182V13.1831C48.3288 13.3782 48.0303 13.5389 47.6859 13.6652C47.3415 13.7857 47.0029 13.8489 46.6758 13.8489C46.3256 13.8489 46.0731 13.7742 45.9181 13.6308C45.7689 13.4873 45.6885 13.3266 45.6885 13.1601C45.6885 12.942 45.7172 12.5747 45.7804 12.0581C45.8435 11.5415 45.9755 10.9159 46.1821 10.1755H46.1075C45.9526 10.5142 45.7517 10.9044 45.5163 11.3407C45.281 11.7769 44.9998 12.1901 44.6726 12.5804C44.3455 12.9707 43.9724 13.2979 43.5534 13.5619C43.1344 13.8259 42.6695 13.9637 42.1587 13.9637C41.734 13.9637 41.3781 13.8145 41.0854 13.516C40.7926 13.2175 40.6492 12.7985 40.6492 12.2533C40.6492 11.9892 40.6893 11.5932 40.7754 11.0709C40.8615 10.5486 40.9648 9.98036 41.0854 9.36048C41.2059 8.7406 41.3379 8.10925 41.4757 7.46067C41.6134 6.8121 41.7397 6.22666 41.8487 5.70435L40.741 5.53792V5.0845C40.9362 5.00989 41.1428 4.94101 41.3666 4.86639C41.5905 4.79178 41.8143 4.72862 42.0381 4.66548C42.262 4.60235 42.4801 4.55072 42.6867 4.51054C42.8934 4.47036 43.0828 4.44166 43.2492 4.43018L43.651 4.64828C43.4558 5.56088 43.2607 6.4218 43.0598 7.24256C42.8589 8.06333 42.6752 8.92428 42.5031 9.83688C42.4399 10.1296 42.3768 10.451 42.3137 10.8126C42.2448 11.1685 42.2161 11.5645 42.2161 11.9892C42.2161 12.2418 42.285 12.4484 42.4227 12.6091C42.5605 12.7698 42.7212 12.8444 42.9048 12.8444C43.1689 12.8444 43.4386 12.7641 43.7084 12.6091C43.9724 12.4542 44.2249 12.2475 44.466 11.9892C44.7013 11.7367 44.9252 11.4497 45.1375 11.1455C45.3499 10.8356 45.5393 10.5314 45.7115 10.2272C45.8837 9.92297 46.0214 9.64175 46.142 9.38346C46.2568 9.11944 46.3429 8.9128 46.406 8.75783L47.2095 4.65974H48.7191L47.2268 12.7411H48.5756L48.5698 12.7182Z" fill="#E6F4D1"/>
<path d="M50.5328 5.0903C50.7738 4.95255 51.0321 4.82629 51.3076 4.7115C51.5831 4.59671 51.8529 4.5106 52.1169 4.44747L52.4096 3.06424C52.5818 2.93223 52.777 2.8117 53.0008 2.70838C53.2246 2.60507 53.46 2.50749 53.701 2.40991L54.0856 2.62802L53.6494 4.63114H55.905C55.928 4.78037 55.928 4.94108 55.905 5.10179C55.8821 5.26824 55.8189 5.42322 55.7214 5.57819H53.4657L52.3178 10.8299C52.2719 11.0595 52.2317 11.2604 52.2087 11.4383C52.1858 11.6162 52.1743 11.7712 52.1743 11.9205C52.1743 12.2361 52.2661 12.4657 52.4498 12.6092C52.6335 12.7527 52.8344 12.8273 53.0525 12.8273C53.3567 12.8273 53.6781 12.7699 54.0282 12.6551C54.3783 12.5403 54.694 12.4083 54.9867 12.2648L55.1876 12.592C55.0785 12.7527 54.9121 12.9077 54.694 13.0626C54.4759 13.2233 54.2291 13.3668 53.9593 13.4988C53.6896 13.6309 53.4026 13.7399 53.1041 13.826C52.8057 13.9121 52.5244 13.9523 52.2604 13.9523C51.7266 13.9523 51.3076 13.8317 51.0034 13.5907C50.6992 13.3496 50.55 12.9765 50.55 12.4657C50.55 12.2993 50.5672 12.1099 50.5959 11.9033C50.6246 11.6966 50.6648 11.4842 50.7164 11.2661L51.916 5.57244H50.5328L50.55 5.08459L50.5328 5.0903Z" fill="#E6F4D1"/>
<path d="M62.0005 10.1696C61.8456 10.6058 61.6447 11.0477 61.4093 11.5012C61.174 11.9489 60.8985 12.3564 60.5886 12.718C60.2786 13.0796 59.9342 13.378 59.5612 13.6076C59.1881 13.8372 58.7863 13.952 58.3616 13.952C57.0989 13.952 56.4675 13.0336 56.4675 11.2027C56.4675 10.3532 56.5881 9.52672 56.8291 8.71744C57.0702 7.90815 57.426 7.19069 57.8852 6.55934C58.3444 5.92798 58.9069 5.42291 59.5669 5.03836C60.227 4.65381 60.9789 4.4644 61.8169 4.4644C62.1211 4.4644 62.3621 4.49311 62.5458 4.54476C62.7294 4.59642 62.9475 4.68251 63.2001 4.79156C63.6879 4.53902 64.1931 4.40698 64.7268 4.40698L63.091 12.7065H64.4169V13.1714C64.1758 13.3665 63.8831 13.5273 63.5445 13.6535C63.2058 13.7741 62.8729 13.8372 62.5458 13.8372C62.1956 13.8372 61.9431 13.7626 61.7882 13.6076C61.6332 13.4526 61.5586 13.2976 61.5586 13.1255C61.5586 12.9073 61.5987 12.5515 61.6848 12.0521C61.7709 11.5528 61.8972 10.9215 62.0694 10.1581H61.9948L62.0005 10.1696ZM59.125 12.827C59.4521 12.827 59.7793 12.6721 60.1064 12.3621C60.4336 12.0522 60.7436 11.6791 61.0363 11.2429C61.329 10.8067 61.5873 10.3532 61.8169 9.88259C62.0464 9.41195 62.2301 9.01591 62.3621 8.70024L62.9418 5.59509C62.7696 5.47455 62.6089 5.38846 62.4482 5.34254C62.2932 5.29663 62.0694 5.26792 61.7939 5.26792C61.2371 5.26792 60.7263 5.44013 60.2729 5.7845C59.8195 6.12888 59.4292 6.57658 59.1078 7.12184C58.7863 7.66711 58.5395 8.26975 58.3616 8.93554C58.1837 9.60134 58.0976 10.2557 58.0976 10.8985C58.0976 11.5414 58.1722 11.989 58.3272 12.3219C58.4764 12.6548 58.7404 12.8213 59.1192 12.8213L59.125 12.827Z" fill="#E6F4D1"/>
<path d="M70.9773 5.74432C70.6616 5.86485 70.3058 6.17481 69.9098 6.66268C69.5137 7.15629 69.1636 7.81633 68.8651 8.65431L67.7746 13.7339H66.2077L67.9009 5.68694L66.7932 5.52047V5.06705C67.2064 4.87191 67.6369 4.72269 68.0846 4.61938C68.5323 4.51607 68.9398 4.44716 69.3014 4.40698L69.663 4.62509L69.1521 7.04723H69.2267C69.5769 6.24368 70.0073 5.60656 70.5182 5.12443C71.029 4.64805 71.5743 4.40698 72.154 4.40698C72.3147 4.40698 72.4696 4.42421 72.6303 4.45291C72.7853 4.48161 72.9403 4.539 73.0838 4.62509C73.0838 4.73414 73.0665 4.87763 73.0321 5.05556C72.9977 5.23349 72.946 5.41142 72.8771 5.59509C72.8083 5.77875 72.7394 5.95096 72.6591 6.11167C72.5787 6.27811 72.4983 6.39866 72.4122 6.48475L70.9773 5.73858V5.74432Z" fill="#E6F4D1"/>
<path d="M8.96646 29.8106V29.9025C8.96646 30.7175 8.88611 31.3488 8.71966 31.7965C8.55895 32.2385 8.32363 32.5886 8.01943 32.8469C7.71523 33.1052 7.35362 33.3577 6.93463 33.6217C6.55582 33.8456 6.23441 34.144 5.97613 34.5171C5.71784 34.8902 5.58584 35.3321 5.58584 35.8487C5.58584 36.2677 5.6834 36.635 5.88429 36.9392C6.08518 37.2434 6.34919 37.4845 6.68209 37.6567C7.01498 37.8231 7.38232 37.9092 7.79557 37.9092C8.14569 37.9092 8.48434 37.8346 8.8115 37.6911C9.13865 37.5476 9.41415 37.318 9.63226 37.0024C9.8561 36.6867 9.98238 36.2792 10.0168 35.7741H11.6354C11.6067 36.503 11.4173 37.1286 11.0729 37.6452C10.7285 38.1618 10.2694 38.5635 9.70113 38.839C9.13291 39.1145 8.49581 39.258 7.80132 39.258C7.04369 39.258 6.38363 39.1088 5.82115 38.8046C5.25866 38.5004 4.82245 38.0871 4.51251 37.5648C4.20258 37.0425 4.04761 36.4456 4.04761 35.7741C4.04761 35.0509 4.20833 34.4368 4.52401 33.9259C4.83968 33.4151 5.28163 32.9904 5.84411 32.646C6.22866 32.4107 6.53861 32.1811 6.7682 31.9687C6.99778 31.7563 7.16421 31.4923 7.27327 31.1766C7.37658 30.861 7.42825 30.4363 7.42825 29.9082V29.8164H8.9722L8.96646 29.8106ZM8.17439 25.7183C8.49581 25.7183 8.76557 25.8331 8.99515 26.0627C9.22473 26.2922 9.33953 26.5677 9.33953 26.8834C9.33953 27.1991 9.22473 27.4803 8.99515 27.7042C8.76557 27.9338 8.49007 28.0485 8.17439 28.0485C7.85871 28.0485 7.57747 27.9338 7.35363 27.7042C7.12405 27.4746 7.00925 27.1991 7.00925 26.8834C7.00925 26.5677 7.12405 26.2865 7.35363 26.0627C7.58321 25.8331 7.85297 25.7183 8.17439 25.7183Z" fill="#E6F4D1"/>
<path d="M18.4368 35.906C17.3118 35.906 16.3074 35.6305 15.4235 35.0795C14.5396 34.5285 13.8451 33.7422 13.3458 32.7262C12.8464 31.7103 12.5881 30.505 12.5881 29.116C12.5881 27.7271 12.8407 26.5103 13.3458 25.4886C13.8509 24.467 14.5453 23.6863 15.4235 23.1353C16.3074 22.5843 17.3118 22.3088 18.4368 22.3088C19.1026 22.3088 19.7282 22.4064 20.3194 22.6016C20.9106 22.7967 21.4386 23.078 21.915 23.4511C22.3914 23.8241 22.7817 24.2776 23.1031 24.8113C23.4188 25.3451 23.6369 25.9535 23.7574 26.6308H22.1561C22.0585 26.1659 21.8978 25.7641 21.6625 25.414C21.4271 25.0639 21.1459 24.7712 20.8073 24.5301C20.4744 24.289 20.1013 24.1111 19.6995 23.9906C19.2977 23.87 18.873 23.8069 18.4368 23.8069C17.639 23.8069 16.9101 24.0078 16.2615 24.4153C15.6072 24.8228 15.0906 25.4197 14.7118 26.2118C14.3272 27.0039 14.1378 27.9739 14.1378 29.1218C14.1378 30.2697 14.3272 31.2282 14.7118 32.0203C15.0964 32.8066 15.6129 33.4035 16.2615 33.811C16.9158 34.2186 17.639 34.4194 18.4368 34.4194C18.873 34.4194 19.2977 34.3563 19.6995 34.2358C20.1013 34.1152 20.4686 33.9316 20.8073 33.6905C21.1402 33.4494 21.4271 33.1567 21.6625 32.8066C21.8978 32.4565 22.0585 32.049 22.1561 31.5898H23.7574C23.6369 32.2728 23.4188 32.8812 23.1031 33.4093C22.7874 33.943 22.3914 34.3965 21.915 34.7638C21.4386 35.1311 20.9106 35.4181 20.3194 35.6133C19.7282 35.8084 19.1026 35.906 18.4368 35.906Z" fill="#E6F4D1"/>
<path d="M29.3191 35.9407C28.4237 35.9407 27.6374 35.7284 26.9659 35.2979C26.2886 34.8732 25.7663 34.2705 25.3875 33.5014C25.0087 32.7323 24.825 31.8369 24.825 30.8153C24.825 29.7936 25.0144 28.8753 25.3875 28.1004C25.7663 27.3256 26.2886 26.7286 26.9659 26.2982C27.6432 25.8677 28.4237 25.6553 29.3191 25.6553C30.2145 25.6553 31.0066 25.8677 31.6839 26.2982C32.3611 26.7286 32.8892 27.3256 33.268 28.1004C33.6468 28.8753 33.8362 29.7764 33.8362 30.8153C33.8362 31.8541 33.6468 32.7265 33.268 33.5014C32.8892 34.2705 32.3611 34.8674 31.6839 35.2979C31.0066 35.7226 30.2202 35.9407 29.3191 35.9407ZM29.3191 34.5747C30.0079 34.5747 30.5704 34.4025 31.0066 34.0524C31.4428 33.7023 31.7699 33.2431 31.9823 32.6692C32.1947 32.0952 32.3037 31.4811 32.3037 30.8267C32.3037 30.1724 32.1947 29.5353 31.9823 28.9614C31.7699 28.3874 31.4428 27.9225 31.0066 27.5724C30.5704 27.2223 30.0021 27.0443 29.3191 27.0443C28.6361 27.0443 28.0851 27.2223 27.6489 27.5724C27.2127 27.9282 26.8855 28.3874 26.6732 28.9614C26.4608 29.5353 26.3518 30.1609 26.3518 30.8267C26.3518 31.4925 26.4608 32.1009 26.6732 32.6692C26.8855 33.2431 27.2127 33.7023 27.6489 34.0524C28.0851 34.4025 28.6418 34.5747 29.3191 34.5747ZM28.573 24.5476L29.8185 22.114H31.5404L29.8357 24.5476H28.573Z" fill="#E6F4D1"/>
<path d="M35.3113 35.7281V25.7929H36.7691V27.3598H36.9126C37.1193 26.826 37.4522 26.4127 37.9171 26.1143C38.382 25.8158 38.933 25.6724 39.5816 25.6724C40.2301 25.6724 40.7754 25.8216 41.2116 26.1143C41.6478 26.4127 41.9865 26.826 42.2275 27.3598H42.3366C42.5949 26.8432 42.9794 26.4357 43.4902 26.1315C43.9953 25.8273 44.6037 25.6724 45.3097 25.6724C46.1993 25.6724 46.9283 25.9478 47.4965 26.5046C48.0647 27.0556 48.3517 27.9165 48.3517 29.0874V35.7339H46.8249V29.0874C46.8249 28.3527 46.6241 27.8304 46.2223 27.5148C45.8205 27.1991 45.3441 27.0441 44.7989 27.0441C44.1044 27.0441 43.5706 27.2565 43.186 27.6812C42.8015 28.106 42.6121 28.634 42.6121 29.2654V35.7339H41.0452V28.9267C41.0452 28.3642 40.8672 27.9108 40.5056 27.5607C40.144 27.2163 39.6734 27.0384 39.0937 27.0384C38.6976 27.0384 38.3246 27.1474 37.9802 27.3598C37.6358 27.5722 37.3603 27.8649 37.148 28.238C36.9356 28.611 36.8323 29.0415 36.8323 29.5294V35.7339H35.3228L35.3113 35.7281Z" fill="#E6F4D1"/>
<path d="M54.3094 35.9404C53.414 35.9404 52.6277 35.728 51.9562 35.2976C51.2789 34.8728 50.7566 34.2702 50.3778 33.5011C49.999 32.732 49.8153 31.8366 49.8153 30.8149C49.8153 29.7933 50.0047 28.875 50.3778 28.1001C50.7566 27.3253 51.2789 26.7283 51.9562 26.2979C52.6334 25.8674 53.414 25.655 54.3094 25.655C55.2048 25.655 55.9969 25.8674 56.6741 26.2979C57.3514 26.7283 57.8795 27.3253 58.2583 28.1001C58.6371 28.875 58.8265 29.7761 58.8265 30.8149C58.8265 31.8538 58.6371 32.7262 58.2583 33.5011C57.8795 34.2702 57.3514 34.8671 56.6741 35.2976C55.9969 35.7223 55.2105 35.9404 54.3094 35.9404ZM54.3094 34.5744C54.9982 34.5744 55.5607 34.4022 55.9969 34.0521C56.4331 33.702 56.7602 33.2428 56.9726 32.6689C57.185 32.0949 57.294 31.4807 57.294 30.8264C57.294 30.1721 57.185 29.535 56.9726 28.9611C56.7602 28.3871 56.4331 27.9222 55.9969 27.5721C55.5607 27.222 54.9924 27.044 54.3094 27.044C53.6264 27.044 53.0754 27.222 52.6392 27.5721C52.203 27.9279 51.8758 28.3871 51.6635 28.9611C51.4511 29.535 51.342 30.1606 51.342 30.8264C51.342 31.4922 51.4511 32.1006 51.6635 32.6689C51.8758 33.2428 52.203 33.702 52.6392 34.0521C53.0754 34.4022 53.6321 34.5744 54.3094 34.5744Z" fill="#E6F4D1"/>
<path d="M66.0813 22.4868V35.7281H64.5718V22.4868H66.0813Z" fill="#E6F4D1"/>
<path d="M72.0505 35.9404C71.1552 35.9404 70.3689 35.728 69.6973 35.2976C69.02 34.8728 68.4977 34.2702 68.1189 33.5011C67.7401 32.732 67.5565 31.8366 67.5565 30.8149C67.5565 29.7933 67.7459 28.875 68.1189 28.1001C68.492 27.3253 69.02 26.7283 69.6973 26.2979C70.3746 25.8674 71.1552 25.655 72.0505 25.655C72.9459 25.655 73.738 25.8674 74.4153 26.2979C75.0926 26.7226 75.6149 27.3253 75.9994 28.1001C76.3782 28.875 76.5677 29.7761 76.5677 30.8149C76.5677 31.8538 76.3782 32.7262 75.9994 33.5011C75.6206 34.2702 75.0926 34.8671 74.4153 35.2976C73.738 35.7223 72.9517 35.9404 72.0505 35.9404ZM72.0505 34.5744C72.7393 34.5744 73.3018 34.4022 73.738 34.0521C74.1742 33.702 74.5014 33.2428 74.7137 32.6689C74.9261 32.0949 75.0352 31.4807 75.0352 30.8264C75.0352 30.1721 74.9261 29.535 74.7137 28.9611C74.5014 28.3871 74.1742 27.9222 73.738 27.5721C73.3018 27.222 72.7393 27.044 72.0505 27.044C71.3618 27.044 70.8165 27.222 70.3803 27.5721C69.9441 27.9279 69.617 28.3871 69.4046 28.9611C69.1922 29.535 69.0832 30.1606 69.0832 30.8264C69.0832 31.4922 69.1922 32.1006 69.4046 32.6689C69.617 33.2428 69.9441 33.702 70.3803 34.0521C70.8165 34.4022 71.3733 34.5744 72.0505 34.5744Z" fill="#E6F4D1"/>
<path d="M4.46088 51.7476V57.7225H2.95135V44.4812H4.46088V49.3542H4.60437C4.83395 48.8376 5.18407 48.4301 5.64898 48.1259C6.11389 47.8217 6.73951 47.6667 7.5201 47.6667C8.19737 47.6667 8.78856 47.8044 9.29938 48.0742C9.81021 48.344 10.2062 48.7572 10.4875 49.3082C10.7744 49.865 10.9122 50.5652 10.9122 51.4204V57.734H9.38547V51.5295C9.38547 50.7374 9.17884 50.1232 8.77133 49.687C8.36382 49.2566 7.7956 49.0385 7.07241 49.0385C6.56732 49.0385 6.11964 49.1475 5.72934 49.3599C5.33905 49.5722 5.0291 49.8822 4.79951 50.284C4.56993 50.6857 4.45515 51.1793 4.45515 51.759L4.46088 51.7476Z" fill="#E6F4D1"/>
<path d="M15.7794 57.952C15.1538 57.952 14.5799 57.8315 14.0633 57.5904C13.5467 57.3494 13.1392 57.005 12.835 56.5458C12.5308 56.0866 12.3816 55.5414 12.3816 54.8928C12.3816 54.3246 12.4964 53.8654 12.7202 53.5096C12.9441 53.1595 13.2483 52.8782 13.6214 52.6716C14.0002 52.4649 14.4134 52.3157 14.8668 52.2124C15.3203 52.1148 15.7794 52.0345 16.2386 51.9714C16.8413 51.8967 17.3349 51.8336 17.708 51.7934C18.0868 51.7533 18.3623 51.6786 18.5345 51.581C18.7066 51.4777 18.7985 51.3056 18.7985 51.0645V51.0128C18.7985 50.3815 18.6263 49.8879 18.2762 49.532C17.9318 49.1819 17.4037 49.004 16.6978 49.004C15.9918 49.004 15.4064 49.1647 14.9931 49.4804C14.5799 49.796 14.2871 50.1347 14.1207 50.4963L12.6628 49.9797C12.9211 49.377 13.2712 48.9064 13.7074 48.5677C14.1437 48.2291 14.6143 47.9938 15.1309 47.856C15.6474 47.7183 16.1468 47.6494 16.6461 47.6494C16.9675 47.6494 17.3349 47.6839 17.7481 47.7585C18.1614 47.8331 18.5689 47.988 18.9592 48.2176C19.3552 48.453 19.6766 48.8031 19.9349 49.2737C20.1932 49.7444 20.3195 50.3757 20.3195 51.1621V57.7052H18.7927V56.3564H18.7239C18.6205 56.5688 18.4484 56.7984 18.2073 57.0452C17.9662 57.292 17.6448 57.4986 17.243 57.6765C16.8413 57.8487 16.3534 57.9405 15.7737 57.9405L15.7794 57.952ZM16.0148 56.586C16.6174 56.586 17.1282 56.4655 17.5415 56.2301C17.9547 55.9948 18.2704 55.6849 18.4828 55.3118C18.6952 54.933 18.8042 54.5427 18.8042 54.1352V52.729C18.7411 52.8036 18.5976 52.8782 18.3795 52.9356C18.1614 52.9987 17.9146 53.0504 17.6333 53.102C17.3521 53.148 17.0766 53.1882 16.8126 53.2226C16.5486 53.257 16.3304 53.28 16.1697 53.2972C15.7737 53.3489 15.4006 53.435 15.0563 53.5498C14.7119 53.6645 14.4364 53.8367 14.224 54.0606C14.0116 54.2844 13.9083 54.5944 13.9083 54.9847C13.9083 55.5127 14.1035 55.9087 14.4995 56.1785C14.8955 56.4482 15.3949 56.5802 16.0033 56.5802L16.0148 56.586Z" fill="#E6F4D1"/>
<path d="M22.2881 57.7226V47.7873H23.746V49.2968H23.8551C24.0387 48.8032 24.3716 48.4072 24.848 48.103C25.3244 47.7988 25.8582 47.6438 26.4494 47.6438C26.5642 47.6438 26.7019 47.6438 26.8684 47.6438C27.0348 47.6438 27.1611 47.6495 27.2529 47.6553V49.205C27.2013 49.1935 27.0807 49.1763 26.8971 49.1533C26.7134 49.1304 26.5182 49.1189 26.3116 49.1189C25.8295 49.1189 25.4048 49.2222 25.0202 49.4231C24.6414 49.624 24.3429 49.8995 24.1248 50.2496C23.9067 50.5997 23.8034 51.0015 23.8034 51.4492V57.7226H22.2939H22.2881Z" fill="#E6F4D1"/>
<path d="M32.0627 57.9348C31.1099 57.9348 30.2834 57.7224 29.5889 57.2919C28.8944 56.8672 28.3549 56.2703 27.9818 55.5012C27.6087 54.7321 27.4193 53.8425 27.4193 52.8323C27.4193 51.8221 27.603 50.9153 27.9703 50.1404C28.3377 49.3656 28.8542 48.7571 29.52 48.3209C30.1858 47.8847 30.9664 47.6609 31.8618 47.6609C32.3783 47.6609 32.8892 47.747 33.4 47.9192C33.9108 48.0914 34.3757 48.3726 34.789 48.7571C35.208 49.1417 35.5409 49.6525 35.7877 50.2839C36.0345 50.921 36.1607 51.6958 36.1607 52.6199V53.28H28.4984V51.9656H35.3342L34.634 52.4649C34.634 51.7991 34.5307 51.2137 34.3241 50.6971C34.1174 50.1806 33.8075 49.7731 33.3942 49.4803C32.981 49.1819 32.4702 49.0384 31.8618 49.0384C31.2534 49.0384 30.7311 49.1876 30.2949 49.4861C29.8587 49.7845 29.5258 50.1748 29.2962 50.6569C29.0666 51.1391 28.9518 51.6499 28.9518 52.2067V53.0791C28.9518 53.831 29.0838 54.468 29.3421 54.9903C29.6004 55.5127 29.9677 55.9087 30.4326 56.1785C30.8975 56.4482 31.4428 56.586 32.0569 56.586C32.453 56.586 32.8145 56.5286 33.1417 56.4138C33.4689 56.299 33.7501 56.1211 33.9854 55.8915C34.2208 55.6561 34.4044 55.3692 34.525 55.0248L36 55.4495C35.8451 55.9489 35.5868 56.3851 35.2194 56.7582C34.8521 57.1312 34.4044 57.4297 33.8649 57.6363C33.3254 57.843 32.7227 57.952 32.0512 57.952L32.0627 57.9348Z" fill="#E6F4D1"/>
<path d="M37.6129 57.7223V47.787H39.0708V49.354H39.2143C39.4209 48.8202 39.7538 48.4069 40.2187 48.1084C40.6836 47.81 41.2346 47.6665 41.8832 47.6665C42.5318 47.6665 43.077 47.8157 43.5132 48.1084C43.9494 48.4069 44.2881 48.8202 44.5291 49.354H44.6382C44.8965 48.8374 45.281 48.4299 45.7919 48.1257C46.2969 47.8215 46.9054 47.6665 47.6113 47.6665C48.501 47.6665 49.2299 47.942 49.7981 48.4987C50.3663 49.0555 50.6533 49.9107 50.6533 51.0815V57.728H49.1266V51.0815C49.1266 50.3469 48.9257 49.8246 48.5239 49.5089C48.1222 49.1932 47.6458 49.0382 47.1005 49.0382C46.406 49.0382 45.8722 49.2506 45.4877 49.6754C45.1031 50.1001 44.9137 50.6281 44.9137 51.2595V57.728H43.3468V50.9209C43.3468 50.3584 43.1689 49.9049 42.8073 49.5548C42.4457 49.2104 41.975 49.0325 41.3953 49.0325C40.9993 49.0325 40.6262 49.1416 40.2818 49.354C39.9375 49.5663 39.662 49.859 39.4496 50.2321C39.2372 50.6052 39.1339 51.0356 39.1339 51.5235V57.728H37.6244L37.6129 57.7223Z" fill="#E6F4D1"/>
<path d="M56.6168 57.9348C55.7214 57.9348 54.9351 57.7224 54.2636 57.292C53.592 56.8615 53.064 56.2646 52.6852 55.4955C52.3064 54.7263 52.1227 53.831 52.1227 52.8093C52.1227 51.7877 52.3121 50.8693 52.6852 50.0945C53.064 49.3196 53.5863 48.7227 54.2636 48.2922C54.9408 47.8618 55.7214 47.6494 56.6168 47.6494C57.5122 47.6494 58.3042 47.8618 58.9815 48.2922C59.6588 48.7227 60.1868 49.3196 60.5657 50.0945C60.9445 50.8693 61.1339 51.7704 61.1339 52.8093C61.1339 53.8482 60.9445 54.7206 60.5657 55.4955C60.1868 56.2646 59.6588 56.8615 58.9815 57.292C58.3042 57.7224 57.5179 57.9348 56.6168 57.9348ZM56.6168 56.563C57.3055 56.563 57.868 56.3908 58.3042 56.0407C58.7404 55.6906 59.0676 55.2315 59.28 54.6575C59.4923 54.0835 59.6014 53.4694 59.6014 52.8151C59.6014 52.1607 59.4923 51.5237 59.28 50.9497C59.0676 50.3757 58.7404 49.9108 58.3042 49.5607C57.868 49.2106 57.2998 49.0326 56.6168 49.0326C55.9338 49.0326 55.3828 49.2106 54.9466 49.5607C54.5104 49.9108 54.1832 50.3757 53.9708 50.9497C53.7585 51.5237 53.6494 52.1435 53.6494 52.8151C53.6494 53.4866 53.7585 54.0893 53.9708 54.6575C54.1832 55.2257 54.5104 55.6906 54.9466 56.0407C55.3828 56.3908 55.9395 56.563 56.6168 56.563Z" fill="#E6F4D1"/>
<path d="M69.6284 50.0255L68.2624 50.3985C68.1304 50.0599 67.9065 49.7385 67.5909 49.4343C67.2752 49.1301 66.7816 48.9751 66.11 48.9751C65.5074 48.9751 65.0023 49.1186 64.6005 49.3998C64.1987 49.6811 63.9979 50.0312 63.9979 50.4559C63.9979 50.8348 64.1356 51.139 64.4111 51.3628C64.6866 51.5867 65.1171 51.7703 65.7025 51.9138L67.1776 52.2696C68.0615 52.482 68.7216 52.8149 69.1578 53.2569C69.594 53.6988 69.8121 54.267 69.8121 54.9558C69.8121 55.524 69.6514 56.0348 69.3242 56.4825C68.997 56.9302 68.5436 57.2861 67.9639 57.5501C67.3842 57.8141 66.707 57.9404 65.9379 57.9404C64.9219 57.9404 64.0897 57.7166 63.4296 57.2746C62.7696 56.8327 62.3506 56.1898 62.1727 55.3461L63.6133 54.9902C63.7511 55.524 64.0093 55.9258 64.3996 56.1898C64.7899 56.4538 65.295 56.5916 65.9264 56.5916C66.6323 56.5916 67.1948 56.4366 67.6196 56.1324C68.0443 55.8282 68.2566 55.4666 68.2566 55.0419C68.2566 54.3417 67.763 53.8767 66.7816 53.6357L65.1285 53.2454C64.2159 53.0273 63.5444 52.6886 63.1197 52.241C62.695 51.7933 62.4768 51.225 62.4768 50.542C62.4768 49.9795 62.6376 49.4802 62.9532 49.0497C63.2689 48.6193 63.7051 48.2806 64.2562 48.0338C64.8072 47.787 65.427 47.6665 66.1215 47.6665C67.1087 47.6665 67.8836 47.8846 68.4461 48.3208C69.0085 48.757 69.4046 49.3252 69.6399 50.0312L69.6284 50.0255Z" fill="#E6F4D1"/>
<path d="M73.2501 53.739V53.6472C73.2501 52.8264 73.3305 52.1893 73.4969 51.7474C73.6577 51.3054 73.893 50.9553 74.1972 50.697C74.5014 50.4387 74.863 50.1805 75.282 49.9279C75.6665 49.7041 75.988 49.4056 76.2462 49.0325C76.5045 48.6652 76.6308 48.2175 76.6308 47.7067C76.6308 47.2877 76.5332 46.9204 76.3381 46.6104C76.1429 46.3005 75.8789 46.0652 75.546 45.893C75.2131 45.7265 74.84 45.6404 74.4325 45.6404C74.0824 45.6404 73.7437 45.715 73.4223 45.8585C73.0952 46.002 72.8197 46.2316 72.6016 46.5416C72.3777 46.8515 72.2515 47.2648 72.217 47.7698H70.5984C70.6271 47.0409 70.8165 46.4153 71.1609 45.893C71.5053 45.3707 71.9645 44.9746 72.5384 44.6991C73.1124 44.4236 73.7438 44.2859 74.4383 44.2859C75.2016 44.2859 75.8674 44.4351 76.4242 44.7393C76.9809 45.0435 77.4171 45.4568 77.727 45.9791C78.037 46.5014 78.1919 47.0983 78.1919 47.7698C78.1919 48.4873 78.0313 49.1014 77.7156 49.6122C77.3999 50.1231 76.9579 50.5535 76.3954 50.9036C76.0166 51.1332 75.7067 51.3571 75.4771 51.5752C75.2418 51.7933 75.0753 52.0573 74.972 52.373C74.8687 52.6887 74.8171 53.1134 74.8171 53.6414V53.7333H73.2731L73.2501 53.739ZM74.0422 57.8256C73.7208 57.8256 73.4453 57.7108 73.2215 57.4813C72.9919 57.2517 72.8771 56.9762 72.8771 56.6605C72.8771 56.3448 72.9919 56.0636 73.2215 55.8397C73.451 55.6101 73.7265 55.4953 74.0422 55.4953C74.3579 55.4953 74.6334 55.6101 74.863 55.8397C75.0926 56.0693 75.2073 56.3448 75.2073 56.6605C75.2073 56.9762 75.0926 57.2574 74.863 57.4813C74.6334 57.7051 74.3579 57.8256 74.0422 57.8256Z" fill="#E6F4D1"/>
<path d="M97.3163 51.0989C102.388 51.0989 106.5 46.9874 106.5 41.9156C106.5 36.8437 102.388 32.7322 97.3163 32.7322C92.2445 32.7322 88.1329 36.8437 88.1329 41.9156C88.1329 46.9874 92.2445 51.0989 97.3163 51.0989Z" fill="#E6F4D1"/>
</svg>
