<svg width="136" height="88" viewBox="0 0 136 88" fill="none" xmlns="http://www.w3.org/2000/svg">
<path d="M110.293 2.65735H43.7135C39.9096 2.65735 36.826 5.741 36.826 9.54488V57.7576C36.826 61.5615 39.9096 64.6452 43.7135 64.6452H110.293C114.097 64.6452 117.181 61.5615 117.181 57.7576V9.54488C117.181 5.741 114.097 2.65735 110.293 2.65735Z" fill="#190905"/>
<path d="M36.2636 14.0792H31.603L31.6948 13.5512C32.2286 13.3331 32.7509 13.1896 33.2618 13.115L35.5346 2.31875C35.2936 2.27283 35.064 2.2097 34.8402 2.12934C34.6221 2.04899 34.3982 1.9629 34.1686 1.86532L34.2949 1.33728H38.9555L38.8464 1.86532C38.6054 1.9629 38.3413 2.04899 38.0658 2.12934C37.7846 2.2097 37.5263 2.27283 37.2852 2.31875L35.0123 13.115C35.2534 13.1609 35.4945 13.224 35.7298 13.2986C35.9651 13.3732 36.1775 13.4536 36.3554 13.5512L36.2636 14.0792Z" fill="#E6F4D1"/>
<path d="M44.2187 10.5149C44.0637 10.9511 43.8628 11.3931 43.616 11.8408C43.3749 12.2885 43.0994 12.696 42.7895 13.0576C42.4796 13.4192 42.1409 13.7176 41.7678 13.9472C41.3948 14.1768 40.9987 14.2916 40.574 14.2916C39.3113 14.2916 38.6799 13.3675 38.6799 11.5251C38.6799 10.6642 38.8005 9.83193 39.0415 9.02264C39.2826 8.21335 39.6384 7.50164 40.0976 6.87602C40.5568 6.2504 41.1193 5.75106 41.7736 5.37225C42.4279 4.99917 43.1741 4.80977 44.012 4.80977C44.3277 4.80977 44.563 4.83272 44.7237 4.87289C44.8787 4.91307 45.0796 4.99343 45.3264 5.10248L46.0209 1.66445L44.7467 1.49801V1.04457C44.9304 0.969959 45.1313 0.901084 45.3494 0.837948C45.5675 0.769072 45.797 0.711681 46.0324 0.654285C46.2677 0.596889 46.5088 0.550969 46.7498 0.499313C46.9909 0.453396 47.2147 0.413217 47.4214 0.390259L47.8059 0.533749L45.3149 13.0576H46.6465V13.5225C46.4055 13.7176 46.1127 13.8783 45.7741 14.0046C45.4354 14.1309 45.1026 14.1883 44.7754 14.1883C44.4253 14.1883 44.1727 14.1137 44.0178 13.9587C43.8685 13.8095 43.7882 13.6488 43.7882 13.4766C43.7882 13.2585 43.8284 12.9026 43.9145 12.4033C44.0005 11.9039 44.1268 11.2726 44.299 10.5092H44.2244L44.2187 10.5149ZM41.3431 13.1724C41.6703 13.1724 41.9974 13.0174 42.3246 12.7075C42.6517 12.3975 42.9617 12.0245 43.2544 11.5882C43.5471 11.152 43.8054 10.6986 44.035 10.228C44.2646 9.75731 44.4482 9.36127 44.5803 9.04559L45.16 5.94046C44.9763 5.81993 44.8098 5.73958 44.6606 5.69366C44.5114 5.65349 44.2933 5.62479 44.012 5.61331C43.4323 5.62479 42.91 5.80271 42.4451 6.14709C41.9859 6.49147 41.5957 6.93342 41.28 7.47295C40.9643 8.01247 40.7232 8.61513 40.5625 9.28092C40.3961 9.94672 40.3157 10.601 40.3157 11.2439C40.3157 11.8867 40.3903 12.3344 40.5453 12.6673C40.6945 13.0002 40.9586 13.1666 41.3374 13.1666L41.3431 13.1724Z" fill="#E6F4D1"/>
<path d="M54.7394 12.4606C54.6303 12.6902 54.4754 12.9141 54.2687 13.1322C54.0621 13.3503 53.821 13.5454 53.5398 13.7233C53.2586 13.9013 52.9429 14.039 52.5928 14.1423C52.2427 14.2456 51.8638 14.2973 51.4621 14.2973C50.4519 14.2973 49.6828 14.0103 49.1433 13.4306C48.6037 12.8566 48.334 12.0588 48.334 11.0372C48.334 10.1763 48.4545 9.36123 48.6956 8.59786C48.9366 7.83449 49.281 7.16295 49.7172 6.59473C50.1534 6.02651 50.6872 5.57308 51.3071 5.24593C51.9327 4.91877 52.6272 4.75232 53.3906 4.75232C53.9703 4.75232 54.4754 4.90155 54.8944 5.20001C55.3133 5.49847 55.52 5.93468 55.52 6.52012C55.52 7.38106 55.0895 8.06408 54.2343 8.55768C53.3791 9.05703 51.9958 9.37845 50.096 9.52194C50.0501 9.72856 50.0157 9.92945 49.9985 10.1246C49.9812 10.3197 49.9698 10.5091 49.9698 10.6871C49.9698 11.416 50.1534 12.0072 50.5265 12.4721C50.8938 12.9313 51.4391 13.1666 52.1566 13.1666C52.3862 13.1666 52.6157 13.1322 52.8396 13.0575C53.0634 12.9829 53.2758 12.8911 53.4767 12.782C53.6776 12.673 53.8612 12.5582 54.0219 12.4377C54.1884 12.3171 54.3261 12.2081 54.4524 12.1105L54.7451 12.4549L54.7394 12.4606ZM52.8281 5.56161C52.3058 5.57309 51.8237 5.81414 51.3702 6.29053C50.9225 6.76692 50.538 7.5762 50.2223 8.72987C51.3989 8.69543 52.3173 8.49455 52.9716 8.12721C53.6259 7.75988 53.9531 7.25479 53.9531 6.60621C53.9531 6.35367 53.8784 6.11834 53.7235 5.90598C53.5742 5.68787 53.27 5.57883 52.8223 5.56161H52.8281Z" fill="#E6F4D1"/>
<path d="M62.8954 8.89058C62.9815 8.5175 63.0561 8.16739 63.125 7.84597C63.1938 7.52455 63.2226 7.20314 63.2226 6.88746C63.2226 6.60622 63.1594 6.37089 63.0331 6.17574C62.9069 5.98059 62.7002 5.88302 62.4247 5.88302C62.0976 5.88302 61.7647 6.01503 61.426 6.2848C61.0874 6.55456 60.7717 6.87598 60.479 7.24905C60.1863 7.62787 59.9223 8.01816 59.6869 8.42567C59.4516 8.83318 59.2737 9.17182 59.1474 9.43585L58.1832 14.0792H56.6564L58.2578 6.03225L57.15 5.86581L57.1845 5.41237C57.3567 5.32628 57.5461 5.24593 57.7584 5.16557C57.9708 5.08522 58.1889 5.01634 58.4128 4.95895C58.6366 4.89581 58.8547 4.84989 59.0671 4.81546C59.2794 4.78102 59.4746 4.75806 59.6582 4.75806L60.0198 4.97616L59.3253 8.19609H59.4172C59.6468 7.70822 59.9108 7.26053 60.2093 6.84154C60.5077 6.42255 60.8234 6.06095 61.1563 5.75102C61.4892 5.44108 61.8393 5.20001 62.2009 5.02208C62.5625 4.84415 62.9356 4.75806 63.3144 4.75806C63.8252 4.75806 64.1983 4.91877 64.4336 5.24019C64.6689 5.56161 64.7895 5.96337 64.7895 6.45124C64.7895 6.721 64.7608 7.0539 64.6976 7.44994C64.6345 7.85171 64.5656 8.22478 64.4795 8.58064L63.4406 13.0575H64.7895V13.5339C64.5484 13.7291 64.2499 13.884 63.9056 14.0046C63.5612 14.1251 63.2225 14.1882 62.8954 14.1882C62.5453 14.1882 62.2985 14.1136 62.1665 13.9701C62.0345 13.8266 61.9656 13.6659 61.9656 13.4995C61.9656 13.2699 61.9943 13.0174 62.0574 12.7419C62.1205 12.4664 62.1779 12.1909 62.2411 11.9154L62.8954 8.89632V8.89058Z" fill="#E6F4D1"/>
<path d="M66.8959 5.4354C67.1369 5.29765 67.3952 5.17138 67.6707 5.05659C67.9462 4.94179 68.216 4.8557 68.48 4.79256L68.7727 3.40932C68.9449 3.27731 69.1401 3.15677 69.3639 3.05346C69.5877 2.95015 69.8231 2.85258 70.0641 2.755L70.4487 2.9731L70.0125 4.97623H72.2681C72.2911 5.12546 72.2911 5.28617 72.2681 5.44688C72.2452 5.61332 72.1821 5.7683 72.0845 5.91753H69.8288L68.6809 11.1693C68.635 11.3989 68.5948 11.5997 68.5718 11.7777C68.5489 11.9556 68.5374 12.1106 68.5374 12.2598C68.5374 12.5755 68.6292 12.8051 68.8129 12.9486C68.9966 13.092 69.1974 13.1667 69.4156 13.1667C69.7198 13.1667 70.0412 13.1093 70.3913 12.9945C70.7414 12.8797 71.0571 12.7477 71.3498 12.6042L71.5507 12.9313C71.4416 13.092 71.2752 13.247 71.0571 13.402C70.839 13.5569 70.5922 13.7062 70.3224 13.8382C70.0527 13.9702 69.7657 14.0793 69.4672 14.1653C69.1687 14.2514 68.8875 14.2916 68.6235 14.2916C68.0897 14.2916 67.6707 14.1711 67.3665 13.93C67.0623 13.689 66.9131 13.3159 66.9131 12.8051C66.9131 12.6386 66.9303 12.4492 66.959 12.2426C66.9877 12.036 67.0279 11.8236 67.0795 11.6055L68.2791 5.91179H66.8959L66.9131 5.42392L66.8959 5.4354Z" fill="#E6F4D1"/>
<path d="M73.3242 5.87154V5.41811C73.5079 5.3435 73.7145 5.26888 73.9441 5.18852C74.1737 5.10817 74.409 5.03929 74.6558 4.9819C74.8969 4.91876 75.1265 4.86711 75.3503 4.82693C75.5684 4.78676 75.7636 4.7638 75.93 4.7638L76.2572 4.9819L74.5468 13.0633H75.8956V13.5397C75.643 13.7348 75.3446 13.8898 75.0059 14.0103C74.6673 14.1308 74.3344 14.194 74.0072 14.194C73.6571 14.194 73.4046 14.1136 73.2496 13.9586C73.1004 13.8037 73.02 13.62 73.02 13.4134C73.02 13.1723 73.0372 12.9313 73.0774 12.7017C73.1119 12.4721 73.1635 12.2138 73.2209 11.9383L74.4951 6.06095L73.33 5.87727L73.3242 5.87154ZM74.7993 1.83085C74.7993 1.51518 74.8969 1.26837 75.092 1.0847C75.2872 0.901035 75.5397 0.809204 75.8554 0.809204C76.194 0.809204 76.4638 0.901035 76.6589 1.0847C76.8541 1.26837 76.9517 1.51518 76.9517 1.83085C76.9517 2.14653 76.8541 2.37037 76.6589 2.54256C76.4638 2.71475 76.1998 2.7951 75.8554 2.7951C75.5397 2.7951 75.2872 2.70901 75.092 2.54256C74.8969 2.37037 74.7993 2.13505 74.7993 1.83085Z" fill="#E6F4D1"/>
<path d="M79.4369 5.92324H78.1053V5.43538C78.3464 5.29763 78.6046 5.1771 78.8801 5.06805C79.1556 4.959 79.4082 4.87864 79.655 4.8155L79.7812 4.17841C79.9362 3.42652 80.1543 2.80664 80.4298 2.31303C80.7053 1.81943 81.021 1.43487 81.3883 1.14789C81.7499 0.860911 82.1517 0.665765 82.5879 0.556712C83.0241 0.44766 83.4948 0.390259 83.9884 0.390259C84.195 0.390259 84.4418 0.41322 84.7231 0.464877C85.01 0.510793 85.2454 0.585411 85.4405 0.682985C85.4176 0.947007 85.3544 1.22825 85.2511 1.50949C85.1478 1.79073 84.9756 2.04327 84.7345 2.24416L83.3513 1.11346C83.1332 1.17659 82.9323 1.23972 82.7486 1.31434C82.565 1.38895 82.3928 1.52097 82.2321 1.72185C82.0714 1.92274 81.9107 2.20398 81.7672 2.56558C81.6237 2.92717 81.4802 3.42651 81.3482 4.05787L81.1645 4.97048H83.1848C83.248 5.28615 83.1848 5.60183 83.0012 5.91751H80.9808L79.8157 13.3044C79.6837 14.1653 79.4598 14.877 79.1442 15.4453C78.8285 16.0135 78.4898 16.4727 78.134 16.8228C77.7781 17.1729 77.428 17.4312 77.0894 17.6034C76.7507 17.7698 76.4867 17.8846 76.3088 17.9305L76.1423 17.5287C76.2858 17.4541 76.4638 17.3279 76.6704 17.1385C76.877 16.949 77.0779 16.7022 77.2788 16.3866C77.4797 16.0709 77.6691 15.6863 77.8413 15.2329C78.0192 14.7795 78.1512 14.2514 78.2488 13.643L79.4311 5.91177L79.4369 5.92324Z" fill="#E6F4D1"/>
<path d="M84.5337 5.87154V5.41811C84.7174 5.3435 84.924 5.26888 85.1536 5.18852C85.3832 5.10817 85.6185 5.03929 85.8653 4.9819C86.1063 4.91876 86.3359 4.86711 86.5598 4.82693C86.7779 4.78676 86.973 4.7638 87.1395 4.7638L87.4666 4.9819L85.7562 13.0633H87.105V13.5397C86.8525 13.7348 86.554 13.8898 86.2154 14.0103C85.8768 14.1308 85.5439 14.194 85.2167 14.194C84.8666 14.194 84.6141 14.1136 84.4591 13.9586C84.3099 13.8037 84.2295 13.62 84.2295 13.4134C84.2295 13.1723 84.2467 12.9313 84.2812 12.7017C84.3156 12.4721 84.3673 12.2138 84.4247 11.9383L85.6988 6.06095L84.5337 5.87727V5.87154ZM86.0088 1.83085C86.0088 1.51518 86.1064 1.26837 86.3015 1.0847C86.4966 0.901035 86.7492 0.809204 87.0649 0.809204C87.4035 0.809204 87.6733 0.901035 87.8684 1.0847C88.0636 1.26837 88.1611 1.51518 88.1611 1.83085C88.1611 2.14653 88.0636 2.37037 87.8684 2.54256C87.6733 2.71475 87.4092 2.7951 87.0649 2.7951C86.7492 2.7951 86.4966 2.70901 86.3015 2.54256C86.1064 2.37037 86.0088 2.13505 86.0088 1.83085Z" fill="#E6F4D1"/>
<path d="M95.2553 12.4606C95.1233 12.6902 94.9511 12.9141 94.7445 13.1322C94.5378 13.3503 94.2968 13.5454 94.0155 13.7233C93.7343 13.9013 93.4244 14.039 93.08 14.1423C92.7356 14.2456 92.3568 14.2973 91.9435 14.2973C91.0482 14.2973 90.3365 14.0103 89.8141 13.4421C89.2918 12.8739 89.0336 12.0933 89.0336 11.1118C89.0336 10.2394 89.1713 9.41862 89.4525 8.64378C89.7338 7.86893 90.1126 7.19739 90.589 6.62343C91.0654 6.04947 91.6336 5.59031 92.2822 5.25741C92.9308 4.92451 93.6252 4.75806 94.3657 4.75806C94.8248 4.75806 95.2036 4.79823 95.4964 4.87285C95.7891 4.94746 96.0072 5.05078 96.1507 5.18853C96.1622 5.32628 96.1507 5.47551 96.122 5.64196C96.0933 5.80841 96.0416 5.96912 95.9785 6.12409C95.9096 6.2848 95.8293 6.42828 95.7259 6.56029C95.6226 6.69231 95.5193 6.78415 95.4045 6.8358L94.1648 5.56161C93.7515 5.57309 93.344 5.69936 92.9365 5.94616C92.529 6.18722 92.1674 6.5316 91.846 6.97929C91.5246 7.42698 91.2605 7.9665 91.0654 8.60359C90.8702 9.24069 90.7727 9.95814 90.7841 10.7559C90.7727 11.5939 90.9391 12.2023 91.2835 12.5926C91.6279 12.9829 92.0985 13.1723 92.6954 13.1723C92.948 13.1723 93.189 13.1379 93.4129 13.0633C93.6367 12.9887 93.8491 12.8968 94.0385 12.7878C94.2337 12.6787 94.4058 12.5639 94.5665 12.4434C94.7215 12.3229 94.865 12.2138 94.9855 12.1162L95.261 12.4606H95.2553Z" fill="#E6F4D1"/>
<path d="M102.413 10.515C102.252 10.9512 102.057 11.3932 101.821 11.8409C101.586 12.2886 101.311 12.6961 101.001 13.0577C100.691 13.4193 100.346 13.7177 99.9733 13.9473C99.5945 14.1769 99.1985 14.2917 98.7737 14.2917C97.511 14.2917 96.8796 13.3733 96.8796 11.5424C96.8796 10.6929 97.0002 9.86643 97.2412 9.05715C97.4823 8.24786 97.8382 7.53042 98.2973 6.89906C98.7565 6.2677 99.319 5.76261 99.979 5.37806C100.639 4.9935 101.391 4.80409 102.229 4.80409C102.533 4.80409 102.774 4.83279 102.958 4.88445C103.142 4.93611 103.36 5.0222 103.612 5.13126C104.1 4.87871 104.605 4.7467 105.139 4.7467L103.503 13.0462H104.835V13.5111C104.594 13.7062 104.301 13.8669 103.962 13.9932C103.624 14.1195 103.291 14.1769 102.964 14.1769C102.614 14.1769 102.361 14.1023 102.206 13.9473C102.057 13.7981 101.976 13.6374 101.976 13.4652C101.976 13.2471 102.017 12.8912 102.103 12.3919C102.189 11.8925 102.315 11.2612 102.487 10.4978H102.413V10.515ZM99.5371 13.1725C99.8642 13.1725 100.191 13.0175 100.519 12.7075C100.846 12.3976 101.156 12.0245 101.448 11.5883C101.741 11.1521 101.999 10.6987 102.229 10.228C102.459 9.75738 102.642 9.36135 102.774 9.04567L103.36 5.94054C103.187 5.82 103.027 5.73392 102.866 5.688C102.705 5.64208 102.487 5.61338 102.212 5.61338C101.655 5.61338 101.144 5.78557 100.691 6.12994C100.237 6.47432 99.847 6.92201 99.5256 7.46727C99.2042 8.01254 98.9574 8.6152 98.7794 9.28099C98.6015 9.94679 98.5154 10.6011 98.5154 11.2439C98.5154 11.8868 98.59 12.3345 98.745 12.6674C98.8942 13.0003 99.1583 13.1667 99.5371 13.1667V13.1725Z" fill="#E6F4D1"/>
<path d="M111.384 6.08965C111.068 6.21018 110.712 6.52012 110.316 7.00798C109.92 7.50159 109.57 8.16165 109.271 8.99963L108.181 14.0792H106.614L108.307 6.03225L107.199 5.86581V5.41237C107.613 5.21722 108.043 5.068 108.491 4.96468C108.939 4.86137 109.346 4.7925 109.708 4.75232L110.069 4.97043L109.558 7.39254H109.633C109.983 6.589 110.414 5.9519 110.924 5.46977C111.435 4.99338 111.98 4.75232 112.56 4.75232C112.715 4.75232 112.876 4.76954 113.031 4.79824C113.186 4.82694 113.341 4.88433 113.484 4.97043C113.484 5.07948 113.467 5.22297 113.433 5.4009C113.398 5.57883 113.347 5.75675 113.278 5.94041C113.209 6.12408 113.14 6.29628 113.06 6.45698C112.979 6.62343 112.899 6.74396 112.813 6.83006L111.372 6.0839L111.384 6.08965Z" fill="#E6F4D1"/>
<path d="M13.9308 30.1559V30.242C13.9308 31.0571 13.8504 31.6884 13.684 32.1361C13.5232 32.5781 13.2879 32.9282 12.9837 33.1865C12.6795 33.439 12.3179 33.6973 11.8989 33.9613C11.5201 34.1851 11.1987 34.4836 10.9404 34.8567C10.6821 35.2298 10.5501 35.6717 10.5501 36.1883C10.5501 36.6073 10.6477 36.9746 10.8486 37.2788C11.0495 37.5887 11.3135 37.8241 11.6464 37.9963C11.9793 38.1627 12.3466 38.2488 12.7599 38.2488C13.11 38.2488 13.4486 38.1742 13.7758 38.0307C14.1029 37.8872 14.3727 37.6576 14.5966 37.3419C14.8204 37.0263 14.9467 36.6187 14.9811 36.1136H16.5997C16.571 36.8426 16.3816 37.4682 16.0372 37.9848C15.6928 38.5013 15.2336 38.9031 14.6654 39.1786C14.0972 39.4541 13.4601 39.5976 12.7656 39.5976C12.008 39.5976 11.3479 39.4484 10.7854 39.1442C10.223 38.84 9.78675 38.4267 9.47681 37.9044C9.16687 37.3821 9.0119 36.7852 9.0119 36.1136C9.0119 35.3905 9.1726 34.7763 9.48828 34.2655C9.80396 33.7547 10.2459 33.3299 10.8084 32.9856C11.193 32.7502 11.5029 32.5207 11.7325 32.3083C11.9621 32.0959 12.1285 31.8319 12.2318 31.5162C12.3351 31.2006 12.3868 30.7758 12.3868 30.2478V30.1617H13.9308V30.1559ZM13.1444 26.0636C13.4658 26.0636 13.7413 26.1784 13.9652 26.408C14.1948 26.6376 14.3096 26.9131 14.3096 27.2287C14.3096 27.5444 14.1948 27.8257 13.9652 28.0495C13.7356 28.2733 13.4601 28.3939 13.1444 28.3939C12.8288 28.3939 12.5475 28.2791 12.3237 28.0495C12.0941 27.8199 11.9793 27.5444 11.9793 27.2287C11.9793 26.9131 12.0941 26.6376 12.3237 26.408C12.5532 26.1784 12.8288 26.0636 13.1444 26.0636Z" fill="#E6F4D1"/>
<path d="M23.4183 36.2513C22.2934 36.2513 21.2889 35.9758 20.405 35.4248C19.5211 34.8738 18.8266 34.0875 18.3215 33.0716C17.8165 32.0557 17.5639 30.8503 17.5639 29.4556C17.5639 28.0609 17.8165 26.8498 18.3215 25.8282C18.8266 24.8065 19.5211 24.0259 20.405 23.4749C21.2889 22.9239 22.2934 22.6484 23.4183 22.6484C24.5433 22.6484 25.5535 22.9239 26.4316 23.4749C27.3098 24.0259 27.9985 24.8123 28.5036 25.8282C29.0087 26.8441 29.2612 28.0552 29.2612 29.4556C29.2612 30.8561 29.0087 32.0499 28.5036 33.0716C27.9985 34.0932 27.3098 34.8738 26.4316 35.4248C25.5535 35.9758 24.549 36.2513 23.4183 36.2513ZM23.4183 34.759C24.2161 34.759 24.9451 34.5581 25.5936 34.1506C26.2422 33.7431 26.7588 33.1462 27.1376 32.3599C27.5221 31.5735 27.7115 30.6035 27.7115 29.4614C27.7115 28.3192 27.5221 27.3434 27.1376 26.5514C26.753 25.7593 26.2422 25.1624 25.5936 24.7549C24.9451 24.3474 24.2219 24.1465 23.4183 24.1465C22.6148 24.1465 21.8916 24.3474 21.243 24.7549C20.5887 25.1624 20.0721 25.7593 19.6876 26.5514C19.303 27.3434 19.1079 28.3134 19.1079 29.4614C19.1079 30.6093 19.303 31.5735 19.6876 32.3599C20.0721 33.1462 20.5887 33.7431 21.243 34.1506C21.8973 34.5581 22.6205 34.759 23.4183 34.759ZM22.8903 31.9294H24.6523L26.1274 33.8694L26.5005 34.386L28.7045 37.3189H26.9424L25.5018 35.3789L25.1287 34.8796L22.8903 31.9294Z" fill="#E6F4D1"/>
<path d="M37.1475 32.0213V26.1382H38.657V36.0735H37.1475V34.386H37.0384C36.8031 34.8911 36.4415 35.3216 35.9479 35.6774C35.46 36.0333 34.8402 36.2055 34.0883 36.1997C33.4684 36.1997 32.9174 36.0677 32.4353 35.798C31.9531 35.5282 31.5801 35.1149 31.3045 34.5582C31.029 34.0015 30.8913 33.3012 30.8913 32.4518V26.1382H32.4008V32.3599C32.4008 33.0774 32.6074 33.6513 33.0207 34.0818C33.4339 34.5123 33.9563 34.7304 34.5876 34.7189C34.9664 34.7189 35.351 34.6213 35.747 34.4319C36.143 34.2425 36.4702 33.9441 36.74 33.5423C37.0097 33.1405 37.1475 32.6354 37.1475 32.0156V32.0213Z" fill="#E6F4D1"/>
<path d="M44.7754 36.2858C43.8226 36.2858 42.9961 36.0735 42.3016 35.643C41.6072 35.2183 41.0734 34.6213 40.7003 33.8522C40.3272 33.0831 40.1378 32.1935 40.1378 31.1833C40.1378 30.1731 40.3215 29.2663 40.6888 28.4914C41.0562 27.7166 41.5727 27.1082 42.2385 26.672C42.9043 26.2358 43.6849 26.0119 44.5803 26.0119C45.0968 26.0119 45.6077 26.098 46.1185 26.2702C46.6293 26.4424 47.0942 26.7179 47.5075 27.1082C47.9207 27.4985 48.2594 28.0036 48.5062 28.6349C48.753 29.2663 48.8792 30.0469 48.8792 30.9709V31.631H41.2169V30.3166H48.0527L47.3525 30.816C47.3525 30.1502 47.2492 29.5647 47.0426 29.0482C46.8359 28.5316 46.526 28.1298 46.1128 27.8314C45.6995 27.5329 45.1887 27.3894 44.5803 27.3894C43.9719 27.3894 43.4496 27.5387 43.0134 27.8371C42.5771 28.1356 42.2442 28.5259 42.0147 29.008C41.7851 29.4901 41.6703 30.001 41.6703 30.552V31.4244C41.6703 32.1763 41.8023 32.8134 42.0606 33.3357C42.3189 33.858 42.6862 34.254 43.1511 34.5238C43.6218 34.7935 44.1613 34.9255 44.7754 34.9255C45.1714 34.9255 45.5331 34.8681 45.8602 34.7534C46.1874 34.6386 46.4686 34.4606 46.7039 34.231C46.9393 33.9957 47.1229 33.7087 47.2492 33.3644L48.7243 33.7891C48.5693 34.2884 48.311 34.7247 47.9494 35.0977C47.5821 35.4765 47.1344 35.7693 46.5949 35.9759C46.0554 36.1825 45.4527 36.2916 44.7812 36.2916L44.7754 36.2858ZM43.7997 24.8927L45.0452 22.4591H46.7671L45.0624 24.8927H43.7997Z" fill="#E6F4D1"/>
<path d="M56.0996 30.0985V36.0734H54.5901V26.1381H56.048V27.705H56.1914C56.421 27.1942 56.7769 26.7867 57.2475 26.4768C57.7182 26.1668 58.3323 26.0118 59.0899 26.0118C59.7615 26.0118 60.3469 26.1496 60.852 26.4194C61.3571 26.6891 61.7474 27.1024 62.0286 27.6591C62.3099 28.2159 62.4534 28.9161 62.4534 29.7598V36.0676H60.9438V29.8631C60.9438 29.0883 60.7372 28.4799 60.3297 28.0379C59.9222 27.596 59.3654 27.3779 58.6595 27.3779C58.1716 27.3779 57.7354 27.4869 57.3508 27.6993C56.9663 27.9117 56.6621 28.2216 56.4382 28.6234C56.2144 29.0251 56.1053 29.5187 56.1053 30.0985H56.0996Z" fill="#E6F4D1"/>
<path d="M68.4168 36.2859C67.5215 36.2859 66.7351 36.0735 66.0636 35.643C65.3863 35.2183 64.864 34.6156 64.4852 33.8465C64.1064 33.0774 63.9227 32.182 63.9227 31.1604C63.9227 30.1387 64.1121 29.2204 64.4852 28.4456C64.864 27.6707 65.3863 27.0738 66.0636 26.6433C66.7409 26.2186 67.5215 26.0005 68.4168 26.0005C69.3122 26.0005 70.1043 26.2129 70.7816 26.6433C71.4588 27.0681 71.9869 27.6707 72.3657 28.4456C72.7445 29.2204 72.9339 30.1215 72.9339 31.1604C72.9339 32.1993 72.7445 33.0717 72.3657 33.8465C71.9869 34.6156 71.4588 35.2126 70.7816 35.643C70.1043 36.0678 69.318 36.2859 68.4168 36.2859ZM68.4168 34.9198C69.1056 34.9198 69.6681 34.7477 70.1043 34.3975C70.5405 34.0474 70.8677 33.5883 71.08 33.0143C71.2924 32.4403 71.4014 31.8262 71.4014 31.1719C71.4014 30.5176 71.2924 29.8805 71.08 29.3065C70.8677 28.7325 70.5405 28.2676 70.1043 27.9175C69.6681 27.5674 69.0999 27.3895 68.4168 27.3895C67.7338 27.3895 67.1828 27.5674 66.7466 27.9175C66.3104 28.2676 65.9833 28.7325 65.7709 29.3065C65.5585 29.8805 65.4495 30.5061 65.4495 31.1719C65.4495 31.8377 65.5585 32.4461 65.7709 33.0143C65.9833 33.5883 66.3104 34.0474 66.7466 34.3975C67.1828 34.7477 67.7396 34.9198 68.4168 34.9198Z" fill="#E6F4D1"/>
<path d="M81.4285 28.3766L80.0625 28.7496C79.9305 28.411 79.7067 28.0896 79.391 27.7854C79.0753 27.4812 78.5817 27.3262 77.9102 27.3262C77.3075 27.3262 76.8024 27.4697 76.4006 27.7509C75.9989 28.0322 75.798 28.3823 75.798 28.8013C75.798 29.1801 75.9357 29.4843 76.2112 29.7082C76.4867 29.932 76.9172 30.1157 77.5026 30.2592L78.9777 30.615C79.8616 30.8274 80.5217 31.1545 80.9579 31.6022C81.3941 32.0499 81.6122 32.6124 81.6122 33.3012C81.6122 33.8694 81.4515 34.3802 81.1243 34.8279C80.7972 35.2756 80.3437 35.6314 79.764 35.8955C79.1843 36.1537 78.5071 36.2858 77.738 36.2858C76.7221 36.2858 75.8898 36.0619 75.2298 35.62C74.5697 35.178 74.1507 34.5352 73.9728 33.6914L75.4134 33.3356C75.5512 33.8694 75.8095 34.2711 76.1998 34.5352C76.59 34.7992 77.0951 34.9369 77.7265 34.9369C78.4325 34.9369 78.995 34.782 79.4197 34.4778C79.8444 34.1736 80.0568 33.812 80.0568 33.3872C80.0568 32.687 79.5632 32.2221 78.5817 31.981L76.9287 31.5907C76.0161 31.3726 75.3445 31.034 74.9198 30.5863C74.4951 30.1386 74.277 29.5704 74.277 28.8874C74.277 28.3249 74.4377 27.8256 74.7534 27.3951C75.0691 26.9646 75.5053 26.626 76.0563 26.3792C76.6073 26.1324 77.2271 26.0118 77.9216 26.0118C78.9088 26.0118 79.6837 26.2299 80.2462 26.6662C80.8087 27.1024 81.2047 27.6706 81.44 28.3766H81.4285Z" fill="#E6F4D1"/>
<path d="M87.3289 39.7869V26.1324H88.7867V27.7165H88.9646C89.0794 27.5443 89.2344 27.3262 89.4353 27.0565C89.6362 26.7867 89.9289 26.5456 90.3077 26.3333C90.6865 26.1209 91.1974 26.0118 91.8459 26.0118C92.6839 26.0118 93.4186 26.2185 94.0499 26.6375C94.6813 27.0565 95.1806 27.6476 95.5365 28.4167C95.8924 29.1858 96.076 30.087 96.076 31.1316C96.076 32.1762 95.8981 33.0888 95.5422 33.8636C95.1864 34.6385 94.6928 35.2354 94.0557 35.6544C93.4243 36.0734 92.6897 36.2858 91.8631 36.2858C91.2318 36.2858 90.721 36.1767 90.3364 35.9586C89.9519 35.7405 89.6534 35.4994 89.4468 35.2182C89.2401 34.9427 89.0794 34.7131 88.9646 34.5409H88.8384V39.7869H87.3289ZM91.668 34.9197C92.2994 34.9197 92.8331 34.7475 93.2579 34.4089C93.6826 34.0703 94.004 33.6111 94.2221 33.0371C94.4402 32.4632 94.5435 31.8203 94.5435 31.1201C94.5435 30.4199 94.4345 29.7885 94.2221 29.226C94.0098 28.6635 93.6883 28.2159 93.2636 27.883C92.8389 27.5501 92.3051 27.3836 91.6623 27.3836C91.0194 27.3836 90.5201 27.5386 90.0953 27.8485C89.6763 28.1585 89.3549 28.5947 89.1368 29.1572C88.9187 29.7196 88.8097 30.3682 88.8097 31.1144C88.8097 31.8605 88.9187 32.5206 89.1368 33.0945C89.3549 33.6685 89.6764 34.1162 90.1011 34.4376C90.5258 34.759 91.0424 34.9197 91.6508 34.9197H91.668Z" fill="#E6F4D1"/>
<path d="M103.813 32.0213V26.1382H105.323V36.0735H103.813V34.386H103.704C103.469 34.8911 103.101 35.3216 102.613 35.6774C102.126 36.0333 101.506 36.2055 100.754 36.1997C100.134 36.1997 99.5829 36.0677 99.1008 35.798C98.6187 35.5282 98.2456 35.1149 97.9701 34.5582C97.6946 34.0015 97.5568 33.3012 97.5568 32.4518V26.1382H99.0663V32.3599C99.0663 33.0774 99.273 33.6513 99.6862 34.0818C100.099 34.5123 100.622 34.7304 101.253 34.7189C101.632 34.7189 102.017 34.6213 102.413 34.4319C102.809 34.2425 103.136 33.9441 103.405 33.5423C103.675 33.1405 103.807 32.6354 103.807 32.0156L103.813 32.0213Z" fill="#E6F4D1"/>
<path d="M111.435 36.2858C110.483 36.2858 109.656 36.0734 108.962 35.6429C108.267 35.2182 107.733 34.6213 107.36 33.8522C106.987 33.083 106.798 32.1934 106.798 31.1832C106.798 30.1731 106.981 29.2662 107.349 28.4914C107.716 27.7165 108.233 27.1081 108.898 26.6719C109.564 26.2357 110.345 26.0118 111.24 26.0118C111.757 26.0118 112.268 26.0979 112.778 26.2701C113.289 26.4423 113.754 26.7178 114.167 27.1081C114.586 27.4927 114.919 28.0035 115.166 28.6348C115.413 29.2662 115.539 30.0468 115.539 30.9709V31.6309H107.877V30.3165H114.713L114.012 30.8159C114.012 30.1501 113.909 29.5647 113.702 29.0481C113.496 28.5315 113.186 28.1298 112.773 27.8313C112.359 27.5328 111.849 27.3894 111.24 27.3894C110.632 27.3894 110.109 27.5386 109.673 27.837C109.237 28.1355 108.904 28.5258 108.675 29.0079C108.445 29.49 108.33 30.0009 108.33 30.5519V31.4243C108.33 32.1762 108.462 32.8133 108.72 33.3356C108.979 33.8579 109.346 34.2539 109.817 34.5237C110.287 34.7934 110.827 34.9255 111.441 34.9255C111.837 34.9255 112.199 34.8681 112.526 34.7533C112.853 34.6385 113.134 34.4606 113.37 34.231C113.605 33.9956 113.789 33.7087 113.909 33.3643L115.384 33.789C115.229 34.2884 114.971 34.7246 114.609 35.0976C114.242 35.4765 113.794 35.7692 113.255 35.9758C112.715 36.1882 112.113 36.2915 111.441 36.2915L111.435 36.2858Z" fill="#E6F4D1"/>
<path d="M120.716 36.2857C119.884 36.2857 119.155 36.0733 118.518 35.6543C117.887 35.2353 117.387 34.6384 117.031 33.8636C116.676 33.0887 116.498 32.1819 116.498 31.1315C116.498 30.0812 116.676 29.1858 117.037 28.4167C117.393 27.6476 117.892 27.0564 118.524 26.6374C119.155 26.2184 119.89 26.0118 120.728 26.0118C121.382 26.0118 121.893 26.1208 122.272 26.3332C122.65 26.5456 122.937 26.7866 123.138 27.0564C123.339 27.3261 123.494 27.5442 123.609 27.7164H123.735V22.8263H125.245V36.0676H123.787V34.5408H123.609C123.494 34.7188 123.339 34.9426 123.127 35.2181C122.92 35.4936 122.622 35.7404 122.243 35.9585C121.858 36.1766 121.348 36.2857 120.711 36.2857H120.716ZM120.911 34.9197C121.526 34.9197 122.048 34.7589 122.467 34.4375C122.886 34.1161 123.207 33.6684 123.425 33.0945C123.643 32.5205 123.752 31.8662 123.752 31.1143C123.752 30.3624 123.643 29.7138 123.431 29.1571C123.219 28.6003 122.897 28.1641 122.473 27.8485C122.048 27.5385 121.526 27.3835 120.906 27.3835C120.286 27.3835 119.735 27.55 119.304 27.8829C118.874 28.2158 118.558 28.6635 118.346 29.226C118.133 29.7884 118.024 30.4198 118.024 31.12C118.024 31.8203 118.133 32.4631 118.346 33.0371C118.564 33.611 118.885 34.0702 119.31 34.4088C119.735 34.7475 120.269 34.9197 120.9 34.9197H120.911Z" fill="#E6F4D1"/>
<path d="M131.363 36.2858C130.41 36.2858 129.584 36.0734 128.889 35.6429C128.195 35.2182 127.655 34.6213 127.282 33.8522C126.909 33.083 126.72 32.1934 126.72 31.1832C126.72 30.1731 126.904 29.2662 127.271 28.4914C127.638 27.7165 128.155 27.1081 128.821 26.6719C129.486 26.2357 130.267 26.0118 131.162 26.0118C131.679 26.0118 132.19 26.0979 132.701 26.2701C133.211 26.4423 133.676 26.7178 134.09 27.1081C134.503 27.4984 134.841 28.0035 135.088 28.6348C135.335 29.2662 135.461 30.0468 135.461 30.9709V31.6309H127.799V30.3165H134.635L133.935 30.8159C133.935 30.1501 133.831 29.5647 133.625 29.0481C133.418 28.5315 133.108 28.1298 132.695 27.8313C132.282 27.5328 131.771 27.3894 131.162 27.3894C130.554 27.3894 130.032 27.5386 129.595 27.837C129.159 28.1355 128.826 28.5258 128.597 29.0079C128.367 29.49 128.252 30.0009 128.252 30.5519V31.4243C128.252 32.1762 128.384 32.8133 128.643 33.3356C128.901 33.8579 129.268 34.2539 129.733 34.5237C130.204 34.7934 130.743 34.9255 131.357 34.9255C131.753 34.9255 132.115 34.8681 132.442 34.7533C132.769 34.6385 133.051 34.4606 133.286 34.231C133.521 33.9956 133.705 33.7087 133.825 33.3643L135.301 33.789C135.146 34.2884 134.887 34.7246 134.526 35.0976C134.164 35.4765 133.711 35.7692 133.171 35.9758C132.632 36.1882 132.029 36.2915 131.357 36.2915L131.363 36.2858Z" fill="#E6F4D1"/>
<path d="M44.4884 58.2972C43.8628 58.2972 43.2888 58.1767 42.7723 57.9356C42.2557 57.6946 41.8482 57.3502 41.544 56.891C41.2398 56.4376 41.0906 55.8866 41.0906 55.238C41.0906 54.6698 41.2054 54.2106 41.4292 53.8548C41.6531 53.5047 41.9572 53.2234 42.3303 53.0168C42.7034 52.8102 43.1224 52.6609 43.5758 52.5576C44.0292 52.4601 44.4884 52.3797 44.9476 52.3166C45.5503 52.2419 46.0439 52.1788 46.4169 52.1386C46.7957 52.0985 47.0713 52.0238 47.2434 51.9263C47.4156 51.823 47.5075 51.6508 47.5075 51.4097V51.3581C47.5075 50.7267 47.3353 50.2331 46.9852 49.8772C46.6408 49.5271 46.1127 49.3492 45.4068 49.3492C44.7008 49.3492 44.1153 49.5099 43.7021 49.8256C43.2888 50.1412 42.9961 50.4799 42.8297 50.8415L41.3718 50.3249C41.6301 49.7223 41.9802 49.2516 42.4164 48.913C42.8526 48.5743 43.3233 48.339 43.8398 48.2013C44.3507 48.0635 44.8558 47.9946 45.3551 47.9946C45.6765 47.9946 46.0438 48.0291 46.4571 48.1037C46.8704 48.1783 47.2779 48.3333 47.6682 48.5628C48.0642 48.7982 48.3856 49.1483 48.6439 49.6189C48.9022 50.0896 49.0285 50.7209 49.0285 51.5073V58.0504H47.5017V56.7016H47.4328C47.3295 56.914 47.1573 57.1436 46.9163 57.3904C46.6752 57.6372 46.3538 57.8438 45.952 58.0217C45.5503 58.1997 45.0624 58.2857 44.4827 58.2857L44.4884 58.2972ZM44.7237 56.9312C45.3264 56.9312 45.8372 56.8107 46.2505 56.5754C46.6637 56.34 46.9794 56.0301 47.1918 55.657C47.4041 55.2782 47.5132 54.8879 47.5132 54.4804V53.0742C47.4501 53.1488 47.3066 53.2234 47.0885 53.2808C46.8704 53.3382 46.6236 53.3956 46.3423 53.4473C46.0611 53.4932 45.7856 53.5333 45.5216 53.5678C45.2575 53.6022 45.0394 53.6252 44.8845 53.6424C44.4884 53.6941 44.1153 53.7802 43.771 53.8949C43.4266 54.0097 43.1511 54.1819 42.9387 54.4058C42.7264 54.6296 42.623 54.9396 42.623 55.3299C42.623 55.8579 42.8182 56.2539 43.2142 56.5237C43.6103 56.7935 44.1096 56.9255 44.718 56.9255L44.7237 56.9312Z" fill="#E6F4D1"/>
<path d="M55.4052 48.1266V49.4237H50.0558V48.1266H55.4052ZM51.6572 58.0676V46.7606C51.6572 46.1923 51.7892 45.7159 52.059 45.3371C52.3287 44.9583 52.6788 44.6713 53.1036 44.4819C53.5283 44.2925 53.976 44.1949 54.4466 44.1949C54.8255 44.1949 55.1354 44.2236 55.3765 44.2868C55.6175 44.3499 55.7955 44.4073 55.9045 44.459L55.4626 45.7733C55.3879 45.7446 55.2789 45.7102 55.1469 45.67C55.0149 45.6299 54.8369 45.6126 54.6074 45.6126C54.1023 45.6126 53.7349 45.7389 53.5111 45.9972C53.2815 46.2555 53.1667 46.6285 53.1667 47.1222V58.0561H51.6572V58.0676Z" fill="#E6F4D1"/>
<path d="M60.456 58.2801C59.5033 58.2801 58.6767 58.0678 57.9823 57.643C57.2878 57.2183 56.7482 56.6214 56.3752 55.8523C56.0021 55.0832 55.8127 54.1935 55.8127 53.1834C55.8127 52.1732 55.9963 51.2663 56.3637 50.4915C56.731 49.7166 57.2476 49.1082 57.9134 48.672C58.5792 48.2358 59.3598 48.012 60.2551 48.012C60.7717 48.012 61.2825 48.0981 61.7933 48.2703C62.3042 48.4424 62.7691 48.7237 63.1823 49.1082C63.5956 49.4928 63.9342 50.0036 64.181 50.635C64.4278 51.2663 64.5541 52.0469 64.5541 52.971V53.631H56.8917V52.3167H63.7276L63.0274 52.816C63.0274 52.1502 62.9241 51.5648 62.7174 51.0482C62.5108 50.5317 62.2009 50.1241 61.7876 49.8314C61.3744 49.533 60.8635 49.3895 60.2551 49.3895C59.6467 49.3895 59.1244 49.5387 58.6882 49.8372C58.252 50.1356 57.9191 50.5259 57.6895 51.008C57.4599 51.4902 57.3451 52.001 57.3451 52.552V53.4244C57.3451 54.1763 57.4772 54.8134 57.7355 55.3357C57.9937 55.858 58.3611 56.2541 58.826 56.5238C59.2909 56.7936 59.8361 56.9256 60.4503 56.9256C60.8463 56.9256 61.2079 56.8682 61.5351 56.7534C61.8622 56.6386 62.1435 56.4607 62.3788 56.2311C62.6141 55.9958 62.7978 55.7088 62.9183 55.3644L64.3934 55.7891C64.2384 56.2885 63.9802 56.7247 63.6186 57.0978C63.257 57.4766 62.8035 57.7693 62.264 57.9759C61.7245 58.1883 61.1218 58.2916 60.4503 58.2916L60.456 58.2801Z" fill="#E6F4D1"/>
<path d="M70.0182 58.2801C69.0942 58.2801 68.2963 58.062 67.6248 57.6201C66.9533 57.1781 66.431 56.5755 66.0694 55.8006C65.702 55.0315 65.5241 54.1476 65.5241 53.1604C65.5241 52.1732 65.7135 51.2549 66.0866 50.48C66.4597 49.7052 66.982 49.1025 67.6535 48.6605C68.3251 48.2243 69.1114 48.0005 70.0067 48.0005C70.707 48.0005 71.3326 48.1267 71.8951 48.385C72.4576 48.6433 72.9167 49.0049 73.2726 49.4756C73.6284 49.9462 73.8523 50.4915 73.9327 51.1113H72.4059C72.3313 50.8071 72.1878 50.5259 71.9869 50.2562C71.786 49.9921 71.522 49.774 71.1891 49.6133C70.8619 49.4526 70.4717 49.3665 70.0182 49.3665C69.4271 49.3665 68.9047 49.5215 68.4628 49.8314C68.0208 50.1414 67.6707 50.5718 67.4239 51.1343C67.1771 51.6968 67.0508 52.3511 67.0508 53.103C67.0508 53.8549 67.1714 54.5379 67.4124 55.1061C67.6535 55.6744 67.9979 56.122 68.4456 56.432C68.8933 56.7477 69.4156 56.9026 70.0125 56.9026C70.6094 56.9026 71.126 56.7476 71.5507 56.4377C71.9754 56.1278 72.2567 55.703 72.3944 55.1635H73.9212C73.8408 55.749 73.6285 56.277 73.2841 56.7477C72.9454 57.2183 72.4978 57.5856 71.941 57.8611C71.39 58.1366 70.7414 58.2744 70.0067 58.2744L70.0182 58.2801Z" fill="#E6F4D1"/>
<path d="M79.6722 48.1266V49.4237H74.5353V48.1266H79.6722ZM76.0276 45.7676H77.5371V55.2265C77.5371 55.743 77.6462 56.1218 77.8585 56.3572C78.0709 56.5982 78.4095 56.7188 78.8744 56.7188C78.9777 56.7188 79.081 56.713 79.1901 56.7015C79.2991 56.6901 79.4197 56.6728 79.5517 56.6499L79.8731 58.0159C79.7296 58.0676 79.5574 58.1135 79.3508 58.1422C79.1442 58.1766 78.9376 58.1881 78.7309 58.1881C77.9331 58.1881 77.2788 57.9528 76.7795 57.4764C76.2801 57 76.0276 56.3858 76.0276 55.6282V45.7618V45.7676Z" fill="#E6F4D1"/>
<path d="M84.0401 58.2972C83.4145 58.2972 82.8405 58.1767 82.3239 57.9356C81.8074 57.6946 81.3998 57.3502 81.0956 56.891C80.7914 56.4319 80.6422 55.8866 80.6422 55.238C80.6422 54.6698 80.757 54.2106 80.9809 53.8548C81.2047 53.5047 81.5089 53.2234 81.882 53.0168C82.2608 52.8102 82.674 52.6609 83.1275 52.5576C83.5809 52.4601 84.0401 52.3797 84.4992 52.3166C85.1019 52.2419 85.5955 52.1788 85.9686 52.1386C86.3474 52.0985 86.6229 52.0238 86.7951 51.9263C86.9673 51.8287 87.0591 51.6508 87.0591 51.4097V51.3581C87.0591 50.7267 86.8869 50.2331 86.5368 49.8772C86.1924 49.5271 85.6644 49.3492 84.9584 49.3492C84.2524 49.3492 83.667 49.5099 83.2537 49.8256C82.8405 50.1412 82.5478 50.4799 82.3813 50.8415L80.9235 50.3249C81.1817 49.7223 81.5319 49.2516 81.9681 48.913C82.4043 48.5743 82.8749 48.339 83.3915 48.2013C83.9023 48.0635 84.4074 47.9946 84.9068 47.9946C85.2282 47.9946 85.5955 48.0291 86.0088 48.1037C86.422 48.1783 86.8295 48.3333 87.2198 48.5628C87.6159 48.7982 87.9373 49.1483 88.1955 49.6189C88.4538 50.0896 88.5801 50.7209 88.5801 51.5073V58.0504H87.0534V56.7016H86.9845C86.8812 56.914 86.709 57.1436 86.4679 57.3904C86.2269 57.6372 85.9054 57.8438 85.5037 58.0217C85.1019 58.1939 84.614 58.2857 84.0343 58.2857L84.0401 58.2972ZM84.2754 56.9312C84.8781 56.9312 85.3889 56.8107 85.8021 56.5754C86.2154 56.34 86.5311 56.0301 86.7434 55.657C86.9558 55.2782 87.0648 54.8879 87.0648 54.4804V53.0742C87.0017 53.1488 86.8582 53.2234 86.6401 53.2808C86.422 53.3439 86.1752 53.3956 85.894 53.4473C85.6127 53.4932 85.3372 53.5333 85.0732 53.5678C84.8092 53.6022 84.5911 53.6252 84.4304 53.6424C84.0343 53.6941 83.6612 53.7802 83.3169 53.8949C82.9725 54.0097 82.697 54.1819 82.4846 54.4058C82.2723 54.6296 82.169 54.9396 82.169 55.3299C82.169 55.8579 82.3641 56.2539 82.7601 56.5237C83.1562 56.7935 83.6555 56.9255 84.2639 56.9255L84.2754 56.9312Z" fill="#E6F4D1"/>
<path d="M90.5488 58.0676V48.1324H92.0066V49.6419H92.1157C92.2994 49.1483 92.6322 48.7523 93.1086 48.4481C93.585 48.1439 94.1188 47.9889 94.71 47.9889C94.8248 47.9889 94.9625 47.9889 95.129 47.9889C95.2954 47.9889 95.4217 47.9946 95.5135 48.0004V49.5443C95.4619 49.5329 95.3413 49.5156 95.1577 49.4927C94.974 49.4697 94.7789 49.4582 94.5722 49.4582C94.0901 49.4582 93.6654 49.5616 93.2808 49.7624C92.902 49.9633 92.6036 50.2388 92.3854 50.5889C92.1673 50.9391 92.064 51.3408 92.064 51.7885V58.0619H90.5545L90.5488 58.0676Z" fill="#E6F4D1"/>
<path d="M98.458 54.0844V53.9925C98.458 53.1718 98.5383 52.5347 98.7048 52.0927C98.8655 51.6508 99.1008 51.3006 99.405 51.0424C99.7092 50.7841 100.071 50.5258 100.49 50.2733C100.874 50.0494 101.196 49.751 101.454 49.3779C101.712 49.0105 101.839 48.5629 101.839 48.052C101.839 47.633 101.741 47.2657 101.546 46.9615C101.351 46.6516 101.087 46.4162 100.748 46.2441C100.415 46.0776 100.042 45.9915 99.6346 45.9915C99.2845 45.9915 98.9458 46.0661 98.6187 46.2096C98.2915 46.3531 98.0218 46.5827 97.7979 46.8926C97.5741 47.2026 97.4478 47.6158 97.4134 48.1266H95.7948C95.8235 47.3977 96.0129 46.7721 96.3573 46.2498C96.7016 45.7275 97.1608 45.3315 97.7348 45.056C98.3087 44.7805 98.9401 44.6427 99.6346 44.6427C100.398 44.6427 101.064 44.7919 101.621 45.0961C102.177 45.4003 102.613 45.8136 102.923 46.3359C103.233 46.8582 103.388 47.4551 103.388 48.1266C103.388 48.8441 103.228 49.4582 102.912 49.9691C102.596 50.4799 102.154 50.9104 101.592 51.2605C101.213 51.4901 100.903 51.7139 100.673 51.932C100.438 52.1501 100.272 52.4141 100.168 52.7298C100.065 53.0455 100.013 53.4702 100.013 53.9983V54.0901H98.4695L98.458 54.0844ZM99.25 58.171C98.9286 58.171 98.6531 58.0562 98.4293 57.8266C98.2054 57.597 98.0849 57.3215 98.0849 57.0058C98.0849 56.6902 98.1997 56.4089 98.4293 56.1851C98.6589 55.9612 98.9344 55.8407 99.25 55.8407C99.5657 55.8407 99.847 55.9555 100.071 56.1851C100.295 56.4146 100.415 56.6902 100.415 57.0058C100.415 57.3215 100.3 57.6027 100.071 57.8266C99.8412 58.0504 99.5657 58.171 99.25 58.171Z" fill="#E6F4D1"/>
<path d="M5.46479 69.7534H0.149902L0.258956 69.2253C0.586114 69.0818 0.919018 68.9613 1.25192 68.8637C1.58481 68.7662 1.92344 68.6801 2.26208 68.6112L4.15616 59.6746L4.50054 58.6013C4.15042 58.7333 3.77161 58.8309 3.36983 58.8826C2.96806 58.9342 2.57203 58.9572 2.18748 58.9457V58.5095C2.78439 58.3258 3.40427 58.102 4.06432 57.8379C4.71864 57.5739 5.34425 57.2238 5.94117 56.7991H6.3946L3.89787 68.6112C4.49479 68.7432 5.05154 68.9498 5.57384 69.2311L5.46479 69.7591V69.7534Z" fill="#E6F4D1"/>
<path d="M21.3291 87.6038C26.401 87.6038 30.5125 83.4923 30.5125 78.4204C30.5125 73.3486 26.401 69.2371 21.3291 69.2371C16.2573 69.2371 12.1458 73.3486 12.1458 78.4204C12.1458 83.4923 16.2573 87.6038 21.3291 87.6038Z" fill="#E6F4D1"/>
</svg>
