<svg width="143" height="99" viewBox="0 0 143 99" fill="none" xmlns="http://www.w3.org/2000/svg">
<path d="M19.982 4.41094H19.5285C19.4654 4.06083 19.4138 3.64757 19.3736 3.17119C19.3334 2.70054 19.3162 2.2471 19.3276 1.82237C19.8385 1.47226 20.378 1.18528 20.9405 0.967177C21.503 0.749071 22.1286 0.640015 22.8288 0.640015C23.4372 0.640015 23.948 0.708893 24.3556 0.840905C24.7631 0.972916 25.0959 1.16232 25.3427 1.39765C25.5953 1.63297 25.7732 1.90847 25.8823 2.21841C25.9913 2.52835 26.0487 2.86124 26.0487 3.21136C26.0487 3.91733 25.8364 4.64053 25.4174 5.38668C24.9984 6.13283 24.4646 6.86749 23.8275 7.59069C23.1904 8.31388 22.4902 9.00837 21.7383 9.67417C20.9807 10.34 20.2747 10.9426 19.6204 11.4649L18.7078 12.1824V12.257L19.7352 12.1479H22.8805L24.2178 10.0702H24.6712C24.6597 10.3629 24.6368 10.6671 24.5966 10.9885C24.5622 11.31 24.5163 11.6314 24.4589 11.947C24.4015 12.2627 24.3441 12.5612 24.2867 12.8482C24.2235 13.1352 24.1719 13.3877 24.1202 13.6058H16.5669L16.6931 13.0261C17.0547 12.7334 17.4967 12.3718 18.0018 11.9356C18.5126 11.4994 19.0464 11.0172 19.6146 10.4892C20.1771 9.96115 20.7396 9.39292 21.2963 8.78453C21.8531 8.17613 22.3524 7.56199 22.8001 6.93637C23.2421 6.31075 23.6037 5.68513 23.8849 5.05378C24.1661 4.42242 24.3039 3.81402 24.3039 3.23432C24.3039 2.74645 24.1547 2.35616 23.8562 2.05196C23.5577 1.74776 23.1215 1.59853 22.5361 1.59853C22.0253 1.59853 21.5661 1.67315 21.1528 1.81664L19.9877 4.42242L19.982 4.41094Z" fill="#E6F4D1"/>
<path d="M103.12 36.042H36.5407C32.7369 36.042 29.6532 39.1256 29.6532 42.9295V91.1423C29.6532 94.9461 32.7369 98.0298 36.5407 98.0298H103.12C106.924 98.0298 110.008 94.9461 110.008 91.1423V42.9295C110.008 39.1256 106.924 36.042 103.12 36.042Z" fill="#190905"/>
<path d="M41.1612 49.1855H37.0631L37.1722 48.6575C37.6428 48.4623 38.1192 48.3188 38.5898 48.2213L45.7816 36.2255H46.2579L48.3127 48.2213C48.5308 48.2672 48.7547 48.3303 48.9785 48.3934C49.2024 48.4623 49.409 48.5484 49.5869 48.6575L49.4951 49.1855H44.869L44.9608 48.6575C45.5061 48.4508 46.0399 48.3074 46.5622 48.2213L46.0169 44.8923H41.7409L39.7951 48.2213C40.3174 48.2959 40.8053 48.4394 41.253 48.6575L41.1612 49.1855ZM42.2747 43.9452H45.8791L45.2937 40.0882L45.2593 38.5213H45.2248L44.4959 40.1227L42.2747 43.9452Z" fill="#E6F4D1"/>
<path d="M57.2549 43.997C57.341 43.6239 57.4156 43.2738 57.4845 42.9524C57.5534 42.631 57.5821 42.3096 57.5821 41.9939C57.5821 41.7127 57.519 41.4773 57.3927 41.2822C57.2664 41.087 57.0598 40.9895 56.7843 40.9895C56.4571 40.9895 56.1242 41.1215 55.7856 41.3912C55.447 41.661 55.1313 41.9824 54.8386 42.3555C54.5458 42.7343 54.2818 43.1246 54.0465 43.5321C53.8112 43.9396 53.6332 44.2783 53.507 44.5423L52.5427 49.1856H51.016L52.6173 41.1387L51.5096 40.9723L51.544 40.5188C51.7162 40.4327 51.9056 40.3524 52.118 40.272C52.3304 40.1917 52.5485 40.1228 52.7723 40.0654C52.9962 40.0023 53.2142 39.9563 53.4266 39.9219C53.639 39.8875 53.8341 39.8645 54.0178 39.8645L54.3794 40.0826L53.6849 43.3025H53.7767C54.0063 42.8147 54.2704 42.367 54.5688 41.948C54.8673 41.529 55.1829 41.1674 55.5158 40.8575C55.8487 40.5475 56.1988 40.3065 56.5604 40.1285C56.922 39.9506 57.2951 39.8645 57.6739 39.8645C58.1848 39.8645 58.5578 40.0252 58.7932 40.3466C59.0285 40.6681 59.149 41.0698 59.149 41.5577C59.149 41.8274 59.1203 42.1603 59.0572 42.5564C58.994 42.9582 58.9252 43.3312 58.8391 43.6871L57.8002 48.164H59.149V48.6404C58.9079 48.8355 58.6095 48.9905 58.2651 49.111C57.9207 49.2315 57.5821 49.2947 57.2549 49.2947C56.9048 49.2947 56.658 49.2201 56.526 49.0766C56.394 48.9331 56.3251 48.7724 56.3251 48.6059C56.3251 48.3763 56.3538 48.1238 56.417 47.8483C56.4801 47.5728 56.5375 47.2973 56.6006 47.0218L57.2549 44.0028V43.997Z" fill="#E6F4D1"/>
<path d="M66.5934 45.6213C66.4384 46.0575 66.2375 46.4995 66.0022 46.9472C65.7669 47.3949 65.4914 47.8024 65.1815 48.164C64.8715 48.5256 64.5271 48.824 64.154 49.0536C63.7752 49.2832 63.3792 49.398 62.9545 49.398C61.6918 49.398 61.0604 48.4797 61.0604 46.6487C61.0604 45.7993 61.181 44.9728 61.422 44.1635C61.6631 43.3542 62.0189 42.6367 62.4781 42.0054C62.9373 41.374 63.4997 40.8689 64.1598 40.4844C64.8198 40.0998 65.5718 39.9104 66.4097 39.9104C66.7139 39.9104 66.955 39.9391 67.1387 39.9908C67.3223 40.0424 67.5404 40.1285 67.793 40.2376C68.2808 39.985 68.7859 39.853 69.3197 39.853L67.6839 48.1525H69.0155V48.6174C68.7745 48.8126 68.4817 48.9733 68.1431 49.0995C67.8044 49.2201 67.4716 49.2832 67.1444 49.2832C66.7943 49.2832 66.5417 49.2086 66.3868 49.0536C66.2375 48.9044 66.1572 48.7437 66.1572 48.5715C66.1572 48.3534 66.1974 47.9975 66.2835 47.4982C66.3696 46.9988 66.4958 46.3675 66.668 45.6041H66.5934V45.6213ZM63.7179 48.2788C64.045 48.2788 64.3722 48.1238 64.6993 47.8139C65.0265 47.5039 65.3364 47.1309 65.6291 46.6946C65.9219 46.2584 66.1802 45.805 66.4097 45.3343C66.6393 44.8637 66.823 44.4677 66.955 44.152L67.5347 41.0469C67.3625 40.9263 67.2018 40.8402 67.0411 40.7943C66.8861 40.7484 66.6623 40.7197 66.3868 40.7197C65.83 40.7197 65.3192 40.8919 64.8658 41.2363C64.4124 41.5806 64.0221 42.0283 63.7006 42.5736C63.3792 43.1189 63.1324 43.7215 62.9545 44.3873C62.7766 45.0531 62.6905 45.7074 62.6905 46.3503C62.6905 46.9931 62.7651 47.4408 62.9201 47.7737C63.0693 48.1066 63.3333 48.273 63.7121 48.273L63.7179 48.2788Z" fill="#E6F4D1"/>
<path d="M73.1825 36.771L71.891 36.6046V36.1511C72.0632 36.0765 72.2584 36.0077 72.4822 35.933C72.706 35.8584 72.9414 35.7896 73.1939 35.7264C73.4465 35.6633 73.6875 35.6059 73.9343 35.56C74.1754 35.5198 74.3935 35.4968 74.5887 35.4968L74.9502 35.6977L72.4363 48.1642H73.7679V48.6405C73.5268 48.8357 73.2284 48.9907 72.884 49.1112C72.5396 49.2317 72.201 49.2949 71.8738 49.2949C71.5237 49.2949 71.2654 49.2145 71.099 49.0595C70.9325 48.9046 70.8522 48.7209 70.8522 48.5143C70.8522 48.2732 70.8694 48.0321 70.9038 47.8026C70.9382 47.573 70.9899 47.3147 71.0473 47.0392L73.1767 36.771H73.1825Z" fill="#E6F4D1"/>
<path d="M76.3335 40.9781V40.5247C76.5172 40.4501 76.7238 40.3754 76.9534 40.2951C77.183 40.2147 77.4183 40.1459 77.6651 40.0885C77.9062 40.0253 78.1415 39.9737 78.3596 39.9335C78.5777 39.8933 78.7728 39.8704 78.9393 39.8704L79.2664 40.0885L77.5561 48.1698H78.9048V48.6462C78.6523 48.8414 78.3539 48.9963 78.0152 49.1169C77.6766 49.2374 77.3437 49.3006 77.0165 49.3006C76.6664 49.3006 76.4139 49.2202 76.2589 49.0652C76.1097 48.9103 76.0293 48.7266 76.0293 48.52C76.0293 48.2789 76.0465 48.0378 76.0867 47.8082C76.1269 47.5787 76.1728 47.3204 76.2302 47.0449L77.5044 41.1675L76.3393 40.9838L76.3335 40.9781ZM77.8086 36.9374C77.8086 36.6217 77.9062 36.3749 78.1013 36.1913C78.2965 36.0076 78.549 35.9158 78.8647 35.9158C79.2033 35.9158 79.4731 36.0076 79.6682 36.1913C79.8634 36.3749 79.961 36.6217 79.961 36.9374C79.961 37.2531 79.8634 37.4769 79.6682 37.6491C79.4731 37.8213 79.209 37.9017 78.8647 37.9017C78.549 37.9017 78.2965 37.8156 78.1013 37.6491C77.9062 37.4769 77.8086 37.2416 77.8086 36.9374Z" fill="#E6F4D1"/>
<path d="M82.2166 45.8968L86.2286 41.4544C85.6833 41.4888 85.0864 41.4831 84.4493 41.4314C83.8122 41.3798 83.1522 41.3109 82.4692 41.2133L81.6312 42.522L81.1777 42.4129L81.4303 40.559C81.5049 40.0884 81.832 39.8473 82.4175 39.8473C82.8537 39.8473 83.4908 39.9104 84.323 40.0367C85.1553 40.163 86.154 40.2605 87.3077 40.3179L87.7209 39.8645C87.8759 39.8875 88.0194 39.9506 88.1571 40.0482C88.2949 40.1458 88.3752 40.2778 88.3982 40.45L82.1535 47.3662C82.8652 47.4982 83.5654 47.6761 84.2427 47.8942C84.92 48.1181 85.5513 48.3821 86.131 48.692L87.1814 47.4924L87.6176 47.745L86.9805 49.5989C86.9174 49.7826 86.8083 49.9318 86.6533 50.0523C86.4984 50.1729 86.3032 50.236 86.0736 50.236C85.844 50.236 85.5571 50.1614 85.2184 50.0064C84.8798 49.8572 84.4952 49.6792 84.0648 49.4898C83.6343 49.2947 83.1694 49.0995 82.6758 48.9101C82.1822 48.715 81.6599 48.5772 81.1146 48.4912L80.357 49.2947C80.1963 49.2717 80.0413 49.2086 79.8978 49.111C79.7486 49.0135 79.674 48.8757 79.6567 48.692L82.2109 45.8968H82.2166Z" fill="#E6F4D1"/>
<path d="M94.3501 45.6213C94.1952 46.0575 93.9943 46.4995 93.7589 46.9472C93.5236 47.3949 93.2481 47.8024 92.9382 48.164C92.6282 48.5256 92.2839 48.824 91.9108 49.0536C91.5377 49.2832 91.1359 49.398 90.7112 49.398C89.4485 49.398 88.8171 48.4797 88.8171 46.6487C88.8171 45.7993 88.9377 44.9728 89.1787 44.1635C89.4198 43.3542 89.7756 42.6367 90.2348 42.0054C90.694 41.374 91.2565 40.8689 91.9165 40.4844C92.5766 40.0998 93.3285 39.9104 94.1665 39.9104C94.4707 39.9104 94.7117 39.9391 94.8954 39.9908C95.079 40.0424 95.2971 40.1285 95.5497 40.2376C96.0376 39.985 96.5427 39.853 97.0764 39.853L95.4406 48.1525H96.7665V48.6174C96.5254 48.8126 96.2327 48.9733 95.8941 49.0995C95.5555 49.2201 95.2225 49.2832 94.8954 49.2832C94.5453 49.2832 94.2927 49.2086 94.1378 49.0536C93.9885 48.9044 93.9082 48.7437 93.9082 48.5715C93.9082 48.3534 93.9483 47.9975 94.0344 47.4982C94.1205 46.9988 94.2468 46.3675 94.419 45.6041H94.3444L94.3501 45.6213ZM91.4746 48.2788C91.8017 48.2788 92.1289 48.1238 92.456 47.8139C92.7832 47.5039 93.0932 47.1309 93.3859 46.6946C93.6786 46.2584 93.9369 45.805 94.1665 45.3343C94.396 44.8637 94.5797 44.4677 94.7117 44.152L95.2914 41.0469C95.1192 40.9263 94.9585 40.8402 94.7978 40.7943C94.6371 40.7484 94.419 40.7197 94.1435 40.7197C93.5867 40.7197 93.0759 40.8919 92.6225 41.2363C92.1691 41.5806 91.7788 42.0283 91.4573 42.5736C91.1359 43.1189 90.8891 43.7215 90.7112 44.3873C90.5333 45.0531 90.4472 45.7074 90.4472 46.3503C90.4472 46.9931 90.5218 47.4408 90.6768 47.7737C90.826 48.1066 91.09 48.273 91.4688 48.273L91.4746 48.2788Z" fill="#E6F4D1"/>
<path d="M103.327 41.1961C103.011 41.3166 102.655 41.6266 102.259 42.1144C101.863 42.6023 101.519 43.2681 101.215 44.1061L100.124 49.1856H98.5573L100.25 41.1387L99.1427 40.9723V40.5188C99.556 40.3237 99.9864 40.1744 100.434 40.0711C100.882 39.9678 101.289 39.8989 101.651 39.8588L102.013 40.0769L101.502 42.499H101.576C101.926 41.6954 102.357 41.0583 102.868 40.5762C103.379 40.0998 103.924 39.8588 104.504 39.8588C104.658 39.8588 104.819 39.876 104.974 39.9047C105.135 39.9334 105.284 39.9908 105.428 40.0769C105.428 40.1859 105.41 40.3294 105.376 40.5073C105.341 40.6853 105.29 40.8632 105.221 41.0469C105.152 41.2305 105.083 41.4027 105.003 41.5634C104.923 41.7299 104.842 41.8504 104.756 41.9365L103.315 41.1904L103.327 41.1961Z" fill="#E6F4D1"/>
<path d="M5.59853 65.2623V65.3484C5.59853 66.1634 5.51818 66.7947 5.35173 67.2424C5.19102 67.6844 4.95569 68.0345 4.65723 68.2928C4.35303 68.5453 3.99142 68.8036 3.57243 69.0676C3.19362 69.2915 2.87221 69.5899 2.61393 69.963C2.35564 70.3361 2.22364 70.778 2.22364 71.2946C2.22364 71.7136 2.32119 72.0809 2.52207 72.3851C2.72296 72.6951 2.98699 72.9304 3.31989 73.1026C3.65278 73.269 4.02012 73.3551 4.43337 73.3551C4.78349 73.3551 5.12214 73.2805 5.4493 73.137C5.77645 72.9935 6.04621 72.7639 6.27006 72.4483C6.4939 72.1326 6.62016 71.7251 6.6546 71.22H8.27318C8.24448 71.9489 8.05508 72.5745 7.7107 73.0911C7.36633 73.6077 6.90715 74.0094 6.33893 74.2849C5.77071 74.5604 5.13361 74.7039 4.43912 74.7039C3.68149 74.7039 3.02143 74.5547 2.45895 74.2505C1.89646 73.9463 1.46027 73.533 1.15033 73.0107C0.840393 72.4884 0.685425 71.8915 0.685425 71.22C0.685425 70.4968 0.846109 69.8827 1.16179 69.3718C1.47747 68.861 1.91944 68.4363 2.48193 68.0919C2.86648 67.8566 3.17641 67.627 3.406 67.4146C3.63558 67.2023 3.80203 66.9382 3.91108 66.6226C4.0144 66.3069 4.06603 65.8821 4.06603 65.3541V65.268H5.60999L5.59853 65.2623ZM4.80646 61.1699C5.12788 61.1699 5.40338 61.2847 5.62722 61.5143C5.85681 61.7439 5.97159 62.0194 5.97159 62.3351C5.97159 62.6507 5.85681 62.932 5.62722 63.1558C5.39764 63.3854 5.12214 63.5002 4.80646 63.5002C4.49078 63.5002 4.20955 63.3854 3.9857 63.1558C3.75612 62.9262 3.6413 62.6507 3.6413 62.3351C3.6413 62.0194 3.75612 61.7439 3.9857 61.5143C4.21529 61.2847 4.49078 61.1699 4.80646 61.1699Z" fill="#E6F4D1"/>
<path d="M15.0746 71.3578C13.9497 71.3578 12.9452 71.0823 12.0613 70.5313C11.1774 69.9803 10.4829 69.1939 9.98355 68.178C9.4842 67.1621 9.22595 65.9568 9.22595 64.5621C9.22595 63.1673 9.47846 61.9563 9.98355 60.9346C10.4886 59.913 11.1774 59.1324 12.0613 58.5814C12.9452 58.0304 13.9497 57.7549 15.0746 57.7549C15.7404 57.7549 16.366 57.8525 16.9572 58.0476C17.5484 58.2428 18.0764 58.524 18.5528 58.8971C19.0292 59.2702 19.4252 59.7236 19.7409 60.2574C20.0566 60.7911 20.2747 61.3995 20.3952 62.0768H18.7939C18.6963 61.6119 18.5356 61.2101 18.3003 60.86C18.065 60.5099 17.7837 60.2172 17.445 59.9761C17.1121 59.735 16.7391 59.5571 16.3373 59.4366C15.9355 59.3161 15.5108 59.2529 15.0746 59.2529C14.2768 59.2529 13.5479 59.4538 12.8993 59.8613C12.245 60.2688 11.7284 60.8658 11.3496 61.6578C10.965 62.4499 10.7756 63.4199 10.7756 64.5678C10.7756 65.7157 10.965 66.68 11.3496 67.4663C11.7341 68.2526 12.2507 68.8496 12.8993 69.2571C13.5479 69.6646 14.2768 69.8655 15.0746 69.8655C15.5108 69.8655 15.9355 69.8023 16.3373 69.6818C16.7391 69.5613 17.1064 69.3776 17.445 69.1423C17.7779 68.9012 18.065 68.6085 18.3003 68.2584C18.5356 67.9083 18.6963 67.5007 18.7939 67.0416H20.3952C20.2747 67.7246 20.0566 68.333 19.7409 68.861C19.4252 69.3948 19.0292 69.8482 18.5528 70.2156C18.0764 70.5887 17.5484 70.8699 16.9572 71.065C16.366 71.2602 15.7404 71.3578 15.0746 71.3578Z" fill="#E6F4D1"/>
<path d="M25.9512 71.3923C25.0559 71.3923 24.2696 71.1799 23.598 70.7494C22.9207 70.3247 22.3984 69.722 22.0196 68.9529C21.6408 68.1838 21.4572 67.2885 21.4572 66.2668C21.4572 65.2452 21.6465 64.3268 22.0196 63.552C22.3984 62.7771 22.9207 62.1802 23.598 61.7497C24.2753 61.325 25.0559 61.1069 25.9512 61.1069C26.8466 61.1069 27.6387 61.3192 28.316 61.7497C28.9932 62.1744 29.5213 62.7771 29.9001 63.552C30.2789 64.3268 30.4683 65.2279 30.4683 66.2668C30.4683 67.3057 30.2789 68.1781 29.9001 68.9529C29.5213 69.722 28.9932 70.319 28.316 70.7494C27.6387 71.1742 26.8524 71.3923 25.9512 71.3923ZM25.9512 70.0262C26.64 70.0262 27.2025 69.8541 27.6387 69.5039C28.0749 69.1538 28.4021 68.6947 28.6144 68.1207C28.8268 67.5467 28.9358 66.9326 28.9358 66.2783C28.9358 65.624 28.8268 64.9869 28.6144 64.4129C28.4021 63.8389 28.0749 63.374 27.6387 63.0239C27.2025 62.6738 26.64 62.4959 25.9512 62.4959C25.2625 62.4959 24.7172 62.6738 24.281 63.0239C23.8448 63.374 23.5177 63.8389 23.3053 64.4129C23.0929 64.9869 22.9839 65.6125 22.9839 66.2783C22.9839 66.9441 23.0929 67.5525 23.3053 68.1207C23.5177 68.6947 23.8448 69.1538 24.281 69.5039C24.7172 69.8541 25.274 70.0262 25.9512 70.0262ZM25.2051 59.9991L26.4506 57.5656H28.1725L26.4678 59.9991H25.2051Z" fill="#E6F4D1"/>
<path d="M31.9434 71.1799V61.2447H33.4012V62.8116H33.5447C33.7514 62.2778 34.0843 61.8646 34.5492 61.5661C35.0083 61.2676 35.5651 61.1241 36.2136 61.1241C36.8622 61.1241 37.4075 61.2734 37.8437 61.5661C38.2799 61.8646 38.6186 62.2778 38.8596 62.8116H38.9686C39.2269 62.295 39.6115 61.8875 40.1166 61.5776C40.6216 61.2676 41.2301 61.1184 41.936 61.1184C42.8257 61.1184 43.5546 61.3939 44.1228 61.9506C44.6911 62.5074 44.978 63.3683 44.978 64.5335V71.1799H43.4513V64.5335C43.4513 63.7988 43.2504 63.2765 42.8486 62.9608C42.4468 62.6451 41.9705 62.4902 41.4252 62.4902C40.7307 62.4902 40.1912 62.7025 39.8124 63.1273C39.4278 63.552 39.2384 64.08 39.2384 64.7114V71.1799H37.6772V64.3728C37.6772 63.8103 37.4936 63.3568 37.132 63.0067C36.7704 62.6624 36.2997 62.4844 35.72 62.4844C35.324 62.4844 34.9509 62.5935 34.6065 62.8059C34.2622 63.0182 33.9867 63.3109 33.7743 63.684C33.5619 64.0571 33.4586 64.4876 33.4586 64.9754V71.1799H31.9491H31.9434Z" fill="#E6F4D1"/>
<path d="M50.9473 71.3923C50.0519 71.3923 49.2655 71.18 48.594 70.7495C47.9167 70.3248 47.3944 69.7221 47.0156 68.953C46.6368 68.1839 46.4531 67.2885 46.4531 66.2669C46.4531 65.2452 46.6425 64.3269 47.0156 63.552C47.3944 62.7772 47.9167 62.1802 48.594 61.7498C49.2713 61.325 50.0519 61.1069 50.9473 61.1069C51.8426 61.1069 52.6347 61.3193 53.312 61.7498C53.9892 62.1745 54.5115 62.7772 54.8961 63.552C55.2749 64.3269 55.4643 65.228 55.4643 66.2669C55.4643 67.3057 55.2749 68.1781 54.8961 68.953C54.5173 69.7221 53.9892 70.319 53.312 70.7495C52.6347 71.1742 51.8484 71.3923 50.9473 71.3923ZM50.9473 70.0263C51.636 70.0263 52.1985 69.8541 52.6347 69.504C53.0709 69.1539 53.398 68.6947 53.6104 68.1207C53.8228 67.5468 53.9318 66.9326 53.9318 66.2783C53.9318 65.624 53.8228 64.9869 53.6104 64.413C53.398 63.839 53.0709 63.3741 52.6347 63.024C52.1985 62.6738 51.6303 62.4959 50.9473 62.4959C50.2642 62.4959 49.7132 62.6738 49.277 63.024C48.8408 63.3741 48.5136 63.839 48.3013 64.413C48.0889 64.9869 47.9798 65.6125 47.9798 66.2783C47.9798 66.9441 48.0889 67.5525 48.3013 68.1207C48.5136 68.6947 48.8408 69.1539 49.277 69.504C49.7132 69.8541 50.27 70.0263 50.9473 70.0263Z" fill="#E6F4D1"/>
<path d="M62.7134 65.205V71.1799H61.2039V61.2447H62.6617V62.8116H62.8052C63.0348 62.3008 63.3907 61.8933 63.8613 61.5833C64.3377 61.2734 64.9461 61.1184 65.7037 61.1184C66.3752 61.1184 66.9607 61.2562 67.4658 61.5259C67.9708 61.8014 68.3611 62.2089 68.6424 62.7657C68.9236 63.3224 69.0671 64.0227 69.0671 64.8664V71.1742H67.5576V64.9697C67.5576 64.1948 67.351 63.5864 66.9435 63.1445C66.536 62.7025 65.9792 62.4844 65.2732 62.4844C64.7854 62.4844 64.3492 62.5935 63.9646 62.8059C63.5801 63.0182 63.2758 63.3282 63.052 63.7299C62.8282 64.1317 62.7191 64.6253 62.7191 65.205H62.7134Z" fill="#E6F4D1"/>
<path d="M75.0306 71.3923C74.1352 71.3923 73.3489 71.18 72.6774 70.7495C72.0001 70.3248 71.4778 69.7221 71.099 68.953C70.7202 68.1839 70.5365 67.2885 70.5365 66.2669C70.5365 65.2452 70.7259 64.3269 71.099 63.552C71.4778 62.7772 72.0001 62.1802 72.6774 61.7498C73.3547 61.325 74.1352 61.1069 75.0306 61.1069C75.926 61.1069 76.7181 61.3193 77.3953 61.7498C78.0726 62.1745 78.6007 62.7772 78.9795 63.552C79.3583 64.3269 79.5477 65.228 79.5477 66.2669C79.5477 67.3057 79.3583 68.1781 78.9795 68.953C78.6007 69.7221 78.0726 70.319 77.3953 70.7495C76.7181 71.1742 75.9317 71.3923 75.0306 71.3923ZM75.0306 70.0263C75.7194 70.0263 76.2819 69.8541 76.7181 69.504C77.1543 69.1539 77.4814 68.6947 77.6938 68.1207C77.9062 67.5468 78.0152 66.9326 78.0152 66.2783C78.0152 65.624 77.9062 64.9869 77.6938 64.413C77.4814 63.839 77.1543 63.3741 76.7181 63.024C76.2819 62.6738 75.7136 62.4959 75.0306 62.4959C74.3476 62.4959 73.7966 62.6738 73.3604 63.024C72.9242 63.3741 72.597 63.839 72.3847 64.413C72.1723 64.9869 72.0633 65.6125 72.0633 66.2783C72.0633 66.9441 72.1723 67.5525 72.3847 68.1207C72.597 68.6947 72.9242 69.1539 73.3604 69.504C73.7966 69.8541 74.3534 70.0263 75.0306 70.0263Z" fill="#E6F4D1"/>
<path d="M88.048 63.4831L86.682 63.8562C86.55 63.5176 86.3262 63.1961 86.0105 62.8919C85.6948 62.5877 85.2012 62.4328 84.5297 62.4328C83.927 62.4328 83.4219 62.5763 83.0201 62.8575C82.6184 63.1388 82.4175 63.4889 82.4175 63.9079C82.4175 64.2867 82.5552 64.5909 82.8307 64.8147C83.1062 65.0386 83.5367 65.2222 84.1222 65.3657L85.5972 65.7216C86.4811 65.9339 87.1412 66.2611 87.5774 66.7088C88.0136 67.1565 88.2317 67.719 88.2317 68.4077C88.2317 68.9759 88.071 69.4868 87.7439 69.9344C87.4167 70.3821 86.9633 70.738 86.3836 71.002C85.8039 71.2603 85.1266 71.3923 84.3575 71.3923C83.3473 71.3923 82.5093 71.1685 81.8493 70.7265C81.1892 70.2846 80.7702 69.6417 80.5923 68.798L82.0329 68.4421C82.1707 68.9759 82.429 69.3777 82.8193 69.6417C83.2096 69.9057 83.7147 70.0435 84.346 70.0435C85.052 70.0435 85.6144 69.8885 86.0392 69.5843C86.4639 69.2801 86.6763 68.9185 86.6763 68.4938C86.6763 67.7936 86.1827 67.3287 85.2012 67.0876L83.5482 66.6973C82.6356 66.4792 81.9641 66.1406 81.5393 65.6929C81.1146 65.2452 80.8965 64.677 80.8965 63.9939C80.8965 63.4315 81.0572 62.9321 81.3729 62.5017C81.6885 62.0712 82.1248 61.7325 82.6758 61.4857C83.2268 61.2389 83.8466 61.1184 84.5411 61.1184C85.5284 61.1184 86.3032 61.3365 86.8657 61.7727C87.4282 62.2089 87.8242 62.7772 88.0595 63.4831H88.048Z" fill="#E6F4D1"/>
<path d="M93.9484 74.8935V61.2389H95.4062V62.8231H95.5841C95.6989 62.6509 95.8539 62.4328 96.0548 62.163C96.2557 61.8932 96.5484 61.6522 96.9272 61.4398C97.306 61.2275 97.8169 61.1184 98.4654 61.1184C99.3034 61.1184 100.038 61.325 100.669 61.744C101.301 62.163 101.8 62.7542 102.156 63.5233C102.512 64.2924 102.696 65.1935 102.696 66.2381C102.696 67.2827 102.518 68.1953 102.162 68.9702C101.806 69.745 101.312 70.342 100.675 70.7609C100.044 71.1799 99.3091 71.3923 98.4826 71.3923C97.8455 71.3923 97.3405 71.2833 96.9559 71.0651C96.5714 70.847 96.2729 70.606 96.0663 70.3247C95.8597 70.0492 95.6989 69.8197 95.5841 69.6475H95.4579V74.8935H93.9484ZM98.2875 70.0263C98.9189 70.0263 99.4527 69.8541 99.8774 69.5155C100.302 69.1768 100.624 68.7176 100.842 68.1437C101.06 67.5697 101.169 66.9269 101.169 66.2267C101.169 65.5264 101.06 64.8951 100.847 64.3326C100.635 63.7701 100.314 63.3224 99.8888 62.9895C99.4641 62.6566 98.9303 62.4902 98.2875 62.4902C97.6447 62.4902 97.1453 62.6451 96.7206 62.9551C96.3016 63.265 95.9802 63.7012 95.7678 64.2637C95.5497 64.8262 95.4406 65.4748 95.4406 66.2209C95.4406 66.9671 95.5497 67.6271 95.7678 68.2011C95.9859 68.775 96.3073 69.2227 96.7321 69.5442C97.1568 69.8656 97.6734 70.0263 98.2818 70.0263H98.2875Z" fill="#E6F4D1"/>
<path d="M110.427 67.1277V61.2446H111.936V71.1799H110.427V69.4924H110.318C110.082 69.9975 109.715 70.428 109.227 70.7839C108.739 71.1397 108.12 71.3119 107.368 71.3062C106.748 71.3062 106.197 71.1742 105.715 70.9044C105.232 70.6346 104.854 70.2214 104.584 69.6646C104.308 69.1079 104.171 68.4077 104.171 67.5582V61.2446H105.68V67.4664C105.68 68.1838 105.887 68.7578 106.3 69.1883C106.713 69.6187 107.236 69.8368 107.867 69.8253C108.246 69.8253 108.63 69.7278 109.026 69.5384C109.422 69.349 109.75 69.0505 110.019 68.6487C110.289 68.247 110.427 67.7419 110.427 67.122V67.1277Z" fill="#E6F4D1"/>
<path d="M118.055 71.3923C117.102 71.3923 116.275 71.1799 115.581 70.7495C114.886 70.3247 114.353 69.7278 113.98 68.9587C113.607 68.1896 113.417 67.3 113.417 66.2898C113.417 65.2796 113.601 64.3728 113.968 63.5979C114.335 62.8231 114.852 62.2147 115.518 61.7785C116.184 61.3422 116.964 61.1184 117.86 61.1184C118.376 61.1184 118.887 61.2045 119.398 61.3767C119.909 61.5489 120.374 61.8244 120.787 62.2147C121.206 62.5992 121.539 63.11 121.785 63.7414C122.032 64.3728 122.159 65.1533 122.159 66.0774V66.7375H114.496V65.4231H121.332L120.632 65.9225C120.632 65.2567 120.529 64.6712 120.322 64.1547C120.115 63.6381 119.805 63.2363 119.392 62.9379C118.979 62.6394 118.468 62.4959 117.86 62.4959C117.251 62.4959 116.729 62.6451 116.293 62.9436C115.856 63.2421 115.524 63.6324 115.294 64.1145C115.064 64.5966 114.95 65.1074 114.95 65.6584V66.5309C114.95 67.2827 115.082 67.9198 115.34 68.4421C115.598 68.9644 115.966 69.3605 116.436 69.6302C116.907 69.9 117.446 70.032 118.06 70.032C118.457 70.032 118.818 69.9746 119.145 69.8598C119.472 69.745 119.754 69.5671 119.989 69.3375C120.224 69.1022 120.408 68.8152 120.534 68.4708L122.009 68.8956C121.854 69.3949 121.596 69.8311 121.234 70.2042C120.867 70.583 120.419 70.8757 119.88 71.0824C119.34 71.289 118.738 71.3981 118.066 71.3981L118.055 71.3923Z" fill="#E6F4D1"/>
<path d="M127.33 71.3923C126.498 71.3923 125.769 71.1799 125.132 70.7609C124.495 70.3419 124.001 69.745 123.645 68.9701C123.289 68.1953 123.111 67.2884 123.111 66.2381C123.111 65.1877 123.289 64.2924 123.651 63.5233C124.007 62.7541 124.506 62.163 125.137 61.744C125.769 61.325 126.503 61.1184 127.341 61.1184C127.996 61.1184 128.507 61.2274 128.885 61.4398C129.264 61.6521 129.551 61.8932 129.752 62.163C129.953 62.4327 130.108 62.6508 130.223 62.823H130.349V57.9329H131.858V71.1741H130.401V69.6474H130.223C130.108 69.8253 129.953 70.0492 129.741 70.3247C129.534 70.6002 129.235 70.847 128.857 71.0651C128.472 71.2832 127.961 71.3923 127.324 71.3923H127.33ZM127.525 70.0262C128.139 70.0262 128.662 69.8655 129.081 69.5441C129.499 69.2227 129.821 68.775 130.039 68.201C130.257 67.6271 130.366 66.9728 130.366 66.2209C130.366 65.469 130.257 64.8204 130.045 64.2637C129.832 63.7069 129.511 63.2707 129.086 62.955C128.662 62.6393 128.139 62.4901 127.519 62.4901C126.899 62.4901 126.348 62.6566 125.918 62.9895C125.488 63.3224 125.172 63.77 124.959 64.3325C124.747 64.895 124.638 65.5264 124.638 66.2266C124.638 66.9268 124.747 67.5697 124.959 68.1436C125.178 68.7176 125.499 69.1768 125.924 69.5154C126.348 69.854 126.882 70.0262 127.514 70.0262H127.525Z" fill="#E6F4D1"/>
<path d="M137.977 71.3923C137.024 71.3923 136.198 71.1799 135.503 70.7495C134.809 70.3247 134.269 69.7278 133.896 68.9587C133.523 68.1896 133.333 67.3 133.333 66.2898C133.333 65.2796 133.517 64.3728 133.885 63.5979C134.252 62.8231 134.768 62.2147 135.434 61.7785C136.1 61.3422 136.881 61.1184 137.776 61.1184C138.293 61.1184 138.803 61.2045 139.314 61.3767C139.825 61.5489 140.29 61.8244 140.703 62.2147C141.116 62.605 141.455 63.11 141.702 63.7414C141.949 64.3728 142.075 65.1533 142.075 66.0774V66.7375H134.413V65.4231H141.248L140.548 65.9225C140.548 65.2567 140.445 64.6712 140.238 64.1547C140.032 63.6381 139.722 63.2363 139.308 62.9379C138.895 62.6394 138.384 62.4959 137.776 62.4959C137.168 62.4959 136.645 62.6451 136.209 62.9436C135.773 63.2421 135.44 63.6324 135.21 64.1145C134.981 64.5966 134.866 65.1074 134.866 65.6584V66.5309C134.866 67.2827 134.998 67.9198 135.256 68.4421C135.515 68.9644 135.882 69.3605 136.347 69.6302C136.817 69.9 137.357 70.032 137.971 70.032C138.367 70.032 138.729 69.9746 139.056 69.8598C139.383 69.745 139.664 69.5671 139.9 69.3375C140.135 69.1022 140.319 68.8152 140.439 68.4708L141.914 68.8956C141.759 69.3949 141.501 69.8311 141.139 70.2042C140.778 70.583 140.324 70.8757 139.785 71.0824C139.245 71.2947 138.643 71.3981 137.971 71.3981L137.977 71.3923Z" fill="#E6F4D1"/>
<path d="M43.6292 93.4037C43.0036 93.4037 42.4296 93.2832 41.913 93.0421C41.3965 92.801 40.989 92.4566 40.6848 91.9975C40.3806 91.5383 40.2313 90.993 40.2313 90.3445C40.2313 89.7762 40.3461 89.3171 40.57 88.9612C40.7938 88.6111 41.098 88.3299 41.4711 88.1232C41.8499 87.9166 42.2632 87.7674 42.7166 87.6641C43.17 87.5665 43.6292 87.4861 44.0884 87.423C44.691 87.3484 45.1846 87.2853 45.5577 87.2451C45.9308 87.2049 46.212 87.1303 46.3842 87.0327C46.5564 86.9351 46.6482 86.7572 46.6482 86.5162V86.4645C46.6482 85.8331 46.476 85.3395 46.1259 84.9837C45.7815 84.6335 45.2535 84.4556 44.5475 84.4556C43.8416 84.4556 43.2561 84.6163 42.8428 84.932C42.4296 85.2477 42.1369 85.5863 41.9704 85.9479L40.5126 85.4314C40.7708 84.8287 41.121 84.3581 41.5572 84.0194C41.9934 83.6808 42.4641 83.4455 42.9806 83.3077C43.4914 83.17 43.9965 83.1011 44.4959 83.1011C44.8173 83.1011 45.1846 83.1355 45.5979 83.2101C46.0111 83.2847 46.4186 83.4397 46.8089 83.6693C47.205 83.9046 47.5264 84.2547 47.7847 84.7254C48.043 85.196 48.1692 85.8274 48.1692 86.6137V93.1569H46.6425V91.8081H46.5736C46.4703 92.0204 46.2981 92.25 46.057 92.4968C45.816 92.7436 45.4946 92.9502 45.0928 93.1282C44.691 93.3004 44.2032 93.3922 43.6235 93.3922L43.6292 93.4037ZM43.8645 92.0377C44.4672 92.0377 44.978 91.9171 45.3912 91.6818C45.8045 91.4465 46.1202 91.1365 46.3325 90.7635C46.5449 90.3846 46.654 89.9943 46.654 89.5868V88.1806C46.5908 88.2552 46.4473 88.3299 46.2292 88.3873C46.0111 88.4446 45.7643 88.502 45.4831 88.5537C45.2018 88.5996 44.9263 88.6398 44.6623 88.6742C44.3983 88.7087 44.1802 88.7316 44.0195 88.7489C43.6235 88.8005 43.2504 88.8866 42.906 89.0014C42.5616 89.1162 42.2861 89.2884 42.0738 89.5122C41.8614 89.7361 41.7581 90.046 41.7581 90.4363C41.7581 90.9643 41.9532 91.3604 42.3492 91.6301C42.7453 91.8999 43.2446 92.0319 43.853 92.0319L43.8645 92.0377Z" fill="#E6F4D1"/>
<path d="M54.546 83.2329V84.53H49.1967V83.2329H54.546ZM50.798 93.1739V81.8669C50.798 81.2987 50.93 80.8223 51.1998 80.4434C51.4696 80.0646 51.8197 79.7777 52.2444 79.5883C52.6691 79.3988 53.1168 79.3013 53.5875 79.3013C53.9663 79.3013 54.2762 79.33 54.5173 79.3931C54.7584 79.4562 54.9363 79.5136 55.0453 79.5653L54.6034 80.8797C54.5288 80.851 54.4197 80.8165 54.2877 80.7764C54.1557 80.7362 53.9777 80.719 53.7482 80.719C53.2431 80.719 52.8758 80.8452 52.6519 81.1035C52.4223 81.3618 52.3076 81.7349 52.3076 82.2285V93.1624H50.798V93.1739Z" fill="#E6F4D1"/>
<path d="M59.5968 93.3866C58.644 93.3866 57.8175 93.1742 57.123 92.7495C56.4286 92.3247 55.889 91.7278 55.516 90.9587C55.1429 90.1896 54.9535 89.3 54.9535 88.2898C54.9535 87.2796 55.1372 86.3728 55.5045 85.5979C55.8718 84.8231 56.3884 84.2147 57.0542 83.7785C57.72 83.3422 58.5006 83.1184 59.3959 83.1184C59.9125 83.1184 60.4233 83.2045 60.9342 83.3767C61.445 83.5489 61.9099 83.8301 62.3231 84.2147C62.7364 84.5992 63.0751 85.1101 63.3219 85.7414C63.5687 86.3728 63.6949 87.1534 63.6949 88.0774V88.7375H56.0325V87.4231H62.8684L62.1682 87.9225C62.1682 87.2567 62.0649 86.6712 61.8582 86.1547C61.6516 85.6381 61.3417 85.2306 60.9284 84.9379C60.5152 84.6394 60.0043 84.4959 59.3959 84.4959C58.7875 84.4959 58.2653 84.6451 57.829 84.9436C57.3928 85.2421 57.0599 85.6324 56.8304 86.1145C56.6008 86.5966 56.486 87.1074 56.486 87.6584V88.5309C56.486 89.2827 56.618 89.9199 56.8762 90.4422C57.1345 90.9645 57.5019 91.3605 57.9668 91.6303C58.4317 91.9 58.977 92.032 59.5911 92.032C59.9871 92.032 60.3487 91.9746 60.6759 91.8598C61.003 91.7451 61.2843 91.5671 61.5196 91.3375C61.7549 91.1022 61.9386 90.8152 62.0591 90.4708L63.5342 90.8956C63.3792 91.3949 63.1209 91.8311 62.7593 92.2042C62.3978 92.583 61.9443 92.8758 61.4048 93.0824C60.8653 93.2947 60.2626 93.3981 59.5911 93.3981L59.5968 93.3866Z" fill="#E6F4D1"/>
<path d="M69.1589 93.3863C68.2348 93.3863 67.437 93.1682 66.7655 92.7263C66.094 92.2843 65.5717 91.6817 65.2101 90.9068C64.8485 90.1377 64.6648 89.2538 64.6648 88.2666C64.6648 87.2794 64.8542 86.3611 65.2273 85.5862C65.6003 84.8114 66.1227 84.2087 66.7942 83.7667C67.4657 83.3248 68.2521 83.1067 69.1474 83.1067C69.8477 83.1067 70.4733 83.233 71.0358 83.4912C71.5983 83.7495 72.0574 84.1111 72.4133 84.5818C72.7691 85.0524 72.993 85.5977 73.0733 86.2175H71.5466C71.472 85.9133 71.3285 85.6321 71.1276 85.3624C70.9267 85.0983 70.6627 84.8802 70.3298 84.7195C70.0026 84.5588 69.6124 84.4727 69.1589 84.4727C68.5677 84.4727 68.0454 84.6277 67.6035 84.9376C67.1615 85.2476 66.8114 85.678 66.5646 86.2405C66.3178 86.803 66.1916 87.4573 66.1916 88.2092C66.1916 88.9611 66.3121 89.6441 66.5531 90.2123C66.7942 90.7806 67.1386 91.2282 67.5863 91.5382C68.034 91.8539 68.5563 92.0088 69.1532 92.0088C69.7501 92.0088 70.2667 91.8538 70.6914 91.5439C71.1161 91.234 71.3974 90.8092 71.5351 90.2697H73.0619C72.9815 90.8552 72.7691 91.3832 72.4248 91.8539C72.0804 92.3245 71.6384 92.6918 71.0817 92.9673C70.5307 93.2428 69.8821 93.3806 69.1474 93.3806L69.1589 93.3863Z" fill="#E6F4D1"/>
<path d="M78.813 83.2331V84.5303H73.676V83.2331H78.813ZM75.1683 80.8741H76.6778V90.333C76.6778 90.8496 76.7869 91.2284 76.9992 91.4637C77.2116 91.7048 77.5503 91.8253 78.0152 91.8253C78.1185 91.8253 78.2218 91.8196 78.3308 91.8081C78.4399 91.7966 78.5604 91.7794 78.6924 91.7565L79.0139 93.1225C78.8704 93.1741 78.6982 93.22 78.4916 93.2487C78.2849 93.2832 78.0783 93.2947 77.8717 93.2947C77.0739 93.2947 76.4195 93.0593 75.9202 92.5829C75.4209 92.1066 75.1683 91.4924 75.1683 90.7348V80.8684V80.8741Z" fill="#E6F4D1"/>
<path d="M83.1809 93.4037C82.5553 93.4037 81.9813 93.2832 81.4648 93.0421C80.9482 92.801 80.5407 92.4566 80.2365 91.9975C79.9323 91.544 79.7831 90.993 79.7831 90.3445C79.7831 89.7762 79.8979 89.3171 80.1217 88.9612C80.3455 88.6111 80.6497 88.3299 81.0228 88.1232C81.4016 87.9166 81.8149 87.7674 82.2683 87.6641C82.7217 87.5665 83.1809 87.4861 83.6401 87.423C84.2427 87.3484 84.7363 87.2853 85.1094 87.2451C85.4882 87.2049 85.7637 87.1303 85.9359 87.0327C86.1081 86.9351 86.2 86.7572 86.2 86.5162V86.4645C86.2 85.8331 86.0278 85.3395 85.6776 84.9837C85.3333 84.6335 84.8052 84.4556 84.0992 84.4556C83.3933 84.4556 82.8078 84.6163 82.3946 84.932C81.9813 85.2477 81.6886 85.5863 81.5222 85.9479L80.0643 85.4314C80.3226 84.8287 80.6727 84.3581 81.1089 84.0194C81.5451 83.6808 82.0158 83.4455 82.5323 83.3077C83.0432 83.17 83.5483 83.1011 84.0476 83.1011C84.369 83.1011 84.7364 83.1355 85.1496 83.2101C85.5629 83.2847 85.9704 83.4397 86.3607 83.6693C86.7567 83.9046 87.0781 84.2547 87.3364 84.7254C87.5947 85.196 87.7209 85.8274 87.7209 86.6137V93.1569H86.1942V91.8081H86.1253C86.022 92.0204 85.8556 92.25 85.6088 92.4968C85.3677 92.7436 85.0463 92.9502 84.6445 93.1282C84.2427 93.3004 83.7549 93.3922 83.1752 93.3922L83.1809 93.4037ZM83.4162 92.0377C84.0189 92.0377 84.5297 91.9171 84.943 91.6818C85.3562 91.4465 85.6719 91.1365 85.8843 90.7635C86.0967 90.3846 86.2057 89.9943 86.2057 89.5868V88.1806C86.1426 88.2552 85.9991 88.3299 85.781 88.3873C85.5629 88.4504 85.316 88.502 85.0348 88.5537C84.7536 88.5996 84.4781 88.6398 84.214 88.6742C83.95 88.7087 83.7319 88.7316 83.5712 88.7489C83.1752 88.8005 82.8021 88.8866 82.4577 89.0014C82.1133 89.1162 81.8378 89.2884 81.6255 89.5122C81.4131 89.7361 81.3098 90.046 81.3098 90.4363C81.3098 90.9643 81.505 91.3604 81.901 91.6301C82.297 91.8999 82.7964 92.0319 83.4048 92.0319L83.4162 92.0377Z" fill="#E6F4D1"/>
<path d="M89.6896 93.174V83.2387H91.1474V84.7482H91.2565C91.4401 84.2546 91.773 83.8586 92.2494 83.5544C92.7258 83.2502 93.2596 83.0952 93.8508 83.0952C93.9656 83.0952 94.1033 83.0952 94.2698 83.0952C94.4362 83.0952 94.5625 83.101 94.6543 83.1067V84.6507C94.6027 84.6392 94.4821 84.622 94.2985 84.599C94.1148 84.576 93.9196 84.5646 93.713 84.5646C93.2309 84.5646 92.8062 84.6679 92.4216 84.8688C92.0428 85.0697 91.7443 85.3451 91.5262 85.6953C91.3081 86.0454 91.1991 86.4472 91.1991 86.8949V93.1682H89.6896V93.174Z" fill="#E6F4D1"/>
<path d="M97.5987 89.1907V89.0989C97.5987 88.2781 97.6791 87.641 97.8455 87.199C98.0062 86.7571 98.2416 86.407 98.5458 86.1487C98.85 85.8904 99.2116 85.6321 99.6305 85.3796C100.015 85.1557 100.337 84.8573 100.595 84.4842C100.853 84.1169 100.979 83.6692 100.979 83.1584C100.979 82.7394 100.882 82.372 100.687 82.0678C100.492 81.7579 100.227 81.5226 99.8888 81.3504C99.5559 81.1839 99.1829 81.0978 98.7753 81.0978C98.4252 81.0978 98.0866 81.1725 97.7595 81.3159C97.4323 81.4594 97.1625 81.689 96.9387 81.999C96.7148 82.3089 96.5886 82.7221 96.5541 83.233H94.9355C94.9642 82.504 95.1537 81.8784 95.4981 81.3561C95.8424 80.8338 96.3016 80.4378 96.8755 80.1623C97.4495 79.8868 98.0809 79.749 98.7753 79.749C99.5387 79.749 100.205 79.8983 100.761 80.2025C101.318 80.5067 101.754 80.9199 102.064 81.4422C102.374 81.9645 102.529 82.5614 102.529 83.233C102.529 83.9504 102.368 84.5646 102.053 85.0754C101.737 85.5862 101.295 86.0167 100.733 86.3668C100.354 86.5964 100.044 86.8202 99.8142 87.0383C99.5789 87.2564 99.4124 87.5205 99.3091 87.8361C99.2058 88.1518 99.1542 88.5765 99.1542 89.1046V89.1964H97.6102L97.5987 89.1907ZM98.3908 93.2773C98.0694 93.2773 97.7939 93.1625 97.57 92.9329C97.3462 92.7033 97.2256 92.4278 97.2256 92.1122C97.2256 91.7965 97.3405 91.5152 97.57 91.2914C97.7996 91.0675 98.0751 90.947 98.3908 90.947C98.7065 90.947 98.9877 91.0618 99.2116 91.2914C99.4354 91.521 99.556 91.7965 99.556 92.1122C99.556 92.4278 99.4411 92.7091 99.2116 92.9329C98.982 93.1568 98.7065 93.2773 98.3908 93.2773Z" fill="#E6F4D1"/>
<path d="M15.3042 43.5035C20.376 43.5035 24.4875 39.3919 24.4875 34.3201C24.4875 29.2483 20.376 25.1367 15.3042 25.1367C10.2323 25.1367 6.12079 29.2483 6.12079 34.3201C6.12079 39.3919 10.2323 43.5035 15.3042 43.5035Z" fill="#E6F4D1"/>
</svg>
