<svg width="114" height="126" viewBox="0 0 114 126" fill="none" xmlns="http://www.w3.org/2000/svg">
<path d="M105.371 12.7962C105.871 12.7962 106.313 12.6987 106.703 12.4978C107.093 12.2969 107.415 12.0329 107.679 11.7057C107.937 11.3786 108.138 11.0055 108.27 10.5865C108.402 10.1675 108.465 9.74279 108.453 9.30084C108.465 8.56043 108.27 8.03813 107.862 7.72819C107.455 7.41825 106.881 7.26325 106.14 7.26325H105.05L105.067 6.80983L108.924 2.67732L109.745 2.04022V1.9656L108.763 2.07465H105.813L104.705 3.92856H104.252C104.264 3.40625 104.292 2.84377 104.332 2.24685C104.373 1.64993 104.447 1.12762 104.545 0.691406H111.57L111.553 1.25389L107.805 5.3118L106.732 6.11533V6.1498L107.369 6.02351C108.35 6.1096 109.073 6.40234 109.527 6.89594C109.98 7.39529 110.21 8.08404 110.21 8.97368C110.21 9.59356 110.112 10.1847 109.911 10.7587C109.71 11.3269 109.4 11.8262 108.976 12.251C108.551 12.6757 108.006 13.0144 107.34 13.2726C106.674 13.5252 105.865 13.6572 104.918 13.6572C104.637 13.6572 104.344 13.6342 104.034 13.5941C103.724 13.5539 103.426 13.485 103.144 13.4046C102.857 13.3185 102.599 13.221 102.364 13.1119C102.128 13.0029 101.933 12.8766 101.79 12.7274L102.628 11.0916H102.989C103.052 11.1777 103.127 11.2867 103.225 11.4188C103.322 11.5508 103.426 11.6943 103.535 11.8377C103.644 11.9812 103.753 12.1305 103.85 12.274C103.948 12.4174 104.04 12.5494 104.114 12.6585C104.235 12.6815 104.401 12.7159 104.608 12.7504C104.815 12.7848 105.073 12.802 105.389 12.802L105.371 12.7962Z" fill="#E6F4D1"/>
<path d="M98.0016 63.9993H31.4221C27.6182 63.9993 24.5345 67.0829 24.5345 70.8868V119.1C24.5345 122.903 27.6182 125.987 31.4221 125.987H98.0016C101.805 125.987 104.889 122.903 104.889 119.1V70.8868C104.889 67.0829 101.805 63.9993 98.0016 63.9993Z" fill="#190905"/>
<path d="M26.463 75.995L26.5548 75.467C27.0542 75.2604 27.588 75.1169 28.1562 75.0308L30.4291 64.2346C30.1593 64.1714 29.9125 64.1026 29.6714 64.0279C29.4361 63.9476 29.218 63.8672 29.0229 63.7811L29.1492 63.2531H30.9858C31.1924 63.2531 31.4392 63.2474 31.7205 63.2359C32.0075 63.2244 32.2945 63.2072 32.5929 63.1899C32.8914 63.1727 33.1783 63.1555 33.4596 63.1383C33.7408 63.1211 33.9704 63.1096 34.1541 63.1096C35.1241 63.1096 35.9506 63.2244 36.6279 63.454C37.3051 63.6836 37.8561 63.9992 38.2751 64.3895C38.6941 64.7856 38.9983 65.2505 39.1877 65.79C39.3771 66.3295 39.469 66.9092 39.469 67.5291C39.469 68.149 39.4173 68.7918 39.314 69.4691C39.2107 70.1406 39.0385 70.795 38.7974 71.4321C38.5564 72.0692 38.2292 72.6718 37.8217 73.2458C37.4142 73.814 36.9033 74.3191 36.2949 74.7495C35.6808 75.18 34.9576 75.5244 34.1196 75.7769C33.2817 76.0295 32.3174 76.1615 31.2269 76.1615C31.0432 76.1615 30.8309 76.15 30.5783 76.1328C30.3315 76.1156 30.0675 76.0983 29.7862 76.0754C29.505 76.0524 29.2295 76.041 28.9482 76.0237C28.667 76.0065 28.4145 75.995 28.1849 75.995H26.4573H26.463ZM33.7867 64.0566C33.4711 64.0566 33.1496 64.0624 32.8167 64.0739C32.4896 64.0853 32.237 64.1026 32.0706 64.1313L29.7977 75.1628C29.9182 75.1743 30.0675 75.1858 30.2397 75.1915C30.4118 75.1972 30.5898 75.203 30.7677 75.2087C30.9399 75.2144 31.1006 75.2202 31.2383 75.2259C31.3761 75.2317 31.4851 75.2259 31.554 75.2144C32.6905 75.2259 33.6375 75.0021 34.4066 74.5429C35.1757 74.0837 35.7899 73.4754 36.2548 72.7292C36.7197 71.9831 37.0468 71.1451 37.242 70.2153C37.4371 69.2854 37.529 68.3556 37.529 67.4201C37.529 66.9494 37.4773 66.5017 37.3625 66.0885C37.2535 65.6752 37.0583 65.3193 36.7771 65.0209C36.4958 64.7224 36.117 64.4871 35.6349 64.3092C35.1528 64.1313 34.5386 64.0452 33.781 64.0452L33.7867 64.0566Z" fill="#E6F4D1"/>
<path d="M40.8751 67.7877V67.3343C41.0588 67.2597 41.2654 67.185 41.495 67.1047C41.7246 67.0243 41.9599 66.9554 42.2067 66.8923C42.4478 66.8292 42.6774 66.7775 42.9012 66.7374C43.1193 66.6972 43.3145 66.6742 43.4809 66.6742L43.8081 66.8923L42.0977 74.9737H43.4465V75.4501C43.1939 75.6452 42.8955 75.8002 42.5568 75.9207C42.2182 76.0413 41.8853 76.1044 41.5582 76.1044C41.208 76.1044 40.9555 76.024 40.8005 75.8691C40.6513 75.7141 40.5709 75.5304 40.5709 75.3238C40.5709 75.0827 40.5882 74.8474 40.6283 74.6121C40.6628 74.3825 40.7144 74.1242 40.7718 73.8487L42.046 67.9714L40.8808 67.7877H40.8751ZM42.3502 63.747C42.3502 63.4313 42.4478 63.1845 42.6429 63.0009C42.8381 62.8172 43.0906 62.7253 43.4063 62.7253C43.7449 62.7253 44.0147 62.8172 44.2099 63.0009C44.405 63.1845 44.5026 63.4313 44.5026 63.747C44.5026 64.0627 44.405 64.2865 44.2099 64.4587C44.0147 64.6309 43.7507 64.7113 43.4063 64.7113C43.0906 64.7113 42.8381 64.6252 42.6429 64.4587C42.4478 64.2865 42.3502 64.0512 42.3502 63.747Z" fill="#E6F4D1"/>
<path d="M49.2895 73.837C49.278 73.55 49.1977 73.2975 49.0427 73.0851C48.8878 72.8728 48.6983 72.6719 48.463 72.4767C48.2277 72.2816 47.9751 72.0922 47.7054 71.897C47.4414 71.7019 47.1888 71.4895 46.9478 71.2484C46.7124 71.0131 46.5173 70.7376 46.3681 70.4277C46.2189 70.1177 46.1385 69.7447 46.1385 69.3085C46.1385 68.8722 46.2246 68.4877 46.391 68.1605C46.5632 67.8334 46.7928 67.5579 47.0912 67.3398C47.3897 67.1217 47.7456 66.9552 48.1645 66.8404C48.5835 66.7256 49.0427 66.6682 49.5363 66.6682C49.852 66.6682 50.2079 66.6969 50.6039 66.7486C50.9999 66.806 51.373 66.9322 51.7231 67.1389C51.7231 67.2709 51.7002 67.4258 51.6485 67.6038C51.6026 67.7817 51.5337 67.9482 51.4591 68.1146C51.3788 68.2811 51.2927 68.4303 51.1951 68.5681C51.0975 68.7058 50.9942 68.8034 50.8852 68.8493L49.5363 67.466C49.2895 67.4775 49.0542 67.5062 48.8419 67.5579C48.6295 67.6038 48.4401 67.6841 48.2793 67.7932C48.1186 67.9022 47.9924 68.0457 47.9063 68.2179C47.8145 68.3901 47.7743 68.614 47.7743 68.878C47.7743 69.1937 47.8546 69.4577 48.0096 69.6815C48.1646 69.9054 48.3597 70.1177 48.595 70.3129C48.8303 70.5138 49.0829 70.7032 49.3527 70.8926C49.6224 71.082 49.875 71.2944 50.1103 71.5297C50.3456 71.765 50.5408 72.0405 50.6957 72.3504C50.8507 72.6604 50.931 73.0277 50.931 73.4524C50.931 73.8772 50.8335 74.279 50.6326 74.6176C50.4317 74.9562 50.162 75.2432 49.8118 75.4843C49.4617 75.7253 49.0657 75.8975 48.6123 76.0238C48.1588 76.1501 47.6767 76.2075 47.1659 76.2075C46.655 76.2075 46.1901 76.1558 45.7711 76.0525C45.3521 75.9492 45.0193 75.8172 44.7782 75.6622C44.8413 75.3465 44.9102 75.0423 44.9963 74.7439C45.0824 74.4454 45.2546 74.1699 45.5243 73.9173L47.1601 75.4097C47.4127 75.4097 47.6652 75.3809 47.9177 75.3178C48.1646 75.2547 48.3884 75.1628 48.5893 75.0308C48.7902 74.8988 48.9509 74.7381 49.0829 74.543C49.2092 74.3478 49.2781 74.1125 49.2953 73.837H49.2895Z" fill="#E6F4D1"/>
<path d="M59.3912 74.3765C59.2822 74.6061 59.1215 74.83 58.9206 75.0481C58.714 75.2662 58.4729 75.4613 58.1917 75.6392C57.9104 75.8172 57.5947 75.9549 57.2446 76.0582C56.8945 76.1616 56.5157 76.2132 56.1139 76.2132C55.1095 76.2132 54.3346 75.9262 53.7951 75.3465C53.2556 74.7726 52.9858 73.9747 52.9858 72.9531C52.9858 72.0922 53.1064 71.2771 53.3474 70.5138C53.5885 69.7504 53.9271 69.0789 54.3691 68.5106C54.8053 67.9424 55.3391 67.489 55.9647 67.1618C56.5903 66.8347 57.2848 66.6682 58.0482 66.6682C58.6336 66.6682 59.133 66.8175 59.552 67.1159C59.9709 67.4144 60.1776 67.8506 60.1776 68.436C60.1776 69.297 59.7471 69.98 58.8919 70.4736C58.0367 70.9729 56.6535 71.2944 54.7479 71.4379C54.702 71.6445 54.6676 71.8454 54.6503 72.0405C54.6331 72.2357 54.6216 72.4251 54.6216 72.603C54.6216 73.3319 54.8053 73.9231 55.1784 74.388C55.5457 74.8472 56.091 75.0825 56.8084 75.0825C57.038 75.0825 57.2676 75.0481 57.4914 74.9734C57.7153 74.8988 57.9277 74.807 58.1285 74.698C58.3294 74.5889 58.5131 74.4741 58.6738 74.3536C58.8402 74.233 58.978 74.124 59.1043 74.0264L59.397 74.3708L59.3912 74.3765ZM57.48 67.4775C56.9577 67.489 56.4698 67.7301 56.0221 68.2065C55.5744 68.6828 55.1898 69.4921 54.8742 70.6458C56.0508 70.6114 56.9691 70.4104 57.6235 70.0431C58.2778 69.6758 58.6049 69.1707 58.6049 68.5221C58.6049 68.2696 58.5303 68.0342 58.3753 67.8219C58.2204 67.6038 57.9219 67.489 57.4742 67.4775H57.48Z" fill="#E6F4D1"/>
<path d="M67.5473 70.8065C67.6334 70.4334 67.708 70.0833 67.7769 69.7619C67.8458 69.4404 67.8745 69.119 67.8745 68.8033C67.8745 68.5221 67.8113 68.2868 67.685 68.0916C67.5588 67.8965 67.3522 67.7989 67.0767 67.7989C66.7495 67.7989 66.4166 67.9309 66.078 68.2007C65.7393 68.4705 65.4236 68.7919 65.1309 69.1649C64.8382 69.5438 64.5742 69.934 64.3389 70.3358C64.1036 70.7433 63.9256 71.082 63.7994 71.346L62.8351 75.9894H61.3083L62.9097 67.9424L61.8019 67.776L61.8364 67.3225C62.0086 67.2364 62.198 67.1561 62.4103 67.0757C62.6227 66.9954 62.8408 66.9265 63.0647 66.8691C63.2885 66.806 63.5066 66.76 63.719 66.7256C63.9314 66.6912 64.1265 66.6682 64.3102 66.6682L64.6718 66.8863L63.9773 70.1063H64.0691C64.2987 69.6184 64.5627 69.1707 64.8612 68.7517C65.1596 68.3327 65.4753 67.9711 65.8082 67.6612C66.1411 67.3512 66.4912 67.1102 66.8528 66.9322C67.2144 66.7543 67.5875 66.6682 67.9663 66.6682C68.4771 66.6682 68.8502 66.8289 69.0855 67.1503C69.3208 67.4718 69.4414 67.8735 69.4414 68.3614C69.4414 68.6311 69.4127 68.964 69.3496 69.3658C69.2864 69.7676 69.2175 70.1407 69.1314 70.4965L68.0926 74.9734H69.4414V75.4498C69.2003 75.645 68.9019 75.7999 68.5575 75.9205C68.2131 76.041 67.8745 76.1041 67.5473 76.1041C67.1972 76.1041 66.9504 76.0295 66.8184 75.886C66.6864 75.7426 66.6175 75.5818 66.6175 75.4154C66.6175 75.1858 66.6462 74.9333 66.7093 74.6578C66.7724 74.3823 66.8298 74.1068 66.893 73.8313L67.5473 70.8122V70.8065ZM69.6193 63.7754C69.229 64.16 68.8732 64.424 68.5517 64.5733C68.2303 64.7225 67.9319 64.7971 67.6506 64.7971C67.4325 64.7971 67.2259 64.7626 67.0308 64.6995C66.8356 64.6306 66.6462 64.5618 66.4683 64.4871C66.2846 64.4125 66.1067 64.3437 65.9287 64.2805C65.7508 64.2174 65.5729 64.183 65.3892 64.183C65.2342 64.183 65.0735 64.2117 64.9071 64.2748C64.7406 64.3379 64.5627 64.4527 64.3676 64.6192L64.0232 64.1141C64.4709 63.6951 64.8727 63.4138 65.2228 63.2704C65.5729 63.1269 65.8886 63.0522 66.1698 63.0522C66.3879 63.0522 66.5888 63.081 66.7782 63.1384C66.9676 63.1958 67.1456 63.2589 67.3177 63.3335C67.4899 63.4081 67.6621 63.4712 67.8343 63.5286C68.0065 63.586 68.1901 63.6148 68.3738 63.6148C68.5345 63.6148 68.6895 63.5918 68.8502 63.5401C69.0052 63.4885 69.1831 63.3966 69.3782 63.2704L69.6136 63.7754H69.6193Z" fill="#E6F4D1"/>
<path d="M76.8855 72.4308C76.7306 72.867 76.5297 73.309 76.2943 73.7624C76.059 74.2158 75.7835 74.6176 75.4736 74.9792C75.1636 75.3408 74.8193 75.6392 74.4462 75.8688C74.0674 76.0984 73.6713 76.2132 73.2466 76.2132C71.9839 76.2132 71.3525 75.2949 71.3525 73.4639C71.3525 72.6145 71.4731 71.788 71.7141 70.9787C71.9552 70.1694 72.3111 69.4519 72.7702 68.8206C73.2294 68.1892 73.7919 67.6841 74.4519 67.2996C75.112 66.915 75.8639 66.7256 76.7019 66.7256C77.0061 66.7256 77.2471 66.7543 77.4308 66.806C77.6145 66.8576 77.8325 66.9437 78.0851 67.0528C78.573 66.8002 79.0781 66.6682 79.6118 66.6682L77.976 74.9677H79.3076V75.4326C79.0666 75.6278 78.7739 75.7885 78.4352 75.9148C78.0966 76.0353 77.7637 76.0984 77.4365 76.0984C77.0864 76.0984 76.8339 76.0238 76.6789 75.8688C76.5297 75.7196 76.4493 75.5589 76.4493 75.3867C76.4493 75.1686 76.4895 74.8127 76.5756 74.3134C76.6617 73.814 76.788 73.1827 76.9602 72.4193H76.8855V72.4308ZM74.0042 75.0882C74.3314 75.0882 74.6586 74.9333 74.9857 74.6233C75.3129 74.3134 75.6228 73.9403 75.9155 73.5041C76.2083 73.0679 76.4665 72.6145 76.6961 72.1438C76.9257 71.6732 77.1094 71.2771 77.2414 70.9615L77.8211 67.8563C77.6489 67.7358 77.4882 67.6497 77.3275 67.6038C77.1725 67.5579 76.9487 67.5292 76.6732 67.5292C76.1164 67.5292 75.6056 67.7014 75.1522 68.0457C74.6987 68.3901 74.3085 68.8378 73.987 69.3831C73.6656 69.9283 73.4188 70.531 73.2409 71.1968C73.0629 71.8626 72.9769 72.5169 72.9769 73.1597C72.9769 73.8026 73.0515 74.2503 73.2064 74.5832C73.3557 74.9161 73.6197 75.0825 73.9985 75.0825L74.0042 75.0882Z" fill="#E6F4D1"/>
<path d="M85.8565 68.0056C85.5409 68.1261 85.185 68.436 84.7889 68.9239C84.3929 69.4175 84.0428 70.0776 83.7444 70.9155L82.6538 75.9951H81.0869L82.7801 67.9482L81.6723 67.7817V67.3283C82.0856 67.1331 82.5161 66.9839 82.9637 66.8806C83.4114 66.7773 83.8189 66.7084 84.1805 66.6682L84.5421 66.8863L84.0313 69.3085H84.106C84.4561 68.5049 84.8865 67.8678 85.3974 67.3857C85.9082 66.9093 86.4534 66.6682 87.0331 66.6682C87.1881 66.6682 87.3488 66.6854 87.5038 66.7141C87.6588 66.7428 87.8137 66.8002 87.9572 66.8863C87.9572 66.9954 87.94 67.1389 87.8998 67.3168C87.8654 67.4947 87.8137 67.6726 87.7448 67.8563C87.676 68.04 87.6071 68.2122 87.5267 68.3729C87.4464 68.5393 87.366 68.6599 87.2799 68.746L85.845 67.9998L85.8565 68.0056Z" fill="#E6F4D1"/>
<path d="M5.7775 92.0718V92.1637C5.7775 92.9787 5.69715 93.6101 5.5307 94.0578C5.36999 94.4997 5.13465 94.8498 4.83045 95.1081C4.52625 95.3664 4.16468 95.6189 3.74569 95.8829C3.36688 96.1068 3.04543 96.4053 2.78715 96.7783C2.52887 97.1514 2.39686 97.5934 2.39686 98.1099C2.39686 98.5289 2.49445 98.8963 2.69533 99.2005C2.89622 99.5104 3.16025 99.7457 3.49315 99.9179C3.82605 100.084 4.19338 100.17 4.60663 100.17C4.95675 100.17 5.29539 100.096 5.61681 99.9523C5.94397 99.8089 6.21947 99.5793 6.43757 99.2636C6.66142 98.9479 6.78768 98.5404 6.82212 98.0353H8.44069C8.41199 98.7642 8.22256 99.3899 7.87818 99.9064C7.53381 100.423 7.07467 100.825 6.50644 101.1C5.93822 101.376 5.30113 101.519 4.60663 101.519C3.84901 101.519 3.18894 101.37 2.62646 101.066C2.06398 100.762 1.62775 100.348 1.31781 99.8261C1.00787 99.3038 0.852905 98.7068 0.852905 98.0353C0.852905 97.3121 1.01362 96.698 1.3293 96.1872C1.64498 95.6763 2.08692 95.2516 2.64941 94.9072C3.03396 94.6719 3.34389 94.4423 3.57348 94.2299C3.80306 94.0176 3.96954 93.7535 4.07285 93.4379C4.17617 93.1222 4.2278 92.6975 4.2278 92.1694V92.0776H5.77176L5.7775 92.0718ZM4.98543 87.9795C5.30685 87.9795 5.57661 88.0943 5.80619 88.3239C6.03578 88.5535 6.15059 88.829 6.15059 89.1447C6.15059 89.4603 6.03578 89.7416 5.80619 89.9654C5.57661 90.195 5.30111 90.3098 4.98543 90.3098C4.66975 90.3098 4.38852 90.195 4.16467 89.9654C3.93509 89.7358 3.82031 89.4603 3.82031 89.1447C3.82031 88.829 3.93509 88.5477 4.16467 88.3239C4.39426 88.0943 4.66975 87.9795 4.98543 87.9795Z" fill="#E6F4D1"/>
<path d="M15.2593 98.1672C14.1344 98.1672 13.1299 97.8917 12.246 97.3407C11.3621 96.7897 10.6676 96.0034 10.1625 94.9875C9.65745 93.9716 9.40491 92.7663 9.40491 91.3773C9.40491 89.9883 9.65745 88.7715 10.1625 87.7498C10.6676 86.7282 11.3621 85.9476 12.246 85.3966C13.1299 84.8456 14.1344 84.5701 15.2593 84.5701C16.3843 84.5701 17.3945 84.8456 18.2726 85.3966C19.1508 85.9476 19.8395 86.7339 20.3446 87.7498C20.8497 88.7715 21.1022 89.9768 21.1022 91.3773C21.1022 92.7777 20.8497 93.9716 20.3446 94.9875C19.8395 96.0034 19.1508 96.7897 18.2726 97.3407C17.3945 97.8917 16.39 98.1672 15.2593 98.1672ZM15.2593 96.6749C16.0571 96.6749 16.786 96.474 17.4346 96.0665C18.0832 95.659 18.5998 95.0621 18.9786 94.2758C19.3574 93.4894 19.5525 92.5195 19.5525 91.3773C19.5525 90.2351 19.3631 89.2594 18.9786 88.4673C18.594 87.6752 18.0832 87.0783 17.4346 86.6708C16.786 86.2633 16.0629 86.0624 15.2593 86.0624C14.4558 86.0624 13.7326 86.2633 13.084 86.6708C12.4297 87.0783 11.9131 87.6752 11.5286 88.4673C11.144 89.2594 10.9489 90.2294 10.9489 91.3773C10.9489 92.5252 11.1383 93.4837 11.5286 94.2758C11.9131 95.0621 12.4297 95.659 13.084 96.0665C13.7383 96.474 14.4615 96.6749 15.2593 96.6749ZM14.737 93.8453H16.4991L17.9741 95.7853L18.3472 96.3018L20.5512 99.2348H18.7892L17.3485 97.2948L16.9755 96.7955L14.737 93.8453Z" fill="#E6F4D1"/>
<path d="M28.9944 93.9372V88.0541H30.5039V97.9894H28.9944V96.3019H28.8853C28.65 96.807 28.2884 97.2375 27.7948 97.5933C27.3069 97.9492 26.687 98.1214 25.9351 98.1156C25.3152 98.1156 24.7642 97.9779 24.2821 97.7081C23.8 97.4384 23.4269 97.0251 23.1514 96.4684C22.8759 95.9116 22.7382 95.2114 22.7382 94.3619V88.0483H24.2477V94.2701C24.2477 94.9875 24.4543 95.5615 24.8676 95.992C25.2808 96.4224 25.8031 96.6348 26.4345 96.6291C26.8133 96.6291 27.1979 96.5315 27.5939 96.3421C27.9899 96.1527 28.3171 95.8542 28.5868 95.4525C28.8566 95.0507 28.9944 94.5456 28.9944 93.9257V93.9372Z" fill="#E6F4D1"/>
<path d="M36.6163 98.2017C35.6636 98.2017 34.8371 97.9893 34.1426 97.5589C33.4481 97.1341 32.9086 96.5372 32.5355 95.7681C32.1624 94.999 31.9788 94.1094 31.9788 93.0992C31.9788 92.089 32.1624 91.1822 32.5297 90.4073C32.8971 89.6325 33.4136 89.0241 34.0794 88.5879C34.7452 88.1516 35.5258 87.9278 36.4212 87.9278C36.9378 87.9278 37.4486 88.0139 37.9594 88.1861C38.4703 88.3583 38.9351 88.6338 39.3484 89.0241C39.7674 89.4086 40.1003 89.9195 40.3471 90.5508C40.5939 91.1822 40.7202 91.9628 40.7202 92.8869V93.5469H33.0578V92.2325H39.8937L39.1935 92.7319C39.1935 92.0661 39.0901 91.4806 38.8835 90.9641C38.6769 90.4475 38.3669 90.04 37.9537 89.7473C37.5404 89.4488 37.0296 89.3053 36.4212 89.3053C35.8128 89.3053 35.2905 89.4546 34.8543 89.753C34.4181 90.0515 34.0852 90.4418 33.8556 90.9239C33.626 91.406 33.5112 91.9168 33.5112 92.4678V93.3403C33.5112 94.0922 33.6432 94.7293 33.9015 95.2516C34.1598 95.7739 34.5271 96.1699 34.9921 96.4397C35.4627 96.7094 36.0022 96.8472 36.6163 96.8472C37.0124 96.8472 37.374 96.7898 37.7011 96.675C38.0283 96.5602 38.3096 96.3823 38.5449 96.1527C38.7802 95.9174 38.9638 95.6304 39.0901 95.286L40.5652 95.7107C40.4102 96.2101 40.152 96.6463 39.7846 97.0193C39.423 97.3982 38.9696 97.6909 38.4301 97.8975C37.8906 98.1042 37.2879 98.2132 36.6163 98.2132V98.2017ZM35.6406 86.8086L36.8861 84.375H38.608L36.9033 86.8086H35.6406Z" fill="#E6F4D1"/>
<path d="M47.9407 92.0144V97.9893H46.4312V84.748H47.9407V89.621H48.0842C48.3137 89.1044 48.6639 88.6969 49.1288 88.3927C49.5937 88.0885 50.2193 87.9336 50.9999 87.9336C51.6771 87.9336 52.2683 88.0713 52.7792 88.3353C53.29 88.6051 53.686 89.0183 53.9673 89.5693C54.2542 90.1203 54.392 90.8263 54.392 91.6815V97.9951H52.8652V91.7906C52.8652 90.9985 52.6586 90.3844 52.2511 89.9482C51.8436 89.5177 51.2754 89.2996 50.5522 89.2996C50.0471 89.2996 49.5994 89.4086 49.2091 89.621C48.8188 89.8334 48.5089 90.1433 48.2793 90.5451C48.0497 90.9468 47.9349 91.4405 47.9349 92.0202L47.9407 92.0144Z" fill="#E6F4D1"/>
<path d="M59.265 98.2189C58.6394 98.2189 58.0655 98.0983 57.5489 97.8573C57.0323 97.6162 56.6248 97.2661 56.3206 96.8127C56.0164 96.3592 55.8672 95.8082 55.8672 95.1596C55.8672 94.5914 55.982 94.1323 56.2058 93.7764C56.4296 93.4263 56.7339 93.145 57.1069 92.9384C57.4857 92.7318 57.899 92.5826 58.3524 92.4793C58.8058 92.3759 59.265 92.3013 59.7242 92.2382C60.3268 92.1636 60.8205 92.1005 61.1935 92.0603C61.5723 92.0201 61.8478 91.9455 62.02 91.8479C62.1922 91.7503 62.2841 91.5781 62.2841 91.3313V91.2797C62.2841 90.6483 62.1119 90.1547 61.7617 89.7989C61.4174 89.4488 60.8893 89.2708 60.1834 89.2708C59.4774 89.2708 58.892 89.4315 58.4787 89.7472C58.0655 90.0629 57.7727 90.4015 57.6063 90.7631L56.1484 90.2465C56.4067 89.6439 56.7568 89.1733 57.193 88.8346C57.6292 88.496 58.0999 88.2606 58.6164 88.1229C59.1273 87.9851 59.6324 87.9163 60.1317 87.9163C60.4531 87.9163 60.8205 87.9507 61.2337 88.0253C61.647 88.0999 62.0545 88.2549 62.4448 88.4902C62.8351 88.7255 63.1622 89.0757 63.4205 89.5463C63.6788 90.017 63.805 90.6483 63.805 91.4346V97.9778H62.2783V96.629H62.2095C62.1061 96.8414 61.9397 97.0709 61.6929 97.3177C61.4518 97.5646 61.1304 97.7712 60.7286 97.9491C60.3268 98.127 59.839 98.2131 59.2593 98.2131L59.265 98.2189ZM59.4946 96.8528C60.0973 96.8528 60.6081 96.7323 61.0213 96.497C61.4346 96.2617 61.7503 95.9517 61.9627 95.5787C62.175 95.1998 62.2841 94.8095 62.2841 94.402V92.9958C62.2209 93.0705 62.0774 93.1393 61.8593 93.2025C61.6412 93.2656 61.3944 93.3172 61.1132 93.3689C60.8319 93.4148 60.5564 93.455 60.2924 93.4894C60.0284 93.5239 59.8103 93.5468 59.6496 93.5641C59.2535 93.6157 58.8805 93.7018 58.5361 93.8166C58.1917 93.9314 57.9162 94.1036 57.7039 94.3274C57.4915 94.5512 57.3882 94.8612 57.3882 95.2515C57.3882 95.7795 57.5833 96.1756 57.9794 96.4453C58.3754 96.7151 58.8747 96.8528 59.4831 96.8528H59.4946Z" fill="#E6F4D1"/>
<path d="M65.7679 97.9894V88.0541H67.2258V89.5637H67.3348C67.5185 89.07 67.8514 88.674 68.3278 88.3698C68.8042 88.0656 69.338 87.9106 69.9292 87.9106C70.044 87.9106 70.1817 87.9106 70.3481 87.9106C70.5146 87.9106 70.6409 87.9164 70.7327 87.9221V89.4661C70.681 89.4546 70.5605 89.4374 70.3768 89.4144C70.1932 89.3915 69.998 89.38 69.7914 89.38C69.3093 89.38 68.8846 89.4833 68.5 89.6842C68.1212 89.8851 67.8227 90.1606 67.6046 90.5107C67.3865 90.8608 67.2775 91.2626 67.2775 91.7103V97.9837H65.7679V97.9894Z" fill="#E6F4D1"/>
<path d="M75.5483 98.2016C74.5955 98.2016 73.769 97.9893 73.0745 97.5588C72.38 97.1341 71.8462 96.5371 71.4732 95.768C71.1001 94.9989 70.9106 94.1093 70.9106 93.0991C70.9106 92.089 71.0943 91.1821 71.4617 90.4073C71.829 89.6324 72.3456 89.024 73.0114 88.5878C73.6772 88.1516 74.4578 87.9277 75.3531 87.9277C75.8697 87.9277 76.3805 88.0138 76.8913 88.186C77.4022 88.3582 77.8671 88.6337 78.2803 89.024C78.6993 89.4085 79.0322 89.9194 79.279 90.5507C79.5258 91.1821 79.6521 91.9627 79.6521 92.8868V93.5468H71.9897V92.2324H78.8256L78.1253 92.7318C78.1253 92.066 78.022 91.4805 77.8154 90.964C77.6088 90.4474 77.2989 90.0399 76.8856 89.7472C76.4723 89.4487 75.9615 89.3052 75.3531 89.3052C74.7447 89.3052 74.2224 89.4545 73.7862 89.7529C73.35 90.0514 73.0171 90.4417 72.7875 90.9238C72.5579 91.4059 72.4431 91.9167 72.4431 92.4678V93.3402C72.4431 94.0921 72.5752 94.7292 72.8334 95.2515C73.0917 95.7738 73.459 96.1698 73.9239 96.4396C74.3946 96.7094 74.9341 96.8471 75.5483 96.8471C75.9443 96.8471 76.3059 96.7897 76.6331 96.6749C76.9602 96.5601 77.2414 96.3822 77.4768 96.1526C77.7121 95.9173 77.8958 95.6303 78.022 95.2859L79.4971 95.7106C79.3421 96.21 79.0839 96.6462 78.7223 97.0193C78.3549 97.3981 77.9072 97.6908 77.3677 97.8974C76.8282 98.1041 76.2255 98.2131 75.554 98.2131L75.5483 98.2016Z" fill="#E6F4D1"/>
<path d="M81.0927 97.9894V88.0541H82.5505V89.621H82.694C82.9006 89.0873 83.2335 88.674 83.6984 88.3755C84.1576 88.0771 84.7143 87.9336 85.3629 87.9336C86.0115 87.9336 86.5567 88.0828 86.993 88.3755C87.4292 88.674 87.7678 89.0873 88.0089 89.621H88.1179C88.3762 89.1045 88.7608 88.697 89.2659 88.3928C89.7709 88.0886 90.3793 87.9336 91.0853 87.9336C91.9749 87.9336 92.7039 88.2091 93.2721 88.7658C93.8403 89.3168 94.1273 90.1778 94.1273 91.3486V97.9951H92.6006V91.3486C92.6006 90.614 92.3997 90.0917 91.9979 89.776C91.5961 89.4603 91.1197 89.3053 90.5745 89.3053C89.88 89.3053 89.3462 89.5177 88.9616 89.9425C88.5771 90.3672 88.3877 90.8952 88.3877 91.5266V97.9951H86.8265V91.1879C86.8265 90.6255 86.6428 90.172 86.2812 89.8219C85.9197 89.4775 85.449 89.2996 84.8693 89.2996C84.4733 89.2996 84.1002 89.4087 83.7558 89.621C83.4114 89.8334 83.1359 90.1261 82.9236 90.4992C82.7112 90.8723 82.6079 91.3027 82.6079 91.7906V97.9951H81.0984L81.0927 97.9894Z" fill="#E6F4D1"/>
<path d="M100.097 98.2016C99.2013 98.2016 98.4149 97.9893 97.7434 97.5588C97.0661 97.1341 96.5438 96.5314 96.165 95.7623C95.7862 94.9932 95.6025 94.0978 95.6025 93.0762C95.6025 92.0545 95.7919 91.1362 96.165 90.3613C96.5438 89.5865 97.0661 88.9896 97.7434 88.5591C98.4207 88.1286 99.2013 87.9163 100.097 87.9163C100.992 87.9163 101.784 88.1286 102.461 88.5591C103.139 88.9838 103.667 89.5865 104.046 90.3613C104.424 91.1362 104.614 92.0373 104.614 93.0762C104.614 94.115 104.424 94.9875 104.046 95.7623C103.667 96.5314 103.139 97.1283 102.461 97.5588C101.784 97.9835 100.998 98.2016 100.097 98.2016ZM100.097 96.8356C100.785 96.8356 101.348 96.6634 101.784 96.3133C102.22 95.9632 102.547 95.504 102.76 94.9301C102.972 94.3561 103.081 93.742 103.081 93.0877C103.081 92.4333 102.972 91.7962 102.76 91.2223C102.547 90.6483 102.22 90.1834 101.784 89.8333C101.348 89.4832 100.78 89.3052 100.097 89.3052C99.4137 89.3052 98.8626 89.4832 98.4264 89.8333C97.9902 90.1892 97.6631 90.6483 97.4507 91.2223C97.2383 91.7962 97.1293 92.4219 97.1293 93.0877C97.1293 93.7535 97.2383 94.3619 97.4507 94.9301C97.6631 95.504 97.9902 95.9632 98.4264 96.3133C98.8626 96.6634 99.4194 96.8356 100.097 96.8356Z" fill="#E6F4D1"/>
<path d="M113.108 90.2925L111.742 90.6655C111.61 90.3269 111.386 90.0055 111.071 89.7013C110.755 89.3971 110.261 89.2421 109.59 89.2421C108.987 89.2421 108.482 89.3856 108.08 89.6668C107.679 89.9481 107.478 90.2982 107.478 90.7172C107.478 91.096 107.615 91.4002 107.891 91.624C108.166 91.8479 108.597 92.0315 109.182 92.175L110.657 92.5309C111.541 92.7433 112.201 93.0704 112.638 93.5181C113.074 93.9658 113.292 94.5283 113.292 95.217C113.292 95.7853 113.131 96.2961 112.804 96.7438C112.477 97.1915 112.023 97.5473 111.444 97.8113C110.864 98.0754 110.187 98.2016 109.418 98.2016C108.402 98.2016 107.569 97.9778 106.904 97.5358C106.238 97.0939 105.825 96.4511 105.647 95.6073L107.087 95.2515C107.225 95.7853 107.483 96.1813 107.874 96.451C108.264 96.7151 108.769 96.8528 109.4 96.8528C110.106 96.8528 110.669 96.6979 111.094 96.3937C111.518 96.0895 111.731 95.7279 111.731 95.3031C111.731 94.6029 111.237 94.138 110.256 93.8969L108.603 93.5066C107.69 93.2885 107.019 92.9499 106.594 92.5022C106.169 92.0488 105.951 91.4863 105.951 90.8033C105.951 90.2408 106.112 89.7414 106.427 89.311C106.743 88.8805 107.179 88.5419 107.73 88.2951C108.281 88.0483 108.901 87.9277 109.596 87.9277C110.583 87.9277 111.358 88.1458 111.92 88.5821C112.483 89.0183 112.879 89.5865 113.114 90.2925H113.108Z" fill="#E6F4D1"/>
<path d="M13.7268 120.213C13.1012 120.213 12.5272 120.093 12.0107 119.852C11.4941 119.611 11.0866 119.266 10.7824 118.807C10.4782 118.354 10.329 117.803 10.329 117.154C10.329 116.586 10.4438 116.127 10.6676 115.771C10.8915 115.421 11.1957 115.139 11.5688 114.933C11.9418 114.726 12.3608 114.577 12.8142 114.474C13.2677 114.376 13.7268 114.296 14.186 114.233C14.7887 114.158 15.2823 114.095 15.6554 114.055C16.0284 114.014 16.3097 113.94 16.4819 113.842C16.6541 113.739 16.7459 113.567 16.7459 113.326V113.274C16.7459 112.643 16.5737 112.149 16.2236 111.793C15.8792 111.443 15.3512 111.265 14.6452 111.265C13.9392 111.265 13.3537 111.426 12.9405 111.742C12.5272 112.057 12.2345 112.396 12.0681 112.758L10.6102 112.241C10.8685 111.638 11.2186 111.168 11.6548 110.829C12.091 110.49 12.5617 110.255 13.0783 110.117C13.5891 109.98 14.0942 109.911 14.5935 109.911C14.9149 109.911 15.2823 109.945 15.6955 110.02C16.1088 110.094 16.5163 110.249 16.9066 110.479C17.3026 110.714 17.624 111.064 17.8823 111.535C18.1406 112.006 18.2669 112.637 18.2669 113.423V119.966H16.7401V118.618H16.6712C16.5679 118.83 16.3958 119.06 16.1547 119.306C15.9136 119.553 15.5922 119.76 15.1904 119.938C14.7887 120.11 14.3008 120.202 13.7211 120.202L13.7268 120.213ZM13.9564 118.847C14.5591 118.847 15.0699 118.727 15.4831 118.491C15.8964 118.256 16.2121 117.946 16.4244 117.573C16.6368 117.194 16.7459 116.804 16.7459 116.396V114.99C16.6827 115.065 16.5392 115.139 16.3211 115.197C16.103 115.254 15.8562 115.312 15.575 115.363C15.2938 115.409 15.0183 115.449 14.7542 115.484C14.4902 115.518 14.2721 115.541 14.1114 115.558C13.7154 115.61 13.3423 115.696 12.9979 115.811C12.6535 115.926 12.378 116.098 12.1657 116.322C11.9533 116.546 11.85 116.856 11.85 117.246C11.85 117.774 12.0451 118.17 12.4412 118.44C12.8372 118.709 13.3365 118.841 13.9449 118.841L13.9564 118.847Z" fill="#E6F4D1"/>
<path d="M21.7451 106.736V119.978H20.2356V106.736H21.7451Z" fill="#E6F4D1"/>
<path d="M27.9668 119.984V110.048H29.4247V111.558H29.5337C29.7174 111.064 30.0503 110.668 30.5267 110.364C31.0031 110.06 31.5368 109.905 32.128 109.905C32.2428 109.905 32.3806 109.905 32.547 109.905C32.7135 109.905 32.8397 109.911 32.9316 109.916V111.466C32.8799 111.454 32.7594 111.437 32.5757 111.414C32.3921 111.391 32.1969 111.38 31.9903 111.38C31.5081 111.38 31.0834 111.483 30.6989 111.684C30.32 111.885 30.0216 112.16 29.8035 112.511C29.5854 112.861 29.4821 113.262 29.4821 113.71V119.984H27.9725H27.9668Z" fill="#E6F4D1"/>
<path d="M37.7414 120.196C36.7886 120.196 35.9621 119.984 35.2676 119.553C34.5731 119.123 34.0393 118.532 33.6663 117.762C33.2932 116.993 33.1038 116.104 33.1038 115.094C33.1038 114.083 33.2874 113.176 33.6548 112.402C34.0221 111.627 34.5387 111.018 35.2045 110.582C35.8703 110.146 36.6508 109.922 37.5462 109.922C38.0628 109.922 38.5736 110.008 39.0845 110.18C39.5953 110.353 40.0602 110.634 40.4734 111.018C40.8867 111.403 41.2253 111.914 41.4721 112.545C41.7189 113.182 41.8452 113.957 41.8452 114.881V115.541H34.1828V114.227H41.0187L40.3185 114.726C40.3185 114.06 40.2152 113.475 40.0085 112.958C39.8019 112.442 39.492 112.034 39.0787 111.742C38.6655 111.443 38.1546 111.3 37.5462 111.3C36.9378 111.3 36.4155 111.449 35.9793 111.747C35.5431 112.046 35.2102 112.436 34.9806 112.918C34.751 113.4 34.6363 113.911 34.6363 114.468V115.34C34.6363 116.092 34.7683 116.729 35.0266 117.252C35.2906 117.774 35.6522 118.17 36.1228 118.44C36.5934 118.709 37.133 118.847 37.7471 118.847C38.1432 118.847 38.5048 118.79 38.8319 118.675C39.1591 118.56 39.4403 118.382 39.6756 118.153C39.9109 117.917 40.0946 117.63 40.2151 117.286L41.6902 117.711C41.5353 118.21 41.277 118.646 40.9097 119.019C40.5423 119.392 40.0946 119.691 39.5551 119.898C39.0156 120.104 38.4129 120.213 37.7414 120.213V120.196Z" fill="#E6F4D1"/>
<path d="M50.311 112.287L48.945 112.66C48.813 112.321 48.5891 112 48.2734 111.696C47.9577 111.391 47.4642 111.236 46.7926 111.236C46.19 111.236 45.6849 111.38 45.2831 111.661C44.8813 111.942 44.6805 112.292 44.6805 112.717C44.6805 113.096 44.8182 113.4 45.0937 113.624C45.3692 113.848 45.7997 114.032 46.3851 114.175L47.8602 114.531C48.7441 114.743 49.4041 115.076 49.8404 115.518C50.2766 115.96 50.4946 116.528 50.4946 117.217C50.4946 117.785 50.334 118.296 50.0068 118.744C49.6796 119.191 49.2262 119.547 48.6465 119.811C48.0668 120.075 47.3895 120.202 46.6204 120.202C45.6102 120.202 44.7723 119.978 44.1122 119.536C43.4521 119.094 43.0332 118.451 42.8552 117.607L44.2959 117.251C44.4336 117.785 44.6919 118.187 45.0822 118.451C45.4725 118.715 45.9776 118.853 46.609 118.853C47.3149 118.853 47.8774 118.698 48.3021 118.394C48.7269 118.089 48.9392 117.728 48.9392 117.303C48.9392 116.603 48.4456 116.138 47.4641 115.897L45.8111 115.507C44.8985 115.289 44.227 114.95 43.8023 114.502C43.3775 114.054 43.1594 113.486 43.1594 112.803C43.1594 112.241 43.3202 111.741 43.6358 111.311C43.9515 110.88 44.3877 110.542 44.9387 110.295C45.4897 110.048 46.1096 109.928 46.8041 109.928C47.7913 109.928 48.5662 110.146 49.1287 110.582C49.6911 111.018 50.0871 111.586 50.3225 112.292L50.311 112.287Z" fill="#E6F4D1"/>
<path d="M51.9469 123.697V110.043H53.4048V111.627H53.5827C53.6975 111.455 53.8524 111.236 54.0533 110.967C54.2542 110.697 54.547 110.456 54.9258 110.244C55.3046 110.031 55.8154 109.922 56.464 109.922C57.302 109.922 58.0366 110.129 58.668 110.548C59.2994 110.967 59.7987 111.558 60.1545 112.327C60.5104 113.096 60.6941 113.997 60.6941 115.042C60.6941 116.086 60.5161 117.005 60.1603 117.774C59.8044 118.549 59.3108 119.146 58.6737 119.565C58.0424 119.984 57.3077 120.196 56.4755 120.196C55.8441 120.196 55.3333 120.087 54.9487 119.869C54.5642 119.651 54.2657 119.404 54.0591 119.128C53.8525 118.853 53.6918 118.629 53.577 118.451H53.4507V123.697H51.9412H51.9469ZM56.2803 118.824C56.9117 118.824 57.4455 118.652 57.8702 118.313C58.2949 117.975 58.6163 117.516 58.8344 116.942C59.0525 116.368 59.1616 115.725 59.1616 115.019C59.1616 114.313 59.0526 113.687 58.8402 113.125C58.6278 112.562 58.3064 112.115 57.8874 111.782C57.4627 111.449 56.9289 111.282 56.2803 111.282C55.6317 111.282 55.1381 111.437 54.7134 111.747C54.2944 112.057 53.973 112.493 53.7606 113.056C53.5482 113.618 53.4335 114.267 53.4335 115.013C53.4335 115.759 53.5425 116.419 53.7606 116.993C53.9787 117.567 54.3002 118.015 54.7249 118.336C55.1496 118.658 55.6662 118.819 56.2746 118.819L56.2803 118.824Z" fill="#E6F4D1"/>
<path d="M66.3246 120.196C65.3719 120.196 64.5453 119.984 63.8509 119.553C63.1564 119.123 62.6226 118.532 62.2495 117.762C61.8764 116.993 61.687 116.104 61.687 115.094C61.687 114.083 61.8707 113.176 62.238 112.402C62.6054 111.627 63.1219 111.018 63.7877 110.582C64.4535 110.146 65.2341 109.922 66.1295 109.922C66.6461 109.922 67.1569 110.008 67.6677 110.18C68.1785 110.353 68.6434 110.634 69.0567 111.018C69.4757 111.403 69.8086 111.914 70.0554 112.545C70.3022 113.182 70.4285 113.957 70.4285 114.881V115.541H62.7661V114.227H69.602L68.9017 114.726C68.9017 114.06 68.7984 113.475 68.5918 112.958C68.3852 112.442 68.0752 112.034 67.662 111.742C67.2487 111.443 66.7379 111.3 66.1295 111.3C65.5211 111.3 64.9988 111.449 64.5626 111.747C64.1264 112.046 63.7935 112.436 63.5639 112.918C63.3343 113.4 63.2195 113.911 63.2195 114.468V115.34C63.2195 116.092 63.3515 116.729 63.6098 117.252C63.8681 117.774 64.2354 118.17 64.7003 118.44C65.1652 118.709 65.7105 118.847 66.3246 118.847C66.7207 118.847 67.0823 118.79 67.4094 118.675C67.7366 118.56 68.0178 118.382 68.2531 118.153C68.4885 117.917 68.6721 117.63 68.7927 117.286L70.2677 117.711C70.1128 118.21 69.8545 118.646 69.4872 119.019C69.1198 119.392 68.6721 119.691 68.1326 119.898C67.5931 120.104 66.9904 120.213 66.3189 120.213L66.3246 120.196Z" fill="#E6F4D1"/>
<path d="M75.8869 120.196C74.9629 120.196 74.165 119.978 73.4935 119.536C72.822 119.094 72.2997 118.491 71.9381 117.716C71.5765 116.947 71.3928 116.063 71.3928 115.076C71.3928 114.089 71.5822 113.171 71.9553 112.396C72.3284 111.621 72.8507 111.018 73.5222 110.576C74.1938 110.14 74.9801 109.916 75.8755 109.916C76.5757 109.916 77.207 110.043 77.7638 110.301C78.3263 110.559 78.7854 110.921 79.1413 111.391C79.4972 111.862 79.721 112.402 79.8014 113.027H78.2746C78.2 112.723 78.0565 112.442 77.8556 112.172C77.6547 111.902 77.3907 111.69 77.0578 111.529C76.7307 111.368 76.3404 111.282 75.8869 111.282C75.2958 111.282 74.7735 111.437 74.3315 111.747C73.8896 112.057 73.5394 112.488 73.2926 113.05C73.0458 113.613 72.9195 114.267 72.9195 115.019C72.9195 115.771 73.0401 116.454 73.2811 117.022C73.5222 117.596 73.8723 118.038 74.3143 118.353C74.762 118.669 75.2843 118.824 75.8812 118.824C76.4781 118.824 76.9947 118.669 77.4194 118.359C77.8441 118.049 78.1254 117.625 78.2631 117.085H79.7899C79.7095 117.67 79.4972 118.199 79.1528 118.669C78.8084 119.14 78.3664 119.507 77.8097 119.783C77.253 120.058 76.6101 120.196 75.8755 120.196H75.8869Z" fill="#E6F4D1"/>
<path d="M85.541 110.042V111.34H80.4041V110.042H85.541ZM81.8963 107.683H83.4059V117.142C83.4059 117.659 83.5149 118.038 83.7273 118.273C83.9396 118.508 84.2783 118.635 84.7375 118.635C84.8408 118.635 84.9441 118.629 85.0531 118.617C85.1622 118.606 85.2827 118.589 85.4147 118.566L85.7361 119.932C85.5926 119.983 85.4205 120.029 85.2139 120.058C85.0072 120.087 84.8063 120.104 84.594 120.104C83.7962 120.104 83.1418 119.869 82.6425 119.392C82.1431 118.916 81.8906 118.302 81.8906 117.544V107.678L81.8963 107.683Z" fill="#E6F4D1"/>
<path d="M90.9189 120.196C90.0236 120.196 89.2372 119.984 88.5657 119.553C87.8941 119.123 87.3661 118.526 86.9873 117.757C86.6085 116.988 86.4248 116.092 86.4248 115.071C86.4248 114.049 86.6142 113.131 86.9873 112.356C87.3661 111.581 87.8884 110.984 88.5657 110.553C89.2429 110.123 90.0236 109.911 90.9189 109.911C91.8143 109.911 92.6064 110.123 93.2836 110.553C93.9609 110.978 94.4832 111.581 94.8678 112.356C95.2466 113.131 95.436 114.032 95.436 115.071C95.436 116.109 95.2466 116.982 94.8678 117.757C94.489 118.526 93.9609 119.123 93.2836 119.553C92.6064 119.978 91.82 120.196 90.9189 120.196ZM90.9189 118.824C91.6077 118.824 92.1702 118.652 92.6064 118.302C93.0426 117.952 93.3697 117.493 93.5821 116.919C93.7944 116.345 93.9035 115.731 93.9035 115.076C93.9035 114.422 93.7944 113.785 93.5821 113.211C93.3697 112.637 93.0426 112.172 92.6064 111.822C92.1702 111.472 91.6077 111.294 90.9189 111.294C90.2302 111.294 89.6849 111.472 89.2487 111.822C88.8125 112.172 88.4853 112.637 88.2729 113.211C88.0606 113.785 87.9515 114.405 87.9515 115.076C87.9515 115.748 88.0606 116.351 88.2729 116.919C88.4853 117.493 88.8125 117.952 89.2487 118.302C89.6849 118.652 90.2417 118.824 90.9189 118.824Z" fill="#E6F4D1"/>
<path d="M98.9027 116V115.908C98.9027 115.088 98.983 114.451 99.1495 114.009C99.3102 113.567 99.5455 113.217 99.844 112.958C100.148 112.7 100.51 112.442 100.929 112.189C101.313 111.965 101.635 111.667 101.893 111.294C102.151 110.926 102.278 110.479 102.278 109.968C102.278 109.549 102.18 109.182 101.985 108.872C101.79 108.562 101.526 108.326 101.187 108.154C100.854 107.988 100.481 107.902 100.074 107.902C99.7234 107.902 99.3848 107.976 99.0634 108.12C98.7363 108.263 98.4607 108.493 98.2426 108.803C98.0245 109.113 97.8925 109.526 97.8581 110.031H96.2395C96.2682 109.302 96.4576 108.677 96.802 108.154C97.1464 107.632 97.6055 107.236 98.1795 106.96C98.7535 106.685 99.3848 106.547 100.079 106.547C100.843 106.547 101.508 106.696 102.065 107.001C102.622 107.305 103.058 107.718 103.368 108.24C103.678 108.763 103.827 109.36 103.827 110.031C103.827 110.749 103.667 111.363 103.351 111.873C103.035 112.384 102.593 112.815 102.031 113.165C101.652 113.394 101.348 113.618 101.112 113.836C100.877 114.055 100.711 114.319 100.607 114.634C100.504 114.95 100.452 115.375 100.452 115.903V115.994H98.9084L98.9027 116ZM99.6948 120.087C99.3733 120.087 99.0978 119.972 98.874 119.742C98.6502 119.513 98.5296 119.237 98.5296 118.922C98.5296 118.606 98.6444 118.325 98.874 118.101C99.1036 117.877 99.3791 117.757 99.6948 117.757C100.01 117.757 100.286 117.871 100.516 118.101C100.745 118.331 100.86 118.606 100.86 118.922C100.86 119.237 100.745 119.519 100.516 119.742C100.286 119.972 100.01 120.087 99.6948 120.087Z" fill="#E6F4D1"/>
<path d="M87.6703 33.5794C92.7422 33.5794 96.8537 29.4679 96.8537 24.396C96.8537 19.3242 92.7422 15.2126 87.6703 15.2126C82.5985 15.2126 78.4869 19.3242 78.4869 24.396C78.4869 29.4679 82.5985 33.5794 87.6703 33.5794Z" fill="#E6F4D1"/>
</svg>
