<svg width="550" height="138" viewBox="0 0 550 138" fill="none" xmlns="http://www.w3.org/2000/svg">
<circle cx="23" cy="114.543" r="22.5" stroke="#E6F4D1"/>
<circle cx="445.5" cy="114.043" r="9" stroke="#E6F4D1"/>
<line x1="45.9974" y1="116.043" x2="436.997" y2="114.022" stroke="#E6F4D1"/>
<path d="M340.201 57.543L340.311 56.905C340.912 56.6557 341.557 56.4797 342.247 56.377L344.997 43.331C344.674 43.2577 344.366 43.177 344.073 43.089C343.794 42.9864 343.537 42.8837 343.303 42.781L343.457 42.143H345.679C345.928 42.143 346.221 42.1357 346.559 42.121C346.911 42.1064 347.263 42.0917 347.615 42.077C347.981 42.0477 348.333 42.0257 348.671 42.011C349.008 41.9817 349.287 41.967 349.507 41.967C350.68 41.967 351.677 42.1064 352.499 42.385C353.32 42.6637 353.98 43.045 354.479 43.529C354.992 43.9984 355.359 44.563 355.579 45.223C355.813 45.8684 355.931 46.565 355.931 47.313C355.931 48.061 355.865 48.8457 355.733 49.667C355.615 50.4737 355.41 51.2657 355.117 52.043C354.823 52.8057 354.427 53.5317 353.929 54.221C353.445 54.9104 352.829 55.519 352.081 56.047C351.347 56.5604 350.475 56.971 349.463 57.279C348.451 57.587 347.285 57.741 345.965 57.741C345.745 57.741 345.481 57.7264 345.173 57.697C344.879 57.6824 344.564 57.6604 344.227 57.631C343.889 57.6164 343.552 57.5944 343.215 57.565C342.877 57.5504 342.569 57.543 342.291 57.543H340.201ZM349.067 43.111C348.685 43.111 348.297 43.1184 347.901 43.133C347.505 43.1477 347.204 43.1697 346.999 43.199L344.183 56.531C344.329 56.5457 344.505 56.5604 344.711 56.575C344.931 56.575 345.143 56.5824 345.349 56.597C345.569 56.597 345.759 56.6044 345.921 56.619C346.097 56.619 346.229 56.6117 346.317 56.597C347.695 56.6117 348.847 56.3404 349.771 55.783C350.709 55.2257 351.457 54.4997 352.015 53.605C352.587 52.6957 352.99 51.6837 353.225 50.569C353.459 49.4397 353.577 48.3104 353.577 47.181C353.577 46.609 353.511 46.0737 353.379 45.575C353.247 45.0764 353.012 44.651 352.675 44.299C352.337 43.9324 351.875 43.6464 351.289 43.441C350.717 43.221 349.976 43.111 349.067 43.111Z" fill="#E6F4D1"/>
<path d="M364.712 55.585C364.58 55.8637 364.389 56.135 364.14 56.399C363.891 56.663 363.597 56.905 363.26 57.125C362.923 57.3304 362.541 57.4917 362.116 57.609C361.691 57.741 361.236 57.807 360.752 57.807C359.535 57.807 358.596 57.4624 357.936 56.773C357.291 56.069 356.968 55.101 356.968 53.869C356.968 52.8277 357.115 51.845 357.408 50.921C357.701 49.997 358.112 49.1904 358.64 48.501C359.168 47.8117 359.806 47.269 360.554 46.873C361.317 46.477 362.16 46.279 363.084 46.279C363.788 46.279 364.389 46.4624 364.888 46.829C365.401 47.181 365.658 47.709 365.658 48.413C365.658 49.4544 365.137 50.2757 364.096 50.877C363.069 51.4784 361.405 51.867 359.102 52.043C359.043 52.2924 358.999 52.5344 358.97 52.769C358.955 53.0037 358.948 53.231 358.948 53.451C358.948 54.331 359.168 55.0497 359.608 55.607C360.063 56.1644 360.723 56.443 361.588 56.443C361.867 56.443 362.138 56.399 362.402 56.311C362.681 56.223 362.937 56.113 363.172 55.981C363.421 55.849 363.641 55.7097 363.832 55.563C364.037 55.4164 364.213 55.2844 364.36 55.167L364.712 55.585ZM362.402 47.225C361.771 47.2397 361.185 47.5404 360.642 48.127C360.099 48.699 359.637 49.689 359.256 51.097C360.679 51.053 361.786 50.811 362.578 50.371C363.37 49.9164 363.766 49.293 363.766 48.501C363.766 48.193 363.671 47.907 363.48 47.643C363.304 47.379 362.945 47.2397 362.402 47.225Z" fill="#E6F4D1"/>
<path d="M367.266 47.071C367.56 46.9097 367.868 46.763 368.19 46.631C368.528 46.499 368.858 46.3964 369.18 46.323L369.532 44.651C369.738 44.4897 369.972 44.3504 370.236 44.233C370.515 44.101 370.801 43.9764 371.094 43.859L371.556 44.123L371.028 46.543H373.756C373.786 46.719 373.786 46.9024 373.756 47.093C373.727 47.2837 373.654 47.467 373.536 47.643H370.808L369.422 54.023C369.364 54.3017 369.32 54.551 369.29 54.771C369.261 54.9764 369.246 55.167 369.246 55.343C369.246 55.7244 369.356 56.003 369.576 56.179C369.796 56.355 370.038 56.443 370.302 56.443C370.669 56.443 371.058 56.377 371.468 56.245C371.894 56.0984 372.282 55.937 372.634 55.761L372.876 56.157C372.744 56.3477 372.546 56.5384 372.282 56.729C372.018 56.9197 371.718 57.0957 371.38 57.257C371.058 57.4184 370.713 57.5504 370.346 57.653C369.994 57.7557 369.657 57.807 369.334 57.807C368.689 57.807 368.183 57.6604 367.816 57.367C367.45 57.0737 367.266 56.619 367.266 56.003C367.266 55.7977 367.281 55.5704 367.31 55.321C367.354 55.0717 367.406 54.815 367.464 54.551L368.916 47.643H367.244L367.266 47.071Z" fill="#E6F4D1"/>
<path d="M382.114 55.585C381.982 55.8637 381.792 56.135 381.542 56.399C381.293 56.663 381 56.905 380.662 57.125C380.325 57.3304 379.944 57.4917 379.518 57.609C379.093 57.741 378.638 57.807 378.154 57.807C376.937 57.807 375.998 57.4624 375.338 56.773C374.693 56.069 374.37 55.101 374.37 53.869C374.37 52.8277 374.517 51.845 374.81 50.921C375.104 49.997 375.514 49.1904 376.042 48.501C376.57 47.8117 377.208 47.269 377.956 46.873C378.719 46.477 379.562 46.279 380.486 46.279C381.19 46.279 381.792 46.4624 382.29 46.829C382.804 47.181 383.06 47.709 383.06 48.413C383.06 49.4544 382.54 50.2757 381.498 50.877C380.472 51.4784 378.807 51.867 376.504 52.043C376.446 52.2924 376.402 52.5344 376.372 52.769C376.358 53.0037 376.35 53.231 376.35 53.451C376.35 54.331 376.57 55.0497 377.01 55.607C377.465 56.1644 378.125 56.443 378.99 56.443C379.269 56.443 379.54 56.399 379.804 56.311C380.083 56.223 380.34 56.113 380.574 55.981C380.824 55.849 381.044 55.7097 381.234 55.563C381.44 55.4164 381.616 55.2844 381.762 55.167L382.114 55.585ZM379.804 47.225C379.174 47.2397 378.587 47.5404 378.044 48.127C377.502 48.699 377.04 49.689 376.658 51.097C378.081 51.053 379.188 50.811 379.98 50.371C380.772 49.9164 381.168 49.293 381.168 48.501C381.168 48.193 381.073 47.907 380.882 47.643C380.706 47.379 380.347 47.2397 379.804 47.225Z" fill="#E6F4D1"/>
<path d="M391.973 51.273C392.075 50.8184 392.163 50.4004 392.237 50.019C392.325 49.623 392.369 49.2344 392.369 48.853C392.369 48.5157 392.288 48.2297 392.127 47.995C391.98 47.7604 391.738 47.643 391.401 47.643C391.005 47.643 390.601 47.8044 390.191 48.127C389.78 48.4497 389.399 48.8384 389.047 49.293C388.695 49.7477 388.372 50.2244 388.079 50.723C387.8 51.207 387.587 51.6104 387.441 51.933L386.275 57.543H384.427L386.363 47.819L385.021 47.621L385.065 47.071C385.27 46.9684 385.497 46.873 385.747 46.785C386.011 46.6824 386.275 46.5944 386.539 46.521C386.817 46.4477 387.081 46.389 387.331 46.345C387.595 46.301 387.837 46.279 388.057 46.279L388.497 46.543L387.661 50.437H387.771C388.049 49.8504 388.365 49.3077 388.717 48.809C389.083 48.2957 389.465 47.8557 389.861 47.489C390.271 47.1077 390.697 46.8144 391.137 46.609C391.577 46.389 392.024 46.279 392.479 46.279C393.095 46.279 393.542 46.477 393.821 46.873C394.114 47.2544 394.261 47.7384 394.261 48.325C394.261 48.6477 394.224 49.051 394.151 49.535C394.077 50.019 393.989 50.4737 393.887 50.899L392.633 56.311H394.261V56.883C393.967 57.1177 393.608 57.3084 393.183 57.455C392.772 57.6017 392.369 57.675 391.973 57.675C391.547 57.675 391.254 57.587 391.093 57.411C390.931 57.235 390.851 57.0444 390.851 56.839C390.851 56.5604 390.887 56.2597 390.961 55.937C391.034 55.5997 391.107 55.2624 391.181 54.925L391.973 51.273Z" fill="#E6F4D1"/>
<path d="M404.243 55.585C404.111 55.8637 403.921 56.135 403.671 56.399C403.422 56.663 403.129 56.905 402.791 57.125C402.454 57.3304 402.073 57.4917 401.647 57.609C401.222 57.741 400.767 57.807 400.283 57.807C399.066 57.807 398.127 57.4624 397.467 56.773C396.822 56.069 396.499 55.101 396.499 53.869C396.499 52.8277 396.646 51.845 396.939 50.921C397.233 49.997 397.643 49.1904 398.171 48.501C398.699 47.8117 399.337 47.269 400.085 46.873C400.848 46.477 401.691 46.279 402.615 46.279C403.319 46.279 403.921 46.4624 404.419 46.829C404.933 47.181 405.189 47.709 405.189 48.413C405.189 49.4544 404.669 50.2757 403.627 50.877C402.601 51.4784 400.936 51.867 398.633 52.043C398.575 52.2924 398.531 52.5344 398.501 52.769C398.487 53.0037 398.479 53.231 398.479 53.451C398.479 54.331 398.699 55.0497 399.139 55.607C399.594 56.1644 400.254 56.443 401.119 56.443C401.398 56.443 401.669 56.399 401.933 56.311C402.212 56.223 402.469 56.113 402.703 55.981C402.953 55.849 403.173 55.7097 403.363 55.563C403.569 55.4164 403.745 55.2844 403.891 55.167L404.243 55.585ZM401.933 47.225C401.303 47.2397 400.716 47.5404 400.173 48.127C399.631 48.699 399.169 49.689 398.787 51.097C400.21 51.053 401.317 50.811 402.109 50.371C402.901 49.9164 403.297 49.293 403.297 48.501C403.297 48.193 403.202 47.907 403.011 47.643C402.835 47.379 402.476 47.2397 401.933 47.225Z" fill="#E6F4D1"/>
<path d="M412.319 47.885C411.938 48.0317 411.505 48.4057 411.021 49.007C410.552 49.5937 410.134 50.393 409.767 51.405L408.447 57.543H406.555L408.601 47.819L407.259 47.621V47.071C407.758 46.8364 408.279 46.6604 408.821 46.543C409.364 46.411 409.855 46.323 410.295 46.279L410.735 46.543L410.119 49.469H410.207C410.633 48.501 411.153 47.731 411.769 47.159C412.385 46.5724 413.045 46.279 413.749 46.279C413.94 46.279 414.131 46.301 414.321 46.345C414.512 46.3744 414.695 46.4404 414.871 46.543C414.871 46.675 414.849 46.851 414.805 47.071C414.761 47.2764 414.695 47.489 414.607 47.709C414.534 47.929 414.446 48.1417 414.343 48.347C414.255 48.5377 414.16 48.6844 414.057 48.787L412.319 47.885Z" fill="#E6F4D1"/>
<path d="M419.684 54.947C419.67 54.595 419.567 54.2944 419.376 54.045C419.2 53.781 418.966 53.5317 418.672 53.297C418.394 53.0624 418.093 52.8277 417.77 52.593C417.448 52.3584 417.14 52.1017 416.846 51.823C416.568 51.5297 416.333 51.1997 416.142 50.833C415.966 50.4517 415.878 49.997 415.878 49.469C415.878 48.941 415.981 48.479 416.186 48.083C416.392 47.687 416.67 47.357 417.022 47.093C417.389 46.829 417.822 46.631 418.32 46.499C418.834 46.3524 419.391 46.279 419.992 46.279C420.374 46.279 420.799 46.3157 421.268 46.389C421.752 46.4477 422.207 46.6017 422.632 46.851C422.632 47.0124 422.603 47.203 422.544 47.423C422.486 47.6284 422.405 47.8337 422.302 48.039C422.214 48.2297 422.112 48.413 421.994 48.589C421.877 48.7504 421.752 48.8604 421.62 48.919L419.992 47.225C419.684 47.2397 419.398 47.2764 419.134 47.335C418.87 47.3937 418.636 47.489 418.43 47.621C418.24 47.753 418.086 47.929 417.968 48.149C417.866 48.3544 417.814 48.6184 417.814 48.941C417.814 49.3224 417.91 49.6524 418.1 49.931C418.291 50.195 418.526 50.4517 418.804 50.701C419.098 50.9357 419.406 51.1704 419.728 51.405C420.066 51.625 420.374 51.8817 420.652 52.175C420.946 52.4537 421.188 52.7837 421.378 53.165C421.569 53.5317 421.664 53.9717 421.664 54.485C421.664 55.013 421.54 55.4824 421.29 55.893C421.056 56.3037 420.726 56.6557 420.3 56.949C419.89 57.2277 419.406 57.4404 418.848 57.587C418.306 57.7337 417.726 57.807 417.11 57.807C416.494 57.807 415.93 57.741 415.416 57.609C414.918 57.4917 414.522 57.3377 414.228 57.147C414.302 56.7657 414.39 56.399 414.492 56.047C414.595 55.6804 414.808 55.343 415.13 55.035L417.11 56.861C417.418 56.861 417.719 56.8244 418.012 56.751C418.32 56.6777 418.592 56.5604 418.826 56.399C419.076 56.2377 419.274 56.0397 419.42 55.805C419.582 55.5704 419.67 55.2844 419.684 54.947Z" fill="#E6F4D1"/>
<path d="M431.894 55.585C431.762 55.8637 431.571 56.135 431.322 56.399C431.072 56.663 430.779 56.905 430.442 57.125C430.104 57.3304 429.723 57.4917 429.298 57.609C428.872 57.741 428.418 57.807 427.934 57.807C426.716 57.807 425.778 57.4624 425.118 56.773C424.472 56.069 424.15 55.101 424.15 53.869C424.15 52.8277 424.296 51.845 424.59 50.921C424.883 49.997 425.294 49.1904 425.822 48.501C426.35 47.8117 426.988 47.269 427.736 46.873C428.498 46.477 429.342 46.279 430.266 46.279C430.97 46.279 431.571 46.4624 432.07 46.829C432.583 47.181 432.84 47.709 432.84 48.413C432.84 49.4544 432.319 50.2757 431.278 50.877C430.251 51.4784 428.586 51.867 426.284 52.043C426.225 52.2924 426.181 52.5344 426.152 52.769C426.137 53.0037 426.13 53.231 426.13 53.451C426.13 54.331 426.35 55.0497 426.79 55.607C427.244 56.1644 427.904 56.443 428.77 56.443C429.048 56.443 429.32 56.399 429.584 56.311C429.862 56.223 430.119 56.113 430.354 55.981C430.603 55.849 430.823 55.7097 431.014 55.563C431.219 55.4164 431.395 55.2844 431.542 55.167L431.894 55.585ZM429.584 47.225C428.953 47.2397 428.366 47.5404 427.824 48.127C427.281 48.699 426.819 49.689 426.438 51.097C427.86 51.053 428.968 50.811 429.76 50.371C430.552 49.9164 430.948 49.293 430.948 48.501C430.948 48.193 430.852 47.907 430.662 47.643C430.486 47.379 430.126 47.2397 429.584 47.225Z" fill="#E6F4D1"/>
<path d="M432.468 60.821C432.776 60.7184 433.076 60.557 433.37 60.337C433.663 60.1317 433.927 59.897 434.162 59.633C434.411 59.369 434.609 59.0757 434.756 58.753C434.917 58.445 435.02 58.137 435.064 57.829C434.917 57.6677 434.712 57.5064 434.448 57.345C434.198 57.1837 433.971 57.0664 433.766 56.993C433.751 56.7144 433.802 56.443 433.92 56.179C434.037 55.915 434.184 55.6804 434.36 55.475C434.536 55.2697 434.719 55.1084 434.91 54.991C435.115 54.859 435.298 54.7857 435.46 54.771C435.958 54.8444 436.332 55.0204 436.582 55.299C436.831 55.5777 436.956 55.9957 436.956 56.553C436.956 57.1104 436.831 57.653 436.582 58.181C436.347 58.709 436.032 59.193 435.636 59.633C435.254 60.073 434.807 60.4544 434.294 60.777C433.795 61.0997 433.282 61.3344 432.754 61.481L432.468 60.821Z" fill="#E6F4D1"/>
<path d="M450.669 47.885C450.288 48.0317 449.855 48.4057 449.371 49.007C448.902 49.5937 448.484 50.393 448.117 51.405L446.797 57.543H444.905L446.951 47.819L445.609 47.621V47.071C446.108 46.8364 446.628 46.6604 447.171 46.543C447.714 46.411 448.205 46.323 448.645 46.279L449.085 46.543L448.469 49.469H448.557C448.982 48.501 449.503 47.731 450.119 47.159C450.735 46.5724 451.395 46.279 452.099 46.279C452.29 46.279 452.48 46.301 452.671 46.345C452.862 46.3744 453.045 46.4404 453.221 46.543C453.221 46.675 453.199 46.851 453.155 47.071C453.111 47.2764 453.045 47.489 452.957 47.709C452.884 47.929 452.796 48.1417 452.693 48.347C452.605 48.5377 452.51 48.6844 452.407 48.787L450.669 47.885Z" fill="#E6F4D1"/>
<path d="M461.048 55.585C460.916 55.8637 460.725 56.135 460.476 56.399C460.227 56.663 459.933 56.905 459.596 57.125C459.259 57.3304 458.877 57.4917 458.452 57.609C458.027 57.741 457.572 57.807 457.088 57.807C455.871 57.807 454.932 57.4624 454.272 56.773C453.627 56.069 453.304 55.101 453.304 53.869C453.304 52.8277 453.451 51.845 453.744 50.921C454.037 49.997 454.448 49.1904 454.976 48.501C455.504 47.8117 456.142 47.269 456.89 46.873C457.653 46.477 458.496 46.279 459.42 46.279C460.124 46.279 460.725 46.4624 461.224 46.829C461.737 47.181 461.994 47.709 461.994 48.413C461.994 49.4544 461.473 50.2757 460.432 50.877C459.405 51.4784 457.741 51.867 455.438 52.043C455.379 52.2924 455.335 52.5344 455.306 52.769C455.291 53.0037 455.284 53.231 455.284 53.451C455.284 54.331 455.504 55.0497 455.944 55.607C456.399 56.1644 457.059 56.443 457.924 56.443C458.203 56.443 458.474 56.399 458.738 56.311C459.017 56.223 459.273 56.113 459.508 55.981C459.757 55.849 459.977 55.7097 460.168 55.563C460.373 55.4164 460.549 55.2844 460.696 55.167L461.048 55.585ZM458.738 47.225C458.107 47.2397 457.521 47.5404 456.978 48.127C456.435 48.699 455.973 49.689 455.592 51.097C457.015 51.053 458.122 50.811 458.914 50.371C459.706 49.9164 460.102 49.293 460.102 48.501C460.102 48.193 460.007 47.907 459.816 47.643C459.64 47.379 459.281 47.2397 458.738 47.225Z" fill="#E6F4D1"/>
<path d="M465.252 47.643H463.646V47.071C463.939 46.9097 464.247 46.7704 464.57 46.653C464.907 46.521 465.223 46.4184 465.516 46.345L465.67 45.575C465.861 44.6657 466.117 43.9177 466.44 43.331C466.777 42.7297 467.166 42.2604 467.606 41.923C468.046 41.571 468.53 41.329 469.058 41.197C469.586 41.065 470.151 40.999 470.752 40.999C471.001 40.999 471.295 41.0284 471.632 41.087C471.984 41.1457 472.277 41.2337 472.512 41.351C472.483 41.6737 472.402 42.011 472.27 42.363C472.153 42.7004 471.947 42.9937 471.654 43.243L469.982 41.879C469.718 41.9524 469.476 42.033 469.256 42.121C469.036 42.209 468.823 42.3777 468.618 42.627C468.427 42.8617 468.244 43.199 468.068 43.639C467.892 44.079 467.723 44.6804 467.562 45.443L467.342 46.543H469.784C469.857 46.9097 469.784 47.2764 469.564 47.643H467.122L465.714 56.597C465.553 57.6384 465.281 58.5037 464.9 59.193C464.519 59.8824 464.108 60.4397 463.668 60.865C463.243 61.2904 462.825 61.6057 462.414 61.811C462.003 62.0164 461.688 62.1484 461.468 62.207L461.27 61.723C461.446 61.635 461.659 61.4737 461.908 61.239C462.157 61.019 462.399 60.7184 462.634 60.337C462.883 59.9557 463.111 59.4864 463.316 58.929C463.536 58.3864 463.705 57.7484 463.822 57.015L465.252 47.643Z" fill="#E6F4D1"/>
<path d="M474.084 42.539L472.522 42.341V41.791C472.727 41.703 472.962 41.615 473.226 41.527C473.505 41.439 473.791 41.3584 474.084 41.285C474.392 41.197 474.693 41.131 474.986 41.087C475.279 41.0284 475.543 40.999 475.778 40.999L476.218 41.241L473.182 56.311H474.788V56.883C474.495 57.1177 474.135 57.3084 473.71 57.455C473.299 57.6017 472.896 57.675 472.5 57.675C472.075 57.675 471.759 57.5797 471.554 57.389C471.363 57.1984 471.268 56.9784 471.268 56.729C471.268 56.4357 471.29 56.1497 471.334 55.871C471.378 55.5924 471.437 55.2844 471.51 54.947L474.084 42.539Z" fill="#E6F4D1"/>
<path d="M484.981 55.585C484.849 55.8637 484.659 56.135 484.409 56.399C484.16 56.663 483.867 56.905 483.529 57.125C483.192 57.3304 482.811 57.4917 482.385 57.609C481.96 57.741 481.505 57.807 481.021 57.807C479.804 57.807 478.865 57.4624 478.205 56.773C477.56 56.069 477.237 55.101 477.237 53.869C477.237 52.8277 477.384 51.845 477.677 50.921C477.971 49.997 478.381 49.1904 478.909 48.501C479.437 47.8117 480.075 47.269 480.823 46.873C481.586 46.477 482.429 46.279 483.353 46.279C484.057 46.279 484.659 46.4624 485.157 46.829C485.671 47.181 485.927 47.709 485.927 48.413C485.927 49.4544 485.407 50.2757 484.365 50.877C483.339 51.4784 481.674 51.867 479.371 52.043C479.313 52.2924 479.269 52.5344 479.239 52.769C479.225 53.0037 479.217 53.231 479.217 53.451C479.217 54.331 479.437 55.0497 479.877 55.607C480.332 56.1644 480.992 56.443 481.857 56.443C482.136 56.443 482.407 56.399 482.671 56.311C482.95 56.223 483.207 56.113 483.441 55.981C483.691 55.849 483.911 55.7097 484.101 55.563C484.307 55.4164 484.483 55.2844 484.629 55.167L484.981 55.585ZM482.671 47.225C482.041 47.2397 481.454 47.5404 480.911 48.127C480.369 48.699 479.907 49.689 479.525 51.097C480.948 51.053 482.055 50.811 482.847 50.371C483.639 49.9164 484.035 49.293 484.035 48.501C484.035 48.193 483.94 47.907 483.749 47.643C483.573 47.379 483.214 47.2397 482.671 47.225Z" fill="#E6F4D1"/>
<path d="M490.77 52.857C490.608 53.033 490.418 53.2237 490.198 53.429C489.992 53.6344 489.787 53.847 489.582 54.067C489.376 54.287 489.186 54.507 489.01 54.727C488.834 54.947 488.694 55.1524 488.592 55.343C488.562 55.4457 488.54 55.5924 488.526 55.783C488.526 55.9737 488.518 56.179 488.504 56.399C488.504 56.6044 488.504 56.8024 488.504 56.993C488.504 57.169 488.511 57.301 488.526 57.389C488.276 57.4917 488.02 57.565 487.756 57.609C487.506 57.653 487.264 57.675 487.03 57.675C486.546 57.675 486.142 57.5797 485.82 57.389C485.952 56.949 486.223 56.4577 486.634 55.915C487.044 55.3724 487.499 54.8444 487.998 54.331C488.496 53.8177 488.98 53.3557 489.45 52.945C489.919 52.5197 490.271 52.2044 490.506 51.999L489.01 47.951L487.602 47.775V47.225C487.69 47.1664 487.814 47.093 487.976 47.005C488.152 46.9024 488.342 46.807 488.548 46.719C488.768 46.631 488.988 46.5577 489.208 46.499C489.428 46.4404 489.64 46.411 489.846 46.411C490.168 46.411 490.403 46.499 490.55 46.675C490.696 46.8364 490.814 47.027 490.902 47.247L491.98 51.075C492.317 50.7377 492.684 50.3564 493.08 49.931C493.49 49.5057 493.798 49.1024 494.004 48.721C494.018 48.6184 494.026 48.4717 494.026 48.281C494.026 48.0904 494.018 47.8924 494.004 47.687C493.989 47.467 493.974 47.269 493.96 47.093C493.945 46.9024 493.93 46.763 493.916 46.675C494.165 46.587 494.407 46.521 494.642 46.477C494.891 46.4184 495.14 46.389 495.39 46.389C495.859 46.389 496.27 46.4844 496.622 46.675C496.534 46.9684 496.387 47.2837 496.182 47.621C495.976 47.9584 495.734 48.2957 495.456 48.633C495.177 48.9704 494.876 49.3077 494.554 49.645C494.246 49.9677 493.945 50.2757 493.652 50.569C493.358 50.8477 493.08 51.1044 492.816 51.339C492.566 51.559 492.368 51.735 492.222 51.867L493.806 56.157L495.236 56.333V56.883C495.148 56.9417 495.016 57.015 494.84 57.103C494.678 57.191 494.495 57.279 494.29 57.367C494.099 57.455 493.886 57.5284 493.652 57.587C493.432 57.6457 493.226 57.675 493.036 57.675C492.728 57.675 492.493 57.5944 492.332 57.433C492.17 57.2717 492.053 57.0737 491.98 56.839L490.77 52.857Z" fill="#E6F4D1"/>
<path d="M497.878 47.621V47.071C498.098 46.983 498.347 46.895 498.626 46.807C498.905 46.7044 499.191 46.6164 499.484 46.543C499.777 46.4697 500.056 46.411 500.32 46.367C500.584 46.3084 500.819 46.279 501.024 46.279L501.42 46.543L499.352 56.311H500.98V56.883C500.672 57.1177 500.313 57.3084 499.902 57.455C499.491 57.6017 499.088 57.675 498.692 57.675C498.267 57.675 497.959 57.5797 497.768 57.389C497.592 57.1984 497.504 56.9784 497.504 56.729C497.504 56.4357 497.526 56.1497 497.57 55.871C497.614 55.5924 497.673 55.2844 497.746 54.947L499.286 47.841L497.878 47.621ZM499.66 42.737C499.66 42.3557 499.777 42.055 500.012 41.835C500.247 41.615 500.555 41.505 500.936 41.505C501.347 41.505 501.669 41.615 501.904 41.835C502.139 42.055 502.256 42.3557 502.256 42.737C502.256 43.1037 502.139 43.3897 501.904 43.595C501.669 43.8004 501.347 43.903 500.936 43.903C500.555 43.903 500.247 43.8004 500.012 43.595C499.777 43.3897 499.66 43.1037 499.66 42.737Z" fill="#E6F4D1"/>
<path d="M503.342 53.451C503.342 52.6737 503.459 51.867 503.694 51.031C503.943 50.1804 504.317 49.403 504.816 48.699C505.314 47.995 505.938 47.4157 506.686 46.961C507.434 46.5064 508.306 46.279 509.304 46.279C510.448 46.279 511.306 46.631 511.878 47.335C512.464 48.039 512.758 49.0804 512.758 50.459C512.758 51.427 512.618 52.3584 512.34 53.253C512.061 54.133 511.672 54.9104 511.174 55.585C510.675 56.2597 510.074 56.8024 509.37 57.213C508.666 57.609 507.888 57.807 507.038 57.807C505.908 57.807 505.006 57.4477 504.332 56.729C503.672 55.9957 503.342 54.903 503.342 53.451ZM508.864 47.225C508.145 47.2397 507.558 47.4744 507.104 47.929C506.649 48.3837 506.29 48.9484 506.026 49.623C505.762 50.2977 505.578 51.0237 505.476 51.801C505.373 52.5784 505.322 53.2897 505.322 53.935C505.322 54.8004 505.512 55.5044 505.894 56.047C506.275 56.5897 506.788 56.861 507.434 56.861C507.947 56.861 508.402 56.6704 508.798 56.289C509.208 55.893 509.553 55.3797 509.832 54.749C510.125 54.1037 510.345 53.3777 510.492 52.571C510.653 51.7644 510.734 50.9504 510.734 50.129C510.734 49.2637 510.58 48.567 510.272 48.039C509.978 47.511 509.509 47.2397 508.864 47.225Z" fill="#E6F4D1"/>
<path d="M522.125 51.273C522.228 50.8184 522.316 50.4004 522.389 50.019C522.477 49.623 522.521 49.2344 522.521 48.853C522.521 48.5157 522.44 48.2297 522.279 47.995C522.132 47.7604 521.89 47.643 521.553 47.643C521.157 47.643 520.754 47.8044 520.343 48.127C519.932 48.4497 519.551 48.8384 519.199 49.293C518.847 49.7477 518.524 50.2244 518.231 50.723C517.952 51.207 517.74 51.6104 517.593 51.933L516.427 57.543H514.579L516.515 47.819L515.173 47.621L515.217 47.071C515.422 46.9684 515.65 46.873 515.899 46.785C516.163 46.6824 516.427 46.5944 516.691 46.521C516.97 46.4477 517.234 46.389 517.483 46.345C517.747 46.301 517.989 46.279 518.209 46.279L518.649 46.543L517.813 50.437H517.923C518.202 49.8504 518.517 49.3077 518.869 48.809C519.236 48.2957 519.617 47.8557 520.013 47.489C520.424 47.1077 520.849 46.8144 521.289 46.609C521.729 46.389 522.176 46.279 522.631 46.279C523.247 46.279 523.694 46.477 523.973 46.873C524.266 47.2544 524.413 47.7384 524.413 48.325C524.413 48.6477 524.376 49.051 524.303 49.535C524.23 50.019 524.142 50.4737 524.039 50.899L522.785 56.311H524.413V56.883C524.12 57.1177 523.76 57.3084 523.335 57.455C522.924 57.6017 522.521 57.675 522.125 57.675C521.7 57.675 521.406 57.587 521.245 57.411C521.084 57.235 521.003 57.0444 521.003 56.839C521.003 56.5604 521.04 56.2597 521.113 55.937C521.186 55.5997 521.26 55.2624 521.333 54.925L522.125 51.273Z" fill="#E6F4D1"/>
<path d="M529.93 56.443C530.326 56.443 530.722 56.2597 531.118 55.893C531.514 55.5117 531.888 55.057 532.24 54.529C532.592 54.001 532.907 53.451 533.186 52.879C533.464 52.307 533.684 51.8304 533.846 51.449L534.55 47.687C534.344 47.5404 534.146 47.4377 533.956 47.379C533.765 47.3204 533.501 47.291 533.164 47.291C532.489 47.291 531.873 47.5037 531.316 47.929C530.773 48.3397 530.304 48.875 529.908 49.535C529.526 50.195 529.226 50.9284 529.006 51.735C528.8 52.5417 528.698 53.3337 528.698 54.111C528.698 54.859 528.786 55.4384 528.962 55.849C529.152 56.245 529.475 56.443 529.93 56.443ZM533.406 53.231C533.215 53.759 532.973 54.2944 532.68 54.837C532.401 55.3797 532.071 55.871 531.69 56.311C531.323 56.751 530.912 57.1104 530.458 57.389C530.003 57.6677 529.519 57.807 529.006 57.807C527.48 57.807 526.718 56.6997 526.718 54.485C526.718 53.4584 526.864 52.461 527.158 51.493C527.451 50.5104 527.876 49.6377 528.434 48.875C528.991 48.1124 529.666 47.5037 530.458 47.049C531.264 46.5797 532.174 46.345 533.186 46.345C533.552 46.345 533.846 46.3817 534.066 46.455C534.286 46.5137 534.55 46.609 534.858 46.741C535.444 46.433 536.06 46.279 536.706 46.279L534.726 56.333H536.332V56.883C536.038 57.1177 535.686 57.3084 535.276 57.455C534.865 57.6017 534.462 57.675 534.066 57.675C533.64 57.675 533.332 57.587 533.142 57.411C532.966 57.2204 532.878 57.0224 532.878 56.817C532.878 56.553 532.929 56.1204 533.032 55.519C533.134 54.9177 533.288 54.155 533.494 53.231H533.406Z" fill="#E6F4D1"/>
<path d="M544.255 47.885C543.874 48.0317 543.441 48.4057 542.957 49.007C542.488 49.5937 542.07 50.393 541.703 51.405L540.383 57.543H538.491L540.537 47.819L539.195 47.621V47.071C539.694 46.8364 540.214 46.6604 540.757 46.543C541.3 46.411 541.791 46.323 542.231 46.279L542.671 46.543L542.055 49.469H542.143C542.568 48.501 543.089 47.731 543.705 47.159C544.321 46.5724 544.981 46.279 545.685 46.279C545.876 46.279 546.066 46.301 546.257 46.345C546.448 46.3744 546.631 46.4404 546.807 46.543C546.807 46.675 546.785 46.851 546.741 47.071C546.697 47.2764 546.631 47.489 546.543 47.709C546.47 47.929 546.382 48.1417 546.279 48.347C546.191 48.5377 546.096 48.6844 545.993 48.787L544.255 47.885Z" fill="#E6F4D1"/>
<path d="M545.218 60.821C545.526 60.7184 545.826 60.557 546.12 60.337C546.413 60.1317 546.677 59.897 546.912 59.633C547.161 59.369 547.359 59.0757 547.506 58.753C547.667 58.445 547.77 58.137 547.814 57.829C547.667 57.6677 547.462 57.5064 547.198 57.345C546.948 57.1837 546.721 57.0664 546.516 56.993C546.501 56.7144 546.552 56.443 546.67 56.179C546.787 55.915 546.934 55.6804 547.11 55.475C547.286 55.2697 547.469 55.1084 547.66 54.991C547.865 54.859 548.048 54.7857 548.21 54.771C548.708 54.8444 549.082 55.0204 549.332 55.299C549.581 55.5777 549.706 55.9957 549.706 56.553C549.706 57.1104 549.581 57.653 549.332 58.181C549.097 58.709 548.782 59.193 548.386 59.633C548.004 60.073 547.557 60.4544 547.044 60.777C546.545 61.0997 546.032 61.3344 545.504 61.481L545.218 60.821Z" fill="#E6F4D1"/>
<path d="M375.116 78.943C375.204 78.591 375.285 78.2244 375.358 77.843C375.446 77.4617 375.498 77.1464 375.512 76.897C375.498 76.5157 375.432 76.215 375.314 75.995C375.212 75.7604 374.992 75.643 374.654 75.643C374.302 75.643 373.943 75.7824 373.576 76.061C373.21 76.3397 372.858 76.6917 372.52 77.117C372.198 77.5424 371.897 78.0044 371.618 78.503C371.354 79.0017 371.134 79.471 370.958 79.911L369.616 85.543H367.856L369.242 79.361C369.345 78.9064 369.433 78.4737 369.506 78.063C369.58 77.6377 369.616 77.1977 369.616 76.743C369.616 76.4057 369.558 76.1417 369.44 75.951C369.323 75.7457 369.118 75.643 368.824 75.643C368.531 75.643 368.208 75.7824 367.856 76.061C367.504 76.3397 367.16 76.6917 366.822 77.117C366.485 77.5424 366.17 78.0044 365.876 78.503C365.598 79.0017 365.37 79.4784 365.194 79.933L364.028 85.543H362.136L364.182 75.819L362.84 75.621V75.071C363.324 74.8217 363.845 74.631 364.402 74.499C364.974 74.3524 365.466 74.279 365.876 74.279L366.338 74.543L365.37 78.437H365.458C365.634 78.0264 365.876 77.579 366.184 77.095C366.507 76.611 366.874 76.1637 367.284 75.753C367.695 75.3277 368.135 74.9757 368.604 74.697C369.074 74.4184 369.543 74.279 370.012 74.279C370.188 74.279 370.364 74.3084 370.54 74.367C370.716 74.4257 370.87 74.5357 371.002 74.697C371.134 74.8437 371.244 75.049 371.332 75.313C371.42 75.577 371.464 75.9144 371.464 76.325C371.464 76.6477 371.428 76.9924 371.354 77.359C371.296 77.7257 371.222 78.085 371.134 78.437C371.354 77.9384 371.633 77.447 371.97 76.963C372.308 76.4644 372.674 76.017 373.07 75.621C373.466 75.225 373.884 74.9024 374.324 74.653C374.779 74.4037 375.241 74.279 375.71 74.279C376.268 74.279 376.686 74.455 376.964 74.807C377.258 75.159 377.404 75.643 377.404 76.259C377.404 76.7284 377.36 77.1757 377.272 77.601C377.184 78.0117 377.089 78.459 376.986 78.943L375.556 84.311H377.184V84.883C376.891 85.1177 376.532 85.3084 376.106 85.455C375.681 85.6017 375.278 85.675 374.896 85.675C374.471 85.675 374.178 85.5797 374.016 85.389C373.855 85.1984 373.774 84.971 373.774 84.707C373.774 84.2817 373.877 83.695 374.082 82.947L375.116 78.943Z" fill="#E6F4D1"/>
<path d="M387.41 83.585C387.278 83.8637 387.088 84.135 386.838 84.399C386.589 84.663 386.296 84.905 385.958 85.125C385.621 85.3304 385.24 85.4917 384.814 85.609C384.389 85.741 383.934 85.807 383.45 85.807C382.233 85.807 381.294 85.4624 380.634 84.773C379.989 84.069 379.666 83.101 379.666 81.869C379.666 80.8277 379.813 79.845 380.106 78.921C380.4 77.997 380.81 77.1904 381.338 76.501C381.866 75.8117 382.504 75.269 383.252 74.873C384.015 74.477 384.858 74.279 385.782 74.279C386.486 74.279 387.088 74.4624 387.586 74.829C388.1 75.181 388.356 75.709 388.356 76.413C388.356 77.4544 387.836 78.2757 386.794 78.877C385.768 79.4784 384.103 79.867 381.8 80.043C381.742 80.2924 381.698 80.5344 381.668 80.769C381.654 81.0037 381.646 81.231 381.646 81.451C381.646 82.331 381.866 83.0497 382.306 83.607C382.761 84.1644 383.421 84.443 384.286 84.443C384.565 84.443 384.836 84.399 385.1 84.311C385.379 84.223 385.636 84.113 385.87 83.981C386.12 83.849 386.34 83.7097 386.53 83.563C386.736 83.4164 386.912 83.2844 387.058 83.167L387.41 83.585ZM385.1 75.225C384.47 75.2397 383.883 75.5404 383.34 76.127C382.798 76.699 382.336 77.689 381.954 79.097C383.377 79.053 384.484 78.811 385.276 78.371C386.068 77.9164 386.464 77.293 386.464 76.501C386.464 76.193 386.369 75.907 386.178 75.643C386.002 75.379 385.643 75.2397 385.1 75.225Z" fill="#E6F4D1"/>
<path d="M391.702 75.819L390.36 75.621V75.071C390.815 74.8657 391.321 74.6824 391.878 74.521C392.45 74.3597 392.956 74.279 393.396 74.279L393.836 74.543L391.724 84.597C391.504 85.6384 391.196 86.5037 390.8 87.193C390.419 87.8824 390.016 88.4397 389.59 88.865C389.18 89.2904 388.776 89.6057 388.38 89.811C387.97 90.0164 387.647 90.1484 387.412 90.207L387.17 89.723C387.346 89.635 387.552 89.481 387.786 89.261C388.021 89.0557 388.256 88.7624 388.49 88.381C388.725 88.0144 388.952 87.5524 389.172 86.995C389.407 86.4377 389.605 85.7777 389.766 85.015L391.702 75.819ZM392.01 70.737C392.01 70.3557 392.128 70.055 392.362 69.835C392.597 69.615 392.905 69.505 393.286 69.505C393.697 69.505 394.02 69.615 394.254 69.835C394.489 70.055 394.606 70.3557 394.606 70.737C394.606 71.1037 394.489 71.3897 394.254 71.595C394.02 71.8004 393.697 71.903 393.286 71.903C392.905 71.903 392.597 71.8004 392.362 71.595C392.128 71.3897 392.01 71.1037 392.01 70.737Z" fill="#E6F4D1"/>
<path d="M395.759 81.451C395.759 80.6737 395.876 79.867 396.111 79.031C396.36 78.1804 396.734 77.403 397.233 76.699C397.731 75.995 398.355 75.4157 399.103 74.961C399.851 74.5064 400.723 74.279 401.721 74.279C402.865 74.279 403.723 74.631 404.295 75.335C404.881 76.039 405.175 77.0804 405.175 78.459C405.175 79.427 405.035 80.3584 404.757 81.253C404.478 82.133 404.089 82.9104 403.591 83.585C403.092 84.2597 402.491 84.8024 401.787 85.213C401.083 85.609 400.305 85.807 399.455 85.807C398.325 85.807 397.423 85.4477 396.749 84.729C396.089 83.9957 395.759 82.903 395.759 81.451ZM401.281 75.225C400.562 75.2397 399.975 75.4744 399.521 75.929C399.066 76.3837 398.707 76.9484 398.443 77.623C398.179 78.2977 397.995 79.0237 397.893 79.801C397.79 80.5784 397.739 81.2897 397.739 81.935C397.739 82.8004 397.929 83.5044 398.311 84.047C398.692 84.5897 399.205 84.861 399.851 84.861C400.364 84.861 400.819 84.6704 401.215 84.289C401.625 83.893 401.97 83.3797 402.249 82.749C402.542 82.1037 402.762 81.3777 402.909 80.571C403.07 79.7644 403.151 78.9504 403.151 78.129C403.151 77.2637 402.997 76.567 402.689 76.039C402.395 75.511 401.926 75.2397 401.281 75.225Z" fill="#E6F4D1"/>
<path d="M412.76 75.885C412.379 76.0317 411.946 76.4057 411.462 77.007C410.993 77.5937 410.575 78.393 410.208 79.405L408.888 85.543H406.996L409.042 75.819L407.7 75.621V75.071C408.199 74.8364 408.719 74.6604 409.262 74.543C409.805 74.411 410.296 74.323 410.736 74.279L411.176 74.543L410.56 77.469H410.648C411.073 76.501 411.594 75.731 412.21 75.159C412.826 74.5724 413.486 74.279 414.19 74.279C414.381 74.279 414.571 74.301 414.762 74.345C414.953 74.3744 415.136 74.4404 415.312 74.543C415.312 74.675 415.29 74.851 415.246 75.071C415.202 75.2764 415.136 75.489 415.048 75.709C414.975 75.929 414.887 76.1417 414.784 76.347C414.696 76.5377 414.601 76.6844 414.498 76.787L412.76 75.885Z" fill="#E6F4D1"/>
<path d="M418.673 84.443C419.069 84.443 419.465 84.2597 419.861 83.893C420.257 83.5117 420.631 83.057 420.983 82.529C421.335 82.001 421.65 81.451 421.929 80.879C422.207 80.307 422.427 79.8304 422.589 79.449L423.293 75.687C423.087 75.5404 422.889 75.4377 422.699 75.379C422.508 75.3204 422.244 75.291 421.907 75.291C421.232 75.291 420.616 75.5037 420.059 75.929C419.516 76.3397 419.047 76.875 418.651 77.535C418.269 78.195 417.969 78.9284 417.749 79.735C417.543 80.5417 417.441 81.3337 417.441 82.111C417.441 82.859 417.529 83.4384 417.705 83.849C417.895 84.245 418.218 84.443 418.673 84.443ZM422.149 81.231C421.958 81.759 421.716 82.2944 421.423 82.837C421.144 83.3797 420.814 83.871 420.433 84.311C420.066 84.751 419.655 85.1104 419.201 85.389C418.746 85.6677 418.262 85.807 417.749 85.807C416.223 85.807 415.461 84.6997 415.461 82.485C415.461 81.4584 415.607 80.461 415.901 79.493C416.194 78.5104 416.619 77.6377 417.177 76.875C417.734 76.1124 418.409 75.5037 419.201 75.049C420.007 74.5797 420.917 74.345 421.929 74.345C422.295 74.345 422.589 74.3817 422.809 74.455C423.029 74.5137 423.293 74.609 423.601 74.741C424.187 74.433 424.803 74.279 425.449 74.279L423.469 84.333H425.075V84.883C424.781 85.1177 424.429 85.3084 424.019 85.455C423.608 85.6017 423.205 85.675 422.809 85.675C422.383 85.675 422.075 85.587 421.885 85.411C421.709 85.2204 421.621 85.0224 421.621 84.817C421.621 84.553 421.672 84.1204 421.775 83.519C421.877 82.9177 422.031 82.155 422.237 81.231H422.149Z" fill="#E6F4D1"/>
<path d="M432.998 75.885C432.617 76.0317 432.184 76.4057 431.7 77.007C431.231 77.5937 430.813 78.393 430.446 79.405L429.126 85.543H427.234L429.28 75.819L427.938 75.621V75.071C428.437 74.8364 428.957 74.6604 429.5 74.543C430.043 74.411 430.534 74.323 430.974 74.279L431.414 74.543L430.798 77.469H430.886C431.311 76.501 431.832 75.731 432.448 75.159C433.064 74.5724 433.724 74.279 434.428 74.279C434.619 74.279 434.809 74.301 435 74.345C435.191 74.3744 435.374 74.4404 435.55 74.543C435.55 74.675 435.528 74.851 435.484 75.071C435.44 75.2764 435.374 75.489 435.286 75.709C435.213 75.929 435.125 76.1417 435.022 76.347C434.934 76.5377 434.839 76.6844 434.736 76.787L432.998 75.885Z" fill="#E6F4D1"/>
<path d="M442.039 75.819L440.631 75.643V75.093C440.704 75.0344 440.821 74.961 440.983 74.873C441.159 74.785 441.357 74.697 441.577 74.609C441.797 74.521 442.024 74.4477 442.259 74.389C442.493 74.3157 442.713 74.279 442.919 74.279C443.227 74.279 443.447 74.3597 443.579 74.521C443.725 74.6677 443.835 74.8657 443.909 75.115L445.735 82.815L445.801 84.135H445.845L446.351 82.837C446.541 82.4264 446.732 81.979 446.923 81.495C447.128 80.9964 447.326 80.4977 447.517 79.999C447.707 79.5004 447.883 79.009 448.045 78.525C448.206 78.041 448.345 77.5937 448.463 77.183C448.463 77.0217 448.441 76.809 448.397 76.545C448.367 76.281 448.331 76.017 448.287 75.753C448.243 75.489 448.199 75.247 448.155 75.027C448.111 74.7924 448.074 74.631 448.045 74.543C448.25 74.455 448.47 74.389 448.705 74.345C448.939 74.301 449.167 74.279 449.387 74.279C449.827 74.279 450.215 74.367 450.553 74.543C450.098 76.3617 449.475 78.1804 448.683 79.999C447.905 81.8177 447.04 83.6657 446.087 85.543C445.295 87.083 444.503 88.2344 443.711 88.997C442.919 89.7597 442.024 90.141 441.027 90.141C440.807 90.141 440.594 90.1117 440.389 90.053C440.198 89.9944 439.993 89.9064 439.773 89.789C439.758 89.6277 439.773 89.4444 439.817 89.239C439.861 89.0337 439.934 88.8284 440.037 88.623C440.125 88.4177 440.242 88.227 440.389 88.051C440.55 87.875 440.726 87.7357 440.917 87.633L442.699 88.557C442.801 88.4837 442.933 88.3737 443.095 88.227C443.256 88.095 443.425 87.9044 443.601 87.655C443.777 87.4204 443.953 87.127 444.129 86.775C444.305 86.4377 444.473 86.027 444.635 85.543L442.039 75.819Z" fill="#E6F4D1"/>
<path d="M459.622 84.443C460.018 84.443 460.414 84.2597 460.81 83.893C461.206 83.5117 461.58 83.057 461.932 82.529C462.284 82.001 462.599 81.451 462.878 80.879C463.157 80.307 463.377 79.8304 463.538 79.449L464.242 75.687C464.037 75.5404 463.839 75.4377 463.648 75.379C463.457 75.3204 463.193 75.291 462.856 75.291C462.181 75.291 461.565 75.5037 461.008 75.929C460.465 76.3397 459.996 76.875 459.6 77.535C459.219 78.195 458.918 78.9284 458.698 79.735C458.493 80.5417 458.39 81.3337 458.39 82.111C458.39 82.859 458.478 83.4384 458.654 83.849C458.845 84.245 459.167 84.443 459.622 84.443ZM463.098 81.231C462.907 81.759 462.665 82.2944 462.372 82.837C462.093 83.3797 461.763 83.871 461.382 84.311C461.015 84.751 460.605 85.1104 460.15 85.389C459.695 85.6677 459.211 85.807 458.698 85.807C457.173 85.807 456.41 84.6997 456.41 82.485C456.41 81.4584 456.557 80.461 456.85 79.493C457.143 78.5104 457.569 77.6377 458.126 76.875C458.683 76.1124 459.358 75.5037 460.15 75.049C460.957 74.5797 461.866 74.345 462.878 74.345C463.245 74.345 463.538 74.3817 463.758 74.455C463.978 74.5137 464.242 74.609 464.55 74.741C465.137 74.433 465.753 74.279 466.398 74.279L464.418 84.333H466.024V84.883C465.731 85.1177 465.379 85.3084 464.968 85.455C464.557 85.6017 464.154 85.675 463.758 85.675C463.333 85.675 463.025 85.587 462.834 85.411C462.658 85.2204 462.57 85.0224 462.57 84.817C462.57 84.553 462.621 84.1204 462.724 83.519C462.827 82.9177 462.981 82.155 463.186 81.231H463.098Z" fill="#E6F4D1"/>
<path d="M472.715 82.221C473.243 81.341 473.713 80.4904 474.123 79.669C474.534 78.833 474.886 77.997 475.179 77.161C475.179 76.9997 475.157 76.7944 475.113 76.545C475.084 76.281 475.047 76.017 475.003 75.753C474.974 75.489 474.937 75.247 474.893 75.027C474.849 74.7924 474.813 74.631 474.783 74.543C475.209 74.367 475.641 74.279 476.081 74.279C476.536 74.2644 476.932 74.3524 477.269 74.543C477.049 75.4524 476.749 76.3837 476.367 77.337C475.986 78.2757 475.546 79.2144 475.047 80.153C474.563 81.0917 474.028 82.0157 473.441 82.925C472.869 83.8344 472.268 84.707 471.637 85.543L470.603 85.807L468.975 75.819L467.567 75.643V75.093C467.655 75.0344 467.787 74.961 467.963 74.873C468.139 74.7704 468.33 74.675 468.535 74.587C468.755 74.499 468.975 74.4257 469.195 74.367C469.43 74.3084 469.65 74.279 469.855 74.279C470.178 74.279 470.405 74.3597 470.537 74.521C470.684 74.6824 470.779 74.8804 470.823 75.115L471.835 82.265L471.945 83.651H471.989L472.715 82.221Z" fill="#E6F4D1"/>
<path d="M481.235 84.443C481.631 84.443 482.027 84.2597 482.423 83.893C482.819 83.5117 483.193 83.057 483.545 82.529C483.897 82.001 484.213 81.451 484.491 80.879C484.77 80.307 484.99 79.8304 485.151 79.449L485.855 75.687C485.65 75.5404 485.452 75.4377 485.261 75.379C485.071 75.3204 484.807 75.291 484.469 75.291C483.795 75.291 483.179 75.5037 482.621 75.929C482.079 76.3397 481.609 76.875 481.213 77.535C480.832 78.195 480.531 78.9284 480.311 79.735C480.106 80.5417 480.003 81.3337 480.003 82.111C480.003 82.859 480.091 83.4384 480.267 83.849C480.458 84.245 480.781 84.443 481.235 84.443ZM484.711 81.231C484.521 81.759 484.279 82.2944 483.985 82.837C483.707 83.3797 483.377 83.871 482.995 84.311C482.629 84.751 482.218 85.1104 481.763 85.389C481.309 85.6677 480.825 85.807 480.311 85.807C478.786 85.807 478.023 84.6997 478.023 82.485C478.023 81.4584 478.17 80.461 478.463 79.493C478.757 78.5104 479.182 77.6377 479.739 76.875C480.297 76.1124 480.971 75.5037 481.763 75.049C482.57 74.5797 483.479 74.345 484.491 74.345C484.858 74.345 485.151 74.3817 485.371 74.455C485.591 74.5137 485.855 74.609 486.163 74.741C486.75 74.433 487.366 74.279 488.011 74.279L486.031 84.333H487.637V84.883C487.344 85.1177 486.992 85.3084 486.581 85.455C486.171 85.6017 485.767 85.675 485.371 85.675C484.946 85.675 484.638 85.587 484.447 85.411C484.271 85.2204 484.183 85.0224 484.183 84.817C484.183 84.553 484.235 84.1204 484.337 83.519C484.44 82.9177 484.594 82.155 484.799 81.231H484.711Z" fill="#E6F4D1"/>
<path d="M497.343 79.273C497.445 78.8184 497.533 78.4004 497.607 78.019C497.695 77.623 497.739 77.2344 497.739 76.853C497.739 76.5157 497.658 76.2297 497.497 75.995C497.35 75.7604 497.108 75.643 496.771 75.643C496.375 75.643 495.971 75.8044 495.561 76.127C495.15 76.4497 494.769 76.8384 494.417 77.293C494.065 77.7477 493.742 78.2244 493.449 78.723C493.17 79.207 492.957 79.6104 492.811 79.933L491.645 85.543H489.797L491.733 75.819L490.391 75.621L490.435 75.071C490.64 74.9684 490.867 74.873 491.117 74.785C491.381 74.6824 491.645 74.5944 491.909 74.521C492.187 74.4477 492.451 74.389 492.701 74.345C492.965 74.301 493.207 74.279 493.427 74.279L493.867 74.543L493.031 78.437H493.141C493.419 77.8504 493.735 77.3077 494.087 76.809C494.453 76.2957 494.835 75.8557 495.231 75.489C495.641 75.1077 496.067 74.8144 496.507 74.609C496.947 74.389 497.394 74.279 497.849 74.279C498.465 74.279 498.912 74.477 499.191 74.873C499.484 75.2544 499.631 75.7384 499.631 76.325C499.631 76.6477 499.594 77.051 499.521 77.535C499.447 78.019 499.359 78.4737 499.257 78.899L498.003 84.311H499.631V84.883C499.337 85.1177 498.978 85.3084 498.553 85.455C498.142 85.6017 497.739 85.675 497.343 85.675C496.917 85.675 496.624 85.587 496.463 85.411C496.301 85.235 496.221 85.0444 496.221 84.839C496.221 84.5604 496.257 84.2597 496.331 83.937C496.404 83.5997 496.477 83.2624 496.551 82.925L497.343 79.273Z" fill="#E6F4D1"/>
<path d="M503.541 81.583L508.381 76.237C507.721 76.281 507.003 76.2737 506.225 76.215C505.463 76.1417 504.671 76.039 503.849 75.907L502.837 77.491L502.287 77.359L502.595 75.115C502.683 74.543 503.079 74.257 503.783 74.257C504.311 74.257 505.074 74.3377 506.071 74.499C507.083 74.6457 508.286 74.7557 509.679 74.829L510.185 74.279C510.376 74.3084 510.552 74.3817 510.713 74.499C510.889 74.6164 510.992 74.7777 511.021 74.983L503.453 83.321C504.319 83.4824 505.162 83.7024 505.983 83.981C506.805 84.245 507.567 84.5677 508.271 84.949L509.547 83.497L510.075 83.805L509.305 86.049C509.232 86.269 509.1 86.4524 508.909 86.599C508.719 86.7457 508.484 86.819 508.205 86.819C507.927 86.819 507.582 86.7237 507.171 86.533C506.761 86.357 506.291 86.1517 505.763 85.917C505.25 85.6824 504.693 85.4477 504.091 85.213C503.49 84.9784 502.859 84.8097 502.199 84.707L501.297 85.675C501.107 85.6457 500.923 85.5724 500.747 85.455C500.571 85.3377 500.476 85.169 500.461 84.949L503.541 81.583Z" fill="#E6F4D1"/>
<path d="M514.729 84.443C515.125 84.443 515.521 84.2597 515.917 83.893C516.313 83.5117 516.687 83.057 517.039 82.529C517.391 82.001 517.707 81.451 517.985 80.879C518.264 80.307 518.484 79.8304 518.645 79.449L519.349 75.687C519.144 75.5404 518.946 75.4377 518.755 75.379C518.565 75.3204 518.301 75.291 517.963 75.291C517.289 75.291 516.673 75.5037 516.115 75.929C515.573 76.3397 515.103 76.875 514.707 77.535C514.326 78.195 514.025 78.9284 513.805 79.735C513.6 80.5417 513.497 81.3337 513.497 82.111C513.497 82.859 513.585 83.4384 513.761 83.849C513.952 84.245 514.275 84.443 514.729 84.443ZM518.205 81.231C518.015 81.759 517.773 82.2944 517.479 82.837C517.201 83.3797 516.871 83.871 516.489 84.311C516.123 84.751 515.712 85.1104 515.257 85.389C514.803 85.6677 514.319 85.807 513.805 85.807C512.28 85.807 511.517 84.6997 511.517 82.485C511.517 81.4584 511.664 80.461 511.957 79.493C512.251 78.5104 512.676 77.6377 513.233 76.875C513.791 76.1124 514.465 75.5037 515.257 75.049C516.064 74.5797 516.973 74.345 517.985 74.345C518.352 74.345 518.645 74.3817 518.865 74.455C519.085 74.5137 519.349 74.609 519.657 74.741C520.244 74.433 520.86 74.279 521.505 74.279L519.525 84.333H521.131V84.883C520.838 85.1177 520.486 85.3084 520.075 85.455C519.665 85.6017 519.261 85.675 518.865 85.675C518.44 85.675 518.132 85.587 517.941 85.411C517.765 85.2204 517.677 85.0224 517.677 84.817C517.677 84.553 517.729 84.1204 517.831 83.519C517.934 82.9177 518.088 82.155 518.293 81.231H518.205Z" fill="#E6F4D1"/>
<path d="M529.055 75.885C528.673 76.0317 528.241 76.4057 527.757 77.007C527.287 77.5937 526.869 78.393 526.503 79.405L525.183 85.543H523.291L525.337 75.819L523.995 75.621V75.071C524.493 74.8364 525.014 74.6604 525.557 74.543C526.099 74.411 526.591 74.323 527.031 74.279L527.471 74.543L526.855 77.469H526.943C527.368 76.501 527.889 75.731 528.505 75.159C529.121 74.5724 529.781 74.279 530.485 74.279C530.675 74.279 530.866 74.301 531.057 74.345C531.247 74.3744 531.431 74.4404 531.607 74.543C531.607 74.675 531.585 74.851 531.541 75.071C531.497 75.2764 531.431 75.489 531.343 75.709C531.269 75.929 531.181 76.1417 531.079 76.347C530.991 76.5377 530.895 76.6844 530.793 76.787L529.055 75.885Z" fill="#E6F4D1"/>
<path d="M387.289 27C385.414 27 383.791 26.7012 382.42 26.1035C381.049 25.4941 379.971 24.6504 379.186 23.5723C378.412 22.4824 377.973 21.2227 377.867 19.793H381.137C381.23 20.7773 381.564 21.5918 382.139 22.2363C382.725 22.8809 383.469 23.3613 384.371 23.6777C385.273 23.9941 386.246 24.1523 387.289 24.1523C388.496 24.1523 389.58 23.9531 390.541 23.5547C391.514 23.1562 392.281 22.5996 392.844 21.8848C393.406 21.1699 393.688 20.332 393.688 19.3711C393.688 18.5039 393.441 17.8008 392.949 17.2617C392.457 16.7227 391.812 16.2832 391.016 15.9434C390.23 15.6035 389.375 15.3047 388.449 15.0469L385.25 14.1328C383.199 13.5469 381.576 12.709 380.381 11.6191C379.197 10.5176 378.605 9.08203 378.605 7.3125C378.605 5.84766 378.998 4.57031 379.783 3.48047C380.58 2.37891 381.652 1.52344 383 0.914062C384.359 0.304688 385.871 0 387.535 0C389.223 0 390.723 0.304688 392.035 0.914062C393.348 1.51172 394.391 2.33203 395.164 3.375C395.938 4.40625 396.348 5.57812 396.395 6.89062H393.301C393.148 5.60156 392.527 4.59961 391.438 3.88477C390.359 3.16992 389.023 2.8125 387.43 2.8125C386.281 2.8125 385.273 3 384.406 3.375C383.539 3.75 382.865 4.26562 382.385 4.92188C381.904 5.57812 381.664 6.32812 381.664 7.17188C381.664 8.09766 381.951 8.84766 382.525 9.42188C383.1 9.98438 383.779 10.4238 384.564 10.7402C385.361 11.0566 386.082 11.3086 386.727 11.4961L389.363 12.2344C390.043 12.4219 390.799 12.6738 391.631 12.9902C392.475 13.3066 393.283 13.7344 394.057 14.2734C394.842 14.8125 395.486 15.5039 395.99 16.3477C396.494 17.1797 396.746 18.2109 396.746 19.4414C396.746 20.8477 396.377 22.125 395.639 23.2734C394.9 24.4102 393.828 25.3184 392.422 25.998C391.016 26.666 389.305 27 387.289 27Z" fill="#E6F4D1"/>
<path d="M408.383 6.89062V9.45703H398.223V6.89062H408.383ZM401.176 2.21484H404.164V20.918C404.164 21.9375 404.375 22.6875 404.797 23.168C405.219 23.6367 405.887 23.8711 406.801 23.8711C407 23.8711 407.205 23.8594 407.416 23.8359C407.639 23.8125 407.879 23.7773 408.137 23.7305L408.77 26.4375C408.488 26.543 408.143 26.625 407.732 26.6836C407.334 26.7539 406.93 26.7891 406.52 26.7891C404.938 26.7891 403.648 26.3203 402.652 25.3828C401.668 24.4453 401.176 23.2266 401.176 21.7266V2.21484Z" fill="#E6F4D1"/>
<path d="M419 26.9648C417.23 26.9648 415.678 26.543 414.342 25.6992C413.006 24.8555 411.963 23.6719 411.213 22.1484C410.475 20.625 410.105 18.8555 410.105 16.8398C410.105 14.7891 410.475 13.002 411.213 11.4785C411.963 9.94336 413.006 8.75391 414.342 7.91016C415.678 7.06641 417.23 6.64453 419 6.64453C420.781 6.64453 422.34 7.06641 423.676 7.91016C425.012 8.75391 426.055 9.94336 426.805 11.4785C427.555 13.002 427.93 14.7891 427.93 16.8398C427.93 18.8555 427.555 20.625 426.805 22.1484C426.055 23.6719 425.012 24.8555 423.676 25.6992C422.34 26.543 420.781 26.9648 419 26.9648ZM419 24.2578C420.359 24.2578 421.473 23.9121 422.34 23.2207C423.207 22.5293 423.852 21.6211 424.273 20.4961C424.695 19.3594 424.906 18.1406 424.906 16.8398C424.906 15.5156 424.695 14.2852 424.273 13.1484C423.852 12.0117 423.207 11.0977 422.34 10.4062C421.473 9.70312 420.359 9.35156 419 9.35156C417.664 9.35156 416.562 9.70312 415.695 10.4062C414.828 11.0977 414.184 12.0117 413.762 13.1484C413.34 14.2852 413.129 15.5156 413.129 16.8398C413.129 18.1406 413.34 19.3594 413.762 20.4961C414.184 21.6211 414.828 22.5293 415.695 23.2207C416.562 23.9121 417.664 24.2578 419 24.2578Z" fill="#E6F4D1"/>
<path d="M430.848 33.8906V6.89062H433.73V10.0195H434.082C434.305 9.67969 434.615 9.24609 435.014 8.71875C435.412 8.17969 435.986 7.69922 436.736 7.27734C437.486 6.85547 438.5 6.64453 439.777 6.64453C441.43 6.64453 442.883 7.06055 444.137 7.89258C445.391 8.71289 446.369 9.88477 447.072 11.4082C447.787 12.9199 448.145 14.707 448.145 16.7695C448.145 18.8438 447.793 20.6484 447.09 22.1836C446.387 23.707 445.408 24.8848 444.154 25.7168C442.9 26.5488 441.453 26.9648 439.812 26.9648C438.559 26.9648 437.551 26.7539 436.789 26.332C436.027 25.8984 435.441 25.4121 435.031 24.873C434.621 24.3223 434.305 23.8711 434.082 23.5195H433.836V33.8906H430.848ZM439.426 24.2578C440.68 24.2578 441.729 23.9238 442.572 23.2559C443.416 22.5762 444.049 21.668 444.471 20.5312C444.904 19.3945 445.121 18.1289 445.121 16.7344C445.121 15.3516 444.91 14.1035 444.488 12.9902C444.066 11.877 443.434 10.9922 442.59 10.3359C441.758 9.67969 440.703 9.35156 439.426 9.35156C438.195 9.35156 437.164 9.66211 436.332 10.2832C435.5 10.8926 434.867 11.7539 434.434 12.8672C434.012 13.9688 433.801 15.2578 433.801 16.7344C433.801 18.2109 434.018 19.5176 434.451 20.6543C434.885 21.7793 435.518 22.6641 436.35 23.3086C437.193 23.9414 438.219 24.2578 439.426 24.2578Z" fill="#E6F4D1"/>
<path d="M458.445 26.8945C456.734 26.8945 455.252 26.584 453.998 25.9629C452.756 25.3301 451.795 24.4629 451.115 23.3613C450.447 22.2598 450.113 21 450.113 19.582C450.113 18.4922 450.354 17.5312 450.834 16.6992C451.314 15.8672 451.965 15.0938 452.785 14.3789C453.617 13.6523 454.555 12.9023 455.598 12.1289L459.395 9.31641C460.109 8.78906 460.689 8.26172 461.135 7.73438C461.592 7.19531 461.82 6.48047 461.82 5.58984C461.82 4.92188 461.527 4.27734 460.941 3.65625C460.367 3.02344 459.605 2.70703 458.656 2.70703C458 2.70703 457.414 2.87695 456.898 3.2168C456.395 3.54492 455.996 3.9668 455.703 4.48242C455.422 4.99805 455.281 5.53125 455.281 6.08203C455.281 6.69141 455.451 7.3125 455.791 7.94531C456.131 8.57812 456.564 9.22266 457.092 9.87891C457.619 10.5234 458.164 11.1914 458.727 11.8828L470.75 26.543H467.094L457.18 14.5898C456.266 13.4766 455.434 12.4688 454.684 11.5664C453.934 10.6523 453.336 9.76172 452.891 8.89453C452.445 8.01562 452.223 7.06641 452.223 6.04688C452.223 4.86328 452.486 3.82617 453.014 2.93555C453.541 2.04492 454.279 1.35352 455.229 0.861328C456.178 0.357422 457.285 0.105469 458.551 0.105469C459.875 0.105469 461.012 0.357422 461.961 0.861328C462.91 1.36523 463.637 2.0332 464.141 2.86523C464.656 3.69727 464.914 4.60547 464.914 5.58984C464.914 6.83203 464.598 7.91016 463.965 8.82422C463.344 9.73828 462.5 10.5938 461.434 11.3906L456.195 15.293C455.023 16.1602 454.232 17.0039 453.822 17.8242C453.412 18.6445 453.207 19.2305 453.207 19.582C453.207 20.4023 453.418 21.1699 453.84 21.8848C454.273 22.5879 454.877 23.1621 455.65 23.6074C456.424 24.041 457.332 24.2578 458.375 24.2578C459.359 24.2578 460.32 24.0469 461.258 23.625C462.195 23.1914 463.039 22.5762 463.789 21.7793C464.551 20.9824 465.154 20.0215 465.6 18.8965C466.057 17.7598 466.285 16.4883 466.285 15.082H469.203C469.203 16.8164 469.004 18.2344 468.605 19.3359C468.207 20.4375 467.756 21.2988 467.252 21.9199C466.748 22.541 466.344 23.0039 466.039 23.3086C465.934 23.4375 465.834 23.5664 465.74 23.6953C465.658 23.8242 465.57 23.9531 465.477 24.082C464.621 25.0312 463.549 25.7402 462.26 26.209C460.971 26.666 459.699 26.8945 458.445 26.8945Z" fill="#E6F4D1"/>
<path d="M483.441 26.8945C481.121 26.8945 479.082 26.3496 477.324 25.2598C475.578 24.1699 474.213 22.623 473.229 20.6191C472.256 18.6035 471.77 16.2188 471.77 13.4648C471.77 10.6992 472.256 8.30859 473.229 6.29297C474.213 4.27734 475.566 2.72461 477.289 1.63477C479.012 0.544922 480.992 0 483.23 0C484.613 0 485.902 0.205078 487.098 0.615234C488.293 1.02539 489.359 1.61133 490.297 2.37305C491.234 3.13477 492.014 4.03711 492.635 5.08008C493.268 6.12305 493.707 7.27734 493.953 8.54297H490.684C490.402 7.67578 490.033 6.90234 489.576 6.22266C489.131 5.53125 488.592 4.94531 487.959 4.46484C487.326 3.97266 486.617 3.59766 485.832 3.33984C485.047 3.08203 484.18 2.95312 483.23 2.95312C481.684 2.95312 480.271 3.35742 478.994 4.16602C477.729 4.96289 476.715 6.14648 475.953 7.7168C475.203 9.27539 474.828 11.1914 474.828 13.4648C474.828 15.7266 475.209 17.6367 475.971 19.1953C476.732 20.7539 477.764 21.9375 479.064 22.7461C480.365 23.543 481.824 23.9414 483.441 23.9414C484.941 23.9414 486.26 23.6191 487.396 22.9746C488.533 22.3301 489.424 21.4219 490.068 20.25C490.713 19.0664 491.035 17.6719 491.035 16.0664L492.02 16.2773H484.145V13.4648H494.129V16.2773C494.129 18.4336 493.672 20.3086 492.758 21.9023C491.844 23.4844 490.578 24.7148 488.961 25.5938C487.355 26.4609 485.516 26.8945 483.441 26.8945Z" fill="#E6F4D1"/>
<path d="M505.414 26.9648C503.645 26.9648 502.092 26.543 500.756 25.6992C499.42 24.8555 498.377 23.6719 497.627 22.1484C496.889 20.625 496.52 18.8555 496.52 16.8398C496.52 14.7891 496.889 13.002 497.627 11.4785C498.377 9.94336 499.42 8.75391 500.756 7.91016C502.092 7.06641 503.645 6.64453 505.414 6.64453C507.195 6.64453 508.754 7.06641 510.09 7.91016C511.426 8.75391 512.469 9.94336 513.219 11.4785C513.969 13.002 514.344 14.7891 514.344 16.8398C514.344 18.8555 513.969 20.625 513.219 22.1484C512.469 23.6719 511.426 24.8555 510.09 25.6992C508.754 26.543 507.195 26.9648 505.414 26.9648ZM505.414 24.2578C506.773 24.2578 507.887 23.9121 508.754 23.2207C509.621 22.5293 510.266 21.6211 510.688 20.4961C511.109 19.3594 511.32 18.1406 511.32 16.8398C511.32 15.5156 511.109 14.2852 510.688 13.1484C510.266 12.0117 509.621 11.0977 508.754 10.4062C507.887 9.70312 506.773 9.35156 505.414 9.35156C504.078 9.35156 502.977 9.70312 502.109 10.4062C501.242 11.0977 500.598 12.0117 500.176 13.1484C499.754 14.2852 499.543 15.5156 499.543 16.8398C499.543 18.1406 499.754 19.3594 500.176 20.4961C500.598 21.6211 501.242 22.5293 502.109 23.2207C502.977 23.9121 504.078 24.2578 505.414 24.2578Z" fill="#E6F4D1"/>
</svg>
