<svg width="42" height="42" viewBox="0 0 42 42" fill="none" xmlns="http://www.w3.org/2000/svg">
<path d="M16.7326 1.52133C15.1075 3.03022 13.8459 4.284 12.9541 5.28267C12.0593 6.28133 11.1022 7.69378 10.0768 9.52622C9.05143 11.3587 8.06333 13.6173 7.11251 16.2991C6.4227 18.2062 5.8261 20.0636 5.32273 21.8742C4.81625 23.6849 4.41852 25.5049 4.12644 27.328C3.83435 29.1542 3.68831 31.0178 3.68831 32.9249C3.68831 35.7249 4.07672 38.276 4.85353 40.5782L2.87732 41.3933C2.49513 40.4693 2.09429 39.3182 1.6686 37.94C1.2429 36.5618 0.857603 34.9036 0.515804 32.9684C0.170899 31.0333 0 29.0982 0 27.1631C0 23.6289 0.534448 20.3964 1.60334 17.4627C2.67224 14.5289 4.00525 11.9653 5.60238 9.76578C7.19951 7.56622 8.79353 5.71511 10.3907 4.21244C11.9878 2.70978 13.5911 1.31911 15.2007 0.0435556L16.7388 1.51822L16.7326 1.52133Z" fill="#E8FD86"/>
<path d="M30.2212 16.3022C30.2212 17.1982 29.9602 17.9449 29.4412 18.5453C28.9223 19.1458 28.2356 19.4476 27.3874 19.4476C26.7566 19.4476 26.247 19.2702 25.8617 18.9187C25.4733 18.5671 25.2806 18.1129 25.2806 17.556C25.2806 17.2324 25.3397 16.8436 25.4577 16.3893C25.5882 15.9942 25.6566 15.6333 25.6566 15.3129C25.6566 14.6253 25.4267 14.1587 24.9637 13.916C24.5038 13.6733 24.0533 13.552 23.612 13.552C22.3225 13.552 21.1231 14.252 20.0107 15.652C18.8983 17.052 18.0159 18.7009 17.3633 20.6018C16.7108 22.4996 16.3846 24.0582 16.3846 25.2747C16.3846 26.6093 16.7046 27.4587 17.3416 27.8258C17.9786 28.1929 18.6342 28.3764 19.3085 28.3764C20.626 28.3764 21.8285 28.0218 22.9098 27.3093C23.9942 26.5969 24.9078 25.7818 25.6566 24.8578H28.0306C26.9896 26.4258 25.5323 27.8413 23.6586 29.1013C21.785 30.3613 19.6907 30.9929 17.3758 30.9929C15.3405 30.9929 13.7651 30.4858 12.6527 29.4747C11.5403 28.4636 10.9841 27.0916 10.9841 25.3618C10.9841 23.324 11.5714 21.2302 12.7429 19.0836C13.9143 16.9369 15.5394 15.1698 17.6181 13.7822C19.6969 12.3978 21.9963 11.704 24.5162 11.704C25.4391 11.704 26.247 11.8284 26.943 12.0773C27.639 12.3262 28.2356 12.6684 28.7328 13.1009C29.23 13.5333 29.6028 14.028 29.8545 14.5849C30.1031 15.1418 30.2274 15.7142 30.2274 16.2991L30.2212 16.3022Z" fill="#E8FD86"/>
<path d="M41.5782 14.2333C41.5782 17.7396 41.0468 20.9689 39.9842 23.9213C38.9215 26.8769 37.5885 29.456 35.9851 31.6649C34.3818 33.8707 32.8157 35.6907 31.2838 37.1187C29.7551 38.5498 28.1082 39.9591 26.3526 41.3529L24.8363 39.8564C26.3153 38.5062 27.5396 37.296 28.506 36.2258C29.4723 35.1556 30.4635 33.7089 31.4827 31.8827C32.4988 30.0564 33.4931 27.7884 34.4595 25.0756C35.5439 22.0858 36.386 19.2329 36.9857 16.52C37.5854 13.8071 37.8868 11.1253 37.8868 8.46844C37.8868 7.39822 37.7967 6.16311 37.6133 4.76311C37.43 3.36311 37.1255 2.04711 36.7029 0.815111L38.6791 0C38.8997 0.485333 39.1701 1.19778 39.4932 2.14356C39.8164 3.08933 40.1302 4.17511 40.4378 5.39778C40.7454 6.62356 41.0127 8.00489 41.2395 9.54489C41.4663 11.0849 41.5813 12.6467 41.5813 14.2302L41.5782 14.2333Z" fill="#E8FD86"/>
</svg>
