<svg width="250" height="41" viewBox="0 0 250 41" fill="none" xmlns="http://www.w3.org/2000/svg">
<path d="M16.4281 1.47687C14.833 2.94148 13.5972 4.15791 12.7206 5.12309C11.8441 6.09132 10.9025 7.46095 9.89589 9.2381C8.88926 11.0152 7.91981 13.206 6.98442 15.8074C6.30921 17.655 5.72382 19.4598 5.22825 21.2155C4.73268 22.9712 4.33932 24.736 4.05437 26.504C3.76632 28.275 3.62385 30.0828 3.62385 31.9335C3.62385 34.6482 4.00481 37.124 4.76675 39.3546L2.82474 40.1451C2.44997 39.2504 2.05661 38.1321 1.63847 36.7961C1.22034 35.4602 0.845564 33.8516 0.507958 31.9764C0.170352 30.0981 0 28.2229 0 26.3447C0 22.9191 0.523444 19.7815 1.57343 16.938C2.62342 14.0946 3.93048 11.6066 5.49772 9.47403C7.06495 7.34146 8.63219 5.54592 10.1963 4.08744C11.7636 2.62895 13.337 1.28384 14.9197 0.0459607L16.4281 1.47381V1.47687Z" fill="#E8FD86"/>
<path d="M29.666 15.8105C29.666 16.6776 29.412 17.4038 28.9009 17.986C28.3899 18.5681 27.7178 18.8592 26.8846 18.8592C26.2651 18.8592 25.7665 18.6876 25.3855 18.3475C25.0045 18.0074 24.8156 17.5662 24.8156 17.0238C24.8156 16.7113 24.8714 16.3344 24.9891 15.8932C25.1191 15.5102 25.1842 15.1609 25.1842 14.8484C25.1842 14.1804 24.9581 13.73 24.5059 13.4941C24.0537 13.2581 23.6108 13.1417 23.1802 13.1417C21.9165 13.1417 20.7365 13.8219 19.6431 15.1793C18.5498 16.5367 17.6856 18.1361 17.0445 19.9776C16.4033 21.8191 16.0843 23.3296 16.0843 24.5093C16.0843 25.8023 16.3971 26.6296 17.0228 26.982C17.6484 27.3374 18.2896 27.5151 18.9524 27.5151C20.2471 27.5151 21.4241 27.172 22.4895 26.4795C23.5519 25.7901 24.4501 24.9965 25.1842 24.1018H27.5134C26.4912 25.6246 25.0634 26.9942 23.2236 28.2168C21.3838 29.4394 19.3272 30.0522 17.0569 30.0522C15.0591 30.0522 13.5135 29.5619 12.4202 28.5814C11.3268 27.6009 10.7817 26.2711 10.7817 24.592C10.7817 22.6157 11.3578 20.5873 12.5069 18.5038C13.656 16.4202 15.2511 14.7074 17.2923 13.3623C19.3334 12.0172 21.5913 11.3462 24.063 11.3462C24.9674 11.3462 25.7634 11.4657 26.4448 11.7077C27.1262 11.9498 27.7147 12.2807 28.201 12.7005C28.6903 13.1202 29.0558 13.6013 29.3005 14.1406C29.5452 14.6798 29.666 15.2344 29.666 15.8044V15.8105Z" fill="#E8FD86"/>
<path d="M51.6568 18.8592C51.6568 20.2809 51.3719 21.6689 50.8051 23.0171C50.2383 24.3684 49.4144 25.5756 48.3365 26.6419C47.2587 27.7082 46.0012 28.5447 44.564 29.1483C43.1269 29.7519 41.5441 30.0552 39.822 30.0552C38.0999 30.0552 36.6597 29.7304 35.3805 29.0839C34.1013 28.4374 33.1102 27.5274 32.404 26.3539C31.7009 25.1803 31.3478 23.8475 31.3478 22.3553C31.3478 20.4494 31.8806 18.6447 32.9429 16.938C34.0053 15.2314 35.4548 13.874 37.2884 12.8629C39.1221 11.8548 41.1012 11.3492 43.2291 11.3492C44.9976 11.3492 46.5215 11.6955 47.8007 12.3849C49.0799 13.0743 50.0432 13.9966 50.6905 15.1456C51.3378 16.2977 51.6599 17.5355 51.6599 18.8561L51.6568 18.8592ZM46.5494 17.3885C46.5494 16.0648 46.2644 15.0291 45.6976 14.2754C45.1308 13.5216 44.2915 13.1448 43.1857 13.1448C42.08 13.1448 41.1446 13.5431 40.2959 14.3397C39.4473 15.1364 38.7442 16.1353 38.1836 17.3364C37.623 18.5375 37.1986 19.7478 36.9106 20.9611C36.6225 22.1776 36.4801 23.2255 36.4801 24.1079C36.4801 25.3305 36.7588 26.3293 37.3194 27.1046C37.88 27.8798 38.6698 28.2658 39.692 28.2658C40.8287 28.2658 41.8322 27.8736 42.7118 27.0923C43.5884 26.311 44.31 25.3182 44.8799 24.1171C45.4467 22.916 45.868 21.6965 46.1405 20.4586C46.4131 19.2208 46.5494 18.1974 46.5494 17.3885Z" fill="#E8FD86"/>
<path d="M95.016 23.8076C92.8448 27.7603 90.209 29.7366 87.1024 29.7366C86.009 29.7366 85.1573 29.4394 84.5471 28.8419C83.937 28.2444 83.6303 27.5703 83.6303 26.8165C83.6303 26.2619 83.7883 25.4806 84.1042 24.4695L85.786 19.138C86.1732 17.9002 86.3683 17.0821 86.3683 16.6868C86.3683 16.1751 86.2104 15.7706 85.8944 15.4704C85.5785 15.1732 85.1604 15.023 84.6431 15.023C83.4352 15.023 82.1467 15.6818 80.7715 16.9963C79.3994 18.3107 78.1233 20.0235 76.9432 22.1377C75.7632 24.2489 74.8526 26.3508 74.2052 28.4405L73.9048 29.4424H68.7725L72.0929 18.7366C72.3499 17.8419 72.48 17.1587 72.48 16.6899C72.48 16.2211 72.3592 15.8258 72.1145 15.5071C71.8699 15.1885 71.4672 15.0261 70.9066 15.0261C69.9278 15.0261 68.9119 15.4459 67.8557 16.2854C66.7996 17.125 65.7991 18.2188 64.8576 19.5701C63.916 20.9213 63.0549 22.3951 62.2713 23.9945C61.4877 25.594 60.8434 27.175 60.3417 28.7408L60.1249 29.4455H54.9926L58.7652 17.223C59.1678 15.8564 59.3691 15.0261 59.3691 14.7289C59.3691 14.5021 59.2948 14.3214 59.143 14.1865C58.9913 14.0517 58.8302 13.9843 58.6568 13.9843C58.4554 13.9843 58.1953 14.0793 57.8793 14.2723C57.5634 14.4654 57.2134 14.8024 56.8324 15.2865C56.4515 15.7706 56.0457 16.4447 55.6152 17.3119H53.7165C54.3205 15.7768 55.2156 14.401 56.4019 13.1846C57.5882 11.9682 59.0656 11.3615 60.8311 11.3615C61.4195 11.3615 61.9864 11.4687 62.5346 11.6801C63.0797 11.8946 63.5164 12.2347 63.8385 12.7035C64.1607 13.1723 64.3248 13.7637 64.3248 14.4746C64.3248 15.2436 64.0863 16.4509 63.6124 18.0993L62.9868 20.1461C63.8045 18.7795 64.6717 17.5509 65.5854 16.457C66.4991 15.3631 67.45 14.4194 68.4411 13.6319C69.4323 12.8414 70.38 12.2684 71.2876 11.9038C72.192 11.5423 73.0902 11.3615 73.9822 11.3615C75.1902 11.3615 76.172 11.6679 76.9247 12.2776C77.6804 12.8904 78.0583 13.7055 78.0583 14.7289C78.0583 15.4673 77.8353 16.5918 77.3893 18.0993L76.807 19.9776C77.668 18.5283 78.6499 17.1617 79.7494 15.884C80.8489 14.6032 82.1002 13.5308 83.5002 12.6637C84.9002 11.7966 86.3776 11.3615 87.9294 11.3615C88.8648 11.3615 89.6267 11.5453 90.2152 11.9161C90.8037 12.2868 91.2342 12.7372 91.5099 13.2704C91.7855 13.8035 91.9187 14.3183 91.9187 14.8177C91.9187 15.2436 91.8815 15.6174 91.8103 15.9361C91.7391 16.2548 91.5532 16.9135 91.2497 17.9093L89.1807 24.5216C88.9081 25.3734 88.7718 25.9372 88.7718 26.2068C88.7718 26.6756 88.9948 26.9115 89.4409 26.9115C89.828 26.9115 90.3236 26.694 90.9276 26.2619C91.5315 25.8268 92.1851 25.0149 92.8882 23.8199H95.0005L95.016 23.8076Z" fill="#E8FD86"/>
<path d="M119.141 17.6887C119.141 19.1962 118.85 20.6854 118.267 22.1561C117.685 23.6269 116.874 24.9567 115.83 26.1455C114.786 27.3344 113.556 28.2811 112.132 28.992C110.71 29.7029 109.214 30.0583 107.647 30.0583C106.383 30.0583 105.376 29.853 104.627 29.4394C103.88 29.0257 103.211 28.4711 102.623 27.7756L100.315 35.2396C100.114 35.8922 100.015 36.3212 100.015 36.5204C100.015 37.0045 100.266 37.3262 100.771 37.4917C101.273 37.6541 102.065 37.7368 103.143 37.7368H104.2L103.639 39.6151H89.9922L90.5745 37.7368H91.4138C92.3926 37.7368 93.105 37.6663 93.5603 37.5223C94.0125 37.3814 94.3501 37.1179 94.5731 36.7318C94.7961 36.3488 95.081 35.6073 95.4249 34.5134L101.031 16.3406C101.232 15.7155 101.331 15.2038 101.331 14.8055C101.331 14.5634 101.266 14.352 101.136 14.1651C101.006 13.9812 100.842 13.8863 100.641 13.8863C100.266 13.8863 99.8199 14.1375 99.3027 14.6431C98.7854 15.1486 98.2403 16.0617 97.6642 17.3823H95.5952C95.9824 16.4723 96.4098 15.6144 96.8775 14.8116C97.3452 14.0088 98.0607 13.2306 99.0239 12.4768C99.9872 11.723 101.142 11.3462 102.496 11.3462C104.912 11.3462 106.117 12.5534 106.117 14.9709C108.387 12.5534 110.722 11.3462 113.123 11.3462C114.647 11.3462 115.861 11.7077 116.765 12.4339C117.67 13.1601 118.292 14.0027 118.63 14.9617C118.967 15.9208 119.138 16.8277 119.138 17.6826L119.141 17.6887ZM113.838 17.177C113.838 16.2946 113.606 15.5071 113.138 14.8085C112.671 14.113 112.005 13.7637 111.144 13.7637C110.137 13.7637 109.177 14.1988 108.266 15.0659C107.353 15.933 106.544 17.0422 105.841 18.3935C105.395 19.2453 105.027 20.1032 104.732 20.9642C104.438 21.8252 104.212 22.6188 104.054 23.3419C103.896 24.0681 103.815 24.6564 103.815 25.1129C103.815 26.0229 104.097 26.8135 104.655 27.4814C105.215 28.1494 105.962 28.4834 106.897 28.4834C108.248 28.4834 109.456 27.8369 110.518 26.5438C111.58 25.2508 112.401 23.7065 112.977 21.9141C113.553 20.1216 113.838 18.5436 113.838 17.1801V17.177Z" fill="#E8FD86"/>
<path d="M135.355 0.00612809L127.81 24.4695C127.423 25.6798 127.228 26.4305 127.228 26.7307C127.228 26.9728 127.287 27.1658 127.401 27.3068C127.516 27.4477 127.668 27.5213 127.854 27.5213C128.228 27.5213 128.746 27.1873 129.405 26.5193C130.065 25.8514 130.592 25.0915 130.979 24.2366H133.004C132.301 25.5603 131.36 26.8594 130.18 28.1402C129 29.421 127.528 30.0583 125.76 30.0583C124.682 30.0583 123.815 29.7641 123.161 29.1728C122.508 28.5814 122.179 27.8675 122.179 27.028C122.179 26.3753 122.402 25.2998 122.848 23.8076L128.368 6.02085C128.727 4.85651 128.907 4.08131 128.907 3.69524C128.907 3.19886 128.702 2.87101 128.293 2.71474C127.885 2.55848 127.12 2.47881 125.998 2.47881L126.516 0.517824H128.823C129.814 0.517824 130.722 0.481055 131.539 0.410582C132.36 0.340109 133.141 0.205291 133.89 0.00612809H135.355Z" fill="#E8FD86"/>
<path d="M147.407 24.3193C146.846 25.5572 145.97 26.8227 144.777 28.1157C143.585 29.4087 142.089 30.0552 140.292 30.0552C139.084 30.0552 138.18 29.7611 137.576 29.1697C136.972 28.5784 136.672 27.8798 136.672 27.0678C136.672 26.2558 136.938 25.0976 137.471 23.633L140.252 16.1046C140.525 15.4213 140.661 14.9587 140.661 14.7197C140.661 14.5634 140.596 14.4225 140.466 14.2938C140.336 14.1651 140.193 14.1007 140.035 14.1007C139.546 14.1007 139.01 14.4776 138.428 15.2314C137.846 15.9851 137.412 16.6592 137.124 17.2567H135.228C136.077 15.3784 137.18 13.9261 138.536 12.8935C139.896 11.864 141.249 11.3462 142.6 11.3462C143.548 11.3462 144.334 11.576 144.96 12.0386C145.586 12.5013 145.899 13.1172 145.899 13.8832C145.899 14.6952 145.741 15.5102 145.425 16.3375L142.061 25.2753C141.832 25.8881 141.717 26.3845 141.717 26.7675C141.717 26.9391 141.785 27.1046 141.922 27.27C142.058 27.4324 142.207 27.5151 142.365 27.5151C142.795 27.5151 143.241 27.2884 143.703 26.8319C144.161 26.3784 144.737 25.5388 145.428 24.3163H147.41L147.407 24.3193ZM149.002 2.75764C149.002 3.52672 148.726 4.18242 148.172 4.73089C147.618 5.27935 146.967 5.55205 146.221 5.55205C145.415 5.55205 144.743 5.27935 144.204 4.73089C143.665 4.18242 143.396 3.52672 143.396 2.75764C143.396 1.98857 143.665 1.37576 144.204 0.827293C144.743 0.278828 145.415 0.00612809 146.221 0.00612809C146.738 0.00612809 147.209 0.131754 147.633 0.379942C148.057 0.628129 148.392 0.955982 148.637 1.36044C148.881 1.76489 149.002 2.23063 149.002 2.75764Z" fill="#E8FD86"/>
<path d="M171.21 24.3193C170.792 25.1589 170.327 25.928 169.807 26.6235C169.289 27.319 168.713 27.9318 168.081 28.4589C167.45 28.9859 166.812 29.3842 166.173 29.6538C165.532 29.9235 164.87 30.0583 164.179 30.0583C162.67 30.0583 161.704 29.6079 161.28 28.704C160.855 27.8001 160.645 26.7246 160.645 25.4714C159.496 26.8227 158.359 27.9227 157.238 28.7775C156.117 29.6293 154.837 30.0583 153.4 30.0583C152.552 30.0583 151.848 29.8285 151.288 29.3658C150.727 28.9031 150.315 28.2811 150.049 27.4998C149.783 26.7185 149.649 25.8789 149.649 24.9842C149.649 23.0631 150.145 21.0377 151.136 18.9052C152.127 16.7726 153.475 14.9801 155.178 13.5308C156.882 12.0815 158.718 11.3554 160.688 11.3554C161.593 11.3554 162.305 11.5331 162.822 11.8885C163.339 12.2439 163.696 12.6423 163.891 13.0835C164.086 13.5247 164.253 14.0149 164.399 14.5542L165.198 11.8885H169.961L165.95 24.8984C165.662 25.836 165.52 26.4059 165.52 26.6051C165.52 26.789 165.582 26.9452 165.703 27.0739C165.823 27.2026 165.966 27.2669 166.124 27.2669C167.059 27.2669 168.057 26.2865 169.119 24.3224H171.21V24.3193ZM163.169 15.8105C163.169 15.1149 163.036 14.5175 162.77 14.018C162.503 13.5216 162.02 13.2704 161.314 13.2704C160.236 13.2704 159.189 13.8863 158.176 15.1149C157.163 16.3436 156.343 17.8297 155.717 19.5731C155.091 21.3166 154.779 22.7842 154.779 23.9762C154.779 25.6982 155.324 26.5561 156.417 26.5561C157.179 26.5561 157.959 26.2129 158.755 25.5204C159.555 24.831 160.289 23.9088 160.967 22.7597C161.67 21.5648 162.215 20.3575 162.593 19.135C162.974 17.9124 163.163 16.8032 163.163 15.8074L163.169 15.8105Z" fill="#E8FD86"/>
<path d="M197.016 23.8505C196.614 24.6043 196.056 25.4285 195.347 26.3232C194.635 27.2179 193.749 28.0115 192.683 28.7009C191.621 29.3903 190.478 29.7366 189.255 29.7366C188.189 29.7366 187.35 29.4792 186.733 28.9675C186.114 28.4558 185.807 27.7817 185.807 26.9422C185.807 26.2895 185.987 25.4009 186.346 24.2764L187.92 19.135C188.366 17.7408 188.589 16.7818 188.589 16.2548C188.589 15.9422 188.493 15.6573 188.298 15.403C188.102 15.1456 187.833 15.02 187.489 15.02C186.712 15.02 185.764 15.6665 184.643 16.9595C183.521 18.2525 182.382 20.0021 181.226 22.2051C180.068 24.4082 179.068 26.8196 178.219 29.4363H173.087L176.989 16.938C177.333 15.6879 177.507 14.9617 177.507 14.7626C177.507 14.591 177.463 14.4194 177.376 14.2386C177.29 14.0609 177.126 13.9721 176.881 13.9721C176.32 13.9721 175.784 14.3214 175.273 15.0169C174.762 15.7124 174.329 16.4754 173.969 17.2996H172.157C172.703 15.7768 173.545 14.4071 174.679 13.1846C175.815 11.962 177.259 11.3492 179.012 11.3492C180.133 11.3492 180.969 11.6464 181.524 12.2439C182.078 12.8414 182.354 13.4726 182.354 14.1436C182.354 14.5144 182.273 15.0751 182.115 15.8289C181.957 16.5826 181.778 17.2873 181.576 17.94L180.821 20.1369C182.602 17.4222 184.277 15.2773 185.844 13.7055C187.412 12.1336 189.149 11.3492 191.063 11.3492C192.169 11.3492 192.974 11.6648 193.479 12.2991C193.981 12.9333 194.235 13.6166 194.235 14.3581C194.235 14.8147 194.062 15.6726 193.718 16.938L191.454 24.3592C191.197 25.2845 191.067 25.931 191.067 26.2987C191.067 26.4397 191.113 26.5745 191.206 26.7032C191.299 26.8319 191.426 26.8962 191.584 26.8962C191.986 26.8962 192.501 26.6143 193.126 26.0536C193.752 25.4929 194.331 24.7575 194.861 23.8475H197.016V23.8505Z" fill="#E8FD86"/>
<path d="M217.329 15.8105C217.329 16.6776 217.075 17.4038 216.564 17.986C216.052 18.5681 215.38 18.8592 214.547 18.8592C213.928 18.8592 213.429 18.6876 213.048 18.3475C212.667 18.0074 212.478 17.5662 212.478 17.0238C212.478 16.7113 212.534 16.3344 212.652 15.8932C212.782 15.5102 212.847 15.1609 212.847 14.8484C212.847 14.1804 212.621 13.73 212.168 13.4941C211.716 13.2581 211.273 13.1417 210.843 13.1417C209.579 13.1417 208.399 13.8219 207.306 15.1793C206.212 16.5367 205.348 18.1361 204.707 19.9776C204.066 21.8191 203.747 23.3296 203.747 24.5093C203.747 25.8023 204.06 26.6296 204.685 26.982C205.311 27.3374 205.952 27.5151 206.615 27.5151C207.91 27.5151 209.087 27.172 210.152 26.4795C211.214 25.7901 212.113 24.9965 212.847 24.1018H215.176C214.154 25.6246 212.726 26.9942 210.886 28.2168C209.046 29.4394 206.99 30.0522 204.719 30.0522C202.722 30.0522 201.176 29.5619 200.083 28.5814C198.989 27.6009 198.444 26.2711 198.444 24.592C198.444 22.6157 199.02 20.5873 200.17 18.5038C201.319 16.4202 202.914 14.7074 204.955 13.3623C206.996 12.0172 209.254 11.3462 211.726 11.3462C212.63 11.3462 213.426 11.4657 214.107 11.7077C214.789 11.9498 215.377 12.2807 215.864 12.7005C216.353 13.1202 216.718 13.6013 216.963 14.1406C217.208 14.6798 217.329 15.2344 217.329 15.8044V15.8105Z" fill="#E8FD86"/>
<path d="M237.873 14.8943C237.873 15.4765 237.693 16.1506 237.334 16.9105C236.975 17.6704 236.318 18.4793 235.361 19.3311C234.404 20.1829 233.038 20.9366 231.263 21.5923C229.489 22.245 227.255 22.6954 224.57 22.9374L224.053 22.9803C223.938 23.5503 223.879 24.0742 223.879 24.5583C223.879 25.6093 224.133 26.3692 224.644 26.8288C225.155 27.2915 225.899 27.5213 226.874 27.5213C229.03 27.5213 231.093 26.3692 233.063 24.065H235.349C234.457 25.4163 233.106 26.7522 231.294 28.0759C229.482 29.3995 227.333 30.0583 224.849 30.0583C223.124 30.0583 221.646 29.5987 220.42 28.6825C219.193 27.7664 218.577 26.4182 218.577 24.6411C218.577 22.4656 219.187 20.3514 220.41 18.2954C221.631 16.2394 223.3 14.5695 225.413 13.2826C227.525 11.9957 229.826 11.3523 232.313 11.3523C234.311 11.3523 235.739 11.6863 236.594 12.3542C237.449 13.0222 237.876 13.8679 237.876 14.8913L237.873 14.8943ZM233.326 14.8085C233.326 14.3397 233.162 13.9108 232.831 13.5186C232.499 13.1264 232.047 12.9333 231.474 12.9333C230.467 12.9333 229.544 13.2796 228.702 13.969C227.863 14.6584 227.153 15.4734 226.577 16.411C226.001 17.3486 225.53 18.3015 225.165 19.2698C224.799 20.238 224.573 20.8355 224.486 21.0623C227.404 20.5781 229.606 19.76 231.093 18.608C232.58 17.4559 233.326 16.1904 233.326 14.8116V14.8085Z" fill="#E8FD86"/>
<path d="M249.194 13.8066C249.194 17.2046 248.673 20.3361 247.63 23.201C246.586 26.0658 245.279 28.5692 243.705 30.7079C242.132 32.8466 240.592 34.6115 239.09 35.9964C237.588 37.3814 235.974 38.751 234.249 40.1022L232.762 38.6529C234.215 37.3446 235.414 36.1711 236.361 35.1324C237.309 34.0936 238.285 32.6903 239.282 30.9193C240.28 29.1483 241.255 26.9483 242.203 24.3193C243.265 21.4177 244.092 18.6539 244.681 16.0219C245.269 13.3929 245.564 10.7885 245.564 8.21471C245.564 7.176 245.474 5.97795 245.294 4.62058C245.115 3.26321 244.817 1.9855 244.399 0.790524L246.338 0C246.555 0.468799 246.818 1.16127 247.137 2.08049C247.453 2.99664 247.763 4.05067 248.063 5.23645C248.364 6.4253 248.627 7.76429 248.85 9.25648C249.073 10.7487 249.184 12.2623 249.184 13.8005L249.194 13.8066Z" fill="#E8FD86"/>
</svg>
