<svg width="164" height="41" viewBox="0 0 164 41" fill="none" xmlns="http://www.w3.org/2000/svg">
<path d="M16.3871 1.47098C14.7945 2.93581 13.5614 4.14883 12.6877 5.11617C11.8139 6.08351 10.8751 7.45315 9.87127 9.22815C8.86741 11.0031 7.90074 13.1927 6.96814 15.7907C6.2958 17.6364 5.71022 19.439 5.21449 21.1925C4.71875 22.946 4.32836 24.7087 4.04332 26.4776C3.75517 28.2464 3.61265 30.0552 3.61265 31.9008C3.61265 34.6155 3.99065 37.0876 4.75283 39.3171L2.81638 40.1064C2.44458 39.2127 2.04799 38.0949 1.63282 36.759C1.21764 35.4232 0.839647 33.8171 0.505027 31.9438C0.16731 30.0675 0 28.1942 0 26.3179C0 22.8938 0.523617 19.7614 1.57085 16.9208C2.61809 14.0802 3.92248 11.5928 5.48404 9.46154C7.0456 7.33031 8.60715 5.53689 10.1718 4.08127C11.7334 2.62565 13.3042 1.27751 14.8813 0.042993L16.3871 1.47098Z" fill="#E8FD86"/>
<path d="M29.589 15.7907C29.589 16.6567 29.335 17.3815 28.8268 17.9649C28.3187 18.5484 27.6464 18.8402 26.816 18.8402C26.1995 18.8402 25.7006 18.6682 25.3226 18.3273C24.9415 17.9864 24.7525 17.5473 24.7525 17.0068C24.7525 16.6936 24.8083 16.3189 24.923 15.8767C25.0531 15.4928 25.115 15.1458 25.115 14.8326C25.115 14.1662 24.8889 13.7148 24.4365 13.4783C23.9842 13.2449 23.5442 13.1252 23.1135 13.1252C21.8525 13.1252 20.6751 13.8038 19.5876 15.1612C18.497 16.5185 17.6357 18.1154 16.9974 19.9549C16.3592 21.7944 16.04 23.3053 16.04 24.4845C16.04 25.7774 16.353 26.6004 16.9757 26.9566C17.5985 27.3129 18.2399 27.4879 18.8998 27.4879C20.1887 27.4879 21.3661 27.144 22.4257 26.453C23.4853 25.7651 24.3838 24.9728 25.1119 24.0761H27.4326C26.4132 25.5962 24.988 26.9689 23.1538 28.1881C21.3196 29.4103 19.2685 30.0214 17.0036 30.0214C15.0114 30.0214 13.4715 29.5301 12.3809 28.5504C11.2903 27.5708 10.7481 26.2411 10.7481 24.5644C10.7481 22.5898 11.3213 20.563 12.4677 18.4809C13.6141 16.3988 15.2066 14.6883 17.2422 13.3463C19.2778 12.0043 21.5272 11.3317 23.9935 11.3317C24.8951 11.3317 25.6882 11.4515 26.3699 11.6941C27.0515 11.9367 27.634 12.2653 28.1235 12.686C28.61 13.1067 28.9756 13.5858 29.2203 14.1232C29.4651 14.6637 29.5859 15.2165 29.5859 15.7846L29.589 15.7907Z" fill="#E8FD86"/>
<path d="M54.6576 24.0392C54.0689 25.4457 53.22 26.7969 52.1108 28.0898C50.9985 29.3827 49.4989 30.0306 47.6058 30.0306C46.4315 30.0306 45.6012 29.7174 45.1241 29.094C44.6438 28.4675 44.4021 27.7459 44.4021 26.9198C44.4021 26.5636 44.4703 26.0968 44.6066 25.5133C44.743 24.9298 44.9196 24.2849 45.1333 23.5755L45.8429 21.1679C44.3092 23.64 42.729 25.7344 41.1024 27.4541C39.4758 29.1738 37.6664 30.0337 35.6741 30.0337C34.6548 30.0337 33.874 29.742 33.3318 29.1585C32.7865 28.575 32.5139 27.8871 32.5139 27.0918C32.5139 26.3394 32.7152 25.3229 33.1149 24.0454L35.2869 17.013C35.5719 16.1592 35.7175 15.5512 35.7175 15.1796C35.7175 15.0076 35.6649 14.8357 35.5564 14.6576C35.448 14.4794 35.2652 14.3904 35.008 14.3904C34.1622 14.3904 33.0932 15.3854 31.8043 17.3753H29.8276C30.8036 15.8276 31.888 14.4702 33.0839 13.3063C34.2799 12.1425 35.7764 11.559 37.5672 11.559C38.3852 11.559 39.1319 11.777 39.8135 12.21C40.4952 12.643 40.836 13.4507 40.836 14.6299C40.836 15.327 40.743 15.9504 40.5571 16.5063L38.7942 22.1752C38.3945 23.4834 38.1931 24.4262 38.1931 25.0097C38.1931 25.3229 38.2891 25.6208 38.4843 25.9033C38.6764 26.1889 38.946 26.3302 39.2899 26.3302C39.9622 26.3302 40.7957 25.8235 41.7841 24.807C42.7724 23.7905 43.8506 22.2059 45.0187 20.0532C46.1868 17.9005 47.3301 15.2042 48.4486 11.9643H53.567L49.5454 24.9636C49.2882 25.8879 49.1581 26.4407 49.1581 26.625C49.1581 26.7969 49.2262 26.9689 49.3626 27.147C49.4989 27.3251 49.6445 27.4142 49.8025 27.4142C50.3323 27.4142 50.8405 27.058 51.33 26.3486C51.8164 25.6392 52.2533 24.8715 52.6406 24.0454H54.6607L54.6576 24.0392Z" fill="#E8FD86"/>
<path d="M70.2887 0L62.7628 24.4446C62.3755 25.6515 62.1834 26.4039 62.1834 26.7048C62.1834 26.9474 62.2392 27.1378 62.357 27.2791C62.4716 27.4203 62.6234 27.491 62.8093 27.491C63.1811 27.491 63.6985 27.1562 64.3585 26.4899C65.0184 25.8235 65.542 25.0619 65.9293 24.2082H67.9494C67.2461 25.5287 66.3073 26.8307 65.1331 28.1082C63.9588 29.3857 62.4871 30.0276 60.7241 30.0276C59.649 30.0276 58.7846 29.7328 58.1339 29.1431C57.4802 28.5535 57.1549 27.8411 57.1549 27.0027C57.1549 26.3486 57.3779 25.2768 57.821 23.7844L63.3236 6.00981C63.683 4.84593 63.8627 4.07205 63.8627 3.68819C63.8627 3.1907 63.6583 2.86518 63.2493 2.70856C62.8403 2.55194 62.0781 2.47517 60.9596 2.47517L61.477 0.515916H63.7791C64.7674 0.515916 65.6722 0.482136 66.487 0.408434C67.305 0.337802 68.0858 0.202681 68.8294 0.00307093H70.2918L70.2887 0Z" fill="#E8FD86"/>
<path d="M84.6308 11.9551L84.0298 13.9144H79.751L76.5039 24.4415C76.2592 25.1939 76.1383 25.7405 76.1383 26.0814C76.1383 26.3793 76.2375 26.6526 76.4389 26.9014C76.6402 27.1501 76.8912 27.2729 77.1917 27.2729C78.0221 27.2729 78.7533 26.8706 79.3854 26.0691C80.0174 25.2676 80.5813 24.3955 81.0832 23.4588H83.1034C82.3009 25.2216 81.3931 26.5943 80.383 27.5831C79.373 28.5719 78.4249 29.223 77.545 29.5424C76.6619 29.8617 75.8564 30.0214 75.1252 30.0214C73.892 30.0214 72.9315 29.6652 72.2437 28.9558C71.5559 28.2464 71.212 27.3006 71.212 26.1213C71.212 25.3106 71.4258 24.2112 71.8564 22.817L74.6511 13.9082H70.6295L71.2523 11.949H75.2522L77.2289 5.44783H82.3474L80.3706 11.949H84.6277L84.6308 11.9551Z" fill="#E8FD86"/>
<path d="M108.776 24.0392C108.187 25.4457 107.338 26.7969 106.229 28.0898C105.117 29.3827 103.617 30.0306 101.724 30.0306C100.55 30.0306 99.7197 29.7174 99.2425 29.094C98.7623 28.4675 98.5206 27.7459 98.5206 26.9198C98.5206 26.5636 98.5888 26.0968 98.7251 25.5133C98.8615 24.9298 99.0381 24.2849 99.2518 23.5755L99.9614 21.1679C98.4277 23.64 96.8475 25.7344 95.2209 27.4541C93.5943 29.1738 91.7849 30.0337 89.7926 30.0337C88.7733 30.0337 87.9925 29.742 87.4503 29.1585C86.905 28.575 86.6324 27.8871 86.6324 27.0918C86.6324 26.3394 86.8337 25.3229 87.2334 24.0454L89.4053 17.013C89.6904 16.1592 89.836 15.5512 89.836 15.1796C89.836 15.0076 89.7834 14.8357 89.6749 14.6576C89.5665 14.4794 89.3837 14.3904 89.1265 14.3904C88.2807 14.3904 87.2117 15.3854 85.9228 17.3753H83.9461C84.9221 15.8276 86.0065 14.4702 87.2024 13.3063C88.3984 12.1425 89.8949 11.559 91.6857 11.559C92.5037 11.559 93.2504 11.777 93.932 12.21C94.6136 12.643 94.9545 13.4507 94.9545 14.6299C94.9545 15.327 94.8615 15.9504 94.6756 16.5063L92.9127 22.1752C92.513 23.4834 92.3116 24.4262 92.3116 25.0097C92.3116 25.3229 92.4076 25.6208 92.6028 25.9033C92.7949 26.1889 93.0645 26.3302 93.4084 26.3302C94.0807 26.3302 94.9142 25.8235 95.9025 24.807C96.8909 23.7905 97.9691 22.2059 99.1372 20.0532C100.305 17.9005 101.449 15.2042 102.567 11.9643H107.685L103.664 24.9636C103.407 25.8879 103.277 26.4407 103.277 26.625C103.277 26.7969 103.345 26.9689 103.481 27.147C103.617 27.3251 103.763 27.4142 103.921 27.4142C104.451 27.4142 104.959 27.058 105.448 26.3486C105.935 25.6392 106.372 24.8715 106.759 24.0454H108.779L108.776 24.0392Z" fill="#E8FD86"/>
<path d="M129.87 14.1294C129.87 15.023 129.619 15.8153 129.117 16.5063C128.615 17.1941 127.983 17.5412 127.224 17.5412C126.579 17.5412 125.947 17.1634 125.33 16.4111C124.987 15.9719 124.649 15.7508 124.32 15.7508C123.933 15.7508 123.403 16.1101 122.728 16.8256C122.056 17.5442 121.362 18.4993 120.652 19.6908C119.942 20.8854 119.242 22.252 118.554 23.7936C117.867 25.3352 117.272 26.9167 116.77 28.5351L116.513 29.4103H111.459L114.836 17.4552C115.196 16.3036 115.372 15.5021 115.372 15.0476C115.372 14.8756 115.323 14.7098 115.221 14.547C115.121 14.3842 114.963 14.3013 114.747 14.3013C114.189 14.3013 113.622 14.6883 113.049 15.4621C112.475 16.236 112.045 16.9423 111.76 17.5811H109.783C110.613 15.932 111.462 14.6576 112.33 13.7547C113.197 12.8518 114.034 12.2254 114.846 11.8691C115.654 11.5129 116.392 11.3379 117.049 11.3379C118.195 11.3379 118.936 11.6941 119.273 12.4035C119.611 13.1129 119.778 13.81 119.778 14.4917C119.778 15.7262 119.375 17.6732 118.573 20.3296C119.391 18.9384 120.06 17.8237 120.584 16.9823C121.107 16.1439 121.73 15.2779 122.455 14.3812C123.18 13.4875 123.946 12.7536 124.754 12.1855C125.563 11.6173 126.356 11.3317 127.131 11.3317C128.234 11.3317 128.965 11.6419 129.324 12.2592C129.684 12.8764 129.86 13.4998 129.86 14.1232L129.87 14.1294Z" fill="#E8FD86"/>
<path d="M151.886 24.2941C151.471 25.1325 151.006 25.9002 150.489 26.5943C149.971 27.2914 149.398 27.9025 148.769 28.4276C148.137 28.9527 147.505 29.352 146.867 29.6222C146.229 29.8924 145.566 30.0276 144.878 30.0276C143.372 30.0276 142.408 29.5761 141.987 28.6733C141.563 27.7704 141.352 26.6956 141.352 25.4457C140.206 26.7969 139.072 27.8963 137.956 28.7501C136.841 29.6038 135.561 30.0276 134.13 30.0276C133.284 30.0276 132.581 29.7972 132.023 29.3335C131.465 28.8729 131.053 28.2495 130.787 27.4695C130.52 26.6895 130.39 25.8511 130.39 24.9544C130.39 23.0351 130.886 21.0113 131.874 18.8801C132.862 16.7489 134.207 14.9585 135.905 13.509C137.603 12.0595 139.434 11.3348 141.398 11.3348C142.303 11.3348 143.013 11.5129 143.527 11.8661C144.044 12.2223 144.398 12.6185 144.593 13.0607C144.785 13.4998 144.955 13.9912 145.098 14.5316L145.894 11.8691H150.647L146.647 24.8684C146.359 25.805 146.216 26.3732 146.216 26.5728C146.216 26.757 146.278 26.9136 146.399 27.0426C146.52 27.1716 146.659 27.233 146.817 27.233C147.75 27.233 148.745 26.2534 149.807 24.2911H151.892L151.886 24.2941ZM143.865 15.7907C143.865 15.0936 143.731 14.4979 143.468 14.0004C143.202 13.5029 142.718 13.2541 142.018 13.2541C140.943 13.2541 139.902 13.8683 138.889 15.0967C137.879 16.3251 137.061 17.8114 136.438 19.5495C135.815 21.2908 135.502 22.7556 135.502 23.9502C135.502 25.6699 136.048 26.5298 137.135 26.5298C137.894 26.5298 138.672 26.1858 139.468 25.4949C140.264 24.807 140.999 23.8857 141.671 22.7341C142.374 21.5395 142.913 20.3326 143.295 19.1104C143.676 17.8882 143.865 16.7796 143.865 15.7846V15.7907Z" fill="#E8FD86"/>
<path d="M163.152 13.7885C163.152 17.1849 162.631 20.3142 161.593 23.1763C160.555 26.0384 159.251 28.5382 157.68 30.6786C156.109 32.816 154.576 34.5787 153.079 35.9637C151.583 37.3487 149.971 38.7152 148.252 40.0664L146.768 38.617C148.215 37.3087 149.414 36.1387 150.359 35.1007C151.304 34.0628 152.277 32.6594 153.271 30.8905C154.269 29.1216 155.239 26.9229 156.184 24.2941C157.243 21.3952 158.067 18.6313 158.656 16.0057C159.245 13.377 159.539 10.779 159.539 8.20553C159.539 7.16755 159.449 5.97296 159.27 4.61561C159.09 3.25826 158.792 1.98382 158.377 0.789229L160.314 0C160.527 0.469852 160.794 1.16081 161.11 2.07902C161.426 2.99416 161.733 4.04749 162.033 5.23287C162.334 6.41825 162.594 7.75717 162.817 9.24965C163.04 10.7421 163.152 12.253 163.152 13.7885Z" fill="#E8FD86"/>
</svg>
