<svg width="204" height="41" viewBox="0 0 204 41" fill="none" xmlns="http://www.w3.org/2000/svg">
<path d="M16.3776 1.47098C14.786 2.93581 13.5535 4.14883 12.6803 5.11617C11.8071 6.08351 10.8688 7.45315 9.86557 9.22815C8.86229 11.0031 7.89617 13.1927 6.96411 15.7907C6.29216 17.6364 5.70692 19.439 5.21147 21.1925C4.71603 22.946 4.32586 24.7087 4.04098 26.4776C3.753 28.2464 3.61056 30.0552 3.61056 31.9008C3.61056 34.6155 3.98834 37.0876 4.75009 39.3171L2.81475 40.1064C2.44317 39.2127 2.04681 38.0949 1.63188 36.759C1.21694 35.4232 0.839162 33.8171 0.504736 31.9438C0.167213 30.0675 0 28.1942 0 26.3179C0 22.8938 0.523315 19.7614 1.56994 16.9208C2.61657 14.0802 3.92022 11.5928 5.48087 9.46154C7.04153 7.33031 8.60218 5.53689 10.1659 4.08127C11.7266 2.62565 13.2965 1.27751 14.8727 0.042993L16.3776 1.47098Z" fill="#E8FD86"/>
<path d="M36.3626 0L28.7328 24.5275C28.4169 25.6208 28.259 26.3332 28.259 26.6588C28.259 27.1562 28.4943 27.405 28.9681 27.405C29.4109 27.405 29.9126 27.1378 30.473 26.6065C31.0335 26.0753 31.5537 25.3659 32.043 24.4876H34.1053C33.8606 25.0834 33.4178 25.8235 32.7738 26.7048C32.1297 27.5862 31.3184 28.36 30.3461 29.0264C29.3707 29.6928 28.2683 30.0276 27.0359 30.0276C24.5586 30.0276 23.32 28.7071 23.32 26.063C23.32 25.9647 23.3231 25.8726 23.3293 25.7866C23.3355 25.7006 23.3417 25.6024 23.3417 25.4887C22.7967 26.2135 22.1155 26.9259 21.3011 27.6292C20.4867 28.3324 19.5794 28.9067 18.5823 29.355C17.5852 29.8034 16.5727 30.0276 15.5415 30.0276C14.0087 30.0276 12.8351 29.5393 12.0177 28.5689C11.2002 27.5985 10.7914 26.3639 10.7914 24.8715C10.7914 23.2654 11.1104 21.6623 11.7483 20.0562C12.3862 18.4502 13.2563 16.9915 14.3586 15.6771C15.461 14.3627 16.743 13.3125 18.2045 12.5233C19.6661 11.734 21.1834 11.3409 22.7596 11.3409C23.9641 11.3409 24.8652 11.5528 25.4659 11.9797C26.0667 12.4066 26.59 12.9378 27.0359 13.5766L29.5719 5.26665C29.8723 4.47128 30.024 3.93693 30.024 3.66669C30.024 3.28283 29.9033 3.00644 29.6586 2.83447C29.414 2.6625 29.1044 2.56116 28.7235 2.52431C28.3426 2.49053 27.7821 2.4721 27.0359 2.4721L27.553 0.512846C29.0146 0.485207 30.1603 0.457569 30.9901 0.426859C31.82 0.399221 32.4982 0.356228 33.0215 0.29788C33.5448 0.242604 34.1579 0.141263 34.8577 0H36.3626ZM25.8747 16.1746C25.8747 15.2502 25.63 14.4917 25.1439 13.8929C24.6577 13.2971 24.0198 12.9993 23.2302 12.9993C21.9854 12.9993 20.7902 13.6196 19.6537 14.8633C18.5142 16.107 17.6007 17.5934 16.9133 19.3284C16.2259 21.0604 15.8821 22.6021 15.8821 23.9533C15.8821 24.9053 16.1175 25.5931 16.5912 26.02C17.065 26.4469 17.6224 26.6588 18.2665 26.6588C19.2264 26.6588 20.1677 26.3148 21.0936 25.6238C22.0164 24.936 22.8524 24.03 23.5956 22.9061C24.2985 21.8251 24.8528 20.6858 25.2616 19.4851C25.6703 18.2843 25.8747 17.1788 25.8747 16.1715V16.1746Z" fill="#E8FD86"/>
<path d="M55.1215 14.8756C55.1215 15.4591 54.9419 16.1285 54.5858 16.8901C54.2266 17.6517 53.5732 18.4563 52.6195 19.31C51.6657 20.1637 50.3063 20.9161 48.5351 21.5702C46.767 22.2243 44.5406 22.6727 41.8621 22.9122L41.345 22.9552C41.2304 23.5233 41.1747 24.0485 41.1747 24.5337C41.1747 25.5839 41.4286 26.3424 41.9364 26.8031C42.4442 27.2637 43.1874 27.4971 44.1597 27.4971C46.3087 27.4971 48.3648 26.3455 50.328 24.0454H52.6071C51.7184 25.3966 50.3714 26.7294 48.5661 28.053C46.7608 29.3735 44.618 30.0337 42.1408 30.0337C40.4222 30.0337 38.9482 29.5761 37.7251 28.6579C36.4989 27.7428 35.8889 26.3947 35.8889 24.6197C35.8889 22.4454 36.4989 20.3326 37.7158 18.2782C38.9328 16.2237 40.5956 14.5562 42.7013 13.2695C44.8069 11.9828 47.0983 11.3409 49.5787 11.3409C51.5697 11.3409 52.991 11.6757 53.8426 12.3421C54.6941 13.0085 55.1215 13.856 55.1215 14.8787V14.8756ZM50.5881 14.7896C50.5881 14.3198 50.424 13.8898 50.0927 13.4998C49.7645 13.1098 49.3124 12.9133 48.7395 12.9133C47.7362 12.9133 46.8166 13.2572 45.9774 13.9482C45.1382 14.6361 44.4322 15.4499 43.8625 16.3896C43.2896 17.3262 42.8189 18.2782 42.4535 19.2455C42.0881 20.2129 41.8621 20.8086 41.7754 21.0359C44.683 20.5537 46.8785 19.7369 48.3617 18.5853C49.845 17.4337 50.585 16.1715 50.585 14.7927L50.5881 14.7896Z" fill="#E8FD86"/>
<path d="M75.2768 14.9616C75.2768 15.5451 75.0786 16.0548 74.6854 16.497C74.2921 16.9362 73.7564 17.1573 73.0845 17.1573C72.5674 17.1573 72.1648 17.059 71.8706 16.8594C71.5765 16.6598 71.3473 16.3834 71.1832 16.0272C71.0191 15.671 70.8147 15.1458 70.5701 14.4487C70.4277 13.9666 70.2016 13.5889 69.8919 13.3186C69.5823 13.0484 69.0156 12.9133 68.1827 12.9133C67.4364 12.9133 66.7675 13.1037 66.173 13.4875C65.5785 13.8714 65.2812 14.375 65.2812 15.0015C65.2812 15.4284 65.402 15.8337 65.6466 16.2176C65.8912 16.6015 66.1885 16.9638 66.5384 17.3047C66.8883 17.6456 67.4364 18.1277 68.1827 18.7542C69.5854 19.8904 70.6072 20.8486 71.2451 21.6316C71.883 22.4117 72.202 23.379 72.202 24.5306C72.202 25.4672 71.9295 26.3578 71.3845 27.1931C70.8395 28.0315 69.9384 28.7132 68.6781 29.2383C67.4178 29.7635 65.8045 30.0276 63.8444 30.0276C61.0204 30.0276 59.0386 29.5116 57.8929 28.4829C56.7471 27.4541 56.1743 26.4561 56.1743 25.4887C56.1743 24.85 56.3972 24.288 56.84 23.8059C57.2828 23.3237 57.8712 23.0811 58.602 23.0811C60.0635 23.0811 60.8996 24.0116 61.1164 25.8726C61.2154 26.668 61.4415 27.2975 61.7945 27.7581C62.1444 28.2188 62.8721 28.4522 63.9745 28.4522C64.9344 28.4522 65.7209 28.2096 66.3371 27.7274C66.9533 27.2453 67.2599 26.628 67.2599 25.8726C67.2599 25.4764 67.1546 25.0834 66.9471 24.6995C66.7397 24.3156 66.3062 23.8458 65.6466 23.293C64.4854 22.3257 63.5286 21.475 62.7792 20.7349C62.0267 19.9948 61.457 19.2854 61.0699 18.6037C60.6828 17.922 60.4909 17.2034 60.4909 16.451C60.4909 15.7846 60.7138 15.0598 61.1566 14.2768C61.5994 13.4967 62.4386 12.8089 63.671 12.2192C64.9034 11.6296 66.5725 11.3348 68.6781 11.3348C69.9663 11.3348 71.0562 11.4515 71.945 11.688C72.8337 11.9244 73.518 12.2192 73.998 12.5816C74.4779 12.944 74.8092 13.3278 74.9981 13.7332C75.1839 14.1386 75.2768 14.547 75.2768 14.9585V14.9616Z" fill="#E8FD86"/>
<path d="M98.6557 24.2941C98.2407 25.1325 97.7763 25.9002 97.2591 26.5943C96.742 27.2914 96.1692 27.9025 95.5406 28.4276C94.9089 28.9527 94.2772 29.352 93.6393 29.6222C93.0014 29.8924 92.3387 30.0276 91.6513 30.0276C90.1464 30.0276 89.1834 29.5761 88.7623 28.6733C88.338 27.7704 88.1275 26.6956 88.1275 25.4457C86.9817 26.7969 85.8484 27.8963 84.7337 28.7501C83.6189 29.6038 82.34 30.0276 80.9094 30.0276C80.0641 30.0276 79.3612 29.7972 78.8038 29.3335C78.2464 28.8729 77.8346 28.2495 77.5683 27.4695C77.302 26.6895 77.1719 25.8511 77.1719 24.9544C77.1719 23.0351 77.6674 21.0113 78.6552 18.8801C79.6429 16.7489 80.9868 14.9585 82.6837 13.509C84.3806 12.0595 86.2107 11.3348 88.1739 11.3348C89.0781 11.3348 89.7872 11.5129 90.3012 11.8661C90.8183 12.2223 91.1714 12.6185 91.3664 13.0607C91.5584 13.4998 91.7287 13.9912 91.8712 14.5316L92.667 11.8691H97.4171L93.4194 24.8684C93.1315 25.805 92.989 26.3732 92.989 26.5728C92.989 26.757 93.0509 26.9136 93.1717 27.0426C93.2925 27.1716 93.4318 27.233 93.5898 27.233C94.5218 27.233 95.5158 26.2534 96.5779 24.2911H98.6619L98.6557 24.2941ZM90.6418 15.7907C90.6418 15.0936 90.5087 14.4979 90.2455 14.0004C89.9792 13.5029 89.4961 13.2541 88.7963 13.2541C87.7218 13.2541 86.6814 13.8683 85.6688 15.0967C84.6593 16.3251 83.8418 17.8114 83.2194 19.5495C82.597 21.2908 82.2843 22.7556 82.2843 23.9502C82.2843 25.6699 82.8293 26.5298 83.9162 26.5298C84.6748 26.5298 85.452 26.1858 86.2479 25.4949C87.0437 24.807 87.7776 23.8857 88.4495 22.7341C89.1524 21.5395 89.6912 20.3326 90.0721 19.1104C90.453 17.8882 90.6418 16.7796 90.6418 15.7846V15.7907Z" fill="#E8FD86"/>
<path d="M119.285 14.1294C119.285 15.023 119.034 15.8153 118.532 16.5063C118.031 17.1941 117.399 17.5412 116.64 17.5412C115.996 17.5412 115.365 17.1634 114.748 16.4111C114.405 15.9719 114.067 15.7508 113.739 15.7508C113.352 15.7508 112.822 16.1101 112.147 16.8256C111.475 17.5442 110.782 18.4993 110.073 19.6908C109.364 20.8854 108.664 22.252 107.976 23.7936C107.289 25.3352 106.694 26.9167 106.193 28.5351L105.936 29.4103H100.885L104.26 17.4552C104.62 16.3036 104.796 15.5021 104.796 15.0476C104.796 14.8756 104.747 14.7098 104.644 14.547C104.545 14.3842 104.387 14.3013 104.171 14.3013C103.613 14.3013 103.047 14.6883 102.474 15.4621C101.901 16.236 101.47 16.9423 101.186 17.5811H99.21C100.04 15.932 100.888 14.6576 101.755 13.7547C102.622 12.8518 103.458 12.2254 104.27 11.8691C105.078 11.5129 105.815 11.3379 106.471 11.3379C107.617 11.3379 108.357 11.6941 108.695 12.4035C109.032 13.1129 109.199 13.81 109.199 14.4917C109.199 15.7262 108.797 17.6732 107.995 20.3296C108.812 18.9384 109.481 17.8237 110.004 16.9823C110.528 16.1439 111.15 15.2779 111.875 14.3812C112.599 13.4875 113.364 12.7536 114.172 12.1855C114.981 11.6173 115.773 11.3317 116.547 11.3317C117.65 11.3317 118.381 11.6419 118.74 12.2592C119.099 12.8764 119.276 13.4998 119.276 14.1232L119.285 14.1294Z" fill="#E8FD86"/>
<path d="M139.787 18.8402C139.787 20.262 139.505 21.647 138.939 22.9951C138.372 24.3463 137.551 25.5532 136.477 26.6188C135.402 27.6844 134.148 28.5197 132.718 29.1216C131.287 29.7235 129.711 30.0276 127.989 30.0276C126.268 30.0276 124.837 29.7051 123.564 29.0572C122.288 28.4123 121.301 27.5002 120.598 26.3302C119.895 25.1571 119.545 23.8274 119.545 22.3349C119.545 20.4309 120.074 18.6283 121.137 16.9208C122.196 15.2165 123.639 13.8591 125.466 12.8518C127.292 11.8446 129.265 11.3379 131.386 11.3379C133.148 11.3379 134.665 11.6818 135.941 12.3728C137.217 13.0607 138.177 13.9819 138.821 15.1335C139.465 16.2851 139.787 17.5197 139.787 18.8402ZM134.693 17.3692C134.693 16.0487 134.411 15.0107 133.845 14.2583C133.278 13.506 132.445 13.1282 131.343 13.1282C130.24 13.1282 129.308 13.5275 128.463 14.3228C127.618 15.1182 126.915 16.1162 126.357 17.317C125.8 18.5177 125.376 19.7246 125.091 20.9407C124.803 22.1568 124.66 23.204 124.66 24.0853C124.66 25.3075 124.939 26.3056 125.5 27.0795C126.057 27.8533 126.847 28.2403 127.862 28.2403C128.992 28.2403 129.996 27.8503 130.869 27.0672C131.742 26.2872 132.464 25.2953 133.027 24.0945C133.594 22.8938 134.012 21.6746 134.284 20.4401C134.557 19.2056 134.693 18.1799 134.693 17.3723V17.3692Z" fill="#E8FD86"/>
<path d="M156.245 0L148.724 24.4446C148.337 25.6515 148.145 26.4039 148.145 26.7048C148.145 26.9474 148.2 27.1378 148.318 27.2791C148.433 27.4203 148.584 27.491 148.77 27.491C149.142 27.491 149.659 27.1562 150.318 26.4899C150.978 25.8235 151.501 25.0619 151.888 24.2082H153.907C153.204 25.5287 152.266 26.8307 151.092 28.1082C149.919 29.3857 148.448 30.0276 146.686 30.0276C145.612 30.0276 144.748 29.7328 144.097 29.1431C143.444 28.5535 143.119 27.8411 143.119 27.0027C143.119 26.3486 143.342 25.2768 143.785 23.7844L149.284 6.00981C149.643 4.84593 149.823 4.07205 149.823 3.68819C149.823 3.1907 149.619 2.86518 149.21 2.70856C148.801 2.55194 148.039 2.47517 146.921 2.47517L147.439 0.515916H149.739C150.727 0.515916 151.631 0.482136 152.446 0.408434C153.263 0.337802 154.043 0.202681 154.787 0.00307093H156.248L156.245 0Z" fill="#E8FD86"/>
<path d="M170.018 0L162.497 24.4446C162.11 25.6515 161.918 26.4039 161.918 26.7048C161.918 26.9474 161.974 27.1378 162.091 27.2791C162.206 27.4203 162.358 27.491 162.543 27.491C162.915 27.491 163.432 27.1562 164.092 26.4899C164.751 25.8235 165.275 25.0619 165.662 24.2082H167.681C166.978 25.5287 166.039 26.8307 164.866 28.1082C163.692 29.3857 162.221 30.0276 160.459 30.0276C159.385 30.0276 158.521 29.7328 157.871 29.1431C157.217 28.5535 156.892 27.8411 156.892 27.0027C156.892 26.3486 157.115 25.2768 157.558 23.7844L163.057 6.00981C163.417 4.84593 163.596 4.07205 163.596 3.68819C163.596 3.1907 163.392 2.86518 162.983 2.70856C162.574 2.55194 161.813 2.47517 160.695 2.47517L161.212 0.515916H163.513C164.5 0.515916 165.405 0.482136 166.219 0.408434C167.037 0.337802 167.817 0.202681 168.56 0.00307093H170.022L170.018 0Z" fill="#E8FD86"/>
<path d="M190.691 18.8402C190.691 20.262 190.409 21.647 189.843 22.9951C189.276 24.3463 188.455 25.5532 187.381 26.6188C186.306 27.6844 185.052 28.5197 183.622 29.1216C182.191 29.7235 180.615 30.0276 178.893 30.0276C177.171 30.0276 175.741 29.7051 174.468 29.0572C173.192 28.4123 172.205 27.5002 171.502 26.3302C170.799 25.1571 170.449 23.8274 170.449 22.3349C170.449 20.4309 170.978 18.6283 172.041 16.9208C173.1 15.2165 174.543 13.8591 176.369 12.8518C178.196 11.8446 180.169 11.3379 182.29 11.3379C184.052 11.3379 185.569 11.6818 186.845 12.3728C188.121 13.0607 189.081 13.9819 189.725 15.1335C190.369 16.2851 190.691 17.5197 190.691 18.8402ZM185.6 17.3692C185.6 16.0487 185.318 15.0107 184.752 14.2583C184.185 13.506 183.352 13.1282 182.25 13.1282C181.147 13.1282 180.215 13.5275 179.37 14.3228C178.525 15.1182 177.822 16.1162 177.264 17.317C176.707 18.5177 176.283 19.7246 175.998 20.9407C175.71 22.1568 175.567 23.204 175.567 24.0853C175.567 25.3075 175.846 26.3056 176.407 27.0795C176.964 27.8533 177.754 28.2403 178.769 28.2403C179.9 28.2403 180.903 27.8503 181.776 27.0672C182.649 26.2872 183.371 25.2953 183.934 24.0945C184.501 22.8938 184.919 21.6746 185.192 20.4401C185.464 19.2056 185.6 18.1799 185.6 17.3723V17.3692Z" fill="#E8FD86"/>
<path d="M203.241 13.7885C203.241 17.1849 202.721 20.3142 201.684 23.1763C200.646 26.0384 199.343 28.5382 197.773 30.6786C196.203 32.816 194.67 34.5787 193.174 35.9637C191.679 37.3487 190.069 38.7152 188.35 40.0664L186.867 38.617C188.313 37.3087 189.511 36.1387 190.456 35.1007C191.4 34.0628 192.372 32.6594 193.366 30.8905C194.363 29.1216 195.333 26.9229 196.277 24.2941C197.336 21.3952 198.16 18.6313 198.748 16.0057C199.337 13.377 199.631 10.779 199.631 8.20553C199.631 7.16755 199.541 5.97296 199.361 4.61561C199.182 3.25826 198.884 1.98382 198.469 0.789229L200.405 0C200.618 0.469852 200.885 1.16081 201.201 2.07902C201.516 2.99416 201.823 4.04749 202.123 5.23287C202.424 6.41825 202.684 7.75717 202.907 9.24965C203.13 10.7421 203.241 12.253 203.241 13.7885Z" fill="#E8FD86"/>
</svg>
