<svg width="243" height="41" viewBox="0 0 243 41" fill="none" xmlns="http://www.w3.org/2000/svg">
<path d="M16.5439 1.47098C14.9533 2.93581 13.7217 4.14883 12.849 5.11617C11.9763 6.08351 11.0386 7.45315 10.036 9.22815C9.03333 11.0031 8.06782 13.1927 7.13634 15.7907C6.46482 17.6364 5.87994 19.439 5.3848 21.1925C4.88966 22.946 4.49975 24.7087 4.21504 26.4776C3.92724 28.2464 3.78489 30.0552 3.78489 31.9008C3.78489 34.6155 4.16243 37.0876 4.92371 39.3171L2.98958 40.1064C2.61823 39.2127 2.22522 38.0949 1.80744 36.759C1.39277 35.4232 1.01523 33.8171 0.68101 31.9438C0.343698 30.0675 0.17659 28.1942 0.17659 26.3179C0.17659 22.8938 0.699577 19.7614 1.74555 16.9208C2.79153 14.0802 4.09435 11.5928 5.65403 9.46154C7.21371 7.33031 8.77339 5.53689 10.3362 4.08127C11.8958 2.62565 13.4648 1.27751 15.04 0.042993L16.5439 1.47098Z" fill="#E8FD86"/>
<path d="M22.8352 24.2941C22.2782 25.5287 21.4024 26.7939 20.2141 28.0867C19.0258 29.3796 17.5373 30.0276 15.7486 30.0276C14.5448 30.0276 13.6443 29.7328 13.0439 29.1431C12.4436 28.5535 12.1434 27.8533 12.1434 27.0457C12.1434 26.238 12.4095 25.0772 12.9387 23.6155L15.7084 16.0917C15.9807 15.4099 16.1169 14.9493 16.1169 14.7067C16.1169 14.5501 16.0519 14.4088 15.925 14.2798C15.795 14.1509 15.6527 14.0894 15.4949 14.0894C15.009 14.0894 14.4736 14.4672 13.8949 15.2195C13.3163 15.9719 12.883 16.6475 12.5952 17.2433H10.7044C11.5492 15.3669 12.6478 13.9144 14.0002 12.8856C15.3525 11.8569 16.7018 11.3409 18.0479 11.3409C18.9918 11.3409 19.7778 11.5713 20.3998 12.035C21.0218 12.4956 21.3344 13.1098 21.3344 13.8775C21.3344 14.6883 21.1765 15.5051 20.8609 16.3281L17.5094 25.2584C17.2804 25.8695 17.1659 26.367 17.1659 26.7509C17.1659 26.9229 17.234 27.0887 17.3702 27.2514C17.5063 27.4142 17.6518 27.4971 17.8096 27.4971C18.2398 27.4971 18.6823 27.2699 19.1403 26.8154C19.5983 26.3609 20.1708 25.5225 20.8578 24.3003H22.8322L22.8352 24.2941ZM24.4259 2.74848C24.4259 3.51622 24.1505 4.1734 23.5996 4.72002C23.0488 5.26665 22.3989 5.53996 21.6562 5.53996C20.8547 5.53996 20.1863 5.26665 19.6478 4.72002C19.1124 4.1734 18.8432 3.51622 18.8432 2.74848C18.8432 1.98075 19.1124 1.36656 19.6478 0.819939C20.1863 0.273313 20.8547 0 21.6562 0C22.173 0 22.6403 0.125908 23.0612 0.371583C23.482 0.620328 23.8162 0.945847 24.0607 1.35121C24.3052 1.75657 24.4259 2.22028 24.4259 2.74848Z" fill="#E8FD86"/>
<path d="M48.9073 23.8243C48.505 24.5767 47.951 25.4027 47.2424 26.2964C46.5337 27.19 45.6486 27.9823 44.5903 28.6733C43.5319 29.3612 42.3931 29.7082 41.1769 29.7082C40.1186 29.7082 39.28 29.4533 38.6641 28.9405C38.0483 28.4276 37.7419 27.7551 37.7419 26.9167C37.7419 26.2626 37.9214 25.3751 38.2804 24.2542L39.8494 19.1196C40.2919 17.7285 40.5147 16.7673 40.5147 16.2422C40.5147 15.9289 40.4188 15.6464 40.2238 15.3884C40.0319 15.1335 39.7627 15.0046 39.4192 15.0046C38.6456 15.0046 37.7017 15.6525 36.5846 16.9423C35.4674 18.2352 34.3317 19.9825 33.1805 22.1844C32.0293 24.3863 31.0297 26.7939 30.1849 29.4072H25.0726L28.9595 16.9178C29.303 15.6679 29.4763 14.9432 29.4763 14.7435C29.4763 14.5716 29.4329 14.3996 29.3463 14.2215C29.2596 14.0434 29.0956 13.9543 28.8512 13.9543C28.2941 13.9543 27.7588 14.3013 27.2512 14.9984C26.7437 15.6955 26.3105 16.454 25.9515 17.2801H24.1474C24.692 15.76 25.5275 14.3904 26.6602 13.1682C27.7897 11.9459 29.2287 11.3348 30.9771 11.3348C32.0943 11.3348 32.9267 11.6327 33.4776 12.2284C34.0284 12.8242 34.3038 13.4568 34.3038 14.1263C34.3038 14.4948 34.2265 15.0568 34.0686 15.8092C33.9108 16.5615 33.7313 17.2648 33.5302 17.9189L32.7782 20.1146C34.5545 17.3999 36.2225 15.2595 37.7822 13.6902C39.3418 12.121 41.0748 11.3348 42.978 11.3348C44.0797 11.3348 44.8812 11.6511 45.3825 12.2837C45.8838 12.9163 46.1345 13.6012 46.1345 14.3412C46.1345 14.7957 45.9612 15.6556 45.6177 16.9208L43.3617 24.3371C43.1049 25.2615 42.9749 25.9064 42.9749 26.2749C42.9749 26.4161 43.0213 26.5513 43.1142 26.6802C43.207 26.8092 43.3339 26.8706 43.4886 26.8706C43.8878 26.8706 44.4015 26.5912 45.0235 26.0292C45.6455 25.4672 46.2211 24.7333 46.7534 23.8243H48.9073Z" fill="#E8FD86"/>
<path d="M64.5628 11.9551L63.9625 13.9144H59.6888L56.4457 24.4415C56.2012 25.1939 56.0805 25.7405 56.0805 26.0814C56.0805 26.3793 56.1796 26.6526 56.3807 26.9014C56.5819 27.1501 56.8325 27.2729 57.1327 27.2729C57.962 27.2729 58.6924 26.8706 59.3237 26.0691C59.955 25.2676 60.5182 24.3955 61.0195 23.4588H63.0372C62.2357 25.2216 61.329 26.5943 60.3201 27.5831C59.3113 28.5719 58.3643 29.223 57.4855 29.5424C56.6035 29.8617 55.7989 30.0214 55.0686 30.0214C53.8369 30.0214 52.8776 29.6652 52.1906 28.9558C51.5036 28.2464 51.1601 27.3006 51.1601 26.1213C51.1601 25.3106 51.3736 24.2112 51.8038 22.817L54.5951 13.9082H50.5783L51.2003 11.949H55.1955L57.1698 5.44783H62.2821L60.3078 11.949H64.5597L64.5628 11.9551Z" fill="#E8FD86"/>
<path d="M84.1052 14.8756C84.1052 15.4591 83.9257 16.1285 83.5699 16.8901C83.2109 17.6517 82.5579 18.4563 81.6048 19.31C80.6517 20.1637 79.2931 20.9161 77.523 21.5702C75.756 22.2243 73.531 22.6727 70.8541 22.9122L70.3373 22.9552C70.2228 23.5233 70.1671 24.0485 70.1671 24.5337C70.1671 25.5839 70.4209 26.3424 70.9284 26.8031C71.4359 27.2637 72.1786 27.4971 73.1503 27.4971C75.298 27.4971 77.3528 26.3455 79.3148 24.0454H81.5924C80.7043 25.3966 79.3581 26.7294 77.554 28.053C75.7498 29.3735 73.6083 30.0337 71.1327 30.0337C69.4152 30.0337 67.9421 29.5761 66.7198 28.6579C65.4943 27.7428 64.8847 26.3947 64.8847 24.6197C64.8847 22.4454 65.4943 20.3326 66.7105 18.2782C67.9267 16.2237 69.5885 14.5562 71.6928 13.2695C73.7971 11.9828 76.0871 11.3409 78.5659 11.3409C80.5557 11.3409 81.9761 11.6757 82.8272 12.3421C83.6782 13.0085 84.1052 13.856 84.1052 14.8787V14.8756ZM79.5716 14.7896C79.5716 14.3198 79.4076 13.8898 79.0765 13.4998C78.7485 13.1098 78.2967 12.9133 77.7242 12.9133C76.7215 12.9133 75.8024 13.2572 74.9638 13.9482C74.1251 14.6361 73.4196 15.4499 72.8502 16.3896C72.2777 17.3262 71.8073 18.2782 71.4421 19.2455C71.077 20.2129 70.8511 20.8086 70.7644 21.0359C73.6702 20.5537 75.8643 19.7369 77.3466 18.5853C78.8289 17.4337 79.5685 16.1715 79.5685 14.7927L79.5716 14.7896Z" fill="#E8FD86"/>
<path d="M106.804 12.9993C106.804 13.4814 106.649 13.8192 106.343 14.0127C106.034 14.2031 105.736 14.3013 105.452 14.3013C105.08 14.3013 104.706 14.1723 104.335 13.9175C104.106 13.7455 103.892 13.6626 103.691 13.6626C103.332 13.6626 103.053 13.8622 102.852 14.2583C103.137 14.7128 103.363 15.1612 103.53 15.6003C103.694 16.0395 103.778 16.6015 103.778 17.2832C103.778 17.879 103.648 18.5515 103.391 19.2977C103.134 20.044 102.673 20.7718 102.004 21.4812C101.339 22.1905 100.374 22.7894 99.1048 23.2715C97.8391 23.7537 96.267 23.9963 94.3917 23.9963C92.5164 23.9963 91.4023 24.1529 90.7958 24.4661C90.1861 24.7793 89.8828 25.2338 89.8828 25.8296C89.8828 26.0998 89.9912 26.3302 90.2047 26.5236C90.4182 26.714 90.7462 26.8891 91.1826 27.0457C91.6189 27.2023 92.3988 27.4326 93.5221 27.7367C94.6454 28.0437 95.744 28.3508 96.8178 28.6641C100.683 29.7573 102.617 31.5323 102.617 33.9921C102.617 35.0578 102.252 36.0435 101.522 36.9556C100.791 37.8646 99.5689 38.617 97.8483 39.2158C96.1308 39.8116 93.8687 40.1094 91.0619 40.1094C89.9447 40.1094 88.6419 39.9989 87.1534 39.7778C85.6649 39.5567 84.3002 39.0837 83.0623 38.3621C81.8245 37.6404 81.2056 36.5871 81.2056 35.2082C81.2056 34.5265 81.3634 33.9154 81.6791 33.3749C81.9947 32.8344 82.3846 32.4168 82.8488 32.1189C83.313 31.821 83.7617 31.6705 84.1919 31.6705C84.4642 31.6705 84.6932 31.7197 84.8789 31.821C85.0646 31.9193 85.1574 32.0636 85.1574 32.2479C85.1574 32.4321 85.015 32.7085 84.7272 33.0801C84.2259 33.7188 83.9753 34.2869 83.9753 34.7844C83.9753 36.1479 84.7551 37.0661 86.3148 37.5329C87.8745 38.0028 89.4713 38.2362 91.1052 38.2362C93.1105 38.2362 94.7104 37.9659 95.9049 37.4254C97.0994 36.885 97.6967 36.1756 97.6967 35.2942C97.6967 34.8551 97.576 34.505 97.3316 34.2501C97.0871 33.9952 96.626 33.7342 95.9452 33.4731C95.2644 33.209 94.0172 32.7883 92.1976 32.2049C90.5668 31.692 89.3011 31.2314 88.4067 30.8199C87.5124 30.4084 86.8347 29.9201 86.3767 29.3612C85.9187 28.7992 85.6897 28.1082 85.6897 27.2822C85.6897 26.0876 86.2003 25.1171 87.2246 24.3617C88.2489 23.6093 89.4682 23.1272 90.8855 22.9122C89.7683 22.4731 88.939 21.8128 88.3943 20.9315C87.8497 20.0501 87.5774 19.1411 87.5774 18.2045C87.5774 17.0529 87.9394 15.9504 88.6605 14.8909C89.3846 13.8315 90.3965 12.9778 91.6994 12.3236C93.0022 11.6695 94.4845 11.344 96.1463 11.344C98.5787 11.344 100.414 11.9121 101.645 13.0484C102.162 12.5355 102.657 12.124 103.137 11.8139C103.617 11.5006 104.22 11.344 104.95 11.344C105.507 11.344 105.956 11.4914 106.294 11.7801C106.631 12.0718 106.798 12.4803 106.798 13.0054L106.804 12.9993ZM99.114 15.5358C99.114 15.0537 99.0212 14.6176 98.8355 14.2246C98.6498 13.8345 98.3651 13.5182 97.9876 13.2756C97.607 13.033 97.1737 12.9133 96.6879 12.9133C95.7997 12.9133 95.0199 13.3002 94.3484 14.0741C93.6768 14.848 93.1631 15.7723 92.8134 16.8441C92.4637 17.9158 92.2874 18.8586 92.2874 19.6693C92.2874 20.5353 92.4978 21.1741 92.9217 21.5886C93.3426 22.0002 93.912 22.2059 94.63 22.2059C96.0751 22.2059 97.1861 21.432 97.9598 19.8843C98.7334 18.3365 99.1202 16.8871 99.1202 15.5358H99.114Z" fill="#E8FD86"/>
<path d="M126.303 14.1294C126.303 15.023 126.053 15.8153 125.551 16.5063C125.05 17.1941 124.419 17.5412 123.66 17.5412C123.017 17.5412 122.385 17.1634 121.77 16.4111C121.426 15.9719 121.089 15.7508 120.761 15.7508C120.374 15.7508 119.845 16.1101 119.17 16.8256C118.499 17.5442 117.805 18.4993 117.097 19.6908C116.388 20.8854 115.689 22.252 115.002 23.7936C114.315 25.3352 113.721 26.9167 113.219 28.5351L112.962 29.4103H107.915L111.288 17.4552C111.647 16.3036 111.824 15.5021 111.824 15.0476C111.824 14.8756 111.774 14.7098 111.672 14.547C111.573 14.3842 111.415 14.3013 111.198 14.3013C110.641 14.3013 110.075 14.6883 109.503 15.4621C108.93 16.236 108.5 16.9423 108.215 17.5811H106.241C107.07 15.932 107.918 14.6576 108.785 13.7547C109.651 12.8518 110.487 12.2254 111.297 11.8691C112.105 11.5129 112.842 11.3379 113.498 11.3379C114.643 11.3379 115.382 11.6941 115.72 12.4035C116.057 13.1129 116.224 13.81 116.224 14.4917C116.224 15.7262 115.822 17.6732 115.02 20.3296C115.837 18.9384 116.506 17.8237 117.029 16.9823C117.552 16.1439 118.174 15.2779 118.898 14.3812C119.622 13.4875 120.386 12.7536 121.194 12.1855C122.002 11.6173 122.794 11.3317 123.568 11.3317C124.669 11.3317 125.4 11.6419 125.759 12.2592C126.118 12.8764 126.294 13.4998 126.294 14.1232L126.303 14.1294Z" fill="#E8FD86"/>
<path d="M148.293 24.2941C147.879 25.1325 147.415 25.9002 146.898 26.5943C146.381 27.2914 145.808 27.9025 145.18 28.4276C144.549 28.9527 143.918 29.352 143.28 29.6222C142.643 29.8924 141.98 30.0276 141.293 30.0276C139.789 30.0276 138.827 29.5761 138.406 28.6733C137.982 27.7704 137.772 26.6956 137.772 25.4457C136.627 26.7969 135.494 27.8963 134.38 28.7501C133.266 29.6038 131.988 30.0276 130.558 30.0276C129.713 30.0276 129.011 29.7972 128.454 29.3335C127.897 28.8729 127.485 28.2495 127.219 27.4695C126.953 26.6895 126.823 25.8511 126.823 24.9544C126.823 23.0351 127.318 21.0113 128.305 18.8801C129.293 16.7489 130.636 14.9585 132.331 13.509C134.027 12.0595 135.856 11.3348 137.818 11.3348C138.722 11.3348 139.43 11.5129 139.944 11.8661C140.461 12.2223 140.814 12.6185 141.009 13.0607C141.201 13.4998 141.371 13.9912 141.513 14.5316L142.308 11.8691H147.056L143.06 24.8684C142.773 25.805 142.63 26.3732 142.63 26.5728C142.63 26.757 142.692 26.9136 142.813 27.0426C142.934 27.1716 143.073 27.233 143.231 27.233C144.162 27.233 145.155 26.2534 146.217 24.2911H148.3L148.293 24.2941ZM140.281 15.7907C140.281 15.0936 140.148 14.4979 139.885 14.0004C139.619 13.5029 139.136 13.2541 138.437 13.2541C137.363 13.2541 136.324 13.8683 135.312 15.0967C134.303 16.3251 133.486 17.8114 132.864 19.5495C132.242 21.2908 131.929 22.7556 131.929 23.9502C131.929 25.6699 132.474 26.5298 133.56 26.5298C134.318 26.5298 135.095 26.1858 135.89 25.4949C136.686 24.807 137.419 23.8857 138.091 22.7341C138.793 21.5395 139.331 20.3326 139.712 19.1104C140.093 17.8882 140.281 16.7796 140.281 15.7846V15.7907Z" fill="#E8FD86"/>
<path d="M168.588 15.7907C168.588 16.6567 168.334 17.3815 167.827 17.9649C167.319 18.5484 166.647 18.8402 165.818 18.8402C165.202 18.8402 164.704 18.6682 164.327 18.3273C163.946 17.9864 163.757 17.5473 163.757 17.0068C163.757 16.6936 163.813 16.3189 163.927 15.8767C164.057 15.4928 164.119 15.1458 164.119 14.8326C164.119 14.1662 163.893 13.7148 163.441 13.4783C162.99 13.2449 162.55 13.1252 162.12 13.1252C160.861 13.1252 159.685 13.8038 158.598 15.1612C157.509 16.5185 156.649 18.1154 156.011 19.9549C155.374 21.7944 155.055 23.3053 155.055 24.4845C155.055 25.7774 155.368 26.6004 155.99 26.9566C156.612 27.3129 157.252 27.4879 157.911 27.4879C159.199 27.4879 160.375 27.144 161.433 26.453C162.491 25.7651 163.389 24.9728 164.116 24.0761H166.434C165.416 25.5962 163.992 26.9689 162.16 28.1881C160.328 29.4103 158.28 30.0214 156.018 30.0214C154.028 30.0214 152.49 29.5301 151.4 28.5504C150.311 27.5708 149.77 26.2411 149.77 24.5644C149.77 22.5898 150.342 20.563 151.487 18.4809C152.632 16.3988 154.223 14.6883 156.256 13.3463C158.289 12.0043 160.536 11.3317 162.999 11.3317C163.899 11.3317 164.692 11.4515 165.372 11.6941C166.053 11.9367 166.635 12.2653 167.124 12.686C167.61 13.1067 167.975 13.5858 168.22 14.1232C168.464 14.6637 168.585 15.2165 168.585 15.7846L168.588 15.7907Z" fill="#E8FD86"/>
<path d="M181.836 24.2941C181.279 25.5287 180.403 26.7939 179.215 28.0867C178.026 29.3796 176.538 30.0276 174.749 30.0276C173.545 30.0276 172.645 29.7328 172.044 29.1431C171.444 28.5535 171.144 27.8533 171.144 27.0457C171.144 26.238 171.41 25.0772 171.939 23.6155L174.709 16.0917C174.981 15.4099 175.117 14.9493 175.117 14.7067C175.117 14.5501 175.052 14.4088 174.926 14.2798C174.796 14.1509 174.653 14.0894 174.495 14.0894C174.01 14.0894 173.474 14.4672 172.895 15.2195C172.317 15.9719 171.884 16.6475 171.596 17.2433H169.705C170.55 15.3669 171.648 13.9144 173.001 12.8856C174.353 11.8569 175.702 11.3409 177.048 11.3409C177.992 11.3409 178.778 11.5713 179.4 12.035C180.022 12.4956 180.335 13.1098 180.335 13.8775C180.335 14.6883 180.177 15.5051 179.861 16.3281L176.51 25.2584C176.281 25.8695 176.166 26.367 176.166 26.7509C176.166 26.9229 176.235 27.0887 176.371 27.2514C176.507 27.4142 176.652 27.4971 176.81 27.4971C177.24 27.4971 177.683 27.2699 178.141 26.8154C178.599 26.3609 179.171 25.5225 179.858 24.3003H181.833L181.836 24.2941ZM183.426 2.74848C183.426 3.51622 183.151 4.1734 182.6 4.72002C182.049 5.26665 181.399 5.53996 180.657 5.53996C179.855 5.53996 179.187 5.26665 178.648 4.72002C178.113 4.1734 177.844 3.51622 177.844 2.74848C177.844 1.98075 178.113 1.36656 178.648 0.819939C179.187 0.273313 179.855 0 180.657 0C181.174 0 181.641 0.125908 182.062 0.371583C182.483 0.620328 182.817 0.945847 183.061 1.35121C183.306 1.75657 183.426 2.22028 183.426 2.74848Z" fill="#E8FD86"/>
<path d="M204.256 18.8402C204.256 20.262 203.975 21.647 203.408 22.9951C202.842 24.3463 202.022 25.5532 200.948 26.6188C199.874 27.6844 198.621 28.5197 197.191 29.1216C195.761 29.7235 194.186 30.0276 192.466 30.0276C190.745 30.0276 189.315 29.7051 188.044 29.0571C186.769 28.4123 185.781 27.5002 185.079 26.3302C184.376 25.1571 184.027 23.8274 184.027 22.3349C184.027 20.4309 184.556 18.6283 185.617 16.9208C186.676 15.2165 188.118 13.8591 189.944 12.8518C191.769 11.8446 193.741 11.3379 195.861 11.3379C197.621 11.3379 199.138 11.6818 200.413 12.3728C201.688 13.0607 202.647 13.9819 203.291 15.1335C203.934 16.2851 204.256 17.5197 204.256 18.8402ZM199.169 17.3692C199.169 16.0487 198.887 15.0107 198.321 14.2583C197.754 13.506 196.922 13.1282 195.82 13.1282C194.719 13.1282 193.787 13.5275 192.942 14.3228C192.097 15.1182 191.395 16.1162 190.838 17.317C190.281 18.5177 189.857 19.7246 189.572 20.9407C189.284 22.1568 189.142 23.204 189.142 24.0853C189.142 25.3075 189.421 26.3056 189.981 27.0795C190.538 27.8533 191.327 28.2403 192.342 28.2403C193.471 28.2403 194.474 27.8503 195.347 27.0672C196.219 26.2872 196.941 25.2953 197.504 24.0945C198.07 22.8938 198.488 21.6746 198.76 20.4401C199.032 19.2056 199.169 18.1799 199.169 17.3723V17.3692ZM202.734 1.342L196.399 8.62932H194.852L197.108 1.342H202.734Z" fill="#E8FD86"/>
<path d="M231.25 23.8243C230.848 24.5767 230.294 25.4027 229.585 26.2964C228.877 27.19 227.992 27.9823 226.933 28.6733C225.875 29.3612 224.736 29.7082 223.52 29.7082C222.462 29.7082 221.623 29.4533 221.007 28.9405C220.391 28.4276 220.085 27.7551 220.085 26.9167C220.085 26.2626 220.265 25.3751 220.623 24.2542L222.192 19.1196C222.635 17.7285 222.858 16.7673 222.858 16.2422C222.858 15.9289 222.762 15.6464 222.567 15.3884C222.375 15.1335 222.106 15.0046 221.762 15.0046C220.989 15.0046 220.045 15.6525 218.928 16.9423C217.81 18.2352 216.675 19.9825 215.524 22.1844C214.372 24.3863 213.373 26.7939 212.528 29.4072H207.416L211.303 16.9178C211.646 15.6679 211.819 14.9432 211.819 14.7435C211.819 14.5716 211.776 14.3996 211.689 14.2215C211.603 14.0434 211.439 13.9543 211.194 13.9543C210.637 13.9543 210.102 14.3013 209.594 14.9984C209.087 15.6955 208.654 16.454 208.295 17.2801H206.49C207.035 15.76 207.871 14.3904 209.003 13.1682C210.133 11.9459 211.572 11.3348 213.32 11.3348C214.437 11.3348 215.27 11.6327 215.821 12.2284C216.372 12.8242 216.647 13.4568 216.647 14.1263C216.647 14.4948 216.57 15.0568 216.412 15.8092C216.254 16.5615 216.074 17.2648 215.873 17.9189L215.121 20.1146C216.898 17.3999 218.566 15.2595 220.125 13.6902C221.685 12.121 223.418 11.3348 225.321 11.3348C226.423 11.3348 227.224 11.6511 227.726 12.2837C228.227 12.9163 228.478 13.6012 228.478 14.3412C228.478 14.7957 228.304 15.6556 227.961 16.9208L225.705 24.3371C225.448 25.2615 225.318 25.9064 225.318 26.2749C225.318 26.4161 225.364 26.5513 225.457 26.6802C225.55 26.8092 225.677 26.8706 225.832 26.8706C226.231 26.8706 226.745 26.5912 227.367 26.0292C227.989 25.4672 228.564 24.7333 229.096 23.8243H231.25Z" fill="#E8FD86"/>
<path d="M242.44 13.7885C242.44 17.1849 241.921 20.3142 240.884 23.1763C239.847 26.0384 238.544 28.5382 236.975 30.6786C235.406 32.816 233.875 34.5787 232.38 35.9637C230.885 37.3487 229.276 38.7152 227.558 40.0664L226.076 38.617C227.521 37.3087 228.719 36.1387 229.663 35.1007C230.607 34.0628 231.578 32.6594 232.572 30.8905C233.568 29.1216 234.537 26.9229 235.481 24.2941C236.539 21.3952 237.362 18.6313 237.95 16.0057C238.538 13.377 238.832 10.779 238.832 8.20553C238.832 7.16755 238.742 5.97296 238.563 4.61561C238.383 3.25826 238.086 1.98382 237.672 0.789229L239.606 0C239.819 0.469852 240.085 1.16081 240.401 2.07902C240.717 2.99416 241.023 4.04749 241.323 5.23287C241.623 6.41825 241.883 7.75717 242.106 9.24965C242.329 10.7421 242.44 12.253 242.44 13.7885Z" fill="#E8FD86"/>
</svg>
