<svg width="146" height="34" viewBox="0 0 146 34" fill="none" xmlns="http://www.w3.org/2000/svg">
<path d="M0 33.7987V0.451426H3.87139L4.63634 3.96457C5.5661 2.72084 6.70108 1.75043 8.03508 1.05333C9.36908 0.356227 10.8337 0.00921202 12.4258 0.00921202C13.8966 0.00921202 15.2834 0.319376 16.5895 0.942775C17.8955 1.56617 19.0429 2.40454 20.0348 3.4548C21.0268 4.50813 21.8042 5.74571 22.3763 7.16755C22.9454 8.58939 23.2315 10.1034 23.2315 11.7033C23.2315 13.3033 22.9547 14.7497 22.3981 16.1285C21.8415 17.5074 21.0765 18.7143 20.1032 19.7522C19.1268 20.7902 17.9888 21.6132 16.6827 22.2213C15.3767 22.8293 13.9588 23.1333 12.4289 23.1333C10.899 23.1333 9.42816 22.8139 8.1066 22.1783C6.78504 21.5426 5.65938 20.6305 4.72963 19.4451V33.8079H0.00311259L0 33.7987ZM4.72963 11.6112C4.72963 12.5908 4.90065 13.4998 5.24892 14.3443C5.59408 15.1888 6.07296 15.9228 6.68865 16.5462C7.30434 17.1696 8.02264 17.6579 8.84978 18.0141C9.67381 18.3703 10.5694 18.5484 11.5302 18.5484C12.4911 18.5484 13.3897 18.3703 14.2324 18.0141C15.072 17.6579 15.7996 17.1696 16.4153 16.5462C17.031 15.9228 17.5099 15.1888 17.855 14.3443C18.2002 13.4998 18.3743 12.5877 18.3743 11.6112C18.3743 10.6346 18.2002 9.71335 17.855 8.85349C17.5099 7.99363 17.0279 7.24433 16.4153 6.60864C15.7996 5.97296 15.0782 5.47547 14.2542 5.11924C13.427 4.76301 12.5222 4.5849 11.5302 4.5849C10.5383 4.5849 9.67692 4.76301 8.84978 5.11924C8.02264 5.47547 7.30434 5.97296 6.68865 6.60864C6.07296 7.2474 5.59408 7.99363 5.24892 8.85349C4.90376 9.71335 4.72963 10.6316 4.72963 11.6112Z" fill="#E8FD86"/>
<path d="M38.0018 4.67396C37.6722 4.64325 37.3706 4.62175 37.1001 4.6064C36.8295 4.59104 36.559 4.5849 36.2885 4.5849C35.5981 4.5849 34.8985 4.6586 34.1957 4.80601C33.4899 4.95341 32.8586 5.20523 32.3051 5.56146C31.7485 5.91768 31.2914 6.36911 30.9307 6.91881C30.57 7.4685 30.3896 8.14104 30.3896 8.94255V22.6819H25.6631V0.451427H29.5345L30.3896 3.47629V3.96457C30.7504 3.46094 31.1111 3.03101 31.4687 2.67478C32.3393 1.81492 33.3966 1.14853 34.6435 0.672533C35.8873 0.19961 37.2338 -0.024568 38.6735 0.00614132L37.9987 4.67396H38.0018Z" fill="#E8FD86"/>
<path d="M39.0373 7.3426C39.0373 6.24627 39.255 5.24515 39.6903 4.3423C40.1257 3.43944 40.732 2.66864 41.5125 2.02988C42.293 1.3942 43.2228 0.896711 44.3049 0.540483C45.3839 0.184255 46.5842 0.00614119 47.9057 0.00614119C50.8163 0.00614119 53.0832 0.850647 54.7032 2.53966C56.3233 4.22867 57.1349 6.58715 57.1349 9.60894V22.6819H53.534L52.7691 20.4155C51.8984 21.2447 50.8412 21.905 49.5942 22.3932C48.3473 22.8815 47.0351 23.1272 45.6544 23.1272C43.2539 23.1272 41.3322 22.556 39.8924 21.4167C38.4527 20.2774 37.7313 18.7112 37.7313 16.7243C37.7313 11.9828 42.2495 9.46154 51.2827 9.16673H52.4084V8.98862C52.4084 5.758 50.9065 4.14269 47.9057 4.14269C46.6464 4.14269 45.6389 4.44057 44.8895 5.03326C44.1401 5.62595 43.7638 6.39675 43.7638 7.34567H39.0373V7.3426ZM52.4084 12.4127L50.8318 12.4557C45.3404 12.5755 42.5915 14.0403 42.5915 16.8563C42.5915 17.836 42.9958 18.6559 43.8074 19.3254C44.619 19.9948 45.6669 20.3265 46.9604 20.3265C47.7098 20.3265 48.4157 20.2006 49.0749 19.9488C49.7342 19.697 50.3125 19.3653 50.807 18.9476C51.3014 18.5331 51.6932 18.0448 51.9762 17.4797C52.2622 16.9178 52.4053 16.3097 52.4053 15.6556V12.4096L52.4084 12.4127Z" fill="#E8FD86"/>
<path d="M79.1972 0.451427H83.0686V21.3491C83.0686 25.3198 81.9584 28.3877 79.7382 30.5527C77.518 32.7146 74.396 33.7987 70.3722 33.7987C68.5407 33.7987 66.8087 33.5622 65.1731 33.0862C63.5374 32.6102 61.9236 31.8548 60.3346 30.8199L62.362 27.1286C63.7116 28.0775 65.0331 28.7654 66.3236 29.1953C67.6141 29.6253 68.9045 29.8402 70.195 29.8402C71.4855 29.8402 72.5365 29.656 73.5253 29.2844C74.5173 28.9128 75.3724 28.3785 76.0907 27.6844C76.8121 26.9873 77.3656 26.1367 77.7574 25.1264C78.1461 24.1191 78.342 22.9767 78.342 21.7023V19.2117C77.4123 20.4555 76.2617 21.4197 74.8966 22.1015C73.5316 22.7832 72.0234 23.1241 70.3722 23.1241C68.8423 23.1241 67.4244 22.8262 66.1184 22.2335C64.8124 21.6408 63.6712 20.8332 62.6979 19.8106C61.7215 18.788 60.9565 17.5719 60.403 16.1654C59.8464 14.7589 59.5697 13.2541 59.5697 11.6511C59.5697 10.0481 59.8557 8.49419 60.4248 7.07235C60.9938 5.65051 61.7681 4.41907 62.7445 3.38109C63.7209 2.34312 64.8746 1.52011 66.2117 0.912066C67.5457 0.304022 68.9792 0 70.5122 0C72.1633 0 73.6621 0.340873 75.0148 1.02262C76.3643 1.70437 77.5056 2.66864 78.4353 3.91237L79.2003 0.445285L79.1972 0.451427ZM78.342 11.5221C78.342 10.5425 78.1617 9.63351 77.801 8.789C77.4403 7.9445 76.9521 7.21055 76.3364 6.58715C75.7207 5.96375 74.993 5.47547 74.1535 5.11924C73.3139 4.76301 72.3966 4.5849 71.4077 4.5849C70.4189 4.5849 69.4953 4.76301 68.6402 5.11924C67.7851 5.47547 67.0481 5.96375 66.4355 6.58715C65.8199 7.21055 65.3317 7.9445 64.971 8.789C64.6102 9.63351 64.4299 10.5456 64.4299 11.5221C64.4299 12.4987 64.6102 13.42 64.971 14.2798C65.3317 15.1397 65.8199 15.889 66.4355 16.5247C67.0512 17.1634 67.7851 17.6579 68.6402 18.0141C69.4953 18.3703 70.4189 18.5484 71.4077 18.5484C72.3966 18.5484 73.3139 18.3703 74.1535 18.0141C74.993 17.6579 75.7207 17.1696 76.3364 16.5462C76.9521 15.9228 77.4403 15.1827 77.801 14.3228C78.1617 13.463 78.342 12.5294 78.342 11.5221Z" fill="#E8FD86"/>
<path d="M119.31 22.6819V9.29878C119.31 7.66811 118.791 6.40289 117.756 5.49697C116.72 4.59411 115.33 4.13961 113.592 4.13961C111.76 4.13961 110.358 4.59104 109.382 5.49697C108.405 6.40289 107.917 7.59441 107.917 9.07767V22.685H103.19V9.30185C103.19 7.67119 102.671 6.40596 101.639 5.50004C100.603 4.59718 99.2009 4.14268 97.4285 4.14268C95.656 4.14268 94.1945 4.59411 93.2181 5.50004C92.2417 6.40596 91.7535 7.59748 91.7535 9.08074V22.688H87.027V0.451426H90.8984L91.7535 2.54273C92.534 1.68287 93.47 1.04719 94.5677 0.62954C95.6622 0.214965 96.962 0.00614119 98.4608 0.00614119C100.351 0.00614119 101.987 0.33166 103.368 0.985768C104.748 1.63681 105.827 2.58572 106.608 3.83252C107.388 2.61643 108.446 1.67673 109.783 1.01034C111.117 0.343944 112.703 0.00921219 114.534 0.00921219C115.946 0.00921219 117.236 0.218036 118.405 0.632611C119.575 1.04719 120.573 1.63373 121.4 2.38918C122.224 3.14463 122.871 4.0567 123.337 5.12231C123.804 6.18793 124.034 7.38866 124.034 8.72451V22.685H119.307L119.31 22.6819Z" fill="#E8FD86"/>
<path d="M127.594 7.3426C127.594 6.24627 127.812 5.24515 128.247 4.3423C128.683 3.43944 129.289 2.66864 130.069 2.02988C130.85 1.3942 131.78 0.896711 132.862 0.540483C133.941 0.184255 135.141 0.00614119 136.463 0.00614119C139.373 0.00614119 141.64 0.850647 143.26 2.53966C144.88 4.22867 145.692 6.58715 145.692 9.60894V22.6819H142.091L141.326 20.4155C140.455 21.2447 139.398 21.905 138.151 22.3932C136.904 22.8815 135.592 23.1272 134.211 23.1272C131.811 23.1272 129.889 22.556 128.449 21.4167C127.01 20.2774 126.288 18.7112 126.288 16.7243C126.288 11.9828 130.806 9.46154 139.84 9.16673H140.965V8.98862C140.965 5.758 139.463 4.14269 136.463 4.14269C135.203 4.14269 134.196 4.44057 133.446 5.03326C132.697 5.62595 132.321 6.39675 132.321 7.34567H127.594V7.3426ZM140.965 12.4127L139.389 12.4557C133.897 12.5755 131.148 14.0403 131.148 16.8563C131.148 17.836 131.553 18.6559 132.364 19.3254C133.176 19.9948 134.224 20.3265 135.517 20.3265C136.267 20.3265 136.973 20.2006 137.632 19.9488C138.291 19.697 138.869 19.3653 139.364 18.9476C139.858 18.5331 140.25 18.0448 140.533 17.4797C140.819 16.9178 140.962 16.3097 140.962 15.6556V12.4096L140.965 12.4127Z" fill="#E8FD86"/>
</svg>
