<svg width="62" height="41" viewBox="0 0 62 41" fill="none" xmlns="http://www.w3.org/2000/svg">
<path d="M16.623 1.47098C15.0247 2.93581 13.7871 4.14883 12.9102 5.11617C12.0333 6.08351 11.0911 7.45315 10.0836 9.22815C9.07611 11.0031 8.10593 13.1927 7.16996 15.7907C6.49519 17.6364 5.90748 19.439 5.40995 21.1925C4.91242 22.946 4.52062 24.7087 4.23454 26.4776C3.94535 28.2464 3.80231 30.0552 3.80231 31.9008C3.80231 34.6155 4.18168 37.0876 4.94663 39.3171L3.00316 40.1064C2.63001 39.2127 2.23199 38.0949 1.81531 36.759C1.39863 35.4232 1.01927 33.8171 0.683435 31.9438C0.344494 30.0675 0.176579 28.1942 0.176579 26.3179C0.176579 22.8938 0.702093 19.7614 1.75312 16.9208C2.80415 14.0802 4.11327 11.5928 5.68048 9.46154C7.2477 7.33031 8.81491 5.53689 10.3852 4.08127C11.9524 2.62565 13.529 1.27751 15.1117 0.042993L16.623 1.47098Z" fill="#E8FD86"/>
<path d="M29.6987 14.9616C29.6987 15.5451 29.4996 16.0548 29.1047 16.497C28.7098 16.9362 28.1719 17.1573 27.4971 17.1573C26.9778 17.1573 26.5736 17.059 26.2781 16.8594C25.9827 16.6598 25.7526 16.3834 25.5878 16.0272C25.423 15.671 25.2178 15.1458 24.9721 14.4487C24.8291 13.9666 24.6021 13.5889 24.2911 13.3186C23.9802 13.0484 23.4111 12.9133 22.5747 12.9133C21.8253 12.9133 21.1536 13.1037 20.5566 13.4875C19.9595 13.8714 19.661 14.375 19.661 15.0015C19.661 15.4284 19.7823 15.8337 20.028 16.2176C20.2736 16.6015 20.5721 16.9638 20.9235 17.3047C21.2749 17.6456 21.8253 18.1277 22.5747 18.7542C23.9833 19.8904 25.0095 20.8486 25.65 21.6316C26.2906 22.4117 26.6109 23.379 26.6109 24.5306C26.6109 25.4672 26.3372 26.3578 25.7899 27.1931C25.2427 28.0315 24.3378 28.7132 23.0722 29.2383C21.8066 29.7635 20.1865 30.0276 18.2182 30.0276C15.3823 30.0276 13.3922 29.5116 12.2416 28.4829C11.0911 27.4541 10.5158 26.4561 10.5158 25.4887C10.5158 24.85 10.7397 24.288 11.1844 23.8059C11.6291 23.3237 12.2199 23.0811 12.9537 23.0811C14.4214 23.0811 15.261 24.0116 15.4787 25.8726C15.5782 26.668 15.8052 27.2975 16.1597 27.7581C16.511 28.2188 17.2418 28.4522 18.3488 28.4522C19.3128 28.4522 20.1026 28.2096 20.7214 27.7274C21.3402 27.2453 21.648 26.628 21.648 25.8726C21.648 25.4764 21.5423 25.0834 21.334 24.6995C21.1256 24.3156 20.6903 23.8458 20.028 23.293C18.8619 22.3257 17.901 21.475 17.1485 20.7349C16.3929 19.9948 15.8207 19.2854 15.432 18.6037C15.0433 17.922 14.8505 17.2034 14.8505 16.451C14.8505 15.7846 15.0744 15.0598 15.5191 14.2768C15.9638 13.4967 16.8065 12.8089 18.0441 12.2192C19.2817 11.6296 20.9577 11.3348 23.0722 11.3348C24.3658 11.3348 25.4603 11.4515 26.3528 11.688C27.2452 11.9244 27.9324 12.2192 28.4144 12.5816C28.8964 12.944 29.2291 13.3278 29.4188 13.7332C29.6054 14.1386 29.6987 14.547 29.6987 14.9585V14.9616Z" fill="#E8FD86"/>
<path d="M50.4362 14.8756C50.4362 15.4591 50.2559 16.1285 49.8983 16.8901C49.5376 17.6517 48.8815 18.4563 47.9237 19.31C46.966 20.1637 45.6009 20.9161 43.8222 21.5702C42.0467 22.2243 39.8109 22.6727 37.1212 22.9122L36.6019 22.9552C36.4868 23.5233 36.4308 24.0485 36.4308 24.5337C36.4308 25.5839 36.6858 26.3424 37.1958 26.8031C37.7057 27.2637 38.452 27.4971 39.4284 27.4971C41.5865 27.4971 43.6512 26.3455 45.6227 24.0454H47.9113C47.0189 25.3966 45.6662 26.7294 43.8533 28.053C42.0405 29.3735 39.8887 30.0337 37.401 30.0337C35.6752 30.0337 34.1951 29.5761 32.9668 28.6579C31.7354 27.7428 31.1228 26.3947 31.1228 24.6197C31.1228 22.4454 31.7354 20.3326 32.9575 18.2782C34.1795 16.2237 35.8493 14.5562 37.9638 13.2695C40.0783 11.9828 42.3794 11.3409 44.8702 11.3409C46.8696 11.3409 48.2969 11.6757 49.152 12.3421C50.0071 13.0085 50.4362 13.856 50.4362 14.8787V14.8756ZM45.8839 14.7896C45.8839 14.3198 45.7191 13.8898 45.3863 13.4998C45.0567 13.1098 44.6027 12.9133 44.0275 12.9133C43.02 12.9133 42.0964 13.2572 41.2537 13.9482C40.4111 14.6361 39.7021 15.4499 39.1299 16.3896C38.5547 17.3262 38.082 18.2782 37.7151 19.2455C37.3481 20.2129 37.1212 20.8086 37.0341 21.0359C39.954 20.5537 42.1586 19.7369 43.6481 18.5853C45.1376 17.4337 45.8808 16.1715 45.8808 14.7927L45.8839 14.7896ZM48.9903 1.342L42.6251 8.62932H41.0703L43.3371 1.342H48.9903Z" fill="#E8FD86"/>
<path d="M61.7643 13.7885C61.7643 17.1849 61.2419 20.3142 60.2002 23.1763C59.1585 26.0384 57.8494 28.5382 56.2729 30.6786C54.6963 32.816 53.1571 34.5787 51.6552 35.9637C50.1533 37.3487 48.5363 38.7152 46.8105 40.0664L45.321 38.617C46.7732 37.3087 47.9766 36.1387 48.925 35.1007C49.8734 34.0628 50.8498 32.6594 51.848 30.8905C52.8493 29.1216 53.8225 26.9229 54.771 24.2941C55.8344 21.3952 56.6616 18.6313 57.2524 16.0057C57.8432 13.377 58.1386 10.779 58.1386 8.20553C58.1386 7.16755 58.0484 5.97296 57.8681 4.61561C57.6877 3.25826 57.3892 1.98382 56.9725 0.789229L58.916 0C59.1306 0.469852 59.398 1.16081 59.7152 2.07902C60.0323 2.99416 60.3402 4.04749 60.6418 5.23287C60.9434 6.41825 61.2046 7.75717 61.4285 9.24965C61.6524 10.7421 61.7643 12.253 61.7643 13.7885Z" fill="#E8FD86"/>
</svg>
