<svg width="48" height="48" viewBox="0 0 48 48" fill="none" xmlns="http://www.w3.org/2000/svg">
<path d="M19.1567 1.73878C17.2969 3.4645 15.8555 4.89934 14.8325 6.03675C13.8094 7.17743 12.7112 8.79203 11.5378 10.8871C10.3644 12.9821 9.23353 15.5642 8.14512 18.63C7.35741 20.81 6.67429 22.9312 6.09576 25.0034C5.51724 27.0723 5.05965 29.151 4.72626 31.2363C4.3896 33.3215 4.22291 35.4558 4.22291 37.6326C4.22291 40.8323 4.66743 43.7478 5.55646 46.3788L3.29465 47.3103C2.85994 46.2546 2.39908 44.9375 1.91208 43.3654C1.42507 41.79 0.987089 39.8976 0.5916 37.6848C0.19611 35.4721 0 33.2594 0 31.05C0 27.0102 0.611211 23.3169 1.83363 19.9635C3.05605 16.6134 4.58245 13.6783 6.40954 11.1649C8.23664 8.65148 10.0637 6.53682 11.8908 4.81763C13.7179 3.09844 15.5516 1.51326 17.395 0.055542L19.1534 1.73878H19.1567Z" fill="#E8E5D5"/>
<path d="M34.5909 18.63C34.5909 19.653 34.2935 20.5061 33.6986 21.1924C33.1037 21.8788 32.3193 22.222 31.3486 22.222C30.6262 22.222 30.0444 22.0193 29.5999 21.6173C29.1554 21.2153 28.9331 20.6956 28.9331 20.0583C28.9331 19.689 28.9985 19.2445 29.1358 18.7248C29.2861 18.2737 29.3613 17.8619 29.3613 17.4926C29.3613 16.7049 29.0966 16.1721 28.5703 15.8976C28.0408 15.6198 27.5277 15.4825 27.0243 15.4825C25.5502 15.4825 24.1742 16.2833 22.9027 17.8815C21.628 19.483 20.6181 21.3689 19.8728 23.5359C19.1276 25.7061 18.755 27.4874 18.755 28.8765C18.755 30.4028 19.1211 31.3736 19.85 31.7919C20.5788 32.2103 21.3273 32.4195 22.0987 32.4195C23.6055 32.4195 24.9815 32.0142 26.2203 31.2003C27.459 30.3865 28.5082 29.4517 29.3613 28.396H32.0774C30.8877 30.1904 29.2208 31.805 27.0734 33.2464C24.9292 34.6877 22.5301 35.4068 19.8826 35.4068C17.5522 35.4068 15.7512 34.8283 14.4765 33.6713C13.2018 32.5142 12.5645 30.9487 12.5645 28.9713C12.5645 26.6409 13.2345 24.2484 14.5746 21.7938C15.9147 19.3392 17.7745 17.3194 20.1539 15.7342C22.5334 14.149 25.1645 13.358 28.0474 13.358C29.1031 13.358 30.0281 13.5018 30.8256 13.7862C31.6198 14.0705 32.303 14.4595 32.875 14.9563C33.4437 15.4498 33.8718 16.0153 34.1562 16.6526C34.4406 17.2899 34.5844 17.9436 34.5844 18.6136L34.5909 18.63Z" fill="#E8E5D5"/>
<path d="M47.5858 16.2669C47.5858 20.274 46.9778 23.964 45.7619 27.3403C44.5461 30.7166 43.0229 33.668 41.186 36.1879C39.3524 38.7112 37.558 40.7866 35.8061 42.4208C34.0541 44.055 32.1748 45.6663 30.1614 47.2613L28.4258 45.552C30.1189 44.0093 31.5178 42.6267 32.6225 41.4043C33.7273 40.1819 34.8647 38.5249 36.0283 36.4396C37.1919 34.3544 38.3294 31.7592 39.4341 28.6608C40.6729 25.242 41.6371 21.9834 42.3235 18.8817C43.0099 15.7799 43.3531 12.7141 43.3531 9.68106C43.3531 8.45867 43.2485 7.04671 43.0393 5.44519C42.8301 3.84366 42.4804 2.34019 41.9966 0.931499L44.2584 0C44.5101 0.552363 44.8206 1.36947 45.1899 2.45131C45.5593 3.53316 45.9188 4.77189 46.2718 6.17078C46.6248 7.56966 46.9288 9.1483 47.1903 10.91C47.4485 12.6684 47.5792 14.4529 47.5792 16.2637L47.5858 16.2669Z" fill="#E8E5D5"/>
</svg>
