<svg width="111" height="111" viewBox="0 0 111 111" fill="none" xmlns="http://www.w3.org/2000/svg">
<path d="M34 55.5L55.5 77L34 55.5ZM55.5 77L77 55.5L55.5 77ZM55.5 77V34V77ZM109.25 55.5C109.25 85.1851 85.1851 109.25 55.5 109.25C25.8147 109.25 1.75 85.1851 1.75 55.5C1.75 25.8147 25.8147 1.75 55.5 1.75C85.1851 1.75 109.25 25.8147 109.25 55.5Z" fill="black" fill-opacity="0.3"/>
<path d="M34 55.5L55.5 77M55.5 77L77 55.5M55.5 77V34M109.25 55.5C109.25 85.185 85.185 109.25 55.5 109.25C25.8147 109.25 1.75 85.185 1.75 55.5C1.75 25.8147 25.8147 1.75 55.5 1.75C85.185 1.75 109.25 25.8147 109.25 55.5Z" stroke="#E8FD86" stroke-width="2" stroke-linecap="round" stroke-linejoin="round"/>
</svg>
