<svg width="19" height="21" viewBox="0 0 19 21" fill="none" xmlns="http://www.w3.org/2000/svg">
<path d="M9.3573 13.5C6.1872 13.5 3.36807 15.0306 1.57327 17.406C1.18698 17.9172 0.99383 18.1728 1.00015 18.5183C1.00503 18.7852 1.17263 19.1219 1.38264 19.2867C1.65446 19.5 2.03114 19.5 2.7845 19.5H15.93C16.6834 19.5 17.0601 19.5 17.3319 19.2867C17.5419 19.1219 17.7095 18.7852 17.7144 18.5183C17.7207 18.1728 17.5276 17.9172 17.1413 17.406C15.3465 15.0306 12.5273 13.5 9.3573 13.5Z" stroke="#E6F4D1" stroke-width="2" stroke-linecap="round" stroke-linejoin="round"/>
<path d="M9.35745 10.5C11.8428 10.5 13.8575 8.48528 13.8575 6C13.8575 3.51472 11.8428 1.5 9.35745 1.5C6.87214 1.5 4.85742 3.51472 4.85742 6C4.85742 8.48528 6.87214 10.5 9.35745 10.5Z" stroke="#E6F4D1" stroke-width="2" stroke-linecap="round" stroke-linejoin="round"/>
</svg>
