<svg width="20" height="48" viewBox="0 0 20 48" fill="none" xmlns="http://www.w3.org/2000/svg">
<path d="M19.1567 1.73548C17.2969 3.46121 15.8555 4.89604 14.8325 6.03345C13.8094 7.17413 12.7112 8.78873 11.5378 10.8838C10.3644 12.9788 9.23353 15.5609 8.14512 18.6267C7.35741 20.8067 6.67429 22.9279 6.09576 25.0001C5.51724 27.069 5.05965 29.1477 4.72626 31.233C4.3896 33.3182 4.22291 35.4525 4.22291 37.6293C4.22291 40.829 4.66743 43.7445 5.55646 46.3755L3.29465 47.307C2.85994 46.2513 2.39908 44.9342 1.91208 43.3621C1.42507 41.7867 0.987089 39.8943 0.5916 37.6816C0.19611 35.4688 0 33.2561 0 31.0467C0 27.0069 0.611211 23.3136 1.83363 19.9602C3.05605 16.6101 4.58245 13.675 6.40954 11.1616C8.23664 8.64819 10.0637 6.53352 11.8908 4.81433C13.7179 3.09514 15.5516 1.50996 17.395 0.0522461L19.1534 1.73548H19.1567Z" fill="#E8FD86"/>
</svg>
