<svg width="20" height="48" viewBox="0 0 20 48" fill="none" xmlns="http://www.w3.org/2000/svg">
<path d="M19.5858 16.2636C19.5858 20.2707 18.9778 23.9608 17.7619 27.337C16.5461 30.7133 15.0229 33.6647 13.186 36.1846C11.3524 38.7079 9.55799 40.7833 7.80607 42.4175C6.05415 44.0517 4.17476 45.6631 2.16136 47.258L0.425781 45.5487C2.11887 44.006 3.51779 42.6234 4.62254 41.401C5.7273 40.1786 6.86474 38.5216 8.02833 36.4363C9.19192 34.3511 10.3294 31.7559 11.4341 28.6575C12.6729 25.2387 13.6371 21.9801 14.3235 18.8784C15.0099 15.7766 15.353 12.7109 15.353 9.67776C15.353 8.45537 15.2485 7.04342 15.0393 5.44189C14.8301 3.84036 14.4804 2.33689 13.9966 0.928203L16.2584 -0.0032959C16.5101 0.549067 16.8206 1.36617 17.1899 2.44802C17.5593 3.52986 17.9188 4.7686 18.2718 6.16748C18.6248 7.56636 18.9288 9.14501 19.1903 10.9067C19.4485 12.6651 19.5792 14.4497 19.5792 16.2604L19.5858 16.2636Z" fill="#E8FD86"/>
</svg>
