<svg width="23" height="23" viewBox="0 0 23 23" fill="none" xmlns="http://www.w3.org/2000/svg">
<path d="M22.5909 5.6267C22.5909 6.64971 22.2935 7.50277 21.6986 8.18914C21.1037 8.8755 20.3193 9.21869 19.3486 9.21869C18.6262 9.21869 18.0444 9.01605 17.5999 8.61403C17.1554 8.21201 16.9331 7.69234 16.9331 7.055C16.9331 6.68566 16.9985 6.24116 17.1358 5.72148C17.2861 5.27044 17.3613 4.85862 17.3613 4.48929C17.3613 3.7016 17.0966 3.16885 16.5703 2.8943C16.0408 2.61648 15.5277 2.47921 15.0243 2.47921C13.5502 2.47921 12.1742 3.27997 10.9027 4.87823C9.62802 6.47975 8.61805 8.36563 7.87283 10.5326C7.12761 12.7028 6.75501 14.4841 6.75501 15.8732C6.75501 17.3995 7.12108 18.3703 7.84995 18.7886C8.57883 19.207 9.32732 19.4162 10.0987 19.4162C11.6055 19.4162 12.9815 19.0109 14.2203 18.197C15.459 17.3832 16.5082 16.4484 17.3613 15.3927H20.0774C18.8877 17.1871 17.2208 18.8017 15.0734 20.2431C12.9292 21.6844 10.5301 22.4035 7.88264 22.4035C5.5522 22.4035 3.75125 21.825 2.47653 20.668C1.20181 19.5109 0.564453 17.9454 0.564453 15.968C0.564453 13.6376 1.2345 11.2451 2.57459 8.79052C3.91467 6.33594 5.77445 4.31606 8.15393 2.73088C10.5334 1.14569 13.1645 0.354736 16.0474 0.354736C17.1031 0.354736 18.0281 0.498546 18.8256 0.782898C19.6198 1.06725 20.303 1.45619 20.875 1.95299C21.4437 2.44652 21.8718 3.01196 22.1562 3.6493C22.4406 4.28664 22.5844 4.94033 22.5844 5.61035L22.5909 5.6267Z" fill="#E8FD86"/>
</svg>
