<svg width="56" height="56" viewBox="0 0 56 56" fill="none" xmlns="http://www.w3.org/2000/svg">
<circle cx="27.6797" cy="27.6797" r="27.1797" fill="#190905" stroke="#190905"/>
<path d="M27.7174 35.4516L27.6201 35.3227C26.9451 34.4283 26.6076 33.9811 26.1617 33.6573C25.7669 33.3707 25.3121 33.1556 24.8231 33.0245C24.2708 32.8763 23.6624 32.8763 22.4455 32.8763H21.1096C20.0211 32.8763 19.4769 32.8763 19.0612 32.6892C18.6955 32.5246 18.3981 32.2619 18.2118 31.9389C18 31.5717 18 31.0909 18 30.1294V22.7469C18 21.7854 18 21.3047 18.2118 20.9374C18.3981 20.6144 18.6955 20.3517 19.0612 20.1871C19.4769 20 20.0211 20 21.1096 20H21.4982C23.6751 20 24.7636 20 25.595 20.3742C26.3264 20.7034 26.921 21.2287 27.2937 21.8748C27.7174 22.6093 27.7174 23.5708 27.7174 25.4939M27.7174 35.4516V25.4939V35.4516ZM27.7174 35.4516L27.8146 35.3227C28.4896 34.4283 28.8271 33.9811 29.273 33.6573C29.6677 33.3707 30.1226 33.1556 30.6116 33.0245C31.1638 32.8763 31.7723 32.8763 32.9892 32.8763H34.3251C35.4136 32.8763 35.9579 32.8763 36.3736 32.6892C36.7392 32.5246 37.0366 32.2619 37.2229 31.9389C37.4347 31.5717 37.4347 31.0909 37.4347 30.1294V22.7469C37.4347 21.7854 37.4347 21.3047 37.2229 20.9374C37.0366 20.6144 36.7392 20.3517 36.3736 20.1871C35.9579 20 35.4136 20 34.3251 20H33.9365C31.7596 20 30.6711 20 29.8396 20.3742C29.1083 20.7034 28.5137 21.2287 28.141 21.8748C27.7174 22.6093 27.7174 23.5708 27.7174 25.4939" fill="#190905"/>
<path d="M27.7174 35.4516L27.6201 35.3227C26.9451 34.4283 26.6076 33.9811 26.1617 33.6573C25.7669 33.3707 25.3121 33.1556 24.8231 33.0245C24.2708 32.8763 23.6624 32.8763 22.4455 32.8763H21.1096C20.0211 32.8763 19.4769 32.8763 19.0612 32.6892C18.6955 32.5246 18.3981 32.2619 18.2118 31.9389C18 31.5717 18 31.0909 18 30.1294V22.7469C18 21.7854 18 21.3047 18.2118 20.9374C18.3981 20.6144 18.6955 20.3517 19.0612 20.1871C19.4769 20 20.0211 20 21.1096 20H21.4982C23.6751 20 24.7636 20 25.595 20.3742C26.3264 20.7034 26.921 21.2287 27.2937 21.8748C27.7174 22.6093 27.7174 23.5708 27.7174 25.4939M27.7174 35.4516V25.4939M27.7174 35.4516L27.8146 35.3227C28.4896 34.4283 28.8271 33.9811 29.273 33.6573C29.6677 33.3707 30.1226 33.1556 30.6116 33.0245C31.1638 32.8763 31.7723 32.8763 32.9892 32.8763H34.3251C35.4136 32.8763 35.9579 32.8763 36.3736 32.6892C36.7392 32.5246 37.0366 32.2619 37.2229 31.9389C37.4347 31.5717 37.4347 31.0909 37.4347 30.1294V22.7469C37.4347 21.7854 37.4347 21.3047 37.2229 20.9374C37.0366 20.6144 36.7392 20.3517 36.3736 20.1871C35.9579 20 35.4136 20 34.3251 20H33.9365C31.7596 20 30.6711 20 29.8396 20.3742C29.1083 20.7034 28.5137 21.2287 28.141 21.8748C27.7174 22.6093 27.7174 23.5708 27.7174 25.4939" stroke="#E8E5D5" stroke-width="2" stroke-linecap="round" stroke-linejoin="round"/>
</svg>
