<svg width="40" height="40" viewBox="0 0 40 40" fill="none" xmlns="http://www.w3.org/2000/svg">
<path d="M4.16777 21.6667H14.1678M25.8345 21.6667H35.8345M20.0012 11.6667V35M20.0012 11.6667C22.3023 11.6667 24.1678 9.80122 24.1678 7.50004M20.0012 11.6667C17.7 11.6667 15.8344 9.80122 15.8344 7.50004M24.1678 7.50004C24.1678 5.19886 22.3023 3.33337 20.0012 3.33337C17.7 3.33337 15.8344 5.19886 15.8344 7.50004M24.1678 7.50004H33.3345M15.8344 7.50004L6.66777 7.50006M6.66777 35H33.3345M14.8018 23.894C14.134 26.451 11.8646 28.3334 9.16777 28.3334C6.47094 28.3334 4.20154 26.451 3.53372 23.894C3.47916 23.685 3.45187 23.5805 3.44924 23.1632C3.44762 22.9072 3.54272 22.3174 3.62464 22.0749C3.75829 21.6794 3.90296 21.4562 4.19231 21.0099L9.16777 13.3334L14.1433 21.0099C14.4326 21.4562 14.5773 21.6794 14.7109 22.0749C14.7928 22.3174 14.8879 22.9072 14.8863 23.1632C14.8837 23.5805 14.8564 23.685 14.8018 23.894ZM36.4685 23.894C35.8007 26.451 33.5313 28.3334 30.8345 28.3334C28.1377 28.3334 25.8682 26.451 25.2003 23.894C25.1458 23.685 25.1185 23.5805 25.1158 23.1632C25.1143 22.9072 25.2093 22.3174 25.2913 22.0749C25.425 21.6794 25.5697 21.4562 25.859 21.0099L30.8345 13.3334L35.81 21.0099C36.0993 21.4562 36.244 21.6794 36.3777 22.0749C36.4595 22.3174 36.5547 22.9072 36.553 23.1632C36.5503 23.5805 36.5232 23.685 36.4685 23.894Z" stroke="#190905" stroke-width="2" stroke-linecap="round" stroke-linejoin="round"/>
</svg>
