<svg width="40" height="40" viewBox="0 0 40 40" fill="none" xmlns="http://www.w3.org/2000/svg">
<path d="M15.833 36.6667H24.1663M16.6663 16.6667H23.333M19.9997 16.6667V26.6667M24.9997 25.544C28.9412 23.6715 31.6663 19.654 31.6663 15C31.6663 8.55668 26.443 3.33333 19.9997 3.33333C13.5564 3.33333 8.33301 8.55668 8.33301 15C8.33301 19.654 11.0581 23.6715 14.9997 25.544V26.6667C14.9997 28.2198 14.9997 28.9963 15.2534 29.609C15.5917 30.4257 16.2406 31.0747 17.0573 31.413C17.67 31.6667 18.4465 31.6667 19.9997 31.6667C21.5528 31.6667 22.3293 31.6667 22.942 31.413C23.7587 31.0747 24.4077 30.4257 24.746 29.609C24.9997 28.9963 24.9997 28.2198 24.9997 26.6667V25.544Z" stroke="#190905" stroke-width="2" stroke-linecap="round" stroke-linejoin="round"/>
</svg>
