<svg width="56" height="56" viewBox="0 0 56 56" fill="none" xmlns="http://www.w3.org/2000/svg">
<circle cx="27.6797" cy="27.6797" r="27.1797" fill="#190905" stroke="#190905"/>
<path d="M31.6043 33.307L33.5478 35.2146L37.4347 31.3994M27.7174 30.4456H23.8304C22.0193 30.4456 21.1138 30.4456 20.3995 30.736C19.4471 31.1233 18.6904 31.866 18.2959 32.8008C18 33.502 18 34.3907 18 36.1684M31.1184 19.2773C32.5429 19.8433 33.5478 21.2141 33.5478 22.8152C33.5478 24.4163 32.5429 25.7871 31.1184 26.353M29.175 22.8152C29.175 24.9223 27.4347 26.6304 25.288 26.6304C23.1413 26.6304 21.4011 24.9223 21.4011 22.8152C21.4011 20.7081 23.1413 19 25.288 19C27.4347 19 29.175 20.7081 29.175 22.8152Z" fill="#190905"/>
<path d="M31.6043 33.307L33.5478 35.2146L37.4347 31.3994M27.7174 30.4456H23.8304C22.0193 30.4456 21.1138 30.4456 20.3995 30.736C19.4471 31.1233 18.6904 31.866 18.2959 32.8008C18 33.502 18 34.3907 18 36.1684M31.1184 19.2773C32.5429 19.8433 33.5478 21.2141 33.5478 22.8152C33.5478 24.4163 32.5429 25.7871 31.1184 26.353M29.175 22.8152C29.175 24.9223 27.4347 26.6304 25.288 26.6304C23.1413 26.6304 21.4011 24.9223 21.4011 22.8152C21.4011 20.7081 23.1413 19 25.288 19C27.4347 19 29.175 20.7081 29.175 22.8152Z" stroke="#E8E5D5" stroke-width="2" stroke-linecap="round" stroke-linejoin="round"/>
</svg>
