<svg width="26" height="52" viewBox="0 0 26 52" fill="none" xmlns="http://www.w3.org/2000/svg">
<path d="M12 25V14H1C0.447715 14 0 13.5523 0 13C0 12.4477 0.447715 12 1 12H12V1C12 0.447715 12.4477 0 13 0C13.5523 0 14 0.447715 14 1V12H25C25.5523 12 26 12.4477 26 13C26 13.5523 25.5523 14 25 14H14V25C14 25.5523 13.5523 26 13 26C12.4477 26 12 25.5523 12 25Z" fill="#E6F4D1"/>
<path d="M25.037 38L25.1358 38.0049C25.6212 38.0562 26 38.4823 26 39C26 39.5177 25.6212 39.9438 25.1358 39.9951L25.037 40H0.962963C0.431133 40 0 39.5523 0 39C0 38.4477 0.431133 38 0.962963 38H25.037Z" fill="black"/>
</svg>
