<svg width="106" height="106" viewBox="0 0 106 106" fill="none" xmlns="http://www.w3.org/2000/svg">
<path d="M42.6723 3.89582C38.5296 7.76235 35.3188 10.9771 33.0399 13.5255C30.761 16.0812 28.3147 19.6988 25.7009 24.3928C23.0872 29.0868 20.568 34.872 18.1436 41.7409C16.3889 46.6254 14.8672 51.378 13.5785 56.0207C12.2899 60.6562 11.2706 65.3136 10.5279 69.9856C9.77801 74.6577 9.40669 79.4396 9.40669 84.3167C9.40669 91.4859 10.3969 98.018 12.3772 103.913L7.33897 106C6.37063 103.635 5.34405 100.684 4.25922 97.1612C3.17439 93.6315 2.19878 89.3915 1.31781 84.4338C0.436843 79.4762 0 74.5185 0 69.5682C0 60.517 1.36149 52.2421 4.08448 44.7287C6.80747 37.2227 10.2076 30.6466 14.2775 25.0153C18.3474 19.3839 22.4173 14.6459 26.4873 10.7941C30.5572 6.94218 34.6417 3.39054 38.748 0.12449L42.665 3.89582H42.6723Z"/>
<path d="M77.0519 41.7409C77.0519 44.033 76.3893 45.9443 75.0642 47.4821C73.7391 49.02 71.9918 49.7889 69.8294 49.7889C68.2204 49.7889 66.9244 49.3348 65.9342 48.4341C64.944 47.5334 64.4489 46.369 64.4489 44.9411C64.4489 44.1136 64.5945 43.1176 64.9003 41.9533C65.2353 40.9427 65.4027 40.02 65.4027 39.1925C65.4027 37.4277 64.813 36.2341 63.6408 35.6189C62.4613 34.9965 61.3182 34.6889 60.197 34.6889C56.9134 34.6889 53.8482 36.483 51.016 40.064C48.1765 43.6522 45.9268 47.8776 44.2668 52.7327C42.6068 57.5952 41.7768 61.5862 41.7768 64.6984C41.7768 68.1183 42.5922 70.2932 44.2158 71.2305C45.8394 72.1679 47.5067 72.6365 49.2249 72.6365C52.5814 72.6365 55.6465 71.7285 58.4059 69.9051C61.1653 68.0817 63.5024 65.9873 65.4027 63.622H71.453C68.8028 67.6423 65.0896 71.2598 60.3062 74.4893C55.5301 77.7187 50.186 79.3297 44.2886 79.3297C39.0975 79.3297 35.0858 78.0336 32.2463 75.4412C29.4068 72.8489 27.9871 69.3412 27.9871 64.9108C27.9871 59.6895 29.4796 54.3291 32.4647 48.8296C35.4498 43.33 39.5926 38.8044 44.8929 35.2528C50.1933 31.7011 56.0543 29.929 62.4759 29.929C64.8275 29.929 66.888 30.2512 68.6645 30.8883C70.4337 31.5254 71.9554 32.3968 73.2295 33.5099C74.4963 34.6157 75.4501 35.8826 76.0835 37.3105C76.7169 38.7385 77.0373 40.2031 77.0373 41.7043L77.0519 41.7409Z"/>
<path d="M106 36.4464C106 45.4244 104.646 53.692 101.937 61.2566C99.2289 68.8213 95.8361 75.4339 91.7444 81.0799C87.6599 86.7333 83.6628 91.3833 79.7603 95.0448C75.8578 98.7063 71.6714 102.317 67.1865 105.89L63.3204 102.06C67.0918 98.6038 70.208 95.5062 72.6689 92.7674C75.1298 90.0286 77.6634 86.3159 80.2554 81.6438C82.8473 76.9717 85.381 71.1573 87.8419 64.2151C90.6013 56.5553 92.7491 49.2543 94.278 42.3048C95.807 35.3553 96.5715 28.4864 96.5715 21.6906C96.5715 18.9518 96.3385 15.7883 95.8725 12.2001C95.4065 8.61181 94.6275 5.24325 93.55 2.08705L98.5882 0C99.1489 1.23758 99.8405 3.06832 100.663 5.49223C101.486 7.91613 102.287 10.6915 103.073 13.8258C103.859 16.96 104.537 20.497 105.119 24.4441C105.694 28.3838 105.985 32.3822 105.985 36.4391L106 36.4464Z"/>
<style>
  path { fill: #190905; }
  @media (prefers-color-scheme: dark) {
    path { fill: #E8FD86; }
  }
</style>
</svg>
